<?xml version="1.0" encoding="UTF-8" standalone="no"?>
<!DOCTYPE svg PUBLIC "-//W3C//DTD SVG 1.1//EN"
 "http://www.w3.org/Graphics/SVG/1.1/DTD/svg11.dtd">
<!-- Generated by graphviz version 2.40.1 (20161225.0304)
 -->
<!-- Title: %3 Pages: 1 -->
<svg width="562pt" height="432pt"
 viewBox="0.00 0.00 561.63 432.00" xmlns="http://www.w3.org/2000/svg" xmlns:xlink="http://www.w3.org/1999/xlink">
<g id="graph0" class="graph" transform="scale(1 1) rotate(0) translate(4 428)">
<title>%3</title>
<polygon fill="#ffffff" stroke="transparent" points="-4,4 -4,-428 557.6328,-428 557.6328,4 -4,4"/>
<!-- node_12 -->
<g id="node1" class="node">
<title>node_12</title>
<polygon fill="none" stroke="#000000" points="275.718,-424 201.0984,-424 201.0984,-388 275.718,-388 275.718,-424"/>
<text text-anchor="middle" x="238.4082" y="-401.8" font-family="Courier,monospace" font-size="14.00" fill="#000000">node:12</text>
</g>
<!-- node_12_slim -->
<g id="node2" class="node">
<title>node_12_slim</title>
<polygon fill="none" stroke="#000000" points="116.7248,-158 .0917,-158 .0917,-122 116.7248,-122 116.7248,-158"/>
<text text-anchor="middle" x="58.4082" y="-135.8" font-family="Courier,monospace" font-size="14.00" fill="#000000">node:12&#45;slim</text>
</g>
<!-- development_backend -->
<g id="node3" class="node">
<title>development_backend</title>
<ellipse fill="none" stroke="#000000" cx="173.4082" cy="-212" rx="110.8775" ry="18"/>
<text text-anchor="middle" x="173.4082" y="-207.8" font-family="Courier,monospace" font-size="14.00" fill="#000000">development&#45;backend</text>
</g>
<!-- development_backend&#45;&gt;node_12 -->
<g id="edge1" class="edge">
<title>development_backend&#45;&gt;node_12</title>
<path fill="none" stroke="#000000" d="M179.5232,-230.251C190.9487,-264.3517 215.5986,-337.922 229.1003,-378.2196"/>
<polygon fill="#000000" stroke="#000000" points="225.8611,-379.5688 232.3568,-387.9388 232.4984,-377.3449 225.8611,-379.5688"/>
<text text-anchor="middle" x="220.2109" y="-279.8" font-family="Courier,monospace" font-size="14.00" fill="#000000">FROM</text>
</g>
<!-- development_frontend -->
<g id="node4" class="node">
<title>development_frontend</title>
<ellipse fill="none" stroke="#000000" cx="402.4082" cy="-284" rx="116.4919" ry="18"/>
<text text-anchor="middle" x="402.4082" y="-279.8" font-family="Courier,monospace" font-size="14.00" fill="#000000">development&#45;frontend</text>
</g>
<!-- development_frontend&#45;&gt;node_12 -->
<g id="edge2" class="edge">
<title>development_frontend&#45;&gt;node_12</title>
<path fill="none" stroke="#000000" d="M378.5612,-301.7398C350.1816,-322.8515 302.6556,-358.2062 270.9232,-381.812"/>
<polygon fill="#000000" stroke="#000000" points="268.7539,-379.0635 262.8195,-387.8404 272.932,-384.6799 268.7539,-379.0635"/>
<text text-anchor="middle" x="345.4116" y="-340.8" font-family="Courier,monospace" font-size="14.00" fill="#000000"> FROM</text>
</g>
<!-- build_frontend -->
<g id="node5" class="node">
<title>build_frontend</title>
<ellipse fill="none" stroke="#000000" cx="411.4082" cy="-140" rx="84.3082" ry="18"/>
<text text-anchor="middle" x="411.4082" y="-135.8" font-family="Courier,monospace" font-size="14.00" fill="#000000">build&#45;frontend</text>
</g>
<!-- build_frontend&#45;&gt;development_frontend -->
<g id="edge3" class="edge">
<title>build_frontend&#45;&gt;development_frontend</title>
<path fill="none" stroke="#000000" d="M410.2683,-158.2377C408.7333,-182.799 405.9862,-226.7526 404.1803,-255.6459"/>
<polygon fill="#000000" stroke="#000000" points="400.6695,-255.7115 403.5388,-265.9104 407.6559,-256.1482 400.6695,-255.7115"/>
<text text-anchor="middle" x="428.4116" y="-207.8" font-family="Courier,monospace" font-size="14.00" fill="#000000"> FROM</text>
</g>
<!-- production -->
<g id="node6" class="node">
<title>production</title>
<ellipse fill="none" stroke="#000000" cx="148.4082" cy="-18" rx="63.353" ry="18"/>
<text text-anchor="middle" x="148.4082" y="-13.8" font-family="Courier,monospace" font-size="14.00" fill="#000000">production</text>
</g>
<!-- production&#45;&gt;node_12_slim -->
<g id="edge4" class="edge">
<title>production&#45;&gt;node_12_slim</title>
<path fill="none" stroke="#000000" d="M107.8244,-31.9868C89.5764,-40.5283 69.7945,-53.4505 59.1973,-72 52.4714,-83.7731 51.6213,-98.6681 52.7287,-111.5147"/>
<polygon fill="#000000" stroke="#000000" points="49.2923,-112.2357 54.0333,-121.7106 56.2357,-111.3472 49.2923,-112.2357"/>
<text text-anchor="middle" x="93.0137" y="-74.8" font-family="Courier,monospace" font-size="14.00" fill="#000000">FROM &#160;&#160;&#160;</text>
</g>
<!-- production&#45;&gt;development_backend -->
<g id="edge5" class="edge">
<title>production&#45;&gt;development_backend</title>
<path fill="none" stroke="#000000" stroke-dasharray="5,2" d="M147.2809,-36.4862C146.7013,-46.9108 146.0574,-60.1769 145.7686,-72 145.6166,-78.2204 145.098,-79.814 145.7686,-86 149.4805,-120.245 158.7093,-158.8235 165.4859,-184.1665"/>
<polygon fill="#000000" stroke="#000000" points="162.117,-185.1162 168.1264,-193.8419 168.8701,-183.2732 162.117,-185.1162"/>
<text text-anchor="middle" x="268.228" y="-74.8" font-family="Courier,monospace" font-size="14.00" fill="#000000"> COPY node_modules &#45;&#45;from &#160;&#160;&#160;</text>
</g>
<!-- production&#45;&gt;build_frontend -->
<g id="edge6" class="edge">
<title>production&#45;&gt;build_frontend</title>
<path fill="none" stroke="#000000" stroke-dasharray="5,2" d="M207.9976,-24.0172C271.7599,-31.6546 367.2771,-46.9398 393.4082,-72 404.0842,-82.2385 408.6872,-98.0113 410.574,-111.7893"/>
<polygon fill="#000000" stroke="#000000" points="407.0968,-112.1951 411.543,-121.8118 414.0643,-111.5214 407.0968,-112.1951"/>
<text text-anchor="middle" x="478.0205" y="-74.8" font-family="Courier,monospace" font-size="14.00" fill="#000000"> COPY dist &#45;&#45;from </text>
</g>
</g>
</svg>
