<?xml version="1.0" encoding="UTF-8" standalone="no"?>
<!DOCTYPE svg PUBLIC "-//W3C//DTD SVG 1.1//EN"
 "http://www.w3.org/Graphics/SVG/1.1/DTD/svg11.dtd">
<!-- Generated by graphviz version 2.40.1 (20161225.0304)
 -->
<!-- Title: %3 Pages: 1 -->
<svg width="695pt" height="431pt"
 viewBox="0.00 0.00 694.61 431.00" xmlns="http://www.w3.org/2000/svg" xmlns:xlink="http://www.w3.org/1999/xlink">
<g id="graph0" class="graph" transform="scale(1 1) rotate(0) translate(4 427)">
<title>%3</title>
<polygon fill="#ffffff" stroke="transparent" points="-4,4 -4,-427 690.6055,-427 690.6055,4 -4,4"/>
<!-- s0_1_1_0 -->
<g id="node1" class="node">
<title>s0_1_1_0</title>
<polygon fill="none" stroke="#000000" points="414,-378.5 414,-422.5 479.6055,-422.5 479.6055,-378.5 414,-378.5"/>
<text text-anchor="middle" x="430.4014" y="-407.3" font-family="Courier,monospace" font-size="14.00" fill="#000000">  </text>
<polyline fill="none" stroke="#000000" points="446.8027,-400.5 446.8027,-422.5 "/>
<text text-anchor="middle" x="463.2041" y="-407.3" font-family="Courier,monospace" font-size="14.00" fill="#000000"> 2</text>
<polyline fill="none" stroke="#000000" points="414,-400.5 479.6055,-400.5 "/>
<text text-anchor="middle" x="430.4014" y="-385.3" font-family="Courier,monospace" font-size="14.00" fill="#000000"> 2</text>
<polyline fill="none" stroke="#000000" points="446.8027,-378.5 446.8027,-400.5 "/>
<text text-anchor="middle" x="463.2041" y="-385.3" font-family="Courier,monospace" font-size="14.00" fill="#000000">  </text>
</g>
<!-- up -->
<g id="node6" class="node">
<title>up</title>
<ellipse fill="none" stroke="#000000" cx="446.8027" cy="-324" rx="27" ry="18"/>
<text text-anchor="middle" x="446.8027" y="-319.8" font-family="Courier,monospace" font-size="14.00" fill="#000000">up</text>
</g>
<!-- s0_1_1_0&#45;&gt;up -->
<g id="edge1" class="edge">
<title>s0_1_1_0&#45;&gt;up</title>
<path fill="none" stroke="#000000" d="M446.8027,-378.373C446.8027,-370.2163 446.8027,-360.8623 446.8027,-352.2386"/>
<polygon fill="#000000" stroke="#000000" points="450.3028,-352.2113 446.8027,-342.2113 443.3028,-352.2113 450.3028,-352.2113"/>
</g>
<!-- s1_1_1_0 -->
<g id="node2" class="node">
<title>s1_1_1_0</title>
<polygon fill="none" stroke="#000000" points="207,-225.5 207,-269.5 272.6055,-269.5 272.6055,-225.5 207,-225.5"/>
<text text-anchor="middle" x="223.4014" y="-254.3" font-family="Courier,monospace" font-size="14.00" fill="#000000"> 2</text>
<polyline fill="none" stroke="#000000" points="239.8027,-247.5 239.8027,-269.5 "/>
<text text-anchor="middle" x="256.2041" y="-254.3" font-family="Courier,monospace" font-size="14.00" fill="#000000"> 2</text>
<polyline fill="none" stroke="#000000" points="207,-247.5 272.6055,-247.5 "/>
<text text-anchor="middle" x="223.4014" y="-232.3" font-family="Courier,monospace" font-size="14.00" fill="#000000"> 2</text>
<polyline fill="none" stroke="#000000" points="239.8027,-225.5 239.8027,-247.5 "/>
<text text-anchor="middle" x="256.2041" y="-232.3" font-family="Courier,monospace" font-size="14.00" fill="#000000">  </text>
</g>
<!-- left -->
<g id="node14" class="node">
<title>left</title>
<ellipse fill="none" stroke="#000000" cx="239.8027" cy="-171" rx="31.1701" ry="18"/>
<text text-anchor="middle" x="239.8027" y="-166.8" font-family="Courier,monospace" font-size="14.00" fill="#000000">left</text>
</g>
<!-- s1_1_1_0&#45;&gt;left -->
<g id="edge9" class="edge">
<title>s1_1_1_0&#45;&gt;left</title>
<path fill="none" stroke="#000000" d="M239.8027,-225.373C239.8027,-217.2163 239.8027,-207.8623 239.8027,-199.2386"/>
<polygon fill="#000000" stroke="#000000" points="243.3028,-199.2113 239.8027,-189.2113 236.3028,-199.2113 243.3028,-199.2113"/>
</g>
<!-- s1_1_2_0 -->
<g id="node3" class="node">
<title>s1_1_2_0</title>
<polygon fill="none" stroke="#000000" points="345,-225.5 345,-269.5 410.6055,-269.5 410.6055,-225.5 345,-225.5"/>
<text text-anchor="middle" x="361.4014" y="-254.3" font-family="Courier,monospace" font-size="14.00" fill="#000000"> 2</text>
<polyline fill="none" stroke="#000000" points="377.8027,-247.5 377.8027,-269.5 "/>
<text text-anchor="middle" x="394.2041" y="-254.3" font-family="Courier,monospace" font-size="14.00" fill="#000000"> 2</text>
<polyline fill="none" stroke="#000000" points="345,-247.5 410.6055,-247.5 "/>
<text text-anchor="middle" x="361.4014" y="-232.3" font-family="Courier,monospace" font-size="14.00" fill="#000000"> 4</text>
<polyline fill="none" stroke="#000000" points="377.8027,-225.5 377.8027,-247.5 "/>
<text text-anchor="middle" x="394.2041" y="-232.3" font-family="Courier,monospace" font-size="14.00" fill="#000000">  </text>
</g>
<!-- a2 -->
<g id="node7" class="node">
<title>a2</title>
<ellipse fill="none" stroke="#000000" cx="377.8027" cy="-171" rx="27" ry="18"/>
<text text-anchor="middle" x="377.8027" y="-166.8" font-family="Courier,monospace" font-size="14.00" fill="#000000">...</text>
</g>
<!-- s1_1_2_0&#45;&gt;a2 -->
<g id="edge6" class="edge">
<title>s1_1_2_0&#45;&gt;a2</title>
<path fill="none" stroke="#000000" d="M377.8027,-225.373C377.8027,-217.2163 377.8027,-207.8623 377.8027,-199.2386"/>
<polygon fill="#000000" stroke="#000000" points="381.3028,-199.2113 377.8027,-189.2113 374.3028,-199.2113 381.3028,-199.2113"/>
</g>
<!-- s1_1_0_1 -->
<g id="node4" class="node">
<title>s1_1_0_1</title>
<polygon fill="none" stroke="#000000" points="483,-225.5 483,-269.5 548.6055,-269.5 548.6055,-225.5 483,-225.5"/>
<text text-anchor="middle" x="499.4014" y="-254.3" font-family="Courier,monospace" font-size="14.00" fill="#000000"> 2</text>
<polyline fill="none" stroke="#000000" points="515.8027,-247.5 515.8027,-269.5 "/>
<text text-anchor="middle" x="532.2041" y="-254.3" font-family="Courier,monospace" font-size="14.00" fill="#000000"> 2</text>
<polyline fill="none" stroke="#000000" points="483,-247.5 548.6055,-247.5 "/>
<text text-anchor="middle" x="499.4014" y="-232.3" font-family="Courier,monospace" font-size="14.00" fill="#000000">  </text>
<polyline fill="none" stroke="#000000" points="515.8027,-225.5 515.8027,-247.5 "/>
<text text-anchor="middle" x="532.2041" y="-232.3" font-family="Courier,monospace" font-size="14.00" fill="#000000"> 2</text>
</g>
<!-- a3 -->
<g id="node8" class="node">
<title>a3</title>
<ellipse fill="none" stroke="#000000" cx="515.8027" cy="-171" rx="27" ry="18"/>
<text text-anchor="middle" x="515.8027" y="-166.8" font-family="Courier,monospace" font-size="14.00" fill="#000000">...</text>
</g>
<!-- s1_1_0_1&#45;&gt;a3 -->
<g id="edge7" class="edge">
<title>s1_1_0_1&#45;&gt;a3</title>
<path fill="none" stroke="#000000" d="M515.8027,-225.373C515.8027,-217.2163 515.8027,-207.8623 515.8027,-199.2386"/>
<polygon fill="#000000" stroke="#000000" points="519.3028,-199.2113 515.8027,-189.2113 512.3028,-199.2113 519.3028,-199.2113"/>
</g>
<!-- s1_1_0_2 -->
<g id="node5" class="node">
<title>s1_1_0_2</title>
<polygon fill="none" stroke="#000000" points="621,-225.5 621,-269.5 686.6055,-269.5 686.6055,-225.5 621,-225.5"/>
<text text-anchor="middle" x="637.4014" y="-254.3" font-family="Courier,monospace" font-size="14.00" fill="#000000"> 2</text>
<polyline fill="none" stroke="#000000" points="653.8027,-247.5 653.8027,-269.5 "/>
<text text-anchor="middle" x="670.2041" y="-254.3" font-family="Courier,monospace" font-size="14.00" fill="#000000"> 2</text>
<polyline fill="none" stroke="#000000" points="621,-247.5 686.6055,-247.5 "/>
<text text-anchor="middle" x="637.4014" y="-232.3" font-family="Courier,monospace" font-size="14.00" fill="#000000">  </text>
<polyline fill="none" stroke="#000000" points="653.8027,-225.5 653.8027,-247.5 "/>
<text text-anchor="middle" x="670.2041" y="-232.3" font-family="Courier,monospace" font-size="14.00" fill="#000000"> 4</text>
</g>
<!-- a4 -->
<g id="node9" class="node">
<title>a4</title>
<ellipse fill="none" stroke="#000000" cx="653.8027" cy="-171" rx="27" ry="18"/>
<text text-anchor="middle" x="653.8027" y="-166.8" font-family="Courier,monospace" font-size="14.00" fill="#000000">...</text>
</g>
<!-- s1_1_0_2&#45;&gt;a4 -->
<g id="edge8" class="edge">
<title>s1_1_0_2&#45;&gt;a4</title>
<path fill="none" stroke="#000000" d="M653.8027,-225.373C653.8027,-217.2163 653.8027,-207.8623 653.8027,-199.2386"/>
<polygon fill="#000000" stroke="#000000" points="657.3028,-199.2113 653.8027,-189.2113 650.3028,-199.2113 657.3028,-199.2113"/>
</g>
<!-- up&#45;&gt;s1_1_1_0 -->
<g id="edge2" class="edge">
<title>up&#45;&gt;s1_1_1_0</title>
<path fill="none" stroke="#c0c0c0" d="M423.0572,-315.2245C388.7718,-302.5538 324.8598,-278.9341 282.3169,-263.2118"/>
<polygon fill="#c0c0c0" stroke="#c0c0c0" points="283.3817,-259.8739 272.7884,-259.6904 280.9551,-266.4399 283.3817,-259.8739"/>
<text text-anchor="middle" x="398.1419" y="-313.0805" font-family="Times,serif" font-size="14.00" fill="#000000"> 0.45 </text>
</g>
<!-- up&#45;&gt;s1_1_2_0 -->
<g id="edge3" class="edge">
<title>up&#45;&gt;s1_1_2_0</title>
<path fill="none" stroke="#c0c0c0" d="M432.8396,-308.5191C424.7275,-299.5253 414.2337,-287.8909 404.588,-277.1967"/>
<polygon fill="#c0c0c0" stroke="#c0c0c0" points="407.0571,-274.7085 397.7604,-269.627 401.8591,-279.3969 407.0571,-274.7085"/>
<text text-anchor="middle" x="409.8186" y="-294.5706" font-family="Times,serif" font-size="14.00" fill="#000000"> 0.05 </text>
</g>
<!-- up&#45;&gt;s1_1_0_1 -->
<g id="edge4" class="edge">
<title>up&#45;&gt;s1_1_0_1</title>
<path fill="none" stroke="#c0c0c0" d="M460.7659,-308.5191C468.878,-299.5253 479.3717,-287.8909 489.0175,-277.1967"/>
<polygon fill="#c0c0c0" stroke="#c0c0c0" points="491.7464,-279.3969 495.8451,-269.627 486.5484,-274.7085 491.7464,-279.3969"/>
<text text-anchor="middle" x="468.0957" y="-280.4178" font-family="Times,serif" font-size="14.00" fill="#000000"> 0.45 </text>
</g>
<!-- up&#45;&gt;s1_1_0_2 -->
<g id="edge5" class="edge">
<title>up&#45;&gt;s1_1_0_2</title>
<path fill="none" stroke="#c0c0c0" d="M470.5483,-315.2245C504.8337,-302.5538 568.7457,-278.9341 611.2885,-263.2118"/>
<polygon fill="#c0c0c0" stroke="#c0c0c0" points="612.6504,-266.4399 620.817,-259.6904 610.2238,-259.8739 612.6504,-266.4399"/>
<text text-anchor="middle" x="488.1385" y="-293.2598" font-family="Times,serif" font-size="14.00" fill="#000000"> 0.05 </text>
</g>
<!-- s2_1_1_0 -->
<g id="node10" class="node">
<title>s2_1_1_0</title>
<polygon fill="none" stroke="#000000" points="0,-72.5 0,-116.5 65.6055,-116.5 65.6055,-72.5 0,-72.5"/>
<text text-anchor="middle" x="16.4014" y="-101.3" font-family="Courier,monospace" font-size="14.00" fill="#000000"> 4</text>
<polyline fill="none" stroke="#000000" points="32.8027,-94.5 32.8027,-116.5 "/>
<text text-anchor="middle" x="49.2041" y="-101.3" font-family="Courier,monospace" font-size="14.00" fill="#000000"> 2</text>
<polyline fill="none" stroke="#000000" points="0,-94.5 65.6055,-94.5 "/>
<text text-anchor="middle" x="16.4014" y="-79.3" font-family="Courier,monospace" font-size="14.00" fill="#000000"> 2</text>
<polyline fill="none" stroke="#000000" points="32.8027,-72.5 32.8027,-94.5 "/>
<text text-anchor="middle" x="49.2041" y="-79.3" font-family="Courier,monospace" font-size="14.00" fill="#000000">  </text>
</g>
<!-- a5 -->
<g id="node15" class="node">
<title>a5</title>
<ellipse fill="none" stroke="#000000" cx="32.8027" cy="-18" rx="27" ry="18"/>
<text text-anchor="middle" x="32.8027" y="-13.8" font-family="Courier,monospace" font-size="14.00" fill="#000000">...</text>
</g>
<!-- s2_1_1_0&#45;&gt;a5 -->
<g id="edge14" class="edge">
<title>s2_1_1_0&#45;&gt;a5</title>
<path fill="none" stroke="#000000" d="M32.8027,-72.373C32.8027,-64.2163 32.8027,-54.8623 32.8027,-46.2386"/>
<polygon fill="#000000" stroke="#000000" points="36.3028,-46.2113 32.8027,-36.2113 29.3028,-46.2113 36.3028,-46.2113"/>
</g>
<!-- s2_1_2_0 -->
<g id="node11" class="node">
<title>s2_1_2_0</title>
<polygon fill="none" stroke="#000000" points="138,-72.5 138,-116.5 203.6055,-116.5 203.6055,-72.5 138,-72.5"/>
<text text-anchor="middle" x="154.4014" y="-101.3" font-family="Courier,monospace" font-size="14.00" fill="#000000"> 4</text>
<polyline fill="none" stroke="#000000" points="170.8027,-94.5 170.8027,-116.5 "/>
<text text-anchor="middle" x="187.2041" y="-101.3" font-family="Courier,monospace" font-size="14.00" fill="#000000"> 4</text>
<polyline fill="none" stroke="#000000" points="138,-94.5 203.6055,-94.5 "/>
<text text-anchor="middle" x="154.4014" y="-79.3" font-family="Courier,monospace" font-size="14.00" fill="#000000"> 2</text>
<polyline fill="none" stroke="#000000" points="170.8027,-72.5 170.8027,-94.5 "/>
<text text-anchor="middle" x="187.2041" y="-79.3" font-family="Courier,monospace" font-size="14.00" fill="#000000">  </text>
</g>
<!-- a6 -->
<g id="node16" class="node">
<title>a6</title>
<ellipse fill="none" stroke="#000000" cx="170.8027" cy="-18" rx="27" ry="18"/>
<text text-anchor="middle" x="170.8027" y="-13.8" font-family="Courier,monospace" font-size="14.00" fill="#000000">...</text>
</g>
<!-- s2_1_2_0&#45;&gt;a6 -->
<g id="edge15" class="edge">
<title>s2_1_2_0&#45;&gt;a6</title>
<path fill="none" stroke="#000000" d="M170.8027,-72.373C170.8027,-64.2163 170.8027,-54.8623 170.8027,-46.2386"/>
<polygon fill="#000000" stroke="#000000" points="174.3028,-46.2113 170.8027,-36.2113 167.3028,-46.2113 174.3028,-46.2113"/>
</g>
<!-- s2_1_0_1 -->
<g id="node12" class="node">
<title>s2_1_0_1</title>
<polygon fill="none" stroke="#000000" points="276,-72.5 276,-116.5 341.6055,-116.5 341.6055,-72.5 276,-72.5"/>
<text text-anchor="middle" x="292.4014" y="-101.3" font-family="Courier,monospace" font-size="14.00" fill="#000000"> 4</text>
<polyline fill="none" stroke="#000000" points="308.8027,-94.5 308.8027,-116.5 "/>
<text text-anchor="middle" x="325.2041" y="-101.3" font-family="Courier,monospace" font-size="14.00" fill="#000000">  </text>
<polyline fill="none" stroke="#000000" points="276,-94.5 341.6055,-94.5 "/>
<text text-anchor="middle" x="292.4014" y="-79.3" font-family="Courier,monospace" font-size="14.00" fill="#000000"> 2</text>
<polyline fill="none" stroke="#000000" points="308.8027,-72.5 308.8027,-94.5 "/>
<text text-anchor="middle" x="325.2041" y="-79.3" font-family="Courier,monospace" font-size="14.00" fill="#000000"> 2</text>
</g>
<!-- a7 -->
<g id="node17" class="node">
<title>a7</title>
<ellipse fill="none" stroke="#000000" cx="308.8027" cy="-18" rx="27" ry="18"/>
<text text-anchor="middle" x="308.8027" y="-13.8" font-family="Courier,monospace" font-size="14.00" fill="#000000">...</text>
</g>
<!-- s2_1_0_1&#45;&gt;a7 -->
<g id="edge16" class="edge">
<title>s2_1_0_1&#45;&gt;a7</title>
<path fill="none" stroke="#000000" d="M308.8027,-72.373C308.8027,-64.2163 308.8027,-54.8623 308.8027,-46.2386"/>
<polygon fill="#000000" stroke="#000000" points="312.3028,-46.2113 308.8027,-36.2113 305.3028,-46.2113 312.3028,-46.2113"/>
</g>
<!-- s2_1_0_2 -->
<g id="node13" class="node">
<title>s2_1_0_2</title>
<polygon fill="none" stroke="#000000" points="414,-72.5 414,-116.5 479.6055,-116.5 479.6055,-72.5 414,-72.5"/>
<text text-anchor="middle" x="430.4014" y="-101.3" font-family="Courier,monospace" font-size="14.00" fill="#000000"> 4</text>
<polyline fill="none" stroke="#000000" points="446.8027,-94.5 446.8027,-116.5 "/>
<text text-anchor="middle" x="463.2041" y="-101.3" font-family="Courier,monospace" font-size="14.00" fill="#000000">  </text>
<polyline fill="none" stroke="#000000" points="414,-94.5 479.6055,-94.5 "/>
<text text-anchor="middle" x="430.4014" y="-79.3" font-family="Courier,monospace" font-size="14.00" fill="#000000"> 2</text>
<polyline fill="none" stroke="#000000" points="446.8027,-72.5 446.8027,-94.5 "/>
<text text-anchor="middle" x="463.2041" y="-79.3" font-family="Courier,monospace" font-size="14.00" fill="#000000"> 4</text>
</g>
<!-- a8 -->
<g id="node18" class="node">
<title>a8</title>
<ellipse fill="none" stroke="#000000" cx="446.8027" cy="-18" rx="27" ry="18"/>
<text text-anchor="middle" x="446.8027" y="-13.8" font-family="Courier,monospace" font-size="14.00" fill="#000000">...</text>
</g>
<!-- s2_1_0_2&#45;&gt;a8 -->
<g id="edge17" class="edge">
<title>s2_1_0_2&#45;&gt;a8</title>
<path fill="none" stroke="#000000" d="M446.8027,-72.373C446.8027,-64.2163 446.8027,-54.8623 446.8027,-46.2386"/>
<polygon fill="#000000" stroke="#000000" points="450.3028,-46.2113 446.8027,-36.2113 443.3028,-46.2113 450.3028,-46.2113"/>
</g>
<!-- left&#45;&gt;s2_1_1_0 -->
<g id="edge10" class="edge">
<title>left&#45;&gt;s2_1_1_0</title>
<path fill="none" stroke="#c0c0c0" d="M213.1649,-161.1556C178.2889,-148.2666 116.7378,-125.5195 75.3643,-110.2293"/>
<polygon fill="#c0c0c0" stroke="#c0c0c0" points="76.4202,-106.8882 65.8269,-106.7046 73.9936,-113.4541 76.4202,-106.8882"/>
<text text-anchor="middle" x="188.2496" y="-159.0116" font-family="Times,serif" font-size="14.00" fill="#000000"> 0.45 </text>
</g>
<!-- left&#45;&gt;s2_1_2_0 -->
<g id="edge11" class="edge">
<title>left&#45;&gt;s2_1_2_0</title>
<path fill="none" stroke="#c0c0c0" d="M225.1696,-154.7763C217.1626,-145.899 206.9898,-134.6204 197.6149,-124.2265"/>
<polygon fill="#c0c0c0" stroke="#c0c0c0" points="199.9472,-121.5866 190.6505,-116.5051 194.7492,-126.275 199.9472,-121.5866"/>
<text text-anchor="middle" x="202.1486" y="-140.8278" font-family="Times,serif" font-size="14.00" fill="#000000"> 0.05 </text>
</g>
<!-- left&#45;&gt;s2_1_0_1 -->
<g id="edge12" class="edge">
<title>left&#45;&gt;s2_1_0_1</title>
<path fill="none" stroke="#c0c0c0" d="M254.4359,-154.7763C262.4429,-145.899 272.6157,-134.6204 281.9906,-124.2265"/>
<polygon fill="#c0c0c0" stroke="#c0c0c0" points="284.8563,-126.275 288.955,-116.5051 279.6583,-121.5866 284.8563,-126.275"/>
<text text-anchor="middle" x="261.7657" y="-126.675" font-family="Times,serif" font-size="14.00" fill="#000000"> 0.45 </text>
</g>
<!-- left&#45;&gt;s2_1_0_2 -->
<g id="edge13" class="edge">
<title>left&#45;&gt;s2_1_0_2</title>
<path fill="none" stroke="#c0c0c0" d="M266.4406,-161.1556C301.3166,-148.2666 362.8677,-125.5195 404.2412,-110.2293"/>
<polygon fill="#c0c0c0" stroke="#c0c0c0" points="405.6119,-113.4541 413.7786,-106.7046 403.1853,-106.8882 405.6119,-113.4541"/>
<text text-anchor="middle" x="284.0309" y="-139.1909" font-family="Times,serif" font-size="14.00" fill="#000000"> 0.05 </text>
</g>
</g>
</svg>
