<?xml version="1.0" encoding="UTF-8" standalone="no"?>
<!DOCTYPE svg PUBLIC "-//W3C//DTD SVG 1.1//EN"
 "http://www.w3.org/Graphics/SVG/1.1/DTD/svg11.dtd">
<!-- Generated by graphviz version 2.40.1 (20161225.0304)
 -->
<!-- Title: %3 Pages: 1 -->
<svg width="998pt" height="186pt"
 viewBox="0.00 0.00 997.61 186.00" xmlns="http://www.w3.org/2000/svg" xmlns:xlink="http://www.w3.org/1999/xlink">
<g id="graph0" class="graph" transform="scale(1 1) rotate(0) translate(4 182)">
<title>%3</title>
<polygon fill="#ffffff" stroke="transparent" points="-4,4 -4,-182 993.6055,-182 993.6055,4 -4,4"/>
<!-- s1_0_0_1 -->
<g id="node1" class="node">
<title>s1_0_0_1</title>
<polygon fill="none" stroke="#000000" points="462,-133.5 462,-177.5 527.6055,-177.5 527.6055,-133.5 462,-133.5"/>
<text text-anchor="middle" x="478.4014" y="-162.3" font-family="Courier,monospace" font-size="14.00" fill="#000000"> 2</text>
<polyline fill="none" stroke="#000000" points="494.8027,-155.5 494.8027,-177.5 "/>
<text text-anchor="middle" x="511.2041" y="-162.3" font-family="Courier,monospace" font-size="14.00" fill="#000000">  </text>
<polyline fill="none" stroke="#000000" points="462,-155.5 527.6055,-155.5 "/>
<text text-anchor="middle" x="478.4014" y="-140.3" font-family="Courier,monospace" font-size="14.00" fill="#000000">  </text>
<polyline fill="none" stroke="#000000" points="494.8027,-133.5 494.8027,-155.5 "/>
<text text-anchor="middle" x="511.2041" y="-140.3" font-family="Courier,monospace" font-size="14.00" fill="#000000"> 2</text>
</g>
<!-- left -->
<g id="node2" class="node">
<title>left</title>
<ellipse fill="none" stroke="#e66101" cx="788.8027" cy="-82.5" rx=".5" ry=".5"/>
</g>
<!-- s1_0_0_1&#45;&gt;left -->
<g id="edge1" class="edge">
<title>s1_0_0_1&#45;&gt;left</title>
<path fill="none" stroke="#e66101" d="M527.6725,-147.3385C601.9933,-128.8847 777.3822,-85.3357 788.2714,-82.6319"/>
<text text-anchor="middle" x="720.1304" y="-103.8" font-family="Times,serif" font-size="14.00" fill="#000000">left</text>
</g>
<!-- right -->
<g id="node3" class="node">
<title>right</title>
<ellipse fill="none" stroke="#fdb863" cx="368.8027" cy="-82.5" rx=".5" ry=".5"/>
</g>
<!-- s1_0_0_1&#45;&gt;right -->
<g id="edge2" class="edge">
<title>s1_0_0_1&#45;&gt;right</title>
<path fill="none" stroke="#fdb863" d="M461.6977,-136.3201C426.6993,-116.0433 375.6769,-86.4827 369.4359,-82.8668"/>
<text text-anchor="middle" x="438.0234" y="-103.8" font-family="Times,serif" font-size="14.00" fill="#000000">right</text>
</g>
<!-- up -->
<g id="node4" class="node">
<title>up</title>
<ellipse fill="none" stroke="#b2abd2" cx="200.8027" cy="-82.5" rx=".5" ry=".5"/>
</g>
<!-- s1_0_0_1&#45;&gt;up -->
<g id="edge3" class="edge">
<title>s1_0_0_1&#45;&gt;up</title>
<path fill="none" stroke="#b2abd2" d="M461.933,-147.3385C387.6122,-128.8847 212.2233,-85.3357 201.3341,-82.6319"/>
<text text-anchor="middle" x="337.8027" y="-103.8" font-family="Times,serif" font-size="14.00" fill="#000000">up</text>
</g>
<!-- down -->
<g id="node5" class="node">
<title>down</title>
<ellipse fill="none" stroke="#5e3c99" cx="536.8027" cy="-82.5" rx=".5" ry=".5"/>
</g>
<!-- s1_0_0_1&#45;&gt;down -->
<g id="edge4" class="edge">
<title>s1_0_0_1&#45;&gt;down</title>
<path fill="none" stroke="#5e3c99" d="M507.6323,-133.2009C518.8258,-113.7456 533.6884,-87.9129 536.3768,-83.2403"/>
<text text-anchor="middle" x="541.3579" y="-103.8" font-family="Times,serif" font-size="14.00" fill="#000000">down</text>
</g>
<!-- s1_1_1_0 -->
<g id="node6" class="node">
<title>s1_1_1_0</title>
<polygon fill="none" stroke="#000000" points="588,-.5 588,-44.5 653.6055,-44.5 653.6055,-.5 588,-.5"/>
<text text-anchor="middle" x="604.4014" y="-29.3" font-family="Courier,monospace" font-size="14.00" fill="#000000"> 2</text>
<polyline fill="none" stroke="#000000" points="620.8027,-22.5 620.8027,-44.5 "/>
<text text-anchor="middle" x="637.2041" y="-29.3" font-family="Courier,monospace" font-size="14.00" fill="#000000"> 2</text>
<polyline fill="none" stroke="#000000" points="588,-22.5 653.6055,-22.5 "/>
<text text-anchor="middle" x="604.4014" y="-7.3" font-family="Courier,monospace" font-size="14.00" fill="#000000"> 2</text>
<polyline fill="none" stroke="#000000" points="620.8027,-.5 620.8027,-22.5 "/>
<text text-anchor="middle" x="637.2041" y="-7.3" font-family="Courier,monospace" font-size="14.00" fill="#000000">  </text>
</g>
<!-- left&#45;&gt;s1_1_1_0 -->
<g id="edge5" class="edge">
<title>left&#45;&gt;s1_1_1_0</title>
<path fill="none" stroke="#e66101" d="M787.9813,-82.3232C780.3038,-80.6582 720.2974,-67.3682 663.4355,-44.8949"/>
<polygon fill="#e66101" stroke="#e66101" points="664.56,-41.574 653.9778,-41.0566 661.9276,-48.0602 664.56,-41.574"/>
</g>
<!-- s1_2_1_0 -->
<g id="node7" class="node">
<title>s1_2_1_0</title>
<polygon fill="none" stroke="#000000" points="840,-.5 840,-44.5 905.6055,-44.5 905.6055,-.5 840,-.5"/>
<text text-anchor="middle" x="856.4014" y="-29.3" font-family="Courier,monospace" font-size="14.00" fill="#000000"> 2</text>
<polyline fill="none" stroke="#000000" points="872.8027,-22.5 872.8027,-44.5 "/>
<text text-anchor="middle" x="889.2041" y="-29.3" font-family="Courier,monospace" font-size="14.00" fill="#000000"> 4</text>
<polyline fill="none" stroke="#000000" points="840,-22.5 905.6055,-22.5 "/>
<text text-anchor="middle" x="856.4014" y="-7.3" font-family="Courier,monospace" font-size="14.00" fill="#000000"> 2</text>
<polyline fill="none" stroke="#000000" points="872.8027,-.5 872.8027,-22.5 "/>
<text text-anchor="middle" x="889.2041" y="-7.3" font-family="Courier,monospace" font-size="14.00" fill="#000000">  </text>
</g>
<!-- left&#45;&gt;s1_2_1_0 -->
<g id="edge6" class="edge">
<title>left&#45;&gt;s1_2_1_0</title>
<path fill="none" stroke="#e66101" d="M789.3391,-82.1169C792.8847,-79.5843 813.4166,-64.9187 833.2269,-50.7684"/>
<polygon fill="#e66101" stroke="#e66101" points="835.5182,-53.433 841.6212,-44.7725 831.4495,-47.7369 835.5182,-53.433"/>
</g>
<!-- s1_0_1_1 -->
<g id="node8" class="node">
<title>s1_0_1_1</title>
<polygon fill="none" stroke="#000000" points="756,-.5 756,-44.5 821.6055,-44.5 821.6055,-.5 756,-.5"/>
<text text-anchor="middle" x="772.4014" y="-29.3" font-family="Courier,monospace" font-size="14.00" fill="#000000"> 2</text>
<polyline fill="none" stroke="#000000" points="788.8027,-22.5 788.8027,-44.5 "/>
<text text-anchor="middle" x="805.2041" y="-29.3" font-family="Courier,monospace" font-size="14.00" fill="#000000">  </text>
<polyline fill="none" stroke="#000000" points="756,-22.5 821.6055,-22.5 "/>
<text text-anchor="middle" x="772.4014" y="-7.3" font-family="Courier,monospace" font-size="14.00" fill="#000000"> 2</text>
<polyline fill="none" stroke="#000000" points="788.8027,-.5 788.8027,-22.5 "/>
<text text-anchor="middle" x="805.2041" y="-7.3" font-family="Courier,monospace" font-size="14.00" fill="#000000"> 2</text>
</g>
<!-- left&#45;&gt;s1_0_1_1 -->
<g id="edge7" class="edge">
<title>left&#45;&gt;s1_0_1_1</title>
<path fill="none" stroke="#e66101" d="M788.8027,-81.8262C788.8027,-78.9294 788.8027,-67.1216 788.8027,-54.7941"/>
<polygon fill="#e66101" stroke="#e66101" points="792.3028,-54.5011 788.8027,-44.5011 785.3028,-54.5011 792.3028,-54.5011"/>
</g>
<!-- s1_0_1_2 -->
<g id="node9" class="node">
<title>s1_0_1_2</title>
<polygon fill="none" stroke="#000000" points="924,-.5 924,-44.5 989.6055,-44.5 989.6055,-.5 924,-.5"/>
<text text-anchor="middle" x="940.4014" y="-29.3" font-family="Courier,monospace" font-size="14.00" fill="#000000"> 2</text>
<polyline fill="none" stroke="#000000" points="956.8027,-22.5 956.8027,-44.5 "/>
<text text-anchor="middle" x="973.2041" y="-29.3" font-family="Courier,monospace" font-size="14.00" fill="#000000">  </text>
<polyline fill="none" stroke="#000000" points="924,-22.5 989.6055,-22.5 "/>
<text text-anchor="middle" x="940.4014" y="-7.3" font-family="Courier,monospace" font-size="14.00" fill="#000000"> 2</text>
<polyline fill="none" stroke="#000000" points="956.8027,-.5 956.8027,-22.5 "/>
<text text-anchor="middle" x="973.2041" y="-7.3" font-family="Courier,monospace" font-size="14.00" fill="#000000"> 4</text>
</g>
<!-- left&#45;&gt;s1_0_1_2 -->
<g id="edge8" class="edge">
<title>left&#45;&gt;s1_0_1_2</title>
<path fill="none" stroke="#e66101" d="M789.6242,-82.3232C797.3017,-80.6582 857.308,-67.3682 914.17,-44.8949"/>
<polygon fill="#e66101" stroke="#e66101" points="915.6779,-48.0602 923.6277,-41.0566 913.0455,-41.574 915.6779,-48.0602"/>
</g>
<!-- s1_1_0_1 -->
<g id="node10" class="node">
<title>s1_1_0_1</title>
<polygon fill="none" stroke="#000000" points="168,-.5 168,-44.5 233.6055,-44.5 233.6055,-.5 168,-.5"/>
<text text-anchor="middle" x="184.4014" y="-29.3" font-family="Courier,monospace" font-size="14.00" fill="#000000"> 2</text>
<polyline fill="none" stroke="#000000" points="200.8027,-22.5 200.8027,-44.5 "/>
<text text-anchor="middle" x="217.2041" y="-29.3" font-family="Courier,monospace" font-size="14.00" fill="#000000"> 2</text>
<polyline fill="none" stroke="#000000" points="168,-22.5 233.6055,-22.5 "/>
<text text-anchor="middle" x="184.4014" y="-7.3" font-family="Courier,monospace" font-size="14.00" fill="#000000">  </text>
<polyline fill="none" stroke="#000000" points="200.8027,-.5 200.8027,-22.5 "/>
<text text-anchor="middle" x="217.2041" y="-7.3" font-family="Courier,monospace" font-size="14.00" fill="#000000"> 2</text>
</g>
<!-- right&#45;&gt;s1_1_0_1 -->
<g id="edge9" class="edge">
<title>right&#45;&gt;s1_1_0_1</title>
<path fill="none" stroke="#fdb863" d="M367.9813,-82.3232C360.3038,-80.6582 300.2974,-67.3682 243.4355,-44.8949"/>
<polygon fill="#fdb863" stroke="#fdb863" points="244.56,-41.574 233.9778,-41.0566 241.9276,-48.0602 244.56,-41.574"/>
</g>
<!-- s2_1_0_1 -->
<g id="node11" class="node">
<title>s2_1_0_1</title>
<polygon fill="none" stroke="#000000" points="252,-.5 252,-44.5 317.6055,-44.5 317.6055,-.5 252,-.5"/>
<text text-anchor="middle" x="268.4014" y="-29.3" font-family="Courier,monospace" font-size="14.00" fill="#000000"> 4</text>
<polyline fill="none" stroke="#000000" points="284.8027,-22.5 284.8027,-44.5 "/>
<text text-anchor="middle" x="301.2041" y="-29.3" font-family="Courier,monospace" font-size="14.00" fill="#000000"> 2</text>
<polyline fill="none" stroke="#000000" points="252,-22.5 317.6055,-22.5 "/>
<text text-anchor="middle" x="268.4014" y="-7.3" font-family="Courier,monospace" font-size="14.00" fill="#000000">  </text>
<polyline fill="none" stroke="#000000" points="284.8027,-.5 284.8027,-22.5 "/>
<text text-anchor="middle" x="301.2041" y="-7.3" font-family="Courier,monospace" font-size="14.00" fill="#000000"> 2</text>
</g>
<!-- right&#45;&gt;s2_1_0_1 -->
<g id="edge10" class="edge">
<title>right&#45;&gt;s2_1_0_1</title>
<path fill="none" stroke="#fdb863" d="M368.2663,-82.1169C364.7208,-79.5843 344.1889,-64.9187 324.3786,-50.7684"/>
<polygon fill="#fdb863" stroke="#fdb863" points="326.1559,-47.7369 315.9842,-44.7725 322.0872,-53.433 326.1559,-47.7369"/>
</g>
<!-- s0_1_1_1 -->
<g id="node12" class="node">
<title>s0_1_1_1</title>
<polygon fill="none" stroke="#000000" points="420,-.5 420,-44.5 485.6055,-44.5 485.6055,-.5 420,-.5"/>
<text text-anchor="middle" x="436.4014" y="-29.3" font-family="Courier,monospace" font-size="14.00" fill="#000000">  </text>
<polyline fill="none" stroke="#000000" points="452.8027,-22.5 452.8027,-44.5 "/>
<text text-anchor="middle" x="469.2041" y="-29.3" font-family="Courier,monospace" font-size="14.00" fill="#000000"> 2</text>
<polyline fill="none" stroke="#000000" points="420,-22.5 485.6055,-22.5 "/>
<text text-anchor="middle" x="436.4014" y="-7.3" font-family="Courier,monospace" font-size="14.00" fill="#000000"> 2</text>
<polyline fill="none" stroke="#000000" points="452.8027,-.5 452.8027,-22.5 "/>
<text text-anchor="middle" x="469.2041" y="-7.3" font-family="Courier,monospace" font-size="14.00" fill="#000000"> 2</text>
</g>
<!-- right&#45;&gt;s0_1_1_1 -->
<g id="edge11" class="edge">
<title>right&#45;&gt;s0_1_1_1</title>
<path fill="none" stroke="#fdb863" d="M369.3391,-82.1169C372.8847,-79.5843 393.4166,-64.9187 413.2269,-50.7684"/>
<polygon fill="#fdb863" stroke="#fdb863" points="415.5182,-53.433 421.6212,-44.7725 411.4495,-47.7369 415.5182,-53.433"/>
</g>
<!-- s0_1_2_1 -->
<g id="node13" class="node">
<title>s0_1_2_1</title>
<polygon fill="none" stroke="#000000" points="336,-.5 336,-44.5 401.6055,-44.5 401.6055,-.5 336,-.5"/>
<text text-anchor="middle" x="352.4014" y="-29.3" font-family="Courier,monospace" font-size="14.00" fill="#000000">  </text>
<polyline fill="none" stroke="#000000" points="368.8027,-22.5 368.8027,-44.5 "/>
<text text-anchor="middle" x="385.2041" y="-29.3" font-family="Courier,monospace" font-size="14.00" fill="#000000"> 2</text>
<polyline fill="none" stroke="#000000" points="336,-22.5 401.6055,-22.5 "/>
<text text-anchor="middle" x="352.4014" y="-7.3" font-family="Courier,monospace" font-size="14.00" fill="#000000"> 4</text>
<polyline fill="none" stroke="#000000" points="368.8027,-.5 368.8027,-22.5 "/>
<text text-anchor="middle" x="385.2041" y="-7.3" font-family="Courier,monospace" font-size="14.00" fill="#000000"> 2</text>
</g>
<!-- right&#45;&gt;s0_1_2_1 -->
<g id="edge12" class="edge">
<title>right&#45;&gt;s0_1_2_1</title>
<path fill="none" stroke="#fdb863" d="M368.8027,-81.8262C368.8027,-78.9294 368.8027,-67.1216 368.8027,-54.7941"/>
<polygon fill="#fdb863" stroke="#fdb863" points="372.3028,-54.5011 368.8027,-44.5011 365.3028,-54.5011 372.3028,-54.5011"/>
</g>
<!-- up&#45;&gt;s1_1_1_0 -->
<g id="edge13" class="edge">
<title>up&#45;&gt;s1_1_1_0</title>
<path fill="none" stroke="#b2abd2" d="M201.6579,-82.4622C218.5534,-81.708 481.1092,-69.6927 577.9416,-44.4783"/>
<polygon fill="#b2abd2" stroke="#b2abd2" points="579.1808,-47.765 587.8465,-41.6695 577.271,-41.0306 579.1808,-47.765"/>
</g>
<!-- up&#45;&gt;s1_1_0_1 -->
<g id="edge15" class="edge">
<title>up&#45;&gt;s1_1_0_1</title>
<path fill="none" stroke="#b2abd2" d="M200.8027,-81.8262C200.8027,-78.9294 200.8027,-67.1216 200.8027,-54.7941"/>
<polygon fill="#b2abd2" stroke="#b2abd2" points="204.3028,-54.5011 200.8027,-44.5011 197.3028,-54.5011 204.3028,-54.5011"/>
</g>
<!-- s1_1_2_0 -->
<g id="node14" class="node">
<title>s1_1_2_0</title>
<polygon fill="none" stroke="#000000" points="0,-.5 0,-44.5 65.6055,-44.5 65.6055,-.5 0,-.5"/>
<text text-anchor="middle" x="16.4014" y="-29.3" font-family="Courier,monospace" font-size="14.00" fill="#000000"> 2</text>
<polyline fill="none" stroke="#000000" points="32.8027,-22.5 32.8027,-44.5 "/>
<text text-anchor="middle" x="49.2041" y="-29.3" font-family="Courier,monospace" font-size="14.00" fill="#000000"> 2</text>
<polyline fill="none" stroke="#000000" points="0,-22.5 65.6055,-22.5 "/>
<text text-anchor="middle" x="16.4014" y="-7.3" font-family="Courier,monospace" font-size="14.00" fill="#000000"> 4</text>
<polyline fill="none" stroke="#000000" points="32.8027,-.5 32.8027,-22.5 "/>
<text text-anchor="middle" x="49.2041" y="-7.3" font-family="Courier,monospace" font-size="14.00" fill="#000000">  </text>
</g>
<!-- up&#45;&gt;s1_1_2_0 -->
<g id="edge14" class="edge">
<title>up&#45;&gt;s1_1_2_0</title>
<path fill="none" stroke="#b2abd2" d="M199.9813,-82.3232C192.3038,-80.6582 132.2974,-67.3682 75.4355,-44.8949"/>
<polygon fill="#b2abd2" stroke="#b2abd2" points="76.56,-41.574 65.9778,-41.0566 73.9276,-48.0602 76.56,-41.574"/>
</g>
<!-- s1_1_0_2 -->
<g id="node15" class="node">
<title>s1_1_0_2</title>
<polygon fill="none" stroke="#000000" points="84,-.5 84,-44.5 149.6055,-44.5 149.6055,-.5 84,-.5"/>
<text text-anchor="middle" x="100.4014" y="-29.3" font-family="Courier,monospace" font-size="14.00" fill="#000000"> 2</text>
<polyline fill="none" stroke="#000000" points="116.8027,-22.5 116.8027,-44.5 "/>
<text text-anchor="middle" x="133.2041" y="-29.3" font-family="Courier,monospace" font-size="14.00" fill="#000000"> 2</text>
<polyline fill="none" stroke="#000000" points="84,-22.5 149.6055,-22.5 "/>
<text text-anchor="middle" x="100.4014" y="-7.3" font-family="Courier,monospace" font-size="14.00" fill="#000000">  </text>
<polyline fill="none" stroke="#000000" points="116.8027,-.5 116.8027,-22.5 "/>
<text text-anchor="middle" x="133.2041" y="-7.3" font-family="Courier,monospace" font-size="14.00" fill="#000000"> 4</text>
</g>
<!-- up&#45;&gt;s1_1_0_2 -->
<g id="edge16" class="edge">
<title>up&#45;&gt;s1_1_0_2</title>
<path fill="none" stroke="#b2abd2" d="M200.2663,-82.1169C196.7208,-79.5843 176.1889,-64.9187 156.3786,-50.7684"/>
<polygon fill="#b2abd2" stroke="#b2abd2" points="158.1559,-47.7369 147.9842,-44.7725 154.0872,-53.433 158.1559,-47.7369"/>
</g>
<!-- down&#45;&gt;s1_0_1_1 -->
<g id="edge17" class="edge">
<title>down&#45;&gt;s1_0_1_1</title>
<path fill="none" stroke="#5e3c99" d="M537.581,-82.456C547.6689,-81.8669 653.8061,-75.1306 746.0301,-44.7333"/>
<polygon fill="#5e3c99" stroke="#5e3c99" points="747.4275,-47.9549 755.7641,-41.4164 745.1697,-41.329 747.4275,-47.9549"/>
</g>
<!-- down&#45;&gt;s0_1_1_1 -->
<g id="edge19" class="edge">
<title>down&#45;&gt;s0_1_1_1</title>
<path fill="none" stroke="#5e3c99" d="M536.2663,-82.1169C532.7208,-79.5843 512.1889,-64.9187 492.3786,-50.7684"/>
<polygon fill="#5e3c99" stroke="#5e3c99" points="494.1559,-47.7369 483.9842,-44.7725 490.0872,-53.433 494.1559,-47.7369"/>
</g>
<!-- s2_0_1_1 -->
<g id="node16" class="node">
<title>s2_0_1_1</title>
<polygon fill="none" stroke="#000000" points="504,-.5 504,-44.5 569.6055,-44.5 569.6055,-.5 504,-.5"/>
<text text-anchor="middle" x="520.4014" y="-29.3" font-family="Courier,monospace" font-size="14.00" fill="#000000"> 4</text>
<polyline fill="none" stroke="#000000" points="536.8027,-22.5 536.8027,-44.5 "/>
<text text-anchor="middle" x="553.2041" y="-29.3" font-family="Courier,monospace" font-size="14.00" fill="#000000">  </text>
<polyline fill="none" stroke="#000000" points="504,-22.5 569.6055,-22.5 "/>
<text text-anchor="middle" x="520.4014" y="-7.3" font-family="Courier,monospace" font-size="14.00" fill="#000000"> 2</text>
<polyline fill="none" stroke="#000000" points="536.8027,-.5 536.8027,-22.5 "/>
<text text-anchor="middle" x="553.2041" y="-7.3" font-family="Courier,monospace" font-size="14.00" fill="#000000"> 2</text>
</g>
<!-- down&#45;&gt;s2_0_1_1 -->
<g id="edge18" class="edge">
<title>down&#45;&gt;s2_0_1_1</title>
<path fill="none" stroke="#5e3c99" d="M536.8027,-81.8262C536.8027,-78.9294 536.8027,-67.1216 536.8027,-54.7941"/>
<polygon fill="#5e3c99" stroke="#5e3c99" points="540.3028,-54.5011 536.8027,-44.5011 533.3028,-54.5011 540.3028,-54.5011"/>
</g>
<!-- s0_2_1_1 -->
<g id="node17" class="node">
<title>s0_2_1_1</title>
<polygon fill="none" stroke="#000000" points="672,-.5 672,-44.5 737.6055,-44.5 737.6055,-.5 672,-.5"/>
<text text-anchor="middle" x="688.4014" y="-29.3" font-family="Courier,monospace" font-size="14.00" fill="#000000">  </text>
<polyline fill="none" stroke="#000000" points="704.8027,-22.5 704.8027,-44.5 "/>
<text text-anchor="middle" x="721.2041" y="-29.3" font-family="Courier,monospace" font-size="14.00" fill="#000000"> 4</text>
<polyline fill="none" stroke="#000000" points="672,-22.5 737.6055,-22.5 "/>
<text text-anchor="middle" x="688.4014" y="-7.3" font-family="Courier,monospace" font-size="14.00" fill="#000000"> 2</text>
<polyline fill="none" stroke="#000000" points="704.8027,-.5 704.8027,-22.5 "/>
<text text-anchor="middle" x="721.2041" y="-7.3" font-family="Courier,monospace" font-size="14.00" fill="#000000"> 2</text>
</g>
<!-- down&#45;&gt;s0_2_1_1 -->
<g id="edge20" class="edge">
<title>down&#45;&gt;s0_2_1_1</title>
<path fill="none" stroke="#5e3c99" d="M537.6242,-82.3232C545.3017,-80.6582 605.308,-67.3682 662.17,-44.8949"/>
<polygon fill="#5e3c99" stroke="#5e3c99" points="663.6779,-48.0602 671.6277,-41.0566 661.0455,-41.574 663.6779,-48.0602"/>
</g>
</g>
</svg>
