<?xml version="1.0" encoding="UTF-8" standalone="no"?>
<!DOCTYPE svg PUBLIC "-//W3C//DTD SVG 1.1//EN"
 "http://www.w3.org/Graphics/SVG/1.1/DTD/svg11.dtd">
<!-- Generated by graphviz version 2.40.1 (20161225.0304)
 -->
<!-- Title: %3 Pages: 1 -->
<svg width="488pt" height="206pt"
 viewBox="0.00 0.00 487.61 206.00" xmlns="http://www.w3.org/2000/svg" xmlns:xlink="http://www.w3.org/1999/xlink">
<g id="graph0" class="graph" transform="scale(1 1) rotate(0) translate(4 202)">
<title>%3</title>
<polygon fill="#ffffff" stroke="transparent" points="-4,4 -4,-202 483.6055,-202 483.6055,4 -4,4"/>
<!-- s1_1_1_0 -->
<g id="node1" class="node">
<title>s1_1_1_0</title>
<polygon fill="none" stroke="#000000" points="207,-153.5 207,-197.5 272.6055,-197.5 272.6055,-153.5 207,-153.5"/>
<text text-anchor="middle" x="223.4014" y="-182.3" font-family="Courier,monospace" font-size="14.00" fill="#000000"> 2</text>
<polyline fill="none" stroke="#000000" points="239.8027,-175.5 239.8027,-197.5 "/>
<text text-anchor="middle" x="256.2041" y="-182.3" font-family="Courier,monospace" font-size="14.00" fill="#000000"> 2</text>
<polyline fill="none" stroke="#000000" points="207,-175.5 272.6055,-175.5 "/>
<text text-anchor="middle" x="223.4014" y="-160.3" font-family="Courier,monospace" font-size="14.00" fill="#000000"> 2</text>
<polyline fill="none" stroke="#000000" points="239.8027,-153.5 239.8027,-175.5 "/>
<text text-anchor="middle" x="256.2041" y="-160.3" font-family="Courier,monospace" font-size="14.00" fill="#000000">  </text>
</g>
<!-- up -->
<g id="node6" class="node">
<title>up</title>
<ellipse fill="none" stroke="#000000" cx="239.8027" cy="-99" rx="27" ry="18"/>
<text text-anchor="middle" x="239.8027" y="-94.8" font-family="Courier,monospace" font-size="14.00" fill="#000000">up</text>
</g>
<!-- s1_1_1_0&#45;&gt;up -->
<g id="edge1" class="edge">
<title>s1_1_1_0&#45;&gt;up</title>
<path fill="none" stroke="#000000" d="M239.8027,-153.373C239.8027,-145.2163 239.8027,-135.8623 239.8027,-127.2386"/>
<polygon fill="#000000" stroke="#000000" points="243.3028,-127.2113 239.8027,-117.2113 236.3028,-127.2113 243.3028,-127.2113"/>
</g>
<!-- s2_1_1_0 -->
<g id="node2" class="node">
<title>s2_1_1_0</title>
<polygon fill="none" stroke="#000000" points="0,-.5 0,-44.5 65.6055,-44.5 65.6055,-.5 0,-.5"/>
<text text-anchor="middle" x="16.4014" y="-29.3" font-family="Courier,monospace" font-size="14.00" fill="#000000"> 4</text>
<polyline fill="none" stroke="#000000" points="32.8027,-22.5 32.8027,-44.5 "/>
<text text-anchor="middle" x="49.2041" y="-29.3" font-family="Courier,monospace" font-size="14.00" fill="#000000"> 2</text>
<polyline fill="none" stroke="#000000" points="0,-22.5 65.6055,-22.5 "/>
<text text-anchor="middle" x="16.4014" y="-7.3" font-family="Courier,monospace" font-size="14.00" fill="#000000"> 2</text>
<polyline fill="none" stroke="#000000" points="32.8027,-.5 32.8027,-22.5 "/>
<text text-anchor="middle" x="49.2041" y="-7.3" font-family="Courier,monospace" font-size="14.00" fill="#000000">  </text>
</g>
<!-- s2_1_2_0 -->
<g id="node3" class="node">
<title>s2_1_2_0</title>
<polygon fill="none" stroke="#000000" points="138,-.5 138,-44.5 203.6055,-44.5 203.6055,-.5 138,-.5"/>
<text text-anchor="middle" x="154.4014" y="-29.3" font-family="Courier,monospace" font-size="14.00" fill="#000000"> 4</text>
<polyline fill="none" stroke="#000000" points="170.8027,-22.5 170.8027,-44.5 "/>
<text text-anchor="middle" x="187.2041" y="-29.3" font-family="Courier,monospace" font-size="14.00" fill="#000000"> 2</text>
<polyline fill="none" stroke="#000000" points="138,-22.5 203.6055,-22.5 "/>
<text text-anchor="middle" x="154.4014" y="-7.3" font-family="Courier,monospace" font-size="14.00" fill="#000000"> 4</text>
<polyline fill="none" stroke="#000000" points="170.8027,-.5 170.8027,-22.5 "/>
<text text-anchor="middle" x="187.2041" y="-7.3" font-family="Courier,monospace" font-size="14.00" fill="#000000">  </text>
</g>
<!-- s2_1_0_1 -->
<g id="node4" class="node">
<title>s2_1_0_1</title>
<polygon fill="none" stroke="#000000" points="276,-.5 276,-44.5 341.6055,-44.5 341.6055,-.5 276,-.5"/>
<text text-anchor="middle" x="292.4014" y="-29.3" font-family="Courier,monospace" font-size="14.00" fill="#000000"> 4</text>
<polyline fill="none" stroke="#000000" points="308.8027,-22.5 308.8027,-44.5 "/>
<text text-anchor="middle" x="325.2041" y="-29.3" font-family="Courier,monospace" font-size="14.00" fill="#000000"> 2</text>
<polyline fill="none" stroke="#000000" points="276,-22.5 341.6055,-22.5 "/>
<text text-anchor="middle" x="292.4014" y="-7.3" font-family="Courier,monospace" font-size="14.00" fill="#000000">  </text>
<polyline fill="none" stroke="#000000" points="308.8027,-.5 308.8027,-22.5 "/>
<text text-anchor="middle" x="325.2041" y="-7.3" font-family="Courier,monospace" font-size="14.00" fill="#000000"> 2</text>
</g>
<!-- s2_1_0_2 -->
<g id="node5" class="node">
<title>s2_1_0_2</title>
<polygon fill="none" stroke="#000000" points="414,-.5 414,-44.5 479.6055,-44.5 479.6055,-.5 414,-.5"/>
<text text-anchor="middle" x="430.4014" y="-29.3" font-family="Courier,monospace" font-size="14.00" fill="#000000"> 4</text>
<polyline fill="none" stroke="#000000" points="446.8027,-22.5 446.8027,-44.5 "/>
<text text-anchor="middle" x="463.2041" y="-29.3" font-family="Courier,monospace" font-size="14.00" fill="#000000"> 2</text>
<polyline fill="none" stroke="#000000" points="414,-22.5 479.6055,-22.5 "/>
<text text-anchor="middle" x="430.4014" y="-7.3" font-family="Courier,monospace" font-size="14.00" fill="#000000">  </text>
<polyline fill="none" stroke="#000000" points="446.8027,-.5 446.8027,-22.5 "/>
<text text-anchor="middle" x="463.2041" y="-7.3" font-family="Courier,monospace" font-size="14.00" fill="#000000"> 4</text>
</g>
<!-- up&#45;&gt;s2_1_1_0 -->
<g id="edge2" class="edge">
<title>up&#45;&gt;s2_1_1_0</title>
<path fill="none" stroke="#c0c0c0" d="M216.0572,-90.2245C181.7718,-77.5538 117.8598,-53.9341 75.3169,-38.2118"/>
<polygon fill="#c0c0c0" stroke="#c0c0c0" points="76.3817,-34.8739 65.7884,-34.6904 73.9551,-41.4399 76.3817,-34.8739"/>
<text text-anchor="middle" x="191.1419" y="-88.0805" font-family="Times,serif" font-size="14.00" fill="#000000"> 0.45 </text>
</g>
<!-- up&#45;&gt;s2_1_2_0 -->
<g id="edge3" class="edge">
<title>up&#45;&gt;s2_1_2_0</title>
<path fill="none" stroke="#c0c0c0" d="M225.8396,-83.5191C217.7275,-74.5253 207.2337,-62.8909 197.588,-52.1967"/>
<polygon fill="#c0c0c0" stroke="#c0c0c0" points="200.0571,-49.7085 190.7604,-44.627 194.8591,-54.3969 200.0571,-49.7085"/>
<text text-anchor="middle" x="202.8186" y="-69.5706" font-family="Times,serif" font-size="14.00" fill="#000000"> 0.05 </text>
</g>
<!-- up&#45;&gt;s2_1_0_1 -->
<g id="edge4" class="edge">
<title>up&#45;&gt;s2_1_0_1</title>
<path fill="none" stroke="#c0c0c0" d="M253.7659,-83.5191C261.878,-74.5253 272.3717,-62.8909 282.0175,-52.1967"/>
<polygon fill="#c0c0c0" stroke="#c0c0c0" points="284.7464,-54.3969 288.8451,-44.627 279.5484,-49.7085 284.7464,-54.3969"/>
<text text-anchor="middle" x="261.0957" y="-55.4178" font-family="Times,serif" font-size="14.00" fill="#000000"> 0.45 </text>
</g>
<!-- up&#45;&gt;s2_1_0_2 -->
<g id="edge5" class="edge">
<title>up&#45;&gt;s2_1_0_2</title>
<path fill="none" stroke="#c0c0c0" d="M263.5483,-90.2245C297.8337,-77.5538 361.7457,-53.9341 404.2885,-38.2118"/>
<polygon fill="#c0c0c0" stroke="#c0c0c0" points="405.6504,-41.4399 413.817,-34.6904 403.2238,-34.8739 405.6504,-41.4399"/>
<text text-anchor="middle" x="281.1385" y="-68.2598" font-family="Times,serif" font-size="14.00" fill="#000000"> 0.05 </text>
</g>
</g>
</svg>
