<?xml version="1.0" encoding="UTF-8" standalone="no"?>
<!DOCTYPE svg PUBLIC "-//W3C//DTD SVG 1.1//EN"
 "http://www.w3.org/Graphics/SVG/1.1/DTD/svg11.dtd">
<!-- Generated by graphviz version 2.40.1 (20161225.0304)
 -->
<!-- Title: %3 Pages: 1 -->
<svg width="374pt" height="328pt"
 viewBox="0.00 0.00 374.00 328.00" xmlns="http://www.w3.org/2000/svg" xmlns:xlink="http://www.w3.org/1999/xlink">
<g id="graph0" class="graph" transform="scale(1 1) rotate(0) translate(4 324)">
<title>%3</title>
<polygon fill="#ffffff" stroke="transparent" points="-4,4 -4,-324 370,-324 370,4 -4,4"/>
<g id="clust1" class="cluster">
<title>cluster_state</title>
<polygon fill="none" stroke="#000000" points="134,-213 134,-312 232,-312 232,-213 134,-213"/>
<text text-anchor="middle" x="154.8276" y="-296.8" font-family="Times,serif" font-size="14.00" fill="#000000">state</text>
</g>
<g id="clust2" class="cluster">
<title>cluster_action</title>
<polygon fill="none" stroke="#000000" points="140,-115 140,-205 226,-205 226,-115 140,-115"/>
<text text-anchor="middle" x="165.1035" y="-189.8" font-family="Times,serif" font-size="14.00" fill="#000000">action</text>
</g>
<g id="clust3" class="cluster">
<title>cluster_successor_states</title>
<polygon fill="none" stroke="#000000" points="8,-8 8,-107 358,-107 358,-8 8,-8"/>
<text text-anchor="middle" x="60.126" y="-91.8" font-family="Times,serif" font-size="14.00" fill="#000000">successor states</text>
</g>
<!-- s0_1_1_0 -->
<g id="node1" class="node">
<title>s0_1_1_0</title>
<polygon fill="none" stroke="#000000" points="150.1973,-229.5 150.1973,-273.5 215.8027,-273.5 215.8027,-229.5 150.1973,-229.5"/>
<text text-anchor="middle" x="166.5986" y="-258.3" font-family="Courier,monospace" font-size="14.00" fill="#000000">  </text>
<polyline fill="none" stroke="#000000" points="183,-251.5 183,-273.5 "/>
<text text-anchor="middle" x="199.4014" y="-258.3" font-family="Courier,monospace" font-size="14.00" fill="#000000"> 2</text>
<polyline fill="none" stroke="#000000" points="150.1973,-251.5 215.8027,-251.5 "/>
<text text-anchor="middle" x="166.5986" y="-236.3" font-family="Courier,monospace" font-size="14.00" fill="#000000"> 2</text>
<polyline fill="none" stroke="#000000" points="183,-229.5 183,-251.5 "/>
<text text-anchor="middle" x="199.4014" y="-236.3" font-family="Courier,monospace" font-size="14.00" fill="#000000">  </text>
</g>
<!-- up -->
<g id="node2" class="node">
<title>up</title>
<ellipse fill="none" stroke="#000000" cx="183" cy="-149" rx="27" ry="18"/>
<text text-anchor="middle" x="183" y="-144.8" font-family="Courier,monospace" font-size="14.00" fill="#000000">up</text>
</g>
<!-- s0_1_1_0&#45;&gt;up -->
<g id="edge1" class="edge">
<title>s0_1_1_0&#45;&gt;up</title>
<path fill="none" stroke="#000000" d="M183,-229.259C183,-213.9965 183,-193.6159 183,-177.2118"/>
<polygon fill="#000000" stroke="#000000" points="186.5001,-177.1 183,-167.1 179.5001,-177.1001 186.5001,-177.1"/>
</g>
<!-- s1_1_1_0 -->
<g id="node3" class="node">
<title>s1_1_1_0</title>
<polygon fill="none" stroke="#000000" points="276.1973,-24.5 276.1973,-68.5 341.8027,-68.5 341.8027,-24.5 276.1973,-24.5"/>
<text text-anchor="middle" x="292.5986" y="-53.3" font-family="Courier,monospace" font-size="14.00" fill="#000000"> 2</text>
<polyline fill="none" stroke="#000000" points="309,-46.5 309,-68.5 "/>
<text text-anchor="middle" x="325.4014" y="-53.3" font-family="Courier,monospace" font-size="14.00" fill="#000000"> 2</text>
<polyline fill="none" stroke="#000000" points="276.1973,-46.5 341.8027,-46.5 "/>
<text text-anchor="middle" x="292.5986" y="-31.3" font-family="Courier,monospace" font-size="14.00" fill="#000000"> 2</text>
<polyline fill="none" stroke="#000000" points="309,-24.5 309,-46.5 "/>
<text text-anchor="middle" x="325.4014" y="-31.3" font-family="Courier,monospace" font-size="14.00" fill="#000000">  </text>
</g>
<!-- up&#45;&gt;s1_1_1_0 -->
<g id="edge2" class="edge">
<title>up&#45;&gt;s1_1_1_0</title>
<path fill="none" stroke="#c0c0c0" d="M207.3496,-140.5973C225.2313,-133.5814 249.3763,-122.2651 267,-107 276.5683,-98.7123 285.0172,-87.7867 291.7817,-77.503"/>
<polygon fill="#c0c0c0" stroke="#c0c0c0" points="294.9436,-79.0478 297.2783,-68.7134 289.0086,-75.3363 294.9436,-79.0478"/>
<text text-anchor="middle" x="224.413" y="-118.1259" font-family="Times,serif" font-size="14.00" fill="#000000"> 0.45 </text>
</g>
<!-- s1_1_2_0 -->
<g id="node4" class="node">
<title>s1_1_2_0</title>
<polygon fill="none" stroke="#000000" points="192.1973,-24.5 192.1973,-68.5 257.8027,-68.5 257.8027,-24.5 192.1973,-24.5"/>
<text text-anchor="middle" x="208.5986" y="-53.3" font-family="Courier,monospace" font-size="14.00" fill="#000000"> 2</text>
<polyline fill="none" stroke="#000000" points="225,-46.5 225,-68.5 "/>
<text text-anchor="middle" x="241.4014" y="-53.3" font-family="Courier,monospace" font-size="14.00" fill="#000000"> 2</text>
<polyline fill="none" stroke="#000000" points="192.1973,-46.5 257.8027,-46.5 "/>
<text text-anchor="middle" x="208.5986" y="-31.3" font-family="Courier,monospace" font-size="14.00" fill="#000000"> 4</text>
<polyline fill="none" stroke="#000000" points="225,-24.5 225,-46.5 "/>
<text text-anchor="middle" x="241.4014" y="-31.3" font-family="Courier,monospace" font-size="14.00" fill="#000000">  </text>
</g>
<!-- up&#45;&gt;s1_1_2_0 -->
<g id="edge3" class="edge">
<title>up&#45;&gt;s1_1_2_0</title>
<path fill="none" stroke="#c0c0c0" d="M190.1247,-131.6123C196.1278,-116.9619 204.869,-95.6292 212.0982,-77.9865"/>
<polygon fill="#c0c0c0" stroke="#c0c0c0" points="215.3789,-79.2109 215.9319,-68.6305 208.9016,-76.5568 215.3789,-79.2109"/>
<text text-anchor="middle" x="188.9391" y="-102.4404" font-family="Times,serif" font-size="14.00" fill="#000000"> 0.05 </text>
</g>
<!-- s1_1_0_1 -->
<g id="node5" class="node">
<title>s1_1_0_1</title>
<polygon fill="none" stroke="#000000" points="108.1973,-24.5 108.1973,-68.5 173.8027,-68.5 173.8027,-24.5 108.1973,-24.5"/>
<text text-anchor="middle" x="124.5986" y="-53.3" font-family="Courier,monospace" font-size="14.00" fill="#000000"> 2</text>
<polyline fill="none" stroke="#000000" points="141,-46.5 141,-68.5 "/>
<text text-anchor="middle" x="157.4014" y="-53.3" font-family="Courier,monospace" font-size="14.00" fill="#000000"> 2</text>
<polyline fill="none" stroke="#000000" points="108.1973,-46.5 173.8027,-46.5 "/>
<text text-anchor="middle" x="124.5986" y="-31.3" font-family="Courier,monospace" font-size="14.00" fill="#000000">  </text>
<polyline fill="none" stroke="#000000" points="141,-24.5 141,-46.5 "/>
<text text-anchor="middle" x="157.4014" y="-31.3" font-family="Courier,monospace" font-size="14.00" fill="#000000"> 2</text>
</g>
<!-- up&#45;&gt;s1_1_0_1 -->
<g id="edge4" class="edge">
<title>up&#45;&gt;s1_1_0_1</title>
<path fill="none" stroke="#c0c0c0" d="M175.8753,-131.6123C169.8722,-116.9619 161.131,-95.6292 153.9018,-77.9865"/>
<polygon fill="#c0c0c0" stroke="#c0c0c0" points="157.0984,-76.5568 150.0681,-68.6305 150.6211,-79.2109 157.0984,-76.5568"/>
<text text-anchor="middle" x="157.5078" y="-110.4524" font-family="Times,serif" font-size="14.00" fill="#000000"> 0.45 </text>
</g>
<!-- s1_1_0_2 -->
<g id="node6" class="node">
<title>s1_1_0_2</title>
<polygon fill="none" stroke="#000000" points="24.1973,-24.5 24.1973,-68.5 89.8027,-68.5 89.8027,-24.5 24.1973,-24.5"/>
<text text-anchor="middle" x="40.5986" y="-53.3" font-family="Courier,monospace" font-size="14.00" fill="#000000"> 2</text>
<polyline fill="none" stroke="#000000" points="57,-46.5 57,-68.5 "/>
<text text-anchor="middle" x="73.4014" y="-53.3" font-family="Courier,monospace" font-size="14.00" fill="#000000"> 2</text>
<polyline fill="none" stroke="#000000" points="24.1973,-46.5 89.8027,-46.5 "/>
<text text-anchor="middle" x="40.5986" y="-31.3" font-family="Courier,monospace" font-size="14.00" fill="#000000">  </text>
<polyline fill="none" stroke="#000000" points="57,-24.5 57,-46.5 "/>
<text text-anchor="middle" x="73.4014" y="-31.3" font-family="Courier,monospace" font-size="14.00" fill="#000000"> 4</text>
</g>
<!-- up&#45;&gt;s1_1_0_2 -->
<g id="edge5" class="edge">
<title>up&#45;&gt;s1_1_0_2</title>
<path fill="none" stroke="#c0c0c0" d="M158.6504,-140.5973C140.7687,-133.5814 116.6237,-122.2651 99,-107 89.4317,-98.7123 80.9828,-87.7867 74.2183,-77.503"/>
<polygon fill="#c0c0c0" stroke="#c0c0c0" points="76.9914,-75.3363 68.7217,-68.7134 71.0564,-79.0478 76.9914,-75.3363"/>
<text text-anchor="middle" x="133.6857" y="-137.724" font-family="Times,serif" font-size="14.00" fill="#000000"> 0.05 </text>
</g>
</g>
</svg>
