<?xml version="1.0" encoding="UTF-8" standalone="no"?>
<!DOCTYPE svg PUBLIC "-//W3C//DTD SVG 1.1//EN"
 "http://www.w3.org/Graphics/SVG/1.1/DTD/svg11.dtd">
<!-- Generated by graphviz version 2.38.0 (20140413.2041)
 -->
<!-- Title: %3 Pages: 1 -->
<svg width="488pt" height="206pt"
 viewBox="0.00 0.00 487.61 206.00" xmlns="http://www.w3.org/2000/svg" xmlns:xlink="http://www.w3.org/1999/xlink">
<g id="graph0" class="graph" transform="scale(1 1) rotate(0) translate(4 202)">
<title>%3</title>
<polygon fill="white" stroke="none" points="-4,4 -4,-202 483.605,-202 483.605,4 -4,4"/>
<!-- s0_1_1_0 -->
<g id="node1" class="node"><title>s0_1_1_0</title>
<polygon fill="none" stroke="black" points="207,-153.5 207,-197.5 272.605,-197.5 272.605,-153.5 207,-153.5"/>
<text text-anchor="middle" x="223.401" y="-182.3" font-family="Courier,monospace" font-size="14.00">  </text>
<polyline fill="none" stroke="black" points="239.803,-175.5 239.803,-197.5 "/>
<text text-anchor="middle" x="256.204" y="-182.3" font-family="Courier,monospace" font-size="14.00"> 2</text>
<polyline fill="none" stroke="black" points="207,-175.5 272.605,-175.5 "/>
<text text-anchor="middle" x="223.401" y="-160.3" font-family="Courier,monospace" font-size="14.00"> 2</text>
<polyline fill="none" stroke="black" points="239.803,-153.5 239.803,-175.5 "/>
<text text-anchor="middle" x="256.204" y="-160.3" font-family="Courier,monospace" font-size="14.00">  </text>
</g>
<!-- up -->
<g id="node6" class="node"><title>up</title>
<ellipse fill="none" stroke="black" cx="239.803" cy="-99" rx="27" ry="18"/>
<text text-anchor="middle" x="239.803" y="-94.8" font-family="Courier,monospace" font-size="14.00">up</text>
</g>
<!-- s0_1_1_0&#45;&gt;up -->
<g id="edge1" class="edge"><title>s0_1_1_0&#45;&gt;up</title>
<path fill="none" stroke="black" d="M239.803,-153.351C239.803,-145.365 239.803,-136.158 239.803,-127.664"/>
<polygon fill="black" stroke="black" points="243.303,-127.432 239.803,-117.432 236.303,-127.432 243.303,-127.432"/>
</g>
<!-- s1_1_1_0 -->
<g id="node2" class="node"><title>s1_1_1_0</title>
<polygon fill="none" stroke="black" points="0,-0.5 0,-44.5 65.6055,-44.5 65.6055,-0.5 0,-0.5"/>
<text text-anchor="middle" x="16.4014" y="-29.3" font-family="Courier,monospace" font-size="14.00"> 2</text>
<polyline fill="none" stroke="black" points="32.8027,-22.5 32.8027,-44.5 "/>
<text text-anchor="middle" x="49.2041" y="-29.3" font-family="Courier,monospace" font-size="14.00"> 2</text>
<polyline fill="none" stroke="black" points="0,-22.5 65.6055,-22.5 "/>
<text text-anchor="middle" x="16.4014" y="-7.3" font-family="Courier,monospace" font-size="14.00"> 2</text>
<polyline fill="none" stroke="black" points="32.8027,-0.5 32.8027,-22.5 "/>
<text text-anchor="middle" x="49.2041" y="-7.3" font-family="Courier,monospace" font-size="14.00">  </text>
</g>
<!-- s1_1_2_0 -->
<g id="node3" class="node"><title>s1_1_2_0</title>
<polygon fill="none" stroke="black" points="138,-0.5 138,-44.5 203.605,-44.5 203.605,-0.5 138,-0.5"/>
<text text-anchor="middle" x="154.401" y="-29.3" font-family="Courier,monospace" font-size="14.00"> 2</text>
<polyline fill="none" stroke="black" points="170.803,-22.5 170.803,-44.5 "/>
<text text-anchor="middle" x="187.204" y="-29.3" font-family="Courier,monospace" font-size="14.00"> 2</text>
<polyline fill="none" stroke="black" points="138,-22.5 203.605,-22.5 "/>
<text text-anchor="middle" x="154.401" y="-7.3" font-family="Courier,monospace" font-size="14.00"> 4</text>
<polyline fill="none" stroke="black" points="170.803,-0.5 170.803,-22.5 "/>
<text text-anchor="middle" x="187.204" y="-7.3" font-family="Courier,monospace" font-size="14.00">  </text>
</g>
<!-- s1_1_0_1 -->
<g id="node4" class="node"><title>s1_1_0_1</title>
<polygon fill="none" stroke="black" points="276,-0.5 276,-44.5 341.605,-44.5 341.605,-0.5 276,-0.5"/>
<text text-anchor="middle" x="292.401" y="-29.3" font-family="Courier,monospace" font-size="14.00"> 2</text>
<polyline fill="none" stroke="black" points="308.803,-22.5 308.803,-44.5 "/>
<text text-anchor="middle" x="325.204" y="-29.3" font-family="Courier,monospace" font-size="14.00"> 2</text>
<polyline fill="none" stroke="black" points="276,-22.5 341.605,-22.5 "/>
<text text-anchor="middle" x="292.401" y="-7.3" font-family="Courier,monospace" font-size="14.00">  </text>
<polyline fill="none" stroke="black" points="308.803,-0.5 308.803,-22.5 "/>
<text text-anchor="middle" x="325.204" y="-7.3" font-family="Courier,monospace" font-size="14.00"> 2</text>
</g>
<!-- s1_1_0_2 -->
<g id="node5" class="node"><title>s1_1_0_2</title>
<polygon fill="none" stroke="black" points="414,-0.5 414,-44.5 479.605,-44.5 479.605,-0.5 414,-0.5"/>
<text text-anchor="middle" x="430.401" y="-29.3" font-family="Courier,monospace" font-size="14.00"> 2</text>
<polyline fill="none" stroke="black" points="446.803,-22.5 446.803,-44.5 "/>
<text text-anchor="middle" x="463.204" y="-29.3" font-family="Courier,monospace" font-size="14.00"> 2</text>
<polyline fill="none" stroke="black" points="414,-22.5 479.605,-22.5 "/>
<text text-anchor="middle" x="430.401" y="-7.3" font-family="Courier,monospace" font-size="14.00">  </text>
<polyline fill="none" stroke="black" points="446.803,-0.5 446.803,-22.5 "/>
<text text-anchor="middle" x="463.204" y="-7.3" font-family="Courier,monospace" font-size="14.00"> 4</text>
</g>
<!-- up&#45;&gt;s1_1_1_0 -->
<g id="edge2" class="edge"><title>up&#45;&gt;s1_1_1_0</title>
<path fill="none" stroke="grey" d="M216.46,-89.5987C182.323,-77.3129 118.212,-54.2392 75.5022,-38.8677"/>
<polygon fill="grey" stroke="grey" points="76.5297,-35.5178 65.9353,-35.4245 74.1592,-42.1042 76.5297,-35.5178"/>
<text text-anchor="middle" x="191.563" y="-87.6672" font-family="Times,serif" font-size="14.00"> 0.45 </text>
</g>
<!-- up&#45;&gt;s1_1_2_0 -->
<g id="edge3" class="edge"><title>up&#45;&gt;s1_1_2_0</title>
<path fill="none" stroke="grey" d="M226.171,-83.2812C217.954,-74.4092 207.207,-62.8057 197.37,-52.1846"/>
<polygon fill="grey" stroke="grey" points="199.78,-49.6359 190.417,-44.6774 194.644,-54.3924 199.78,-49.6359"/>
<text text-anchor="middle" x="203.023" y="-69.6372" font-family="Times,serif" font-size="14.00"> 0.05 </text>
</g>
<!-- up&#45;&gt;s1_1_0_1 -->
<g id="edge4" class="edge"><title>up&#45;&gt;s1_1_0_1</title>
<path fill="none" stroke="grey" d="M253.435,-83.2812C261.652,-74.4092 272.399,-62.8057 282.236,-52.1846"/>
<polygon fill="grey" stroke="grey" points="284.962,-54.3924 289.189,-44.6774 279.826,-49.6359 284.962,-54.3924"/>
<text text-anchor="middle" x="261.079" y="-55.2786" font-family="Times,serif" font-size="14.00"> 0.45 </text>
</g>
<!-- up&#45;&gt;s1_1_0_2 -->
<g id="edge5" class="edge"><title>up&#45;&gt;s1_1_0_2</title>
<path fill="none" stroke="grey" d="M263.146,-89.5987C297.282,-77.3129 361.393,-54.2392 404.103,-38.8677"/>
<polygon fill="grey" stroke="grey" points="405.446,-42.1042 413.67,-35.4245 403.076,-35.5178 405.446,-42.1042"/>
<text text-anchor="middle" x="280.887" y="-67.7847" font-family="Times,serif" font-size="14.00"> 0.05 </text>
</g>
</g>
</svg>
