<?xml version="1.0" encoding="UTF-8" standalone="no"?>
<!DOCTYPE svg PUBLIC "-//W3C//DTD SVG 1.1//EN"
 "http://www.w3.org/Graphics/SVG/1.1/DTD/svg11.dtd">
<!-- Generated by graphviz version 2.40.1 (20161225.0304)
 -->
<!-- Title: %3 Pages: 1 -->
<svg width="139pt" height="97pt"
 viewBox="0.00 0.00 139.21 97.00" xmlns="http://www.w3.org/2000/svg" xmlns:xlink="http://www.w3.org/1999/xlink">
<g id="graph0" class="graph" transform="scale(1 1) rotate(0) translate(4 93)">
<title>%3</title>
<polygon fill="#ffffff" stroke="transparent" points="-4,4 -4,-93 135.2109,-93 135.2109,4 -4,4"/>
<!-- s2_3_4_5_4_5_4_5_5_4_5_4_4_5_4_5 -->
<g id="node1" class="node">
<title>s2_3_4_5_4_5_4_5_5_4_5_4_4_5_4_5</title>
<polygon fill="none" stroke="#000000" points="0,-.5 0,-88.5 131.2109,-88.5 131.2109,-.5 0,-.5"/>
<text text-anchor="middle" x="16.4014" y="-73.3" font-family="Courier,monospace" font-size="14.00" fill="#000000"> 4</text>
<polyline fill="none" stroke="#000000" points="32.8027,-66.5 32.8027,-88.5 "/>
<text text-anchor="middle" x="49.2041" y="-73.3" font-family="Courier,monospace" font-size="14.00" fill="#000000"> 8</text>
<polyline fill="none" stroke="#000000" points="65.6055,-66.5 65.6055,-88.5 "/>
<text text-anchor="middle" x="82.0068" y="-73.3" font-family="Courier,monospace" font-size="14.00" fill="#000000">16</text>
<polyline fill="none" stroke="#000000" points="98.4082,-66.5 98.4082,-88.5 "/>
<text text-anchor="middle" x="114.8096" y="-73.3" font-family="Courier,monospace" font-size="14.00" fill="#000000">32</text>
<polyline fill="none" stroke="#000000" points="0,-66.5 131.2109,-66.5 "/>
<text text-anchor="middle" x="16.4014" y="-51.3" font-family="Courier,monospace" font-size="14.00" fill="#000000">16</text>
<polyline fill="none" stroke="#000000" points="32.8027,-44.5 32.8027,-66.5 "/>
<text text-anchor="middle" x="49.2041" y="-51.3" font-family="Courier,monospace" font-size="14.00" fill="#000000">32</text>
<polyline fill="none" stroke="#000000" points="65.6055,-44.5 65.6055,-66.5 "/>
<text text-anchor="middle" x="82.0068" y="-51.3" font-family="Courier,monospace" font-size="14.00" fill="#000000">16</text>
<polyline fill="none" stroke="#000000" points="98.4082,-44.5 98.4082,-66.5 "/>
<text text-anchor="middle" x="114.8096" y="-51.3" font-family="Courier,monospace" font-size="14.00" fill="#000000">32</text>
<polyline fill="none" stroke="#000000" points="0,-44.5 131.2109,-44.5 "/>
<text text-anchor="middle" x="16.4014" y="-29.3" font-family="Courier,monospace" font-size="14.00" fill="#000000">32</text>
<polyline fill="none" stroke="#000000" points="32.8027,-22.5 32.8027,-44.5 "/>
<text text-anchor="middle" x="49.2041" y="-29.3" font-family="Courier,monospace" font-size="14.00" fill="#000000">16</text>
<polyline fill="none" stroke="#000000" points="65.6055,-22.5 65.6055,-44.5 "/>
<text text-anchor="middle" x="82.0068" y="-29.3" font-family="Courier,monospace" font-size="14.00" fill="#000000">32</text>
<polyline fill="none" stroke="#000000" points="98.4082,-22.5 98.4082,-44.5 "/>
<text text-anchor="middle" x="114.8096" y="-29.3" font-family="Courier,monospace" font-size="14.00" fill="#000000">16</text>
<polyline fill="none" stroke="#000000" points="0,-22.5 131.2109,-22.5 "/>
<text text-anchor="middle" x="16.4014" y="-7.3" font-family="Courier,monospace" font-size="14.00" fill="#000000">16</text>
<polyline fill="none" stroke="#000000" points="32.8027,-.5 32.8027,-22.5 "/>
<text text-anchor="middle" x="49.2041" y="-7.3" font-family="Courier,monospace" font-size="14.00" fill="#000000">32</text>
<polyline fill="none" stroke="#000000" points="65.6055,-.5 65.6055,-22.5 "/>
<text text-anchor="middle" x="82.0068" y="-7.3" font-family="Courier,monospace" font-size="14.00" fill="#000000">16</text>
<polyline fill="none" stroke="#000000" points="98.4082,-.5 98.4082,-22.5 "/>
<text text-anchor="middle" x="114.8096" y="-7.3" font-family="Courier,monospace" font-size="14.00" fill="#000000">32</text>
</g>
</g>
</svg>
