<?xml version="1.0" encoding="UTF-8" standalone="no"?>
<!DOCTYPE svg PUBLIC "-//W3C//DTD SVG 1.1//EN"
 "http://www.w3.org/Graphics/SVG/1.1/DTD/svg11.dtd">
<!-- Generated by graphviz version 2.40.1 (20161225.0304)
 -->
<!-- Title: %3 Pages: 1 -->
<svg width="206pt" height="97pt"
 viewBox="0.00 0.00 206.42 97.00" xmlns="http://www.w3.org/2000/svg" xmlns:xlink="http://www.w3.org/1999/xlink">
<g id="graph0" class="graph" transform="scale(1 1) rotate(0) translate(4 93)">
<title>%3</title>
<polygon fill="#ffffff" stroke="transparent" points="-4,4 -4,-93 202.4219,-93 202.4219,4 -4,4"/>
<!-- s0_2_2_11_0_1_3_0_2_0_1_0_0_0_0_0 -->
<g id="node1" class="node">
<title>s0_2_2_11_0_1_3_0_2_0_1_0_0_0_0_0</title>
<polygon fill="none" stroke="#000000" points="0,-.5 0,-88.5 198.4219,-88.5 198.4219,-.5 0,-.5"/>
<text text-anchor="middle" x="24.8027" y="-73.3" font-family="Courier,monospace" font-size="14.00" fill="#000000">    </text>
<polyline fill="none" stroke="#000000" points="49.6055,-66.5 49.6055,-88.5 "/>
<text text-anchor="middle" x="74.4082" y="-73.3" font-family="Courier,monospace" font-size="14.00" fill="#000000">   4</text>
<polyline fill="none" stroke="#000000" points="99.2109,-66.5 99.2109,-88.5 "/>
<text text-anchor="middle" x="124.0137" y="-73.3" font-family="Courier,monospace" font-size="14.00" fill="#000000">   4</text>
<polyline fill="none" stroke="#000000" points="148.8164,-66.5 148.8164,-88.5 "/>
<text text-anchor="middle" x="173.6191" y="-73.3" font-family="Courier,monospace" font-size="14.00" fill="#000000">2048</text>
<polyline fill="none" stroke="#000000" points="0,-66.5 198.4219,-66.5 "/>
<text text-anchor="middle" x="24.8027" y="-51.3" font-family="Courier,monospace" font-size="14.00" fill="#000000">    </text>
<polyline fill="none" stroke="#000000" points="49.6055,-44.5 49.6055,-66.5 "/>
<text text-anchor="middle" x="74.4082" y="-51.3" font-family="Courier,monospace" font-size="14.00" fill="#000000">   2</text>
<polyline fill="none" stroke="#000000" points="99.2109,-44.5 99.2109,-66.5 "/>
<text text-anchor="middle" x="124.0137" y="-51.3" font-family="Courier,monospace" font-size="14.00" fill="#000000">   8</text>
<polyline fill="none" stroke="#000000" points="148.8164,-44.5 148.8164,-66.5 "/>
<text text-anchor="middle" x="173.6191" y="-51.3" font-family="Courier,monospace" font-size="14.00" fill="#000000">    </text>
<polyline fill="none" stroke="#000000" points="0,-44.5 198.4219,-44.5 "/>
<text text-anchor="middle" x="24.8027" y="-29.3" font-family="Courier,monospace" font-size="14.00" fill="#000000">   4</text>
<polyline fill="none" stroke="#000000" points="49.6055,-22.5 49.6055,-44.5 "/>
<text text-anchor="middle" x="74.4082" y="-29.3" font-family="Courier,monospace" font-size="14.00" fill="#000000">    </text>
<polyline fill="none" stroke="#000000" points="99.2109,-22.5 99.2109,-44.5 "/>
<text text-anchor="middle" x="124.0137" y="-29.3" font-family="Courier,monospace" font-size="14.00" fill="#000000">   2</text>
<polyline fill="none" stroke="#000000" points="148.8164,-22.5 148.8164,-44.5 "/>
<text text-anchor="middle" x="173.6191" y="-29.3" font-family="Courier,monospace" font-size="14.00" fill="#000000">    </text>
<polyline fill="none" stroke="#000000" points="0,-22.5 198.4219,-22.5 "/>
<text text-anchor="middle" x="24.8027" y="-7.3" font-family="Courier,monospace" font-size="14.00" fill="#000000">    </text>
<polyline fill="none" stroke="#000000" points="49.6055,-.5 49.6055,-22.5 "/>
<text text-anchor="middle" x="74.4082" y="-7.3" font-family="Courier,monospace" font-size="14.00" fill="#000000">    </text>
<polyline fill="none" stroke="#000000" points="99.2109,-.5 99.2109,-22.5 "/>
<text text-anchor="middle" x="124.0137" y="-7.3" font-family="Courier,monospace" font-size="14.00" fill="#000000">    </text>
<polyline fill="none" stroke="#000000" points="148.8164,-.5 148.8164,-22.5 "/>
<text text-anchor="middle" x="173.6191" y="-7.3" font-family="Courier,monospace" font-size="14.00" fill="#000000">    </text>
</g>
</g>
</svg>
