<?xml version="1.0" encoding="UTF-8" standalone="no"?>
<!DOCTYPE svg PUBLIC "-//W3C//DTD SVG 1.1//EN"
 "http://www.w3.org/Graphics/SVG/1.1/DTD/svg11.dtd">
<!-- Generated by graphviz version 2.40.1 (20161225.0304)
 -->
<!-- Title: %3 Pages: 1 -->
<svg width="744pt" height="292pt"
 viewBox="0.00 0.00 743.67 292.00" xmlns="http://www.w3.org/2000/svg" xmlns:xlink="http://www.w3.org/1999/xlink">
<g id="graph0" class="graph" transform="scale(1 1) rotate(0) translate(4 288)">
<title>%3</title>
<polygon fill="#ffffff" stroke="transparent" points="-4,4 -4,-288 739.6748,-288 739.6748,4 -4,4"/>
<g id="clust1" class="cluster">
<title>cluster_4</title>
<polygon fill="#f2f2f2" stroke="#f2f2f2" points="104.5,-104 104.5,-194 200.2228,-194 200.2228,-104 104.5,-104"/>
<text text-anchor="middle" x="152.3614" y="-178.8" font-family="Times,serif" font-size="14.00" fill="#000000">sum: 4</text>
</g>
<g id="clust2" class="cluster">
<title>cluster_6</title>
<polygon fill="#f2f2f2" stroke="#f2f2f2" points="240.7228,-44 240.7228,-134 336.4456,-134 336.4456,-44 240.7228,-44"/>
<text text-anchor="middle" x="288.5842" y="-118.8" font-family="Times,serif" font-size="14.00" fill="#000000">sum: 6</text>
</g>
<g id="clust3" class="cluster">
<title>cluster_8</title>
<polygon fill="#f2f2f2" stroke="#f2f2f2" points="353.4456,-113 353.4456,-257 466.8553,-257 466.8553,-113 353.4456,-113"/>
<text text-anchor="middle" x="410.1505" y="-241.8" font-family="Times,serif" font-size="14.00" fill="#000000">sum: 8</text>
</g>
<g id="clust4" class="cluster">
<title>cluster_10</title>
<polygon fill="#f2f2f2" stroke="#f2f2f2" points="483.8553,-8 483.8553,-152 597.2651,-152 597.2651,-8 483.8553,-8"/>
<text text-anchor="middle" x="540.5602" y="-136.8" font-family="Times,serif" font-size="14.00" fill="#000000">10</text>
</g>
<g id="clust5" class="cluster">
<title>cluster_12</title>
<polygon fill="#f2f2f2" stroke="#f2f2f2" points="614.2651,-78 614.2651,-276 727.6748,-276 727.6748,-78 614.2651,-78"/>
<text text-anchor="middle" x="670.9699" y="-260.8" font-family="Times,serif" font-size="14.00" fill="#000000">12</text>
</g>
<!-- s_2_2 -->
<g id="node1" class="node">
<title>s_2_2</title>
<ellipse fill="none" stroke="#000000" cx="152.3614" cy="-138" rx="31.7234" ry="18"/>
<text text-anchor="middle" x="152.3614" y="-133.8" font-family="Times,serif" font-size="14.00" fill="#000000">{2, 2}</text>
</g>
<!-- s_2_4 -->
<g id="node2" class="node">
<title>s_2_4</title>
<ellipse fill="none" stroke="#000000" cx="288.5842" cy="-78" rx="31.7234" ry="18"/>
<text text-anchor="middle" x="288.5842" y="-73.8" font-family="Times,serif" font-size="14.00" fill="#000000">{2, 4}</text>
</g>
<!-- s_2_2&#45;&gt;s_2_4 -->
<g id="edge4" class="edge">
<title>s_2_2&#45;&gt;s_2_4</title>
<path fill="none" stroke="#000000" d="M177.6646,-126.8551C199.1695,-117.3832 230.2488,-103.6941 254.0413,-93.2146"/>
<polygon fill="#000000" stroke="#000000" points="255.6757,-96.3192 263.4165,-89.0852 252.854,-89.9131 255.6757,-96.3192"/>
<text text-anchor="middle" x="220.4728" y="-115.8" font-family="Times,serif" font-size="14.00" fill="#000000">0.90</text>
</g>
<!-- s_4_4 -->
<g id="node4" class="node">
<title>s_4_4</title>
<ellipse fill="none" stroke="#000000" cx="410.1505" cy="-201" rx="31.7234" ry="18"/>
<text text-anchor="middle" x="410.1505" y="-196.8" font-family="Times,serif" font-size="14.00" fill="#000000">{4, 4}</text>
</g>
<!-- s_2_2&#45;&gt;s_4_4 -->
<g id="edge5" class="edge">
<title>s_2_2&#45;&gt;s_4_4</title>
<path fill="none" stroke="#000000" stroke-dasharray="5,2" d="M181.9331,-145.2269C228.4278,-156.5896 318.6721,-178.644 370.6637,-191.35"/>
<polygon fill="#000000" stroke="#000000" points="369.9827,-194.7865 380.5277,-193.7606 371.6445,-187.9866 369.9827,-194.7865"/>
<text text-anchor="middle" x="288.5842" y="-184.8" font-family="Times,serif" font-size="14.00" fill="#000000">0.10</text>
</g>
<!-- s_2_2_4 -->
<g id="node3" class="node">
<title>s_2_2_4</title>
<ellipse fill="none" stroke="#000000" cx="410.1505" cy="-147" rx="40.9108" ry="18"/>
<text text-anchor="middle" x="410.1505" y="-142.8" font-family="Times,serif" font-size="14.00" fill="#000000">{2, 2, 4}</text>
</g>
<!-- s_2_4&#45;&gt;s_2_2_4 -->
<g id="edge6" class="edge">
<title>s_2_4&#45;&gt;s_2_2_4</title>
<path fill="none" stroke="#000000" d="M311.165,-90.8167C329.3481,-101.1373 355.2016,-115.8115 375.9269,-127.575"/>
<polygon fill="#000000" stroke="#000000" points="374.325,-130.6902 384.7495,-132.5826 377.7804,-124.6025 374.325,-130.6902"/>
</g>
<!-- s_2_4_4 -->
<g id="node5" class="node">
<title>s_2_4_4</title>
<ellipse fill="none" stroke="#000000" cx="540.5602" cy="-42" rx="40.9108" ry="18"/>
<text text-anchor="middle" x="540.5602" y="-37.8" font-family="Times,serif" font-size="14.00" fill="#000000">{2, 4, 4}</text>
</g>
<!-- s_2_4&#45;&gt;s_2_4_4 -->
<g id="edge7" class="edge">
<title>s_2_4&#45;&gt;s_2_4_4</title>
<path fill="none" stroke="#000000" stroke-dasharray="5,2" d="M319.4814,-73.5857C362.3894,-67.4554 440.4781,-56.2988 491.4281,-49.0195"/>
<polygon fill="#000000" stroke="#000000" points="492.1472,-52.4524 501.5517,-47.5732 491.1571,-45.5228 492.1472,-52.4524"/>
</g>
<!-- s_2_2_4&#45;&gt;s_2_4_4 -->
<g id="edge8" class="edge">
<title>s_2_2_4&#45;&gt;s_2_4_4</title>
<path fill="none" stroke="#000000" d="M426.2446,-130.42C439.647,-116.5365 459.1673,-96.1378 475.8553,-78 479.479,-74.0616 479.5763,-72.2144 483.8553,-69 489.0043,-65.1321 494.7957,-61.6117 500.6591,-58.4845"/>
<polygon fill="#000000" stroke="#000000" points="502.4636,-61.4957 509.8501,-53.9004 499.3393,-55.2316 502.4636,-61.4957"/>
</g>
<!-- s_4_4_4 -->
<g id="node8" class="node">
<title>s_4_4_4</title>
<ellipse fill="none" stroke="#000000" cx="670.9699" cy="-166" rx="40.9108" ry="18"/>
<text text-anchor="middle" x="670.9699" y="-161.8" font-family="Times,serif" font-size="14.00" fill="#000000">{4, 4, 4}</text>
</g>
<!-- s_2_2_4&#45;&gt;s_4_4_4 -->
<g id="edge9" class="edge">
<title>s_2_2_4&#45;&gt;s_4_4_4</title>
<path fill="none" stroke="#000000" stroke-dasharray="5,2" d="M449.1147,-152.2606C460.3138,-153.6361 472.5546,-155.0092 483.8553,-156 529.7698,-160.0255 582.1744,-162.6582 619.8223,-164.2068"/>
<polygon fill="#000000" stroke="#000000" points="619.9,-167.7126 630.0319,-164.6151 620.1798,-160.7182 619.9,-167.7126"/>
</g>
<!-- s_2_8 -->
<g id="node6" class="node">
<title>s_2_8</title>
<ellipse fill="none" stroke="#000000" cx="540.5602" cy="-96" rx="31.7234" ry="18"/>
<text text-anchor="middle" x="540.5602" y="-91.8" font-family="Times,serif" font-size="14.00" fill="#000000">{2, 8}</text>
</g>
<!-- s_4_4&#45;&gt;s_2_8 -->
<g id="edge10" class="edge">
<title>s_4_4&#45;&gt;s_2_8</title>
<path fill="none" stroke="#000000" d="M436.6861,-190.804C446.6084,-186.3791 457.6861,-180.672 466.8553,-174 487.6377,-158.8776 507.425,-137.403 521.2545,-120.8138"/>
<polygon fill="#000000" stroke="#000000" points="524.3098,-122.6053 527.9172,-112.6435 518.8849,-118.1814 524.3098,-122.6053"/>
</g>
<!-- s_4_8 -->
<g id="node9" class="node">
<title>s_4_8</title>
<ellipse fill="none" stroke="#000000" cx="670.9699" cy="-220" rx="31.7234" ry="18"/>
<text text-anchor="middle" x="670.9699" y="-215.8" font-family="Times,serif" font-size="14.00" fill="#000000">{4, 8}</text>
</g>
<!-- s_4_4&#45;&gt;s_4_8 -->
<g id="edge11" class="edge">
<title>s_4_4&#45;&gt;s_4_8</title>
<path fill="none" stroke="#000000" stroke-dasharray="5,2" d="M441.8713,-203.3108C488.7377,-206.7249 576.5564,-213.1222 628.7968,-216.9278"/>
<polygon fill="#000000" stroke="#000000" points="628.8344,-220.4397 639.0623,-217.6756 629.343,-213.4582 628.8344,-220.4397"/>
</g>
<!-- s_2_2_8 -->
<g id="node7" class="node">
<title>s_2_2_8</title>
<ellipse fill="none" stroke="#000000" cx="670.9699" cy="-112" rx="40.9108" ry="18"/>
<text text-anchor="middle" x="670.9699" y="-107.8" font-family="Times,serif" font-size="14.00" fill="#000000">{2, 2, 8}</text>
</g>
<!-- s_2_4_4&#45;&gt;s_2_2_8 -->
<g id="edge12" class="edge">
<title>s_2_4_4&#45;&gt;s_2_2_8</title>
<path fill="none" stroke="#000000" d="M569.0577,-54.9982C578.1515,-59.2976 588.2037,-64.2102 597.2651,-69 610.8606,-76.1865 625.5491,-84.615 638.2087,-92.0966"/>
<polygon fill="#000000" stroke="#000000" points="636.641,-95.2366 647.0237,-97.3458 640.2225,-89.2222 636.641,-95.2366"/>
</g>
<!-- s_2_8&#45;&gt;s_2_2_8 -->
<g id="edge13" class="edge">
<title>s_2_8&#45;&gt;s_2_2_8</title>
<path fill="none" stroke="#000000" d="M571.7966,-99.8324C586.6481,-101.6545 604.7616,-103.8769 621.4248,-105.9213"/>
<polygon fill="#000000" stroke="#000000" points="621.2186,-109.4222 631.5704,-107.1661 622.0711,-102.4743 621.2186,-109.4222"/>
</g>
<!-- s_ -->
<g id="node10" class="node">
<title>s_</title>
<ellipse fill="none" stroke="#000000" cx="27" cy="-138" rx="27" ry="18"/>
<text text-anchor="middle" x="27" y="-133.8" font-family="Times,serif" font-size="14.00" fill="#000000">{}</text>
</g>
<!-- s_&#45;&gt;s_2_2 -->
<g id="edge1" class="edge">
<title>s_&#45;&gt;s_2_2</title>
<path fill="none" stroke="#000000" d="M54.2016,-138C70.5307,-138 91.6498,-138 110.1131,-138"/>
<polygon fill="#000000" stroke="#000000" points="110.3346,-141.5001 120.3345,-138 110.3345,-134.5001 110.3346,-141.5001"/>
<text text-anchor="middle" x="84.25" y="-140.8" font-family="Times,serif" font-size="14.00" fill="#000000">0.81</text>
</g>
<!-- s_&#45;&gt;s_2_4 -->
<g id="edge2" class="edge">
<title>s_&#45;&gt;s_2_4</title>
<path fill="none" stroke="#000000" d="M43.1032,-123.2755C57.8642,-110.7962 80.9463,-93.7324 104.5,-86 151.5895,-70.5411 209.107,-70.8637 247.1825,-73.5279"/>
<polygon fill="#000000" stroke="#000000" points="247.1376,-77.0351 257.3813,-74.3302 247.6866,-70.0566 247.1376,-77.0351"/>
<text text-anchor="middle" x="152.3614" y="-88.8" font-family="Times,serif" font-size="14.00" fill="#000000">0.18</text>
</g>
<!-- s_&#45;&gt;s_4_4 -->
<g id="edge3" class="edge">
<title>s_&#45;&gt;s_4_4</title>
<path fill="none" stroke="#000000" d="M40.9496,-153.4643C55.2525,-168.0801 78.9643,-189.0605 104.5,-198 194.9828,-229.6759 309.9702,-218.1398 369.8189,-208.6052"/>
<polygon fill="#000000" stroke="#000000" points="370.6929,-212.0082 379.9855,-206.9192 369.5476,-205.1025 370.6929,-212.0082"/>
<text text-anchor="middle" x="220.4728" y="-220.8" font-family="Times,serif" font-size="14.00" fill="#000000">0.01</text>
</g>
</g>
</svg>
