<?xml version="1.0" encoding="UTF-8" standalone="no"?>
<!DOCTYPE svg PUBLIC "-//W3C//DTD SVG 1.1//EN"
 "http://www.w3.org/Graphics/SVG/1.1/DTD/svg11.dtd">
<!-- Generated by graphviz version 2.40.1 (20161225.0304)
 -->
<!-- Title: %3 Pages: 1 -->
<svg width="242pt" height="76pt"
 viewBox="0.00 0.00 242.31 76.00" xmlns="http://www.w3.org/2000/svg" xmlns:xlink="http://www.w3.org/1999/xlink">
<g id="graph0" class="graph" transform="scale(1 1) rotate(0) translate(4 72)">
<title>%3</title>
<polygon fill="#ffffff" stroke="transparent" points="-4,4 -4,-72 238.314,-72 238.314,4 -4,4"/>
<!-- previous -->
<g id="node1" class="node">
<title>previous</title>
<ellipse fill="none" stroke="#000000" cx="27" cy="-18" rx="27" ry="18"/>
<text text-anchor="middle" x="27" y="-13.8" font-family="Times,serif" font-size="14.00" fill="#000000">...</text>
</g>
<!-- s_2_4_4_8_2048 -->
<g id="node2" class="node">
<title>s_2_4_4_8_2048</title>
<ellipse fill="none" stroke="#000000" cx="162.657" cy="-18" rx="71.8143" ry="18"/>
<text text-anchor="middle" x="162.657" y="-13.8" font-family="Times,serif" font-size="14.00" fill="#000000">{2, 4, 4, 8, 2048}</text>
</g>
<!-- previous&#45;&gt;s_2_4_4_8_2048 -->
<g id="edge1" class="edge">
<title>previous&#45;&gt;s_2_4_4_8_2048</title>
<path fill="none" stroke="#000000" d="M54.1262,-18C62.1029,-18 71.2714,-18 80.8275,-18"/>
<polygon fill="#000000" stroke="#000000" points="80.8927,-21.5001 90.8926,-18 80.8926,-14.5001 80.8927,-21.5001"/>
</g>
<!-- s_2_4_4_8_2048&#45;&gt;s_2_4_4_8_2048 -->
<g id="edge2" class="edge">
<title>s_2_4_4_8_2048&#45;&gt;s_2_4_4_8_2048</title>
<path fill="none" stroke="#000000" d="M146.9836,-46.0981C149.1846,-50.7749 154.409,-54 162.657,-54 176.1922,-54 181.5851,-45.3149 178.8357,-35.7817"/>
<polygon fill="#000000" stroke="#000000" points="150.4634,-45.5985 146.4783,-35.7817 143.4718,-45.941 150.4634,-45.5985"/>
<text text-anchor="middle" x="162.657" y="-56.8" font-family="Times,serif" font-size="14.00" fill="#000000">1.0</text>
</g>
</g>
</svg>
