<?xml version="1.0" encoding="UTF-8" standalone="no"?>
<!DOCTYPE svg PUBLIC "-//W3C//DTD SVG 1.1//EN"
 "http://www.w3.org/Graphics/SVG/1.1/DTD/svg11.dtd">
<!-- Generated by graphviz version 2.40.1 (20161225.0304)
 -->
<!-- Title: %3 Pages: 1 -->
<svg width="186pt" height="152pt"
 viewBox="0.00 0.00 186.22 152.00" xmlns="http://www.w3.org/2000/svg" xmlns:xlink="http://www.w3.org/1999/xlink">
<g id="graph0" class="graph" transform="scale(1 1) rotate(0) translate(4 148)">
<title>%3</title>
<polygon fill="#ffffff" stroke="transparent" points="-4,4 -4,-148 182.2228,-148 182.2228,4 -4,4"/>
<!-- s_ -->
<g id="node1" class="node">
<title>s_</title>
<ellipse fill="none" stroke="#000000" cx="27" cy="-72" rx="27" ry="18"/>
<text text-anchor="middle" x="27" y="-67.8" font-family="Times,serif" font-size="14.00" fill="#000000">{}</text>
</g>
<!-- s_2_2 -->
<g id="node2" class="node">
<title>s_2_2</title>
<ellipse fill="none" stroke="#0000ff" cx="146.3614" cy="-126" rx="31.7234" ry="18"/>
<text text-anchor="middle" x="146.3614" y="-121.8" font-family="Times,serif" font-size="14.00" fill="#000000">{2, 2}</text>
</g>
<!-- s_&#45;&gt;s_2_2 -->
<g id="edge1" class="edge">
<title>s_&#45;&gt;s_2_2</title>
<path fill="none" stroke="#0000ff" d="M49.451,-82.157C67.0571,-90.1222 91.8606,-101.3434 111.9667,-110.4396"/>
<polygon fill="#0000ff" stroke="#0000ff" points="110.5649,-113.6469 121.1186,-114.58 113.4503,-107.2692 110.5649,-113.6469"/>
<text text-anchor="middle" x="84.25" y="-104.8" font-family="Times,serif" font-size="14.00" fill="#000000">0.81</text>
</g>
<!-- s_2_4 -->
<g id="node3" class="node">
<title>s_2_4</title>
<ellipse fill="none" stroke="#0000ff" cx="146.3614" cy="-72" rx="31.7234" ry="18"/>
<text text-anchor="middle" x="146.3614" y="-67.8" font-family="Times,serif" font-size="14.00" fill="#000000">{2, 4}</text>
</g>
<!-- s_&#45;&gt;s_2_4 -->
<g id="edge2" class="edge">
<title>s_&#45;&gt;s_2_4</title>
<path fill="none" stroke="#0000ff" d="M54.0849,-72C68.8947,-72 87.5673,-72 104.2348,-72"/>
<polygon fill="#0000ff" stroke="#0000ff" points="104.3012,-75.5001 114.3012,-72 104.3011,-68.5001 104.3012,-75.5001"/>
<text text-anchor="middle" x="84.25" y="-74.8" font-family="Times,serif" font-size="14.00" fill="#000000">0.18</text>
</g>
<!-- s_4_4 -->
<g id="node4" class="node">
<title>s_4_4</title>
<ellipse fill="none" stroke="#0000ff" cx="146.3614" cy="-18" rx="31.7234" ry="18"/>
<text text-anchor="middle" x="146.3614" y="-13.8" font-family="Times,serif" font-size="14.00" fill="#000000">{4, 4}</text>
</g>
<!-- s_&#45;&gt;s_4_4 -->
<g id="edge3" class="edge">
<title>s_&#45;&gt;s_4_4</title>
<path fill="none" stroke="#0000ff" d="M49.451,-61.843C67.0571,-53.8778 91.8606,-42.6566 111.9667,-33.5604"/>
<polygon fill="#0000ff" stroke="#0000ff" points="113.4503,-36.7308 121.1186,-29.42 110.5649,-30.3531 113.4503,-36.7308"/>
<text text-anchor="middle" x="84.25" y="-53.8" font-family="Times,serif" font-size="14.00" fill="#000000">0.01</text>
</g>
</g>
</svg>
