<?xml version="1.0" encoding="UTF-8" standalone="no"?>
<!DOCTYPE svg PUBLIC "-//W3C//DTD SVG 1.1//EN"
 "http://www.w3.org/Graphics/SVG/1.1/DTD/svg11.dtd">
<!-- Generated by graphviz version 2.40.1 (20161225.0304)
 -->
<!-- Title: %3 Pages: 1 -->
<svg width="673pt" height="292pt"
 viewBox="0.00 0.00 673.29 292.00" xmlns="http://www.w3.org/2000/svg" xmlns:xlink="http://www.w3.org/1999/xlink">
<g id="graph0" class="graph" transform="scale(1 1) rotate(0) translate(4 288)">
<title>%3</title>
<polygon fill="#ffffff" stroke="transparent" points="-4,4 -4,-288 669.2929,-288 669.2929,4 -4,4"/>
<g id="clust1" class="cluster">
<title>cluster_0004</title>
<polygon fill="#f2f2f2" stroke="#f2f2f2" points="104.5,-104 104.5,-194 190.5,-194 190.5,-104 104.5,-104"/>
<text text-anchor="middle" x="147.5" y="-178.8" font-family="Times,serif" font-size="14.00" fill="#000000">0004</text>
</g>
<g id="clust2" class="cluster">
<title>cluster_0006</title>
<polygon fill="#f2f2f2" stroke="#f2f2f2" points="231,-44 231,-134 317,-134 317,-44 231,-44"/>
<text text-anchor="middle" x="274" y="-118.8" font-family="Times,serif" font-size="14.00" fill="#000000">0006</text>
</g>
<g id="clust3" class="cluster">
<title>cluster_0008</title>
<polygon fill="#f2f2f2" stroke="#f2f2f2" points="334,-113 334,-257 430.431,-257 430.431,-113 334,-113"/>
<text text-anchor="middle" x="382.2155" y="-241.8" font-family="Times,serif" font-size="14.00" fill="#000000">0008</text>
</g>
<g id="clust4" class="cluster">
<title>cluster_0010</title>
<polygon fill="#f2f2f2" stroke="#f2f2f2" points="447.431,-8 447.431,-152 543.8619,-152 543.8619,-8 447.431,-8"/>
<text text-anchor="middle" x="495.6465" y="-136.8" font-family="Times,serif" font-size="14.00" fill="#000000">0010</text>
</g>
<g id="clust5" class="cluster">
<title>cluster_0012</title>
<polygon fill="#f2f2f2" stroke="#f2f2f2" points="560.8619,-78 560.8619,-276 657.2929,-276 657.2929,-78 560.8619,-78"/>
<text text-anchor="middle" x="609.0774" y="-260.8" font-family="Times,serif" font-size="14.00" fill="#000000">0012</text>
</g>
<!-- s_2_2 -->
<g id="node1" class="node">
<title>s_2_2</title>
<ellipse fill="none" stroke="#000000" cx="147.5" cy="-138" rx="27" ry="18"/>
<text text-anchor="middle" x="147.5" y="-133.8" font-family="Times,serif" font-size="14.00" fill="#000000">2, 2</text>
</g>
<!-- s_2_4 -->
<g id="node2" class="node">
<title>s_2_4</title>
<ellipse fill="none" stroke="#000000" cx="274" cy="-78" rx="27" ry="18"/>
<text text-anchor="middle" x="274" y="-73.8" font-family="Times,serif" font-size="14.00" fill="#000000">2, 4</text>
</g>
<!-- s_2_2&#45;&gt;s_2_4 -->
<g id="edge4" class="edge">
<title>s_2_2&#45;&gt;s_2_4</title>
<path fill="none" stroke="#000000" d="M169.5346,-127.5488C189.7267,-117.9715 219.8449,-103.6862 242.5614,-92.9116"/>
<polygon fill="#000000" stroke="#000000" points="244.2582,-95.9806 251.7934,-88.5328 241.2583,-89.656 244.2582,-95.9806"/>
<text text-anchor="middle" x="210.75" y="-115.8" font-family="Times,serif" font-size="14.00" fill="#000000">0.90</text>
</g>
<!-- s_4_4 -->
<g id="node4" class="node">
<title>s_4_4</title>
<ellipse fill="none" stroke="#000000" cx="382.2155" cy="-201" rx="27" ry="18"/>
<text text-anchor="middle" x="382.2155" y="-196.8" font-family="Times,serif" font-size="14.00" fill="#000000">4, 4</text>
</g>
<!-- s_2_2&#45;&gt;s_4_4 -->
<g id="edge5" class="edge">
<title>s_2_2&#45;&gt;s_4_4</title>
<path fill="none" stroke="#000000" stroke-dasharray="5,2" d="M172.6187,-144.7421C214.5964,-156.0093 299.1078,-178.6931 347.0025,-191.5485"/>
<polygon fill="#000000" stroke="#000000" points="346.3572,-194.9991 356.9227,-194.2112 348.1719,-188.2384 346.3572,-194.9991"/>
<text text-anchor="middle" x="274" y="-185.8" font-family="Times,serif" font-size="14.00" fill="#000000">0.10</text>
</g>
<!-- s_2_2_4 -->
<g id="node3" class="node">
<title>s_2_2_4</title>
<ellipse fill="none" stroke="#000000" cx="382.2155" cy="-147" rx="32.4324" ry="18"/>
<text text-anchor="middle" x="382.2155" y="-142.8" font-family="Times,serif" font-size="14.00" fill="#000000">2, 2, 4</text>
</g>
<!-- s_2_4&#45;&gt;s_2_2_4 -->
<g id="edge6" class="edge">
<title>s_2_4&#45;&gt;s_2_2_4</title>
<path fill="none" stroke="#000000" d="M293.597,-90.4954C310.0021,-100.9555 333.6714,-116.0475 352.4221,-128.0032"/>
<polygon fill="#000000" stroke="#000000" points="350.5987,-130.9915 360.9123,-133.4167 354.3622,-125.0893 350.5987,-130.9915"/>
</g>
<!-- s_2_4_4 -->
<g id="node5" class="node">
<title>s_2_4_4</title>
<ellipse fill="none" stroke="#000000" cx="495.6465" cy="-42" rx="32.4324" ry="18"/>
<text text-anchor="middle" x="495.6465" y="-37.8" font-family="Times,serif" font-size="14.00" fill="#000000">2, 4, 4</text>
</g>
<!-- s_2_4&#45;&gt;s_2_4_4 -->
<g id="edge7" class="edge">
<title>s_2_4&#45;&gt;s_2_4_4</title>
<path fill="none" stroke="#000000" stroke-dasharray="5,2" d="M300.2961,-73.729C338.3819,-67.543 409.259,-56.0311 454.3582,-48.7061"/>
<polygon fill="#000000" stroke="#000000" points="455.0908,-52.133 464.4003,-47.075 453.9685,-45.2236 455.0908,-52.133"/>
</g>
<!-- s_2_2_4&#45;&gt;s_2_4_4 -->
<g id="edge8" class="edge">
<title>s_2_2_4&#45;&gt;s_2_4_4</title>
<path fill="none" stroke="#000000" d="M395.9538,-130.4173C414.6323,-107.8931 445.9111,-70.2607 447.431,-69 451.7692,-65.4016 456.6556,-62.0328 461.6101,-58.9777"/>
<polygon fill="#000000" stroke="#000000" points="463.595,-61.873 470.498,-53.8356 460.0895,-55.8139 463.595,-61.873"/>
</g>
<!-- s_4_4_4 -->
<g id="node8" class="node">
<title>s_4_4_4</title>
<ellipse fill="none" stroke="#000000" cx="609.0774" cy="-166" rx="32.4324" ry="18"/>
<text text-anchor="middle" x="609.0774" y="-161.8" font-family="Times,serif" font-size="14.00" fill="#000000">4, 4, 4</text>
</g>
<!-- s_2_2_4&#45;&gt;s_4_4_4 -->
<g id="edge9" class="edge">
<title>s_2_2_4&#45;&gt;s_4_4_4</title>
<path fill="none" stroke="#000000" stroke-dasharray="5,2" d="M413.3403,-151.7821C424.1162,-153.3082 436.2855,-154.8878 447.431,-156 487.8247,-160.0309 534.0698,-162.6958 566.7189,-164.2534"/>
<polygon fill="#000000" stroke="#000000" points="566.6657,-167.7546 576.8168,-164.7205 566.9893,-160.7621 566.6657,-167.7546"/>
</g>
<!-- s_2_8 -->
<g id="node6" class="node">
<title>s_2_8</title>
<ellipse fill="none" stroke="#000000" cx="495.6465" cy="-96" rx="27" ry="18"/>
<text text-anchor="middle" x="495.6465" y="-91.8" font-family="Times,serif" font-size="14.00" fill="#000000">2, 8</text>
</g>
<!-- s_4_4&#45;&gt;s_2_8 -->
<g id="edge10" class="edge">
<title>s_4_4&#45;&gt;s_2_8</title>
<path fill="none" stroke="#000000" d="M404.4155,-190.7409C412.992,-186.2375 422.6037,-180.4925 430.431,-174 449.0011,-158.5966 466.3329,-137.4052 478.4545,-120.998"/>
<polygon fill="#000000" stroke="#000000" points="481.6148,-122.5997 484.6275,-112.4423 475.9381,-118.504 481.6148,-122.5997"/>
</g>
<!-- s_4_8 -->
<g id="node9" class="node">
<title>s_4_8</title>
<ellipse fill="none" stroke="#000000" cx="609.0774" cy="-220" rx="27" ry="18"/>
<text text-anchor="middle" x="609.0774" y="-215.8" font-family="Times,serif" font-size="14.00" fill="#000000">4, 8</text>
</g>
<!-- s_4_4&#45;&gt;s_4_8 -->
<g id="edge11" class="edge">
<title>s_4_4&#45;&gt;s_4_8</title>
<path fill="none" stroke="#000000" stroke-dasharray="5,2" d="M409.1304,-203.2542C449.6368,-206.6466 526.3824,-213.0742 572.1085,-216.9038"/>
<polygon fill="#000000" stroke="#000000" points="571.9403,-220.4019 582.1975,-217.7488 572.5246,-213.4263 571.9403,-220.4019"/>
</g>
<!-- s_2_2_8 -->
<g id="node7" class="node">
<title>s_2_2_8</title>
<ellipse fill="none" stroke="#000000" cx="609.0774" cy="-112" rx="32.4324" ry="18"/>
<text text-anchor="middle" x="609.0774" y="-107.8" font-family="Times,serif" font-size="14.00" fill="#000000">2, 2, 8</text>
</g>
<!-- s_2_4_4&#45;&gt;s_2_2_8 -->
<g id="edge12" class="edge">
<title>s_2_4_4&#45;&gt;s_2_2_8</title>
<path fill="none" stroke="#000000" d="M518.8962,-54.5736C526.8822,-59.0099 535.8303,-64.1122 543.8619,-69 555.8371,-76.2878 568.7741,-84.7008 579.9439,-92.1423"/>
<polygon fill="#000000" stroke="#000000" points="578.2164,-95.1979 588.4709,-97.8618 582.1158,-89.3846 578.2164,-95.1979"/>
</g>
<!-- s_2_8&#45;&gt;s_2_2_8 -->
<g id="edge13" class="edge">
<title>s_2_8&#45;&gt;s_2_2_8</title>
<path fill="none" stroke="#000000" d="M522.241,-99.7513C535.7548,-101.6575 552.4828,-104.017 567.6382,-106.1548"/>
<polygon fill="#000000" stroke="#000000" points="567.4295,-109.6599 577.8204,-107.591 568.4073,-102.7285 567.4295,-109.6599"/>
</g>
<!-- s_ -->
<g id="node10" class="node">
<title>s_</title>
<ellipse fill="none" stroke="#000000" cx="27" cy="-138" rx="27" ry="18"/>
</g>
<!-- s_&#45;&gt;s_2_2 -->
<g id="edge1" class="edge">
<title>s_&#45;&gt;s_2_2</title>
<path fill="none" stroke="#000000" d="M54.0426,-138C70.516,-138 91.8062,-138 109.9043,-138"/>
<polygon fill="#000000" stroke="#000000" points="110.1308,-141.5001 120.1308,-138 110.1308,-134.5001 110.1308,-141.5001"/>
<text text-anchor="middle" x="84.25" y="-140.8" font-family="Times,serif" font-size="14.00" fill="#000000">0.81</text>
</g>
<!-- s_&#45;&gt;s_2_4 -->
<g id="edge2" class="edge">
<title>s_&#45;&gt;s_2_4</title>
<path fill="none" stroke="#000000" d="M43.1102,-123.2968C57.8758,-110.8315 80.9608,-93.7763 104.5,-86 148.3563,-71.5118 202.0689,-71.769 237.1161,-74.1447"/>
<polygon fill="#000000" stroke="#000000" points="237.1222,-77.6555 247.3621,-74.936 237.6613,-70.6763 237.1222,-77.6555"/>
<text text-anchor="middle" x="147.5" y="-88.8" font-family="Times,serif" font-size="14.00" fill="#000000">0.18</text>
</g>
<!-- s_&#45;&gt;s_4_4 -->
<g id="edge3" class="edge">
<title>s_&#45;&gt;s_4_4</title>
<path fill="none" stroke="#000000" d="M40.9671,-153.4147C55.2833,-167.9928 79.0049,-188.9453 104.5,-198 186.7122,-227.198 291.4436,-216.6211 345.7927,-207.9083"/>
<polygon fill="#000000" stroke="#000000" points="346.6851,-211.3076 355.9691,-206.2029 345.5281,-204.4039 346.6851,-211.3076"/>
<text text-anchor="middle" x="210.75" y="-219.8" font-family="Times,serif" font-size="14.00" fill="#000000">0.01</text>
</g>
</g>
</svg>
