<?xml version="1.0" encoding="UTF-8" standalone="no"?>
<!DOCTYPE svg PUBLIC "-//W3C//DTD SVG 1.1//EN"
 "http://www.w3.org/Graphics/SVG/1.1/DTD/svg11.dtd">
<!-- Generated by graphviz version 2.40.1 (20161225.0304)
 -->
<!-- Title: %3 Pages: 1 -->
<svg width="310pt" height="107pt"
 viewBox="0.00 0.00 310.45 106.57" xmlns="http://www.w3.org/2000/svg" xmlns:xlink="http://www.w3.org/1999/xlink">
<g id="graph0" class="graph" transform="scale(1 1) rotate(0) translate(4 102.5729)">
<title>%3</title>
<polygon fill="#ffffff" stroke="transparent" points="-4,4 -4,-102.5729 306.4456,-102.5729 306.4456,4 -4,4"/>
<!-- s_ -->
<g id="node1" class="node">
<title>s_</title>
<ellipse fill="none" stroke="#000000" cx="27" cy="-45.5729" rx="27" ry="18"/>
<text text-anchor="middle" x="27" y="-41.3729" font-family="Times,serif" font-size="14.00" fill="#000000">{}</text>
</g>
<!-- s_2_2 -->
<g id="node2" class="node">
<title>s_2_2</title>
<ellipse fill="none" stroke="#000000" cx="146.3614" cy="-45.5729" rx="31.7234" ry="18"/>
<text text-anchor="middle" x="146.3614" y="-41.3729" font-family="Times,serif" font-size="14.00" fill="#000000">{2, 2}</text>
</g>
<!-- s_&#45;&gt;s_2_2 -->
<g id="edge1" class="edge">
<title>s_&#45;&gt;s_2_2</title>
<path fill="none" stroke="#000000" d="M54.0849,-45.5729C68.8947,-45.5729 87.5673,-45.5729 104.2348,-45.5729"/>
<polygon fill="#000000" stroke="#000000" points="104.3012,-49.073 114.3012,-45.5729 104.3011,-42.073 104.3012,-49.073"/>
<text text-anchor="middle" x="84.25" y="-48.3729" font-family="Times,serif" font-size="14.00" fill="#000000">0.81</text>
</g>
<!-- s_2_4 -->
<g id="node3" class="node">
<title>s_2_4</title>
<ellipse fill="none" stroke="#000000" cx="270.5842" cy="-80.5729" rx="31.7234" ry="18"/>
<text text-anchor="middle" x="270.5842" y="-76.3729" font-family="Times,serif" font-size="14.00" fill="#000000">{2, 4}</text>
</g>
<!-- s_&#45;&gt;s_2_4 -->
<g id="edge2" class="edge">
<title>s_&#45;&gt;s_2_4</title>
<path fill="none" stroke="#000000" d="M49.6216,-55.5023C56.6971,-58.3684 64.5923,-61.3252 72,-63.5729 135.8209,-82.9376 154.0589,-85.5766 220.7228,-83.5729 223.3937,-83.4926 226.144,-83.3882 228.9159,-83.2666"/>
<polygon fill="#000000" stroke="#000000" points="229.1325,-86.7603 238.9447,-82.7637 228.7819,-79.7691 229.1325,-86.7603"/>
<text text-anchor="middle" x="146.3614" y="-86.3729" font-family="Times,serif" font-size="14.00" fill="#000000">0.18</text>
</g>
<!-- s_4_4 -->
<g id="node4" class="node">
<title>s_4_4</title>
<ellipse fill="none" stroke="#000000" cx="270.5842" cy="-18.5729" rx="31.7234" ry="18"/>
<text text-anchor="middle" x="270.5842" y="-14.3729" font-family="Times,serif" font-size="14.00" fill="#000000">{4, 4}</text>
</g>
<!-- s_&#45;&gt;s_4_4 -->
<g id="edge3" class="edge">
<title>s_&#45;&gt;s_4_4</title>
<path fill="none" stroke="#000000" d="M46.9483,-33.1191C64.1186,-23.1784 89.9376,-10.0422 114.5,-4.5729 153.9191,4.2045 200.101,-1.9036 231.9506,-8.5862"/>
<polygon fill="#000000" stroke="#000000" points="231.2409,-12.0137 241.761,-10.7579 232.7539,-5.1792 231.2409,-12.0137"/>
<text text-anchor="middle" x="146.3614" y="-7.3729" font-family="Times,serif" font-size="14.00" fill="#000000">0.01</text>
</g>
<!-- s_2_2&#45;&gt;s_2_4 -->
<g id="edge4" class="edge">
<title>s_2_2&#45;&gt;s_2_4</title>
<path fill="none" stroke="#0000ff" d="M175.1728,-53.6906C192.1056,-58.4614 213.7264,-64.5531 232.1035,-69.7309"/>
<polygon fill="#0000ff" stroke="#0000ff" points="231.3546,-73.1561 241.929,-72.4993 233.253,-66.4184 231.3546,-73.1561"/>
<text text-anchor="middle" x="208.4728" y="-68.3729" font-family="Times,serif" font-size="14.00" fill="#000000">0.90</text>
</g>
<!-- s_2_2&#45;&gt;s_4_4 -->
<g id="edge5" class="edge">
<title>s_2_2&#45;&gt;s_4_4</title>
<path fill="none" stroke="#0000ff" stroke-dasharray="5,2" d="M175.2817,-37.6722C182.1255,-35.9027 189.4141,-34.0995 196.2228,-32.5729 207.2147,-30.1084 219.1861,-27.7241 230.2476,-25.6428"/>
<polygon fill="#0000ff" stroke="#0000ff" points="230.8986,-29.0819 240.0961,-23.823 229.6266,-22.1984 230.8986,-29.0819"/>
<text text-anchor="middle" x="208.4728" y="-35.3729" font-family="Times,serif" font-size="14.00" fill="#000000">0.10</text>
</g>
</g>
</svg>
