<?xml version="1.0" encoding="UTF-8" standalone="no"?>
<!DOCTYPE svg PUBLIC "-//W3C//DTD SVG 1.1//EN"
 "http://www.w3.org/Graphics/SVG/1.1/DTD/svg11.dtd">
<!-- Generated by graphviz version 2.40.1 (20161225.0304)
 -->
<!-- Title: %3 Pages: 1 -->
<svg width="177pt" height="152pt"
 viewBox="0.00 0.00 176.50 152.00" xmlns="http://www.w3.org/2000/svg" xmlns:xlink="http://www.w3.org/1999/xlink">
<g id="graph0" class="graph" transform="scale(1 1) rotate(0) translate(4 148)">
<title>%3</title>
<polygon fill="#ffffff" stroke="transparent" points="-4,4 -4,-148 172.5,-148 172.5,4 -4,4"/>
<!-- s_ -->
<g id="node1" class="node">
<title>s_</title>
<ellipse fill="none" stroke="#000000" cx="27" cy="-72" rx="27" ry="18"/>
</g>
<!-- s_2_2 -->
<g id="node2" class="node">
<title>s_2_2</title>
<ellipse fill="none" stroke="#000000" cx="141.5" cy="-126" rx="27" ry="18"/>
<text text-anchor="middle" x="141.5" y="-121.8" font-family="Times,serif" font-size="14.00" fill="#000000">2, 2</text>
</g>
<!-- s_&#45;&gt;s_2_2 -->
<g id="edge1" class="edge">
<title>s_&#45;&gt;s_2_2</title>
<path fill="none" stroke="#000000" d="M49.0768,-82.4117C66.3892,-90.5766 90.7079,-102.0457 110.0547,-111.1699"/>
<polygon fill="#000000" stroke="#000000" points="108.5628,-114.3359 119.1003,-115.436 111.5487,-108.0047 108.5628,-114.3359"/>
<text text-anchor="middle" x="84.25" y="-105.8" font-family="Times,serif" font-size="14.00" fill="#000000">0.81</text>
</g>
<!-- s_2_4 -->
<g id="node3" class="node">
<title>s_2_4</title>
<ellipse fill="none" stroke="#000000" cx="141.5" cy="-72" rx="27" ry="18"/>
<text text-anchor="middle" x="141.5" y="-67.8" font-family="Times,serif" font-size="14.00" fill="#000000">2, 4</text>
</g>
<!-- s_&#45;&gt;s_2_4 -->
<g id="edge2" class="edge">
<title>s_&#45;&gt;s_2_4</title>
<path fill="none" stroke="#000000" d="M54.1349,-72C68.9989,-72 87.6492,-72 103.8969,-72"/>
<polygon fill="#000000" stroke="#000000" points="104.1631,-75.5001 114.1631,-72 104.163,-68.5001 104.1631,-75.5001"/>
<text text-anchor="middle" x="84.25" y="-74.8" font-family="Times,serif" font-size="14.00" fill="#000000">0.18</text>
</g>
<!-- s_4_4 -->
<g id="node4" class="node">
<title>s_4_4</title>
<ellipse fill="none" stroke="#000000" cx="141.5" cy="-18" rx="27" ry="18"/>
<text text-anchor="middle" x="141.5" y="-13.8" font-family="Times,serif" font-size="14.00" fill="#000000">4, 4</text>
</g>
<!-- s_&#45;&gt;s_4_4 -->
<g id="edge3" class="edge">
<title>s_&#45;&gt;s_4_4</title>
<path fill="none" stroke="#000000" d="M49.0768,-61.5883C66.3892,-53.4234 90.7079,-41.9543 110.0547,-32.8301"/>
<polygon fill="#000000" stroke="#000000" points="111.5487,-35.9953 119.1003,-28.564 108.5628,-29.6641 111.5487,-35.9953"/>
<text text-anchor="middle" x="84.25" y="-51.8" font-family="Times,serif" font-size="14.00" fill="#000000">0.01</text>
</g>
</g>
</svg>
