<?xml version="1.0" encoding="UTF-8" standalone="no"?>
<!DOCTYPE svg PUBLIC "-//W3C//DTD SVG 1.1//EN"
 "http://www.w3.org/Graphics/SVG/1.1/DTD/svg11.dtd">
<!-- Generated by graphviz version 2.40.1 (20161225.0304)
 -->
<!-- Title: %3 Pages: 1 -->
<svg width="303pt" height="746pt"
 viewBox="0.00 0.00 303.23 746.00" xmlns="http://www.w3.org/2000/svg" xmlns:xlink="http://www.w3.org/1999/xlink">
<g id="graph0" class="graph" transform="scale(1 1) rotate(0) translate(4 742)">
<title>%3</title>
<!-- s0_1_1_0 -->
<g id="node1" class="node">
<title>s0_1_1_0</title>
<ellipse fill="none" stroke="#0000ff" cx="60.8112" cy="-368.5" rx="60.623" ry="73.5782"/>
<text text-anchor="start" x="47.6105" y="-400.3" font-family="Courier,monospace" font-size="14.00" fill="#000000"> </text>
<path fill="none" stroke="#0000ff" d="M83.8112,-392.5C83.8112,-392.5 89.8112,-392.5 89.8112,-392.5 92.8112,-392.5 95.8112,-395.5 95.8112,-398.5 95.8112,-398.5 95.8112,-410.5 95.8112,-410.5 95.8112,-413.5 92.8112,-416.5 89.8112,-416.5 89.8112,-416.5 83.8112,-416.5 83.8112,-416.5 80.8112,-416.5 77.8112,-413.5 77.8112,-410.5 77.8112,-410.5 77.8112,-398.5 77.8112,-398.5 77.8112,-395.5 80.8112,-392.5 83.8112,-392.5"/>
<text text-anchor="start" x="82.6105" y="-400.3" font-family="Courier,monospace" font-size="14.00" fill="#000000">L</text>
<polygon fill="none" stroke="#0000ff" points="25.8112,-368.5 25.8112,-392.5 51.8112,-392.5 51.8112,-368.5 25.8112,-368.5"/>
<text text-anchor="start" x="30.4098" y="-376.3" font-family="Courier,monospace" font-size="14.00" fill="#000000">  </text>
<polygon fill="none" stroke="#0000ff" points="51.8112,-368.5 51.8112,-392.5 77.8112,-392.5 77.8112,-368.5 51.8112,-368.5"/>
<text text-anchor="start" x="56.4098" y="-376.3" font-family="Courier,monospace" font-size="14.00" fill="#000000"> 2</text>
<path fill="none" stroke="#0000ff" d="M83.8112,-368.5C83.8112,-368.5 89.8112,-368.5 89.8112,-368.5 92.8112,-368.5 95.8112,-371.5 95.8112,-374.5 95.8112,-374.5 95.8112,-386.5 95.8112,-386.5 95.8112,-389.5 92.8112,-392.5 89.8112,-392.5 89.8112,-392.5 83.8112,-392.5 83.8112,-392.5 80.8112,-392.5 77.8112,-389.5 77.8112,-386.5 77.8112,-386.5 77.8112,-374.5 77.8112,-374.5 77.8112,-371.5 80.8112,-368.5 83.8112,-368.5"/>
<text text-anchor="start" x="82.6105" y="-376.3" font-family="Courier,monospace" font-size="14.00" fill="#000000">R</text>
<polygon fill="none" stroke="#0000ff" points="25.8112,-344.5 25.8112,-368.5 51.8112,-368.5 51.8112,-344.5 25.8112,-344.5"/>
<text text-anchor="start" x="30.4098" y="-352.3" font-family="Courier,monospace" font-size="14.00" fill="#000000"> 2</text>
<polygon fill="none" stroke="#0000ff" points="51.8112,-344.5 51.8112,-368.5 77.8112,-368.5 77.8112,-344.5 51.8112,-344.5"/>
<text text-anchor="start" x="56.4098" y="-352.3" font-family="Courier,monospace" font-size="14.00" fill="#000000">  </text>
<path fill="none" stroke="#0000ff" d="M83.8112,-344.5C83.8112,-344.5 89.8112,-344.5 89.8112,-344.5 92.8112,-344.5 95.8112,-347.5 95.8112,-350.5 95.8112,-350.5 95.8112,-362.5 95.8112,-362.5 95.8112,-365.5 92.8112,-368.5 89.8112,-368.5 89.8112,-368.5 83.8112,-368.5 83.8112,-368.5 80.8112,-368.5 77.8112,-365.5 77.8112,-362.5 77.8112,-362.5 77.8112,-350.5 77.8112,-350.5 77.8112,-347.5 80.8112,-344.5 83.8112,-344.5"/>
<text text-anchor="start" x="82.6105" y="-352.3" font-family="Courier,monospace" font-size="14.00" fill="#000000">U</text>
<text text-anchor="start" x="47.6105" y="-328.3" font-family="Courier,monospace" font-size="14.00" fill="#000000"> </text>
<path fill="none" stroke="#0000ff" d="M83.8112,-320.5C83.8112,-320.5 89.8112,-320.5 89.8112,-320.5 92.8112,-320.5 95.8112,-323.5 95.8112,-326.5 95.8112,-326.5 95.8112,-338.5 95.8112,-338.5 95.8112,-341.5 92.8112,-344.5 89.8112,-344.5 89.8112,-344.5 83.8112,-344.5 83.8112,-344.5 80.8112,-344.5 77.8112,-341.5 77.8112,-338.5 77.8112,-338.5 77.8112,-326.5 77.8112,-326.5 77.8112,-323.5 80.8112,-320.5 83.8112,-320.5"/>
<text text-anchor="start" x="82.6105" y="-328.3" font-family="Courier,monospace" font-size="14.00" fill="#000000">D</text>
</g>
<!-- s1_1_1_0 -->
<g id="node2" class="node">
<title>s1_1_1_0</title>
<polygon fill="none" stroke="#000000" points="229.6224,-504.5 229.6224,-548.5 295.2278,-548.5 295.2278,-504.5 229.6224,-504.5"/>
<text text-anchor="middle" x="246.0237" y="-533.3" font-family="Courier,monospace" font-size="14.00" fill="#000000"> 2</text>
<polyline fill="none" stroke="#000000" points="262.4251,-526.5 262.4251,-548.5 "/>
<text text-anchor="middle" x="278.8265" y="-533.3" font-family="Courier,monospace" font-size="14.00" fill="#000000"> 2</text>
<polyline fill="none" stroke="#000000" points="229.6224,-526.5 295.2278,-526.5 "/>
<text text-anchor="middle" x="246.0237" y="-511.3" font-family="Courier,monospace" font-size="14.00" fill="#000000"> 2</text>
<polyline fill="none" stroke="#000000" points="262.4251,-504.5 262.4251,-526.5 "/>
<text text-anchor="middle" x="278.8265" y="-511.3" font-family="Courier,monospace" font-size="14.00" fill="#000000">  </text>
</g>
<!-- s0_1_1_0&#45;&gt;s1_1_1_0 -->
<g id="edge1" class="edge">
<title>s0_1_1_0:left&#45;&gt;s1_1_1_0</title>
<g id="a_edge1"><a xlink:title="0.450">
<path fill="none" stroke="#000000" stroke-width="1.9" d="M95.8112,-404.5C111.5475,-404.5 184.0678,-461.8841 228.082,-497.941"/>
<polygon fill="#000000" stroke="#000000" stroke-width="1.9" points="226.0008,-500.7609 235.9486,-504.4067 230.4456,-495.3531 226.0008,-500.7609"/>
</a>
</g>
<text text-anchor="middle" x="216.6986" y="-493.2067" font-family="Times,serif" font-size="14.00" fill="#000000">0.45 &#160;&#160;&#160;</text>
</g>
<!-- s0_1_1_0&#45;&gt;s1_1_1_0 -->
<g id="edge9" class="edge">
<title>s0_1_1_0:up&#45;&gt;s1_1_1_0</title>
<g id="a_edge9"><a xlink:title="0.450">
<path fill="none" stroke="#000000" stroke-width="1.9" d="M95.8112,-356.5C181.563,-356.5 168.7075,-435.1448 229.6224,-495.5 230.1651,-496.0377 230.714,-496.5794 231.2679,-497.1241"/>
<polygon fill="#000000" stroke="#000000" stroke-width="1.9" points="229.0317,-499.831 238.6467,-504.2808 233.9052,-494.8062 229.0317,-499.831"/>
</a>
</g>
<text text-anchor="middle" x="257.8967" y="-493.0808" font-family="Times,serif" font-size="14.00" fill="#000000">0.45 &#160;&#160;&#160;</text>
</g>
<!-- s1_2_1_0 -->
<g id="node3" class="node">
<title>s1_2_1_0</title>
<polygon fill="none" stroke="#000000" points="229.6224,-693.5 229.6224,-737.5 295.2278,-737.5 295.2278,-693.5 229.6224,-693.5"/>
<text text-anchor="middle" x="246.0237" y="-722.3" font-family="Courier,monospace" font-size="14.00" fill="#000000"> 2</text>
<polyline fill="none" stroke="#000000" points="262.4251,-715.5 262.4251,-737.5 "/>
<text text-anchor="middle" x="278.8265" y="-722.3" font-family="Courier,monospace" font-size="14.00" fill="#000000"> 4</text>
<polyline fill="none" stroke="#000000" points="229.6224,-715.5 295.2278,-715.5 "/>
<text text-anchor="middle" x="246.0237" y="-700.3" font-family="Courier,monospace" font-size="14.00" fill="#000000"> 2</text>
<polyline fill="none" stroke="#000000" points="262.4251,-693.5 262.4251,-715.5 "/>
<text text-anchor="middle" x="278.8265" y="-700.3" font-family="Courier,monospace" font-size="14.00" fill="#000000">  </text>
</g>
<!-- s0_1_1_0&#45;&gt;s1_2_1_0 -->
<g id="edge2" class="edge">
<title>s0_1_1_0:left&#45;&gt;s1_2_1_0</title>
<g id="a_edge2"><a xlink:title="0.050">
<path fill="none" stroke="#000000" stroke-width="1.1" d="M86.8112,-416.5C86.8112,-528.7327 179.9454,-636.0706 230.5655,-686.122"/>
<polygon fill="#000000" stroke="#000000" stroke-width="1.1" points="228.4012,-688.8998 238.0067,-693.3702 233.2854,-683.8854 228.4012,-688.8998"/>
</a>
</g>
<text text-anchor="middle" x="218.7567" y="-682.1702" font-family="Times,serif" font-size="14.00" fill="#000000">0.05 &#160;&#160;&#160;</text>
</g>
<!-- s1_0_1_1 -->
<g id="node4" class="node">
<title>s1_0_1_1</title>
<polygon fill="none" stroke="#000000" points="229.6224,-189.5 229.6224,-233.5 295.2278,-233.5 295.2278,-189.5 229.6224,-189.5"/>
<text text-anchor="middle" x="246.0237" y="-218.3" font-family="Courier,monospace" font-size="14.00" fill="#000000"> 2</text>
<polyline fill="none" stroke="#000000" points="262.4251,-211.5 262.4251,-233.5 "/>
<text text-anchor="middle" x="278.8265" y="-218.3" font-family="Courier,monospace" font-size="14.00" fill="#000000">  </text>
<polyline fill="none" stroke="#000000" points="229.6224,-211.5 295.2278,-211.5 "/>
<text text-anchor="middle" x="246.0237" y="-196.3" font-family="Courier,monospace" font-size="14.00" fill="#000000"> 2</text>
<polyline fill="none" stroke="#000000" points="262.4251,-189.5 262.4251,-211.5 "/>
<text text-anchor="middle" x="278.8265" y="-196.3" font-family="Courier,monospace" font-size="14.00" fill="#000000"> 2</text>
</g>
<!-- s0_1_1_0&#45;&gt;s1_0_1_1 -->
<g id="edge3" class="edge">
<title>s0_1_1_0:left&#45;&gt;s1_0_1_1</title>
<g id="a_edge3"><a xlink:title="0.450">
<path fill="none" stroke="#000000" stroke-width="1.9" d="M95.8112,-404.5C188.8546,-404.5 166.4999,-311.8566 229.6224,-243.5 230.378,-242.6817 231.1491,-241.8572 231.9317,-241.0296"/>
<polygon fill="#000000" stroke="#000000" stroke-width="1.9" points="234.7129,-243.1902 239.1791,-233.5828 229.6964,-238.3081 234.7129,-243.1902"/>
</a>
</g>
<text text-anchor="middle" x="219.9291" y="-236.3828" font-family="Times,serif" font-size="14.00" fill="#000000">0.45 &#160;&#160;&#160;</text>
</g>
<!-- s0_1_1_0&#45;&gt;s1_0_1_1 -->
<g id="edge13" class="edge">
<title>s0_1_1_0:down&#45;&gt;s1_0_1_1</title>
<g id="a_edge13"><a xlink:title="0.450">
<path fill="none" stroke="#000000" stroke-width="1.9" d="M95.8112,-332.5C126.98,-332.5 192.991,-276.3598 231.9172,-240.5595"/>
<polygon fill="#000000" stroke="#000000" stroke-width="1.9" points="234.3694,-243.0588 239.3229,-233.6933 229.6101,-237.9256 234.3694,-243.0588"/>
</a>
</g>
<text text-anchor="middle" x="258.5729" y="-236.4933" font-family="Times,serif" font-size="14.00" fill="#000000">0.45 &#160;&#160;&#160;</text>
</g>
<!-- s1_0_1_2 -->
<g id="node5" class="node">
<title>s1_0_1_2</title>
<polygon fill="none" stroke="#000000" points="229.6224,-630.5 229.6224,-674.5 295.2278,-674.5 295.2278,-630.5 229.6224,-630.5"/>
<text text-anchor="middle" x="246.0237" y="-659.3" font-family="Courier,monospace" font-size="14.00" fill="#000000"> 2</text>
<polyline fill="none" stroke="#000000" points="262.4251,-652.5 262.4251,-674.5 "/>
<text text-anchor="middle" x="278.8265" y="-659.3" font-family="Courier,monospace" font-size="14.00" fill="#000000">  </text>
<polyline fill="none" stroke="#000000" points="229.6224,-652.5 295.2278,-652.5 "/>
<text text-anchor="middle" x="246.0237" y="-637.3" font-family="Courier,monospace" font-size="14.00" fill="#000000"> 2</text>
<polyline fill="none" stroke="#000000" points="262.4251,-630.5 262.4251,-652.5 "/>
<text text-anchor="middle" x="278.8265" y="-637.3" font-family="Courier,monospace" font-size="14.00" fill="#000000"> 4</text>
</g>
<!-- s0_1_1_0&#45;&gt;s1_0_1_2 -->
<g id="edge4" class="edge">
<title>s0_1_1_0:left&#45;&gt;s1_0_1_2</title>
<g id="a_edge4"><a xlink:title="0.050">
<path fill="none" stroke="#000000" stroke-width="1.1" d="M86.8112,-416.5C86.8112,-506.4263 169.8917,-584.2961 221.7651,-624.1517"/>
<polygon fill="#000000" stroke="#000000" stroke-width="1.1" points="219.7143,-626.9888 229.805,-630.2179 223.9304,-621.4009 219.7143,-626.9888"/>
</a>
</g>
<text text-anchor="middle" x="210.555" y="-619.0179" font-family="Times,serif" font-size="14.00" fill="#000000">0.05 &#160;&#160;&#160;</text>
</g>
<!-- s1_1_0_1 -->
<g id="node6" class="node">
<title>s1_1_0_1</title>
<polygon fill="none" stroke="#000000" points="229.6224,-378.5 229.6224,-422.5 295.2278,-422.5 295.2278,-378.5 229.6224,-378.5"/>
<text text-anchor="middle" x="246.0237" y="-407.3" font-family="Courier,monospace" font-size="14.00" fill="#000000"> 2</text>
<polyline fill="none" stroke="#000000" points="262.4251,-400.5 262.4251,-422.5 "/>
<text text-anchor="middle" x="278.8265" y="-407.3" font-family="Courier,monospace" font-size="14.00" fill="#000000"> 2</text>
<polyline fill="none" stroke="#000000" points="229.6224,-400.5 295.2278,-400.5 "/>
<text text-anchor="middle" x="246.0237" y="-385.3" font-family="Courier,monospace" font-size="14.00" fill="#000000">  </text>
<polyline fill="none" stroke="#000000" points="262.4251,-378.5 262.4251,-400.5 "/>
<text text-anchor="middle" x="278.8265" y="-385.3" font-family="Courier,monospace" font-size="14.00" fill="#000000"> 2</text>
</g>
<!-- s0_1_1_0&#45;&gt;s1_1_0_1 -->
<g id="edge5" class="edge">
<title>s0_1_1_0:right&#45;&gt;s1_1_0_1</title>
<g id="a_edge5"><a xlink:title="0.450">
<path fill="none" stroke="#000000" stroke-width="1.9" d="M95.8112,-380.5C138.055,-380.5 185.8969,-386.9163 219.4428,-392.4805"/>
<polygon fill="#000000" stroke="#000000" stroke-width="1.9" points="218.9269,-395.9429 229.3727,-394.1719 220.1024,-389.0423 218.9269,-395.9429"/>
</a>
</g>
<text text-anchor="middle" x="210.1227" y="-382.9719" font-family="Times,serif" font-size="14.00" fill="#000000">0.45 &#160;&#160;&#160;</text>
</g>
<!-- s0_1_1_0&#45;&gt;s1_1_0_1 -->
<g id="edge11" class="edge">
<title>s0_1_1_0:up&#45;&gt;s1_1_0_1</title>
<g id="a_edge11"><a xlink:title="0.450">
<path fill="none" stroke="#000000" stroke-width="1.9" d="M95.8112,-356.5C139.2427,-356.5 186.9945,-370.649 220.2007,-382.9001"/>
<polygon fill="#000000" stroke="#000000" stroke-width="1.9" points="218.9995,-386.1877 229.5909,-386.4572 221.4792,-379.6416 218.9995,-386.1877"/>
</a>
</g>
<text text-anchor="middle" x="210.3409" y="-375.2572" font-family="Times,serif" font-size="14.00" fill="#000000">0.45 &#160;&#160;&#160;</text>
</g>
<!-- s2_1_0_1 -->
<g id="node7" class="node">
<title>s2_1_0_1</title>
<polygon fill="none" stroke="#000000" points="229.6224,-567.5 229.6224,-611.5 295.2278,-611.5 295.2278,-567.5 229.6224,-567.5"/>
<text text-anchor="middle" x="246.0237" y="-596.3" font-family="Courier,monospace" font-size="14.00" fill="#000000"> 4</text>
<polyline fill="none" stroke="#000000" points="262.4251,-589.5 262.4251,-611.5 "/>
<text text-anchor="middle" x="278.8265" y="-596.3" font-family="Courier,monospace" font-size="14.00" fill="#000000"> 2</text>
<polyline fill="none" stroke="#000000" points="229.6224,-589.5 295.2278,-589.5 "/>
<text text-anchor="middle" x="246.0237" y="-574.3" font-family="Courier,monospace" font-size="14.00" fill="#000000">  </text>
<polyline fill="none" stroke="#000000" points="262.4251,-567.5 262.4251,-589.5 "/>
<text text-anchor="middle" x="278.8265" y="-574.3" font-family="Courier,monospace" font-size="14.00" fill="#000000"> 2</text>
</g>
<!-- s0_1_1_0&#45;&gt;s2_1_0_1 -->
<g id="edge6" class="edge">
<title>s0_1_1_0:right&#45;&gt;s2_1_0_1</title>
<g id="a_edge6"><a xlink:title="0.050">
<path fill="none" stroke="#000000" stroke-width="1.1" d="M95.8112,-380.5C194.7831,-380.5 163.685,-484.6914 229.6224,-558.5 230.0302,-558.9565 230.4437,-559.414 230.8621,-559.8721"/>
<polygon fill="#000000" stroke="#000000" stroke-width="1.1" points="228.507,-562.4727 237.9579,-567.2614 233.556,-557.6243 228.507,-562.4727"/>
</a>
</g>
<text text-anchor="middle" x="218.7079" y="-556.0614" font-family="Times,serif" font-size="14.00" fill="#000000">0.05 &#160;&#160;&#160;</text>
</g>
<!-- s0_1_1_1 -->
<g id="node8" class="node">
<title>s0_1_1_1</title>
<polygon fill="none" stroke="#000000" points="229.6224,-126.5 229.6224,-170.5 295.2278,-170.5 295.2278,-126.5 229.6224,-126.5"/>
<text text-anchor="middle" x="246.0237" y="-155.3" font-family="Courier,monospace" font-size="14.00" fill="#000000">  </text>
<polyline fill="none" stroke="#000000" points="262.4251,-148.5 262.4251,-170.5 "/>
<text text-anchor="middle" x="278.8265" y="-155.3" font-family="Courier,monospace" font-size="14.00" fill="#000000"> 2</text>
<polyline fill="none" stroke="#000000" points="229.6224,-148.5 295.2278,-148.5 "/>
<text text-anchor="middle" x="246.0237" y="-133.3" font-family="Courier,monospace" font-size="14.00" fill="#000000"> 2</text>
<polyline fill="none" stroke="#000000" points="262.4251,-126.5 262.4251,-148.5 "/>
<text text-anchor="middle" x="278.8265" y="-133.3" font-family="Courier,monospace" font-size="14.00" fill="#000000"> 2</text>
</g>
<!-- s0_1_1_0&#45;&gt;s0_1_1_1 -->
<g id="edge7" class="edge">
<title>s0_1_1_0:right&#45;&gt;s0_1_1_1</title>
<g id="a_edge7"><a xlink:title="0.450">
<path fill="none" stroke="#000000" stroke-width="1.9" d="M95.8112,-380.5C202.7603,-380.5 161.2389,-262.7303 229.6224,-180.5 230.3091,-179.6742 231.0147,-178.8465 231.7351,-178.0194"/>
<polygon fill="#000000" stroke="#000000" stroke-width="1.9" points="234.3144,-180.3853 238.5162,-170.6592 229.1663,-175.6421 234.3144,-180.3853"/>
</a>
</g>
<text text-anchor="middle" x="219.2662" y="-173.4592" font-family="Times,serif" font-size="14.00" fill="#000000">0.45 &#160;&#160;&#160;</text>
</g>
<!-- s0_1_1_0&#45;&gt;s0_1_1_1 -->
<g id="edge15" class="edge">
<title>s0_1_1_0:down&#45;&gt;s0_1_1_1</title>
<g id="a_edge15"><a xlink:title="0.450">
<path fill="none" stroke="#000000" stroke-width="1.9" d="M86.8112,-320.5C86.8112,-246.0213 168.4275,-193.1538 220.3804,-167.0456"/>
<polygon fill="#000000" stroke="#000000" stroke-width="1.9" points="221.9508,-170.1738 229.3935,-162.6334 218.873,-163.8867 221.9508,-170.1738"/>
</a>
</g>
<text text-anchor="middle" x="210.1435" y="-151.4334" font-family="Times,serif" font-size="14.00" fill="#000000">0.45 &#160;&#160;&#160;</text>
</g>
<!-- s0_1_2_1 -->
<g id="node9" class="node">
<title>s0_1_2_1</title>
<polygon fill="none" stroke="#000000" points="229.6224,-441.5 229.6224,-485.5 295.2278,-485.5 295.2278,-441.5 229.6224,-441.5"/>
<text text-anchor="middle" x="246.0237" y="-470.3" font-family="Courier,monospace" font-size="14.00" fill="#000000">  </text>
<polyline fill="none" stroke="#000000" points="262.4251,-463.5 262.4251,-485.5 "/>
<text text-anchor="middle" x="278.8265" y="-470.3" font-family="Courier,monospace" font-size="14.00" fill="#000000"> 2</text>
<polyline fill="none" stroke="#000000" points="229.6224,-463.5 295.2278,-463.5 "/>
<text text-anchor="middle" x="246.0237" y="-448.3" font-family="Courier,monospace" font-size="14.00" fill="#000000"> 4</text>
<polyline fill="none" stroke="#000000" points="262.4251,-441.5 262.4251,-463.5 "/>
<text text-anchor="middle" x="278.8265" y="-448.3" font-family="Courier,monospace" font-size="14.00" fill="#000000"> 2</text>
</g>
<!-- s0_1_1_0&#45;&gt;s0_1_2_1 -->
<g id="edge8" class="edge">
<title>s0_1_1_0:right&#45;&gt;s0_1_2_1</title>
<g id="a_edge8"><a xlink:title="0.050">
<path fill="none" stroke="#000000" stroke-width="1.1" d="M95.8112,-380.5C146.0942,-380.5 196.8034,-411.1615 228.8454,-435.2126"/>
<polygon fill="#000000" stroke="#000000" stroke-width="1.1" points="226.9168,-438.145 236.9746,-441.4754 231.1889,-432.5998 226.9168,-438.145"/>
</a>
</g>
<text text-anchor="middle" x="217.7246" y="-430.2754" font-family="Times,serif" font-size="14.00" fill="#000000">0.05 &#160;&#160;&#160;</text>
</g>
<!-- s1_1_2_0 -->
<g id="node10" class="node">
<title>s1_1_2_0</title>
<polygon fill="none" stroke="#000000" points="229.6224,-315.5 229.6224,-359.5 295.2278,-359.5 295.2278,-315.5 229.6224,-315.5"/>
<text text-anchor="middle" x="246.0237" y="-344.3" font-family="Courier,monospace" font-size="14.00" fill="#000000"> 2</text>
<polyline fill="none" stroke="#000000" points="262.4251,-337.5 262.4251,-359.5 "/>
<text text-anchor="middle" x="278.8265" y="-344.3" font-family="Courier,monospace" font-size="14.00" fill="#000000"> 2</text>
<polyline fill="none" stroke="#000000" points="229.6224,-337.5 295.2278,-337.5 "/>
<text text-anchor="middle" x="246.0237" y="-322.3" font-family="Courier,monospace" font-size="14.00" fill="#000000"> 4</text>
<polyline fill="none" stroke="#000000" points="262.4251,-315.5 262.4251,-337.5 "/>
<text text-anchor="middle" x="278.8265" y="-322.3" font-family="Courier,monospace" font-size="14.00" fill="#000000">  </text>
</g>
<!-- s0_1_1_0&#45;&gt;s1_1_2_0 -->
<g id="edge10" class="edge">
<title>s0_1_1_0:up&#45;&gt;s1_1_2_0</title>
<g id="a_edge10"><a xlink:title="0.050">
<path fill="none" stroke="#000000" stroke-width="1.1" d="M95.8112,-356.5C138.0258,-356.5 185.8716,-350.4045 219.4263,-345.1185"/>
<polygon fill="#000000" stroke="#000000" stroke-width="1.1" points="220.0463,-348.5638 229.359,-343.5117 218.9284,-341.6537 220.0463,-348.5638"/>
</a>
</g>
<text text-anchor="middle" x="210.109" y="-332.3117" font-family="Times,serif" font-size="14.00" fill="#000000">0.05 &#160;&#160;&#160;</text>
</g>
<!-- s1_1_0_2 -->
<g id="node11" class="node">
<title>s1_1_0_2</title>
<polygon fill="none" stroke="#000000" points="229.6224,-252.5 229.6224,-296.5 295.2278,-296.5 295.2278,-252.5 229.6224,-252.5"/>
<text text-anchor="middle" x="246.0237" y="-281.3" font-family="Courier,monospace" font-size="14.00" fill="#000000"> 2</text>
<polyline fill="none" stroke="#000000" points="262.4251,-274.5 262.4251,-296.5 "/>
<text text-anchor="middle" x="278.8265" y="-281.3" font-family="Courier,monospace" font-size="14.00" fill="#000000"> 2</text>
<polyline fill="none" stroke="#000000" points="229.6224,-274.5 295.2278,-274.5 "/>
<text text-anchor="middle" x="246.0237" y="-259.3" font-family="Courier,monospace" font-size="14.00" fill="#000000">  </text>
<polyline fill="none" stroke="#000000" points="262.4251,-252.5 262.4251,-274.5 "/>
<text text-anchor="middle" x="278.8265" y="-259.3" font-family="Courier,monospace" font-size="14.00" fill="#000000"> 4</text>
</g>
<!-- s0_1_1_0&#45;&gt;s1_1_0_2 -->
<g id="edge12" class="edge">
<title>s0_1_1_0:up&#45;&gt;s1_1_0_2</title>
<g id="a_edge12"><a xlink:title="0.050">
<path fill="none" stroke="#000000" stroke-width="1.1" d="M95.8112,-356.5C145.6784,-356.5 196.1108,-326.5643 228.2203,-302.8678"/>
<polygon fill="#000000" stroke="#000000" stroke-width="1.1" points="230.5178,-305.5183 236.376,-296.6904 226.2913,-299.9383 230.5178,-305.5183"/>
</a>
</g>
<text text-anchor="middle" x="217.126" y="-299.4904" font-family="Times,serif" font-size="14.00" fill="#000000">0.05 &#160;&#160;&#160;</text>
</g>
<!-- s2_0_1_1 -->
<g id="node12" class="node">
<title>s2_0_1_1</title>
<polygon fill="none" stroke="#000000" points="229.6224,-63.5 229.6224,-107.5 295.2278,-107.5 295.2278,-63.5 229.6224,-63.5"/>
<text text-anchor="middle" x="246.0237" y="-92.3" font-family="Courier,monospace" font-size="14.00" fill="#000000"> 4</text>
<polyline fill="none" stroke="#000000" points="262.4251,-85.5 262.4251,-107.5 "/>
<text text-anchor="middle" x="278.8265" y="-92.3" font-family="Courier,monospace" font-size="14.00" fill="#000000">  </text>
<polyline fill="none" stroke="#000000" points="229.6224,-85.5 295.2278,-85.5 "/>
<text text-anchor="middle" x="246.0237" y="-70.3" font-family="Courier,monospace" font-size="14.00" fill="#000000"> 2</text>
<polyline fill="none" stroke="#000000" points="262.4251,-63.5 262.4251,-85.5 "/>
<text text-anchor="middle" x="278.8265" y="-70.3" font-family="Courier,monospace" font-size="14.00" fill="#000000"> 2</text>
</g>
<!-- s0_1_1_0&#45;&gt;s2_0_1_1 -->
<g id="edge14" class="edge">
<title>s0_1_1_0:down&#45;&gt;s2_0_1_1</title>
<g id="a_edge14"><a xlink:title="0.050">
<path fill="none" stroke="#000000" stroke-width="1.1" d="M86.8112,-320.5C86.8112,-230.8188 169.8917,-153.33 221.7651,-113.6884"/>
<polygon fill="#000000" stroke="#000000" stroke-width="1.1" points="223.9074,-116.4567 229.805,-107.6551 219.7059,-110.8579 223.9074,-116.4567"/>
</a>
</g>
<text text-anchor="middle" x="210.555" y="-96.4551" font-family="Times,serif" font-size="14.00" fill="#000000">0.05 &#160;&#160;&#160;</text>
</g>
<!-- s0_2_1_1 -->
<g id="node13" class="node">
<title>s0_2_1_1</title>
<polygon fill="none" stroke="#000000" points="229.6224,-.5 229.6224,-44.5 295.2278,-44.5 295.2278,-.5 229.6224,-.5"/>
<text text-anchor="middle" x="246.0237" y="-29.3" font-family="Courier,monospace" font-size="14.00" fill="#000000">  </text>
<polyline fill="none" stroke="#000000" points="262.4251,-22.5 262.4251,-44.5 "/>
<text text-anchor="middle" x="278.8265" y="-29.3" font-family="Courier,monospace" font-size="14.00" fill="#000000"> 4</text>
<polyline fill="none" stroke="#000000" points="229.6224,-22.5 295.2278,-22.5 "/>
<text text-anchor="middle" x="246.0237" y="-7.3" font-family="Courier,monospace" font-size="14.00" fill="#000000"> 2</text>
<polyline fill="none" stroke="#000000" points="262.4251,-.5 262.4251,-22.5 "/>
<text text-anchor="middle" x="278.8265" y="-7.3" font-family="Courier,monospace" font-size="14.00" fill="#000000"> 2</text>
</g>
<!-- s0_1_1_0&#45;&gt;s0_2_1_1 -->
<g id="edge16" class="edge">
<title>s0_1_1_0:down&#45;&gt;s0_2_1_1</title>
<g id="a_edge16"><a xlink:title="0.050">
<path fill="none" stroke="#000000" stroke-width="1.1" d="M86.8112,-320.5C86.8112,-208.5463 179.9454,-101.6113 230.5655,-51.7584"/>
<polygon fill="#000000" stroke="#000000" stroke-width="1.1" points="233.2665,-54.0144 238.0067,-44.5391 228.3923,-48.9903 233.2665,-54.0144"/>
</a>
</g>
<text text-anchor="middle" x="218.7567" y="-47.3391" font-family="Times,serif" font-size="14.00" fill="#000000">0.05 &#160;&#160;&#160;</text>
</g>
</g>
</svg>
