<?xml version="1.0" encoding="UTF-8" standalone="no"?>
<!DOCTYPE svg PUBLIC "-//W3C//DTD SVG 1.1//EN"
 "http://www.w3.org/Graphics/SVG/1.1/DTD/svg11.dtd">
<!-- Generated by graphviz version 2.40.1 (20161225.0304)
 -->
<!-- Title: %3 Pages: 1 -->
<svg width="1468pt" height="916pt"
 viewBox="0.00 0.00 1467.99 915.74" xmlns="http://www.w3.org/2000/svg" xmlns:xlink="http://www.w3.org/1999/xlink">
<g id="graph0" class="graph" transform="scale(1 1) rotate(0) translate(4 911.7419)">
<title>%3</title>
<g id="clust1" class="cluster">
<title>cluster_4</title>
<polygon fill="#f2f2f2" stroke="#f2f2f2" points="8,-81.7419 8,-439.7419 161.6224,-439.7419 161.6224,-81.7419 8,-81.7419"/>
<text text-anchor="middle" x="84.8112" y="-424.5419" font-family="Times,serif" font-size="14.00" fill="#000000">sum 4</text>
</g>
<g id="clust2" class="cluster">
<title>cluster_6</title>
<polygon fill="#f2f2f2" stroke="#f2f2f2" points="273.6224,-93.7419 273.6224,-611.7419 427.2447,-611.7419 427.2447,-93.7419 273.6224,-93.7419"/>
<text text-anchor="middle" x="350.4335" y="-596.5419" font-family="Times,serif" font-size="14.00" fill="#000000">sum 6</text>
</g>
<g id="clust3" class="cluster">
<title>cluster_8</title>
<polygon fill="#f2f2f2" stroke="#f2f2f2" points="539.2447,-219.7419 539.2447,-899.7419 692.8671,-899.7419 692.8671,-219.7419 539.2447,-219.7419"/>
<text text-anchor="middle" x="616.0559" y="-884.5419" font-family="Times,serif" font-size="14.00" fill="#000000">sum 8</text>
</g>
<g id="clust4" class="cluster">
<title>cluster_10</title>
<polygon fill="#f2f2f2" stroke="#f2f2f2" points="804.8671,-93.7419 804.8671,-611.7419 958.4895,-611.7419 958.4895,-93.7419 804.8671,-93.7419"/>
<text text-anchor="middle" x="881.6783" y="-596.5419" font-family="Times,serif" font-size="14.00" fill="#000000">sum 10</text>
</g>
<g id="clust5" class="cluster">
<title>cluster_12</title>
<polygon fill="#f2f2f2" stroke="#f2f2f2" points="1070.4895,-446.7419 1070.4895,-801.7419 1224.1118,-801.7419 1224.1118,-446.7419 1070.4895,-446.7419"/>
<text text-anchor="middle" x="1147.3006" y="-786.5419" font-family="Times,serif" font-size="14.00" fill="#000000">sum 12</text>
</g>
<g id="clust6" class="cluster">
<title>cluster_14</title>
<polygon fill="#f2f2f2" stroke="#f2f2f2" points="1070.4895,-182.7419 1070.4895,-378.7419 1224.1118,-378.7419 1224.1118,-182.7419 1070.4895,-182.7419"/>
<text text-anchor="middle" x="1147.3006" y="-363.5419" font-family="Times,serif" font-size="14.00" fill="#000000">sum 14</text>
</g>
<!-- s0_0_1_1 -->
<g id="node1" class="node">
<title>s0_0_1_1</title>
<ellipse fill="none" stroke="#0000ff" cx="84.8112" cy="-329.7419" rx="60.623" ry="72.25"/>
<text text-anchor="start" x="71.6105" y="-361.5419" font-family="Courier,monospace" font-size="14.00" fill="#000000"> </text>
<path fill="none" stroke="#0000ff" d="M107.8112,-330.7419C107.8112,-330.7419 113.8112,-330.7419 113.8112,-330.7419 116.8112,-330.7419 119.8112,-333.7419 119.8112,-336.7419 119.8112,-336.7419 119.8112,-370.7419 119.8112,-370.7419 119.8112,-373.7419 116.8112,-376.7419 113.8112,-376.7419 113.8112,-376.7419 107.8112,-376.7419 107.8112,-376.7419 104.8112,-376.7419 101.8112,-373.7419 101.8112,-370.7419 101.8112,-370.7419 101.8112,-336.7419 101.8112,-336.7419 101.8112,-333.7419 104.8112,-330.7419 107.8112,-330.7419"/>
<text text-anchor="start" x="106.6105" y="-356.5419" font-family="Courier,monospace" font-size="14.00" fill="#000000">L</text>
<text text-anchor="start" x="106.6105" y="-342.5419" font-family="Courier,monospace" font-size="14.00" fill="#000000">R</text>
<polygon fill="none" stroke="#0000ff" points="49.8112,-330.7419 49.8112,-354.7419 75.8112,-354.7419 75.8112,-330.7419 49.8112,-330.7419"/>
<text text-anchor="start" x="54.4098" y="-338.5419" font-family="Courier,monospace" font-size="14.00" fill="#000000">  </text>
<polygon fill="none" stroke="#0000ff" points="75.8112,-330.7419 75.8112,-354.7419 101.8112,-354.7419 101.8112,-330.7419 75.8112,-330.7419"/>
<text text-anchor="start" x="80.4098" y="-338.5419" font-family="Courier,monospace" font-size="14.00" fill="#000000">  </text>
<polygon fill="none" stroke="#0000ff" points="49.8112,-306.7419 49.8112,-330.7419 75.8112,-330.7419 75.8112,-306.7419 49.8112,-306.7419"/>
<text text-anchor="start" x="54.4098" y="-314.5419" font-family="Courier,monospace" font-size="14.00" fill="#000000"> 2</text>
<polygon fill="none" stroke="#0000ff" points="75.8112,-306.7419 75.8112,-330.7419 101.8112,-330.7419 101.8112,-306.7419 75.8112,-306.7419"/>
<text text-anchor="start" x="80.4098" y="-314.5419" font-family="Courier,monospace" font-size="14.00" fill="#000000"> 2</text>
<path fill="none" stroke="#0000ff" d="M107.8112,-306.7419C107.8112,-306.7419 113.8112,-306.7419 113.8112,-306.7419 116.8112,-306.7419 119.8112,-309.7419 119.8112,-312.7419 119.8112,-312.7419 119.8112,-324.7419 119.8112,-324.7419 119.8112,-327.7419 116.8112,-330.7419 113.8112,-330.7419 113.8112,-330.7419 107.8112,-330.7419 107.8112,-330.7419 104.8112,-330.7419 101.8112,-327.7419 101.8112,-324.7419 101.8112,-324.7419 101.8112,-312.7419 101.8112,-312.7419 101.8112,-309.7419 104.8112,-306.7419 107.8112,-306.7419"/>
<text text-anchor="start" x="106.6105" y="-314.5419" font-family="Courier,monospace" font-size="14.00" fill="#000000">U</text>
<text text-anchor="start" x="71.6105" y="-290.5419" font-family="Courier,monospace" font-size="14.00" fill="#000000"> </text>
<path fill="none" stroke="#0000ff" d="M107.8112,-282.7419C107.8112,-282.7419 113.8112,-282.7419 113.8112,-282.7419 116.8112,-282.7419 119.8112,-285.7419 119.8112,-288.7419 119.8112,-288.7419 119.8112,-300.7419 119.8112,-300.7419 119.8112,-303.7419 116.8112,-306.7419 113.8112,-306.7419 113.8112,-306.7419 107.8112,-306.7419 107.8112,-306.7419 104.8112,-306.7419 101.8112,-303.7419 101.8112,-300.7419 101.8112,-300.7419 101.8112,-288.7419 101.8112,-288.7419 101.8112,-285.7419 104.8112,-282.7419 107.8112,-282.7419"/>
<text text-anchor="start" x="106.6105" y="-290.5419" font-family="Courier,monospace" font-size="14.00" fill="#c0c0c0">D</text>
</g>
<!-- s0_1_1_1 -->
<g id="node3" class="node">
<title>s0_1_1_1</title>
<ellipse fill="none" stroke="#000000" cx="350.4335" cy="-180.7419" rx="60.623" ry="70.922"/>
<text text-anchor="start" x="337.2329" y="-211.5419" font-family="Courier,monospace" font-size="14.00" fill="#000000"> </text>
<path fill="none" stroke="#000000" d="M373.4335,-134.7419C373.4335,-134.7419 379.4335,-134.7419 379.4335,-134.7419 382.4335,-134.7419 385.4335,-137.7419 385.4335,-140.7419 385.4335,-140.7419 385.4335,-220.7419 385.4335,-220.7419 385.4335,-223.7419 382.4335,-226.7419 379.4335,-226.7419 379.4335,-226.7419 373.4335,-226.7419 373.4335,-226.7419 370.4335,-226.7419 367.4335,-223.7419 367.4335,-220.7419 367.4335,-220.7419 367.4335,-140.7419 367.4335,-140.7419 367.4335,-137.7419 370.4335,-134.7419 373.4335,-134.7419"/>
<text text-anchor="start" x="372.2329" y="-197.5419" font-family="Courier,monospace" font-size="14.00" fill="#000000">L</text>
<text text-anchor="start" x="372.2329" y="-183.5419" font-family="Courier,monospace" font-size="14.00" fill="#000000">R</text>
<text text-anchor="start" x="372.2329" y="-169.5419" font-family="Courier,monospace" font-size="14.00" fill="#000000">U</text>
<text text-anchor="start" x="372.2329" y="-155.5419" font-family="Courier,monospace" font-size="14.00" fill="#000000">D</text>
<polygon fill="none" stroke="#000000" points="315.4335,-180.7419 315.4335,-204.7419 341.4335,-204.7419 341.4335,-180.7419 315.4335,-180.7419"/>
<text text-anchor="start" x="320.0322" y="-188.5419" font-family="Courier,monospace" font-size="14.00" fill="#000000">  </text>
<polygon fill="none" stroke="#000000" points="341.4335,-180.7419 341.4335,-204.7419 367.4335,-204.7419 367.4335,-180.7419 341.4335,-180.7419"/>
<text text-anchor="start" x="346.0322" y="-188.5419" font-family="Courier,monospace" font-size="14.00" fill="#000000"> 2</text>
<polygon fill="none" stroke="#000000" points="315.4335,-156.7419 315.4335,-180.7419 341.4335,-180.7419 341.4335,-156.7419 315.4335,-156.7419"/>
<text text-anchor="start" x="320.0322" y="-164.5419" font-family="Courier,monospace" font-size="14.00" fill="#000000"> 2</text>
<polygon fill="none" stroke="#000000" points="341.4335,-156.7419 341.4335,-180.7419 367.4335,-180.7419 367.4335,-156.7419 341.4335,-156.7419"/>
<text text-anchor="start" x="346.0322" y="-164.5419" font-family="Courier,monospace" font-size="14.00" fill="#000000"> 2</text>
<text text-anchor="start" x="337.2329" y="-141.5419" font-family="Courier,monospace" font-size="14.00" fill="#000000"> </text>
</g>
<!-- s0_0_1_1&#45;&gt;s0_1_1_1 -->
<g id="edge5" class="edge">
<title>s0_0_1_1:up&#45;&gt;s0_1_1_1</title>
<g id="a_edge5"><a xlink:title="0.900">
<path fill="none" stroke="#000000" stroke-width="2.8" d="M119.8112,-318.7419C188.0368,-318.7419 253.5632,-273.7207 297.216,-235.1083"/>
<polygon fill="#000000" stroke="#000000" stroke-width="2.8" points="299.7565,-237.5303 304.8382,-228.2337 295.0682,-232.3322 299.7565,-237.5303"/>
</a>
</g>
</g>
<!-- s0_0_1_2 -->
<g id="node4" class="node">
<title>s0_0_1_2</title>
<ellipse fill="none" stroke="#0000ff" cx="350.4335" cy="-341.7419" rx="60.623" ry="72.25"/>
<text text-anchor="start" x="337.2329" y="-373.5419" font-family="Courier,monospace" font-size="14.00" fill="#000000"> </text>
<path fill="none" stroke="#0000ff" d="M373.4335,-318.7419C373.4335,-318.7419 379.4335,-318.7419 379.4335,-318.7419 382.4335,-318.7419 385.4335,-321.7419 385.4335,-324.7419 385.4335,-324.7419 385.4335,-382.7419 385.4335,-382.7419 385.4335,-385.7419 382.4335,-388.7419 379.4335,-388.7419 379.4335,-388.7419 373.4335,-388.7419 373.4335,-388.7419 370.4335,-388.7419 367.4335,-385.7419 367.4335,-382.7419 367.4335,-382.7419 367.4335,-324.7419 367.4335,-324.7419 367.4335,-321.7419 370.4335,-318.7419 373.4335,-318.7419"/>
<text text-anchor="start" x="372.2329" y="-363.5419" font-family="Courier,monospace" font-size="14.00" fill="#c0c0c0">L</text>
<text text-anchor="start" x="372.2329" y="-349.5419" font-family="Courier,monospace" font-size="14.00" fill="#c0c0c0">R</text>
<text text-anchor="start" x="372.2329" y="-335.5419" font-family="Courier,monospace" font-size="14.00" fill="#c0c0c0">D</text>
<polygon fill="none" stroke="#0000ff" points="315.4335,-342.7419 315.4335,-366.7419 341.4335,-366.7419 341.4335,-342.7419 315.4335,-342.7419"/>
<text text-anchor="start" x="320.0322" y="-350.5419" font-family="Courier,monospace" font-size="14.00" fill="#000000">  </text>
<polygon fill="none" stroke="#0000ff" points="341.4335,-342.7419 341.4335,-366.7419 367.4335,-366.7419 367.4335,-342.7419 341.4335,-342.7419"/>
<text text-anchor="start" x="346.0322" y="-350.5419" font-family="Courier,monospace" font-size="14.00" fill="#000000">  </text>
<polygon fill="none" stroke="#0000ff" points="315.4335,-318.7419 315.4335,-342.7419 341.4335,-342.7419 341.4335,-318.7419 315.4335,-318.7419"/>
<text text-anchor="start" x="320.0322" y="-326.5419" font-family="Courier,monospace" font-size="14.00" fill="#000000"> 2</text>
<polygon fill="none" stroke="#0000ff" points="341.4335,-318.7419 341.4335,-342.7419 367.4335,-342.7419 367.4335,-318.7419 341.4335,-318.7419"/>
<text text-anchor="start" x="346.0322" y="-326.5419" font-family="Courier,monospace" font-size="14.00" fill="#000000"> 4</text>
<text text-anchor="start" x="337.2329" y="-302.5419" font-family="Courier,monospace" font-size="14.00" fill="#000000"> </text>
<path fill="none" stroke="#0000ff" d="M373.4335,-294.7419C373.4335,-294.7419 379.4335,-294.7419 379.4335,-294.7419 382.4335,-294.7419 385.4335,-297.7419 385.4335,-300.7419 385.4335,-300.7419 385.4335,-312.7419 385.4335,-312.7419 385.4335,-315.7419 382.4335,-318.7419 379.4335,-318.7419 379.4335,-318.7419 373.4335,-318.7419 373.4335,-318.7419 370.4335,-318.7419 367.4335,-315.7419 367.4335,-312.7419 367.4335,-312.7419 367.4335,-300.7419 367.4335,-300.7419 367.4335,-297.7419 370.4335,-294.7419 373.4335,-294.7419"/>
<text text-anchor="start" x="372.2329" y="-302.5419" font-family="Courier,monospace" font-size="14.00" fill="#000000">U</text>
</g>
<!-- s0_0_1_1&#45;&gt;s0_0_1_2 -->
<g id="edge1" class="edge">
<title>s0_0_1_1:left_right&#45;&gt;s0_0_1_2</title>
<g id="a_edge1"><a xlink:title="0.600">
<path fill="none" stroke="#000000" stroke-width="2.2" d="M119.8112,-353.7419C173.299,-353.7419 233.6707,-350.4829 279.2252,-347.3617"/>
<polygon fill="#000000" stroke="#000000" stroke-width="2.2" points="279.566,-350.8465 289.2974,-346.6574 279.0776,-343.8636 279.566,-350.8465"/>
</a>
</g>
</g>
<!-- s0_1_2_0 -->
<g id="node5" class="node">
<title>s0_1_2_0</title>
<ellipse fill="none" stroke="#0000ff" cx="350.4335" cy="-502.7419" rx="60.623" ry="70.922"/>
<text text-anchor="start" x="337.2329" y="-533.5419" font-family="Courier,monospace" font-size="14.00" fill="#000000"> </text>
<path fill="none" stroke="#0000ff" d="M373.4335,-456.7419C373.4335,-456.7419 379.4335,-456.7419 379.4335,-456.7419 382.4335,-456.7419 385.4335,-459.7419 385.4335,-462.7419 385.4335,-462.7419 385.4335,-542.7419 385.4335,-542.7419 385.4335,-545.7419 382.4335,-548.7419 379.4335,-548.7419 379.4335,-548.7419 373.4335,-548.7419 373.4335,-548.7419 370.4335,-548.7419 367.4335,-545.7419 367.4335,-542.7419 367.4335,-542.7419 367.4335,-462.7419 367.4335,-462.7419 367.4335,-459.7419 370.4335,-456.7419 373.4335,-456.7419"/>
<text text-anchor="start" x="372.2329" y="-519.5419" font-family="Courier,monospace" font-size="14.00" fill="#000000">L</text>
<text text-anchor="start" x="372.2329" y="-505.5419" font-family="Courier,monospace" font-size="14.00" fill="#000000">R</text>
<text text-anchor="start" x="372.2329" y="-491.5419" font-family="Courier,monospace" font-size="14.00" fill="#000000">U</text>
<text text-anchor="start" x="372.2329" y="-477.5419" font-family="Courier,monospace" font-size="14.00" fill="#000000">D</text>
<polygon fill="none" stroke="#0000ff" points="315.4335,-502.7419 315.4335,-526.7419 341.4335,-526.7419 341.4335,-502.7419 315.4335,-502.7419"/>
<text text-anchor="start" x="320.0322" y="-510.5419" font-family="Courier,monospace" font-size="14.00" fill="#000000">  </text>
<polygon fill="none" stroke="#0000ff" points="341.4335,-502.7419 341.4335,-526.7419 367.4335,-526.7419 367.4335,-502.7419 341.4335,-502.7419"/>
<text text-anchor="start" x="346.0322" y="-510.5419" font-family="Courier,monospace" font-size="14.00" fill="#000000"> 2</text>
<polygon fill="none" stroke="#0000ff" points="315.4335,-478.7419 315.4335,-502.7419 341.4335,-502.7419 341.4335,-478.7419 315.4335,-478.7419"/>
<text text-anchor="start" x="320.0322" y="-486.5419" font-family="Courier,monospace" font-size="14.00" fill="#000000"> 4</text>
<polygon fill="none" stroke="#0000ff" points="341.4335,-478.7419 341.4335,-502.7419 367.4335,-502.7419 367.4335,-478.7419 341.4335,-478.7419"/>
<text text-anchor="start" x="346.0322" y="-486.5419" font-family="Courier,monospace" font-size="14.00" fill="#000000">  </text>
<text text-anchor="start" x="337.2329" y="-463.5419" font-family="Courier,monospace" font-size="14.00" fill="#000000"> </text>
</g>
<!-- s0_0_1_1&#45;&gt;s0_1_2_0 -->
<g id="edge3" class="edge">
<title>s0_0_1_1:left_right&#45;&gt;s0_1_2_0</title>
<g id="a_edge3"><a xlink:title="0.300">
<path fill="none" stroke="#000000" stroke-width="1.6" d="M110.8112,-376.7419C110.8112,-453.6835 208.7919,-483.7454 279.4458,-495.4209"/>
<polygon fill="#000000" stroke="#000000" stroke-width="1.6" points="279.237,-498.9306 289.6569,-497.0135 280.3158,-492.0142 279.237,-498.9306"/>
</a>
</g>
</g>
<!-- s0_0_2_2 -->
<g id="node6" class="node">
<title>s0_0_2_2</title>
<ellipse fill="none" stroke="#0000ff" cx="616.0559" cy="-789.7419" rx="60.623" ry="72.25"/>
<text text-anchor="start" x="602.8552" y="-821.5419" font-family="Courier,monospace" font-size="14.00" fill="#000000"> </text>
<path fill="none" stroke="#0000ff" d="M639.0559,-790.7419C639.0559,-790.7419 645.0559,-790.7419 645.0559,-790.7419 648.0559,-790.7419 651.0559,-793.7419 651.0559,-796.7419 651.0559,-796.7419 651.0559,-830.7419 651.0559,-830.7419 651.0559,-833.7419 648.0559,-836.7419 645.0559,-836.7419 645.0559,-836.7419 639.0559,-836.7419 639.0559,-836.7419 636.0559,-836.7419 633.0559,-833.7419 633.0559,-830.7419 633.0559,-830.7419 633.0559,-796.7419 633.0559,-796.7419 633.0559,-793.7419 636.0559,-790.7419 639.0559,-790.7419"/>
<text text-anchor="start" x="637.8552" y="-816.5419" font-family="Courier,monospace" font-size="14.00" fill="#000000">L</text>
<text text-anchor="start" x="637.8552" y="-802.5419" font-family="Courier,monospace" font-size="14.00" fill="#000000">R</text>
<polygon fill="none" stroke="#0000ff" points="581.0559,-790.7419 581.0559,-814.7419 607.0559,-814.7419 607.0559,-790.7419 581.0559,-790.7419"/>
<text text-anchor="start" x="585.6545" y="-798.5419" font-family="Courier,monospace" font-size="14.00" fill="#000000">  </text>
<polygon fill="none" stroke="#0000ff" points="607.0559,-790.7419 607.0559,-814.7419 633.0559,-814.7419 633.0559,-790.7419 607.0559,-790.7419"/>
<text text-anchor="start" x="611.6545" y="-798.5419" font-family="Courier,monospace" font-size="14.00" fill="#000000">  </text>
<polygon fill="none" stroke="#0000ff" points="581.0559,-766.7419 581.0559,-790.7419 607.0559,-790.7419 607.0559,-766.7419 581.0559,-766.7419"/>
<text text-anchor="start" x="585.6545" y="-774.5419" font-family="Courier,monospace" font-size="14.00" fill="#000000"> 4</text>
<polygon fill="none" stroke="#0000ff" points="607.0559,-766.7419 607.0559,-790.7419 633.0559,-790.7419 633.0559,-766.7419 607.0559,-766.7419"/>
<text text-anchor="start" x="611.6545" y="-774.5419" font-family="Courier,monospace" font-size="14.00" fill="#000000"> 4</text>
<path fill="none" stroke="#0000ff" d="M639.0559,-766.7419C639.0559,-766.7419 645.0559,-766.7419 645.0559,-766.7419 648.0559,-766.7419 651.0559,-769.7419 651.0559,-772.7419 651.0559,-772.7419 651.0559,-784.7419 651.0559,-784.7419 651.0559,-787.7419 648.0559,-790.7419 645.0559,-790.7419 645.0559,-790.7419 639.0559,-790.7419 639.0559,-790.7419 636.0559,-790.7419 633.0559,-787.7419 633.0559,-784.7419 633.0559,-784.7419 633.0559,-772.7419 633.0559,-772.7419 633.0559,-769.7419 636.0559,-766.7419 639.0559,-766.7419"/>
<text text-anchor="start" x="637.8552" y="-774.5419" font-family="Courier,monospace" font-size="14.00" fill="#000000">U</text>
<text text-anchor="start" x="602.8552" y="-750.5419" font-family="Courier,monospace" font-size="14.00" fill="#000000"> </text>
<path fill="none" stroke="#0000ff" d="M639.0559,-742.7419C639.0559,-742.7419 645.0559,-742.7419 645.0559,-742.7419 648.0559,-742.7419 651.0559,-745.7419 651.0559,-748.7419 651.0559,-748.7419 651.0559,-760.7419 651.0559,-760.7419 651.0559,-763.7419 648.0559,-766.7419 645.0559,-766.7419 645.0559,-766.7419 639.0559,-766.7419 639.0559,-766.7419 636.0559,-766.7419 633.0559,-763.7419 633.0559,-760.7419 633.0559,-760.7419 633.0559,-748.7419 633.0559,-748.7419 633.0559,-745.7419 636.0559,-742.7419 639.0559,-742.7419"/>
<text text-anchor="start" x="637.8552" y="-750.5419" font-family="Courier,monospace" font-size="14.00" fill="#c0c0c0">D</text>
</g>
<!-- s0_0_1_1&#45;&gt;s0_0_2_2 -->
<g id="edge2" class="edge">
<title>s0_0_1_1:left_right&#45;&gt;s0_0_2_2</title>
<g id="a_edge2"><a xlink:title="0.067">
<path fill="none" stroke="#000000" stroke-width="1.1333" d="M110.8112,-376.7419C110.8112,-538.6951 147.5095,-601.133 273.6224,-702.7419 351.7448,-765.6851 469.8201,-783.7123 544.9082,-788.5242"/>
<polygon fill="#000000" stroke="#000000" stroke-width="1.1333" points="545.0245,-792.0367 555.2096,-789.1188 545.4279,-785.0483 545.0245,-792.0367"/>
</a>
</g>
</g>
<!-- s0_1_2_1 -->
<g id="node8" class="node">
<title>s0_1_2_1</title>
<ellipse fill="none" stroke="#000000" cx="616.0559" cy="-467.7419" rx="60.623" ry="72.25"/>
<text text-anchor="start" x="602.8552" y="-498.5419" font-family="Courier,monospace" font-size="14.00" fill="#000000"> </text>
<path fill="none" stroke="#000000" d="M639.0559,-490.7419C639.0559,-490.7419 645.0559,-490.7419 645.0559,-490.7419 648.0559,-490.7419 651.0559,-493.7419 651.0559,-496.7419 651.0559,-496.7419 651.0559,-508.7419 651.0559,-508.7419 651.0559,-511.7419 648.0559,-514.7419 645.0559,-514.7419 645.0559,-514.7419 639.0559,-514.7419 639.0559,-514.7419 636.0559,-514.7419 633.0559,-511.7419 633.0559,-508.7419 633.0559,-508.7419 633.0559,-496.7419 633.0559,-496.7419 633.0559,-493.7419 636.0559,-490.7419 639.0559,-490.7419"/>
<text text-anchor="start" x="637.8552" y="-498.5419" font-family="Courier,monospace" font-size="14.00" fill="#000000">L</text>
<polygon fill="none" stroke="#000000" points="581.0559,-466.7419 581.0559,-490.7419 607.0559,-490.7419 607.0559,-466.7419 581.0559,-466.7419"/>
<text text-anchor="start" x="585.6545" y="-474.5419" font-family="Courier,monospace" font-size="14.00" fill="#000000">  </text>
<polygon fill="none" stroke="#000000" points="607.0559,-466.7419 607.0559,-490.7419 633.0559,-490.7419 633.0559,-466.7419 607.0559,-466.7419"/>
<text text-anchor="start" x="611.6545" y="-474.5419" font-family="Courier,monospace" font-size="14.00" fill="#000000"> 2</text>
<path fill="none" stroke="#000000" d="M639.0559,-466.7419C639.0559,-466.7419 645.0559,-466.7419 645.0559,-466.7419 648.0559,-466.7419 651.0559,-469.7419 651.0559,-472.7419 651.0559,-472.7419 651.0559,-484.7419 651.0559,-484.7419 651.0559,-487.7419 648.0559,-490.7419 645.0559,-490.7419 645.0559,-490.7419 639.0559,-490.7419 639.0559,-490.7419 636.0559,-490.7419 633.0559,-487.7419 633.0559,-484.7419 633.0559,-484.7419 633.0559,-472.7419 633.0559,-472.7419 633.0559,-469.7419 636.0559,-466.7419 639.0559,-466.7419"/>
<text text-anchor="start" x="637.8552" y="-474.5419" font-family="Courier,monospace" font-size="14.00" fill="#c0c0c0">R</text>
<polygon fill="none" stroke="#000000" points="581.0559,-442.7419 581.0559,-466.7419 607.0559,-466.7419 607.0559,-442.7419 581.0559,-442.7419"/>
<text text-anchor="start" x="585.6545" y="-450.5419" font-family="Courier,monospace" font-size="14.00" fill="#000000"> 4</text>
<polygon fill="none" stroke="#000000" points="607.0559,-442.7419 607.0559,-466.7419 633.0559,-466.7419 633.0559,-442.7419 607.0559,-442.7419"/>
<text text-anchor="start" x="611.6545" y="-450.5419" font-family="Courier,monospace" font-size="14.00" fill="#000000"> 2</text>
<path fill="none" stroke="#000000" d="M639.0559,-420.7419C639.0559,-420.7419 645.0559,-420.7419 645.0559,-420.7419 648.0559,-420.7419 651.0559,-423.7419 651.0559,-426.7419 651.0559,-426.7419 651.0559,-460.7419 651.0559,-460.7419 651.0559,-463.7419 648.0559,-466.7419 645.0559,-466.7419 645.0559,-466.7419 639.0559,-466.7419 639.0559,-466.7419 636.0559,-466.7419 633.0559,-463.7419 633.0559,-460.7419 633.0559,-460.7419 633.0559,-426.7419 633.0559,-426.7419 633.0559,-423.7419 636.0559,-420.7419 639.0559,-420.7419"/>
<text text-anchor="start" x="637.8552" y="-446.5419" font-family="Courier,monospace" font-size="14.00" fill="#000000">U</text>
<text text-anchor="start" x="637.8552" y="-432.5419" font-family="Courier,monospace" font-size="14.00" fill="#000000">D</text>
<text text-anchor="start" x="602.8552" y="-427.5419" font-family="Courier,monospace" font-size="14.00" fill="#000000"> </text>
</g>
<!-- s0_0_1_1&#45;&gt;s0_1_2_1 -->
<g id="edge6" class="edge">
<title>s0_0_1_1:up&#45;&gt;s0_1_2_1</title>
<g id="a_edge6"><a xlink:title="0.100">
<path fill="none" stroke="#000000" stroke-width="1.2" d="M119.8112,-318.7419C282.8362,-318.7419 136.2877,-563.8992 273.6224,-651.7419 331.1396,-688.5314 363.9981,-677.4627 427.2447,-651.7419 444.167,-644.8601 513.4135,-575.0021 563.1414,-523.3917"/>
<polygon fill="#000000" stroke="#000000" stroke-width="1.2" points="565.9189,-525.5529 570.3282,-515.9191 560.8736,-520.7005 565.9189,-525.5529"/>
</a>
</g>
</g>
<!-- s0_2_2_0 -->
<g id="node9" class="node">
<title>s0_2_2_0</title>
<ellipse fill="none" stroke="#0000ff" cx="616.0559" cy="-628.7419" rx="60.623" ry="70.922"/>
<text text-anchor="start" x="602.8552" y="-659.5419" font-family="Courier,monospace" font-size="14.00" fill="#000000"> </text>
<path fill="none" stroke="#0000ff" d="M639.0559,-582.7419C639.0559,-582.7419 645.0559,-582.7419 645.0559,-582.7419 648.0559,-582.7419 651.0559,-585.7419 651.0559,-588.7419 651.0559,-588.7419 651.0559,-668.7419 651.0559,-668.7419 651.0559,-671.7419 648.0559,-674.7419 645.0559,-674.7419 645.0559,-674.7419 639.0559,-674.7419 639.0559,-674.7419 636.0559,-674.7419 633.0559,-671.7419 633.0559,-668.7419 633.0559,-668.7419 633.0559,-588.7419 633.0559,-588.7419 633.0559,-585.7419 636.0559,-582.7419 639.0559,-582.7419"/>
<text text-anchor="start" x="637.8552" y="-645.5419" font-family="Courier,monospace" font-size="14.00" fill="#000000">L</text>
<text text-anchor="start" x="637.8552" y="-631.5419" font-family="Courier,monospace" font-size="14.00" fill="#000000">R</text>
<text text-anchor="start" x="637.8552" y="-617.5419" font-family="Courier,monospace" font-size="14.00" fill="#000000">U</text>
<text text-anchor="start" x="637.8552" y="-603.5419" font-family="Courier,monospace" font-size="14.00" fill="#000000">D</text>
<polygon fill="none" stroke="#0000ff" points="581.0559,-628.7419 581.0559,-652.7419 607.0559,-652.7419 607.0559,-628.7419 581.0559,-628.7419"/>
<text text-anchor="start" x="585.6545" y="-636.5419" font-family="Courier,monospace" font-size="14.00" fill="#000000">  </text>
<polygon fill="none" stroke="#0000ff" points="607.0559,-628.7419 607.0559,-652.7419 633.0559,-652.7419 633.0559,-628.7419 607.0559,-628.7419"/>
<text text-anchor="start" x="611.6545" y="-636.5419" font-family="Courier,monospace" font-size="14.00" fill="#000000"> 4</text>
<polygon fill="none" stroke="#0000ff" points="581.0559,-604.7419 581.0559,-628.7419 607.0559,-628.7419 607.0559,-604.7419 581.0559,-604.7419"/>
<text text-anchor="start" x="585.6545" y="-612.5419" font-family="Courier,monospace" font-size="14.00" fill="#000000"> 4</text>
<polygon fill="none" stroke="#0000ff" points="607.0559,-604.7419 607.0559,-628.7419 633.0559,-628.7419 633.0559,-604.7419 607.0559,-604.7419"/>
<text text-anchor="start" x="611.6545" y="-612.5419" font-family="Courier,monospace" font-size="14.00" fill="#000000">  </text>
<text text-anchor="start" x="602.8552" y="-589.5419" font-family="Courier,monospace" font-size="14.00" fill="#000000"> </text>
</g>
<!-- s0_0_1_1&#45;&gt;s0_2_2_0 -->
<g id="edge4" class="edge">
<title>s0_0_1_1:left_right&#45;&gt;s0_2_2_0</title>
<g id="a_edge4"><a xlink:title="0.033">
<path fill="none" stroke="#000000" stroke-width="1.0667" d="M110.8112,-376.7419C110.8112,-528.445 143.2553,-599.1645 273.6224,-676.7419 359.2824,-727.7155 477.8834,-692.3713 550.6564,-661.2384"/>
<polygon fill="#000000" stroke="#000000" stroke-width="1.0667" points="552.4128,-664.2906 560.1742,-657.0787 549.6094,-657.8764 552.4128,-664.2906"/>
</a>
</g>
</g>
<!-- s0_1_1_0 -->
<g id="node2" class="node">
<title>s0_1_1_0</title>
<ellipse fill="none" stroke="#0000ff" cx="84.8112" cy="-168.7419" rx="60.623" ry="70.922"/>
<text text-anchor="start" x="71.6105" y="-199.5419" font-family="Courier,monospace" font-size="14.00" fill="#000000"> </text>
<path fill="none" stroke="#0000ff" d="M107.8112,-122.7419C107.8112,-122.7419 113.8112,-122.7419 113.8112,-122.7419 116.8112,-122.7419 119.8112,-125.7419 119.8112,-128.7419 119.8112,-128.7419 119.8112,-208.7419 119.8112,-208.7419 119.8112,-211.7419 116.8112,-214.7419 113.8112,-214.7419 113.8112,-214.7419 107.8112,-214.7419 107.8112,-214.7419 104.8112,-214.7419 101.8112,-211.7419 101.8112,-208.7419 101.8112,-208.7419 101.8112,-128.7419 101.8112,-128.7419 101.8112,-125.7419 104.8112,-122.7419 107.8112,-122.7419"/>
<text text-anchor="start" x="106.6105" y="-185.5419" font-family="Courier,monospace" font-size="14.00" fill="#000000">L</text>
<text text-anchor="start" x="106.6105" y="-171.5419" font-family="Courier,monospace" font-size="14.00" fill="#000000">R</text>
<text text-anchor="start" x="106.6105" y="-157.5419" font-family="Courier,monospace" font-size="14.00" fill="#000000">U</text>
<text text-anchor="start" x="106.6105" y="-143.5419" font-family="Courier,monospace" font-size="14.00" fill="#000000">D</text>
<polygon fill="none" stroke="#0000ff" points="49.8112,-168.7419 49.8112,-192.7419 75.8112,-192.7419 75.8112,-168.7419 49.8112,-168.7419"/>
<text text-anchor="start" x="54.4098" y="-176.5419" font-family="Courier,monospace" font-size="14.00" fill="#000000">  </text>
<polygon fill="none" stroke="#0000ff" points="75.8112,-168.7419 75.8112,-192.7419 101.8112,-192.7419 101.8112,-168.7419 75.8112,-168.7419"/>
<text text-anchor="start" x="80.4098" y="-176.5419" font-family="Courier,monospace" font-size="14.00" fill="#000000"> 2</text>
<polygon fill="none" stroke="#0000ff" points="49.8112,-144.7419 49.8112,-168.7419 75.8112,-168.7419 75.8112,-144.7419 49.8112,-144.7419"/>
<text text-anchor="start" x="54.4098" y="-152.5419" font-family="Courier,monospace" font-size="14.00" fill="#000000"> 2</text>
<polygon fill="none" stroke="#0000ff" points="75.8112,-144.7419 75.8112,-168.7419 101.8112,-168.7419 101.8112,-144.7419 75.8112,-144.7419"/>
<text text-anchor="start" x="80.4098" y="-152.5419" font-family="Courier,monospace" font-size="14.00" fill="#000000">  </text>
<text text-anchor="start" x="71.6105" y="-129.5419" font-family="Courier,monospace" font-size="14.00" fill="#000000"> </text>
</g>
<!-- s0_1_1_0&#45;&gt;s0_1_1_1 -->
<g id="edge7" class="edge">
<title>s0_1_1_0:left_right_up_down&#45;&gt;s0_1_1_1</title>
<g id="a_edge7"><a xlink:title="0.900">
<path fill="none" stroke="#000000" stroke-width="2.8" d="M119.8112,-168.7419C173.299,-168.7419 233.6707,-172.0009 279.2252,-175.1221"/>
<polygon fill="#000000" stroke="#000000" stroke-width="2.8" points="279.0776,-178.6202 289.2974,-175.8264 279.566,-171.6373 279.0776,-178.6202"/>
</a>
</g>
</g>
<!-- s0_1_1_0&#45;&gt;s0_1_2_1 -->
<g id="edge8" class="edge">
<title>s0_1_1_0:left_right_up_down&#45;&gt;s0_1_2_1</title>
<g id="a_edge8"><a xlink:title="0.100">
<path fill="none" stroke="#000000" stroke-width="1.2" d="M110.8112,-214.7419C110.8112,-241.9141 145.4249,-226.9252 161.6224,-248.7419 263.2805,-385.6677 136.5603,-514.2676 273.6224,-615.7419 364.9014,-683.3206 491.8069,-588.8707 562.7,-522.6621"/>
<polygon fill="#000000" stroke="#000000" stroke-width="1.2" points="565.3626,-524.9612 570.2219,-515.5464 560.5521,-519.8761 565.3626,-524.9612"/>
</a>
</g>
</g>
<!-- s0_1_1_2 -->
<g id="node7" class="node">
<title>s0_1_1_2</title>
<ellipse fill="none" stroke="#000000" cx="616.0559" cy="-306.7419" rx="60.623" ry="70.922"/>
<text text-anchor="start" x="602.8552" y="-337.5419" font-family="Courier,monospace" font-size="14.00" fill="#000000"> </text>
<path fill="none" stroke="#000000" d="M639.0559,-306.7419C639.0559,-306.7419 645.0559,-306.7419 645.0559,-306.7419 648.0559,-306.7419 651.0559,-309.7419 651.0559,-312.7419 651.0559,-312.7419 651.0559,-346.7419 651.0559,-346.7419 651.0559,-349.7419 648.0559,-352.7419 645.0559,-352.7419 645.0559,-352.7419 639.0559,-352.7419 639.0559,-352.7419 636.0559,-352.7419 633.0559,-349.7419 633.0559,-346.7419 633.0559,-346.7419 633.0559,-312.7419 633.0559,-312.7419 633.0559,-309.7419 636.0559,-306.7419 639.0559,-306.7419"/>
<text text-anchor="start" x="637.8552" y="-332.5419" font-family="Courier,monospace" font-size="14.00" fill="#000000">L</text>
<text text-anchor="start" x="637.8552" y="-318.5419" font-family="Courier,monospace" font-size="14.00" fill="#000000">U</text>
<polygon fill="none" stroke="#000000" points="581.0559,-306.7419 581.0559,-330.7419 607.0559,-330.7419 607.0559,-306.7419 581.0559,-306.7419"/>
<text text-anchor="start" x="585.6545" y="-314.5419" font-family="Courier,monospace" font-size="14.00" fill="#000000">  </text>
<polygon fill="none" stroke="#000000" points="607.0559,-306.7419 607.0559,-330.7419 633.0559,-330.7419 633.0559,-306.7419 607.0559,-306.7419"/>
<text text-anchor="start" x="611.6545" y="-314.5419" font-family="Courier,monospace" font-size="14.00" fill="#000000"> 2</text>
<polygon fill="none" stroke="#000000" points="581.0559,-282.7419 581.0559,-306.7419 607.0559,-306.7419 607.0559,-282.7419 581.0559,-282.7419"/>
<text text-anchor="start" x="585.6545" y="-290.5419" font-family="Courier,monospace" font-size="14.00" fill="#000000"> 2</text>
<polygon fill="none" stroke="#000000" points="607.0559,-282.7419 607.0559,-306.7419 633.0559,-306.7419 633.0559,-282.7419 607.0559,-282.7419"/>
<text text-anchor="start" x="611.6545" y="-290.5419" font-family="Courier,monospace" font-size="14.00" fill="#000000"> 4</text>
<path fill="none" stroke="#000000" d="M639.0559,-260.7419C639.0559,-260.7419 645.0559,-260.7419 645.0559,-260.7419 648.0559,-260.7419 651.0559,-263.7419 651.0559,-266.7419 651.0559,-266.7419 651.0559,-300.7419 651.0559,-300.7419 651.0559,-303.7419 648.0559,-306.7419 645.0559,-306.7419 645.0559,-306.7419 639.0559,-306.7419 639.0559,-306.7419 636.0559,-306.7419 633.0559,-303.7419 633.0559,-300.7419 633.0559,-300.7419 633.0559,-266.7419 633.0559,-266.7419 633.0559,-263.7419 636.0559,-260.7419 639.0559,-260.7419"/>
<text text-anchor="start" x="637.8552" y="-286.5419" font-family="Courier,monospace" font-size="14.00" fill="#c0c0c0">R</text>
<text text-anchor="start" x="637.8552" y="-272.5419" font-family="Courier,monospace" font-size="14.00" fill="#c0c0c0">D</text>
<text text-anchor="start" x="602.8552" y="-267.5419" font-family="Courier,monospace" font-size="14.00" fill="#000000"> </text>
</g>
<!-- s0_1_1_1&#45;&gt;s0_1_1_2 -->
<g id="edge9" class="edge">
<title>s0_1_1_1:left_right_up_down&#45;&gt;s0_1_1_2</title>
<g id="a_edge9"><a xlink:title="0.450">
<path fill="none" stroke="#000000" stroke-width="1.9" d="M376.4335,-226.7419C376.4335,-244.8062 475.6774,-272.753 546.4266,-290.3808"/>
<polygon fill="#000000" stroke="#000000" stroke-width="1.9" points="545.6596,-293.7964 556.2072,-292.7975 547.3388,-287.0008 545.6596,-293.7964"/>
</a>
</g>
</g>
<!-- s0_1_1_1&#45;&gt;s0_1_2_1 -->
<g id="edge10" class="edge">
<title>s0_1_1_1:left_right_up_down&#45;&gt;s0_1_2_1</title>
<g id="a_edge10"><a xlink:title="0.450">
<path fill="none" stroke="#000000" stroke-width="1.9" d="M376.4335,-226.7419C376.4335,-253.9141 406.7617,-242.8877 427.2447,-260.7419 483.7253,-309.9737 488.5713,-331.551 539.2447,-386.7419 546.9492,-395.1332 555.1653,-403.9415 563.2517,-412.533"/>
<polygon fill="#000000" stroke="#000000" stroke-width="1.9" points="560.8998,-415.1403 570.3086,-420.0112 565.991,-410.336 560.8998,-415.1403"/>
</a>
</g>
</g>
<!-- s0_1_2_2 -->
<g id="node10" class="node">
<title>s0_1_2_2</title>
<ellipse fill="none" stroke="#000000" cx="881.6783" cy="-341.7419" rx="60.623" ry="72.25"/>
<text text-anchor="start" x="868.4776" y="-373.5419" font-family="Courier,monospace" font-size="14.00" fill="#000000"> </text>
<path fill="none" stroke="#000000" d="M904.6783,-342.7419C904.6783,-342.7419 910.6783,-342.7419 910.6783,-342.7419 913.6783,-342.7419 916.6783,-345.7419 916.6783,-348.7419 916.6783,-348.7419 916.6783,-382.7419 916.6783,-382.7419 916.6783,-385.7419 913.6783,-388.7419 910.6783,-388.7419 910.6783,-388.7419 904.6783,-388.7419 904.6783,-388.7419 901.6783,-388.7419 898.6783,-385.7419 898.6783,-382.7419 898.6783,-382.7419 898.6783,-348.7419 898.6783,-348.7419 898.6783,-345.7419 901.6783,-342.7419 904.6783,-342.7419"/>
<text text-anchor="start" x="903.4776" y="-368.5419" font-family="Courier,monospace" font-size="14.00" fill="#000000">L</text>
<text text-anchor="start" x="903.4776" y="-354.5419" font-family="Courier,monospace" font-size="14.00" fill="#000000">R</text>
<polygon fill="none" stroke="#000000" points="846.6783,-342.7419 846.6783,-366.7419 872.6783,-366.7419 872.6783,-342.7419 846.6783,-342.7419"/>
<text text-anchor="start" x="851.2769" y="-350.5419" font-family="Courier,monospace" font-size="14.00" fill="#000000">  </text>
<polygon fill="none" stroke="#000000" points="872.6783,-342.7419 872.6783,-366.7419 898.6783,-366.7419 898.6783,-342.7419 872.6783,-342.7419"/>
<text text-anchor="start" x="877.2769" y="-350.5419" font-family="Courier,monospace" font-size="14.00" fill="#000000"> 2</text>
<polygon fill="none" stroke="#000000" points="846.6783,-318.7419 846.6783,-342.7419 872.6783,-342.7419 872.6783,-318.7419 846.6783,-318.7419"/>
<text text-anchor="start" x="851.2769" y="-326.5419" font-family="Courier,monospace" font-size="14.00" fill="#000000"> 4</text>
<polygon fill="none" stroke="#000000" points="872.6783,-318.7419 872.6783,-342.7419 898.6783,-342.7419 898.6783,-318.7419 872.6783,-318.7419"/>
<text text-anchor="start" x="877.2769" y="-326.5419" font-family="Courier,monospace" font-size="14.00" fill="#000000"> 4</text>
<path fill="none" stroke="#000000" d="M904.6783,-318.7419C904.6783,-318.7419 910.6783,-318.7419 910.6783,-318.7419 913.6783,-318.7419 916.6783,-321.7419 916.6783,-324.7419 916.6783,-324.7419 916.6783,-336.7419 916.6783,-336.7419 916.6783,-339.7419 913.6783,-342.7419 910.6783,-342.7419 910.6783,-342.7419 904.6783,-342.7419 904.6783,-342.7419 901.6783,-342.7419 898.6783,-339.7419 898.6783,-336.7419 898.6783,-336.7419 898.6783,-324.7419 898.6783,-324.7419 898.6783,-321.7419 901.6783,-318.7419 904.6783,-318.7419"/>
<text text-anchor="start" x="903.4776" y="-326.5419" font-family="Courier,monospace" font-size="14.00" fill="#000000">U</text>
<text text-anchor="start" x="868.4776" y="-302.5419" font-family="Courier,monospace" font-size="14.00" fill="#000000"> </text>
<path fill="none" stroke="#000000" d="M904.6783,-294.7419C904.6783,-294.7419 910.6783,-294.7419 910.6783,-294.7419 913.6783,-294.7419 916.6783,-297.7419 916.6783,-300.7419 916.6783,-300.7419 916.6783,-312.7419 916.6783,-312.7419 916.6783,-315.7419 913.6783,-318.7419 910.6783,-318.7419 910.6783,-318.7419 904.6783,-318.7419 904.6783,-318.7419 901.6783,-318.7419 898.6783,-315.7419 898.6783,-312.7419 898.6783,-312.7419 898.6783,-300.7419 898.6783,-300.7419 898.6783,-297.7419 901.6783,-294.7419 904.6783,-294.7419"/>
<text text-anchor="start" x="903.4776" y="-302.5419" font-family="Courier,monospace" font-size="14.00" fill="#c0c0c0">D</text>
</g>
<!-- s0_1_1_1&#45;&gt;s0_1_2_2 -->
<g id="edge11" class="edge">
<title>s0_1_1_1:left_right_up_down&#45;&gt;s0_1_2_2</title>
<g id="a_edge11"><a xlink:title="0.050">
<path fill="none" stroke="#000000" stroke-width="1.1" d="M376.4335,-134.7419C376.4335,-119.6727 441.574,-43.4075 692.8671,-157.7419 709.495,-165.3073 778.8143,-234.9962 828.6387,-286.3826"/>
<polygon fill="#000000" stroke="#000000" stroke-width="1.1" points="826.3698,-289.071 835.8398,-293.8219 831.3994,-284.2024 826.3698,-289.071"/>
</a>
</g>
</g>
<!-- s0_2_2_1 -->
<g id="node11" class="node">
<title>s0_2_2_1</title>
<ellipse fill="none" stroke="#000000" cx="881.6783" cy="-180.7419" rx="60.623" ry="70.922"/>
<text text-anchor="start" x="868.4776" y="-211.5419" font-family="Courier,monospace" font-size="14.00" fill="#000000"> </text>
<path fill="none" stroke="#000000" d="M904.6783,-180.7419C904.6783,-180.7419 910.6783,-180.7419 910.6783,-180.7419 913.6783,-180.7419 916.6783,-183.7419 916.6783,-186.7419 916.6783,-186.7419 916.6783,-220.7419 916.6783,-220.7419 916.6783,-223.7419 913.6783,-226.7419 910.6783,-226.7419 910.6783,-226.7419 904.6783,-226.7419 904.6783,-226.7419 901.6783,-226.7419 898.6783,-223.7419 898.6783,-220.7419 898.6783,-220.7419 898.6783,-186.7419 898.6783,-186.7419 898.6783,-183.7419 901.6783,-180.7419 904.6783,-180.7419"/>
<text text-anchor="start" x="903.4776" y="-206.5419" font-family="Courier,monospace" font-size="14.00" fill="#000000">L</text>
<text text-anchor="start" x="903.4776" y="-192.5419" font-family="Courier,monospace" font-size="14.00" fill="#000000">U</text>
<polygon fill="none" stroke="#000000" points="846.6783,-180.7419 846.6783,-204.7419 872.6783,-204.7419 872.6783,-180.7419 846.6783,-180.7419"/>
<text text-anchor="start" x="851.2769" y="-188.5419" font-family="Courier,monospace" font-size="14.00" fill="#000000">  </text>
<polygon fill="none" stroke="#000000" points="872.6783,-180.7419 872.6783,-204.7419 898.6783,-204.7419 898.6783,-180.7419 872.6783,-180.7419"/>
<text text-anchor="start" x="877.2769" y="-188.5419" font-family="Courier,monospace" font-size="14.00" fill="#000000"> 4</text>
<polygon fill="none" stroke="#000000" points="846.6783,-156.7419 846.6783,-180.7419 872.6783,-180.7419 872.6783,-156.7419 846.6783,-156.7419"/>
<text text-anchor="start" x="851.2769" y="-164.5419" font-family="Courier,monospace" font-size="14.00" fill="#000000"> 4</text>
<polygon fill="none" stroke="#000000" points="872.6783,-156.7419 872.6783,-180.7419 898.6783,-180.7419 898.6783,-156.7419 872.6783,-156.7419"/>
<text text-anchor="start" x="877.2769" y="-164.5419" font-family="Courier,monospace" font-size="14.00" fill="#000000"> 2</text>
<path fill="none" stroke="#000000" d="M904.6783,-134.7419C904.6783,-134.7419 910.6783,-134.7419 910.6783,-134.7419 913.6783,-134.7419 916.6783,-137.7419 916.6783,-140.7419 916.6783,-140.7419 916.6783,-174.7419 916.6783,-174.7419 916.6783,-177.7419 913.6783,-180.7419 910.6783,-180.7419 910.6783,-180.7419 904.6783,-180.7419 904.6783,-180.7419 901.6783,-180.7419 898.6783,-177.7419 898.6783,-174.7419 898.6783,-174.7419 898.6783,-140.7419 898.6783,-140.7419 898.6783,-137.7419 901.6783,-134.7419 904.6783,-134.7419"/>
<text text-anchor="start" x="903.4776" y="-160.5419" font-family="Courier,monospace" font-size="14.00" fill="#c0c0c0">R</text>
<text text-anchor="start" x="903.4776" y="-146.5419" font-family="Courier,monospace" font-size="14.00" fill="#c0c0c0">D</text>
<text text-anchor="start" x="868.4776" y="-141.5419" font-family="Courier,monospace" font-size="14.00" fill="#000000"> </text>
</g>
<!-- s0_1_1_1&#45;&gt;s0_2_2_1 -->
<g id="edge12" class="edge">
<title>s0_1_1_1:left_right_up_down&#45;&gt;s0_2_2_1</title>
<g id="a_edge12"><a xlink:title="0.050">
<path fill="none" stroke="#000000" stroke-width="1.1" d="M376.4335,-134.7419C376.4335,13.718 552.9309,21.8382 692.8671,-27.7419 746.7023,-46.816 796.3979,-88.4998 831.2784,-123.5481"/>
<polygon fill="#000000" stroke="#000000" stroke-width="1.1" points="828.9957,-126.2194 838.4929,-130.9157 833.9972,-121.322 828.9957,-126.2194"/>
</a>
</g>
</g>
<!-- s0_0_1_2&#45;&gt;s0_1_1_2 -->
<g id="edge13" class="edge">
<title>s0_0_1_2:up&#45;&gt;s0_1_1_2</title>
<g id="a_edge13"><a xlink:title="0.450">
<path fill="none" stroke="#000000" stroke-width="1.9" d="M385.4335,-306.7419C438.8491,-306.7419 499.2238,-306.7419 544.7978,-306.7419"/>
<polygon fill="#000000" stroke="#000000" stroke-width="1.9" points="544.8748,-310.242 554.8747,-306.7419 544.8747,-303.242 544.8748,-310.242"/>
</a>
</g>
</g>
<!-- s0_0_1_2&#45;&gt;s0_1_2_1 -->
<g id="edge14" class="edge">
<title>s0_0_1_2:up&#45;&gt;s0_1_2_1</title>
<g id="a_edge14"><a xlink:title="0.450">
<path fill="none" stroke="#000000" stroke-width="1.9" d="M385.4335,-306.7419C424.5281,-306.7419 504.9439,-369.7308 559.694,-416.911"/>
<polygon fill="#000000" stroke="#000000" stroke-width="1.9" points="557.7297,-419.8404 567.5776,-423.7479 562.3159,-414.552 557.7297,-419.8404"/>
</a>
</g>
</g>
<!-- s0_0_1_2&#45;&gt;s0_1_2_2 -->
<g id="edge15" class="edge">
<title>s0_0_1_2:up&#45;&gt;s0_1_2_2</title>
<g id="a_edge15"><a xlink:title="0.050">
<path fill="none" stroke="#000000" stroke-width="1.1" d="M385.4335,-306.7419C474.0853,-306.7419 455.8199,-209.7324 539.2447,-179.7419 603.4958,-156.6443 628.8373,-156.0378 692.8671,-179.7419 723.4665,-191.07 783.7146,-245.4553 827.9561,-288.128"/>
<polygon fill="#000000" stroke="#000000" stroke-width="1.1" points="825.5712,-290.6907 835.1882,-295.1364 830.4427,-285.6638 825.5712,-290.6907"/>
</a>
</g>
</g>
<!-- s0_0_1_2&#45;&gt;s0_2_2_1 -->
<g id="edge16" class="edge">
<title>s0_0_1_2:up&#45;&gt;s0_2_2_1</title>
<g id="a_edge16"><a xlink:title="0.050">
<path fill="none" stroke="#000000" stroke-width="1.1" d="M376.4335,-294.7419C376.4335,-267.5697 407.7457,-279.6658 427.2447,-260.7419 488.7534,-201.0473 463.0431,-142.9857 539.2447,-103.7419 629.6392,-57.1888 747.6786,-104.0372 818.9198,-142.3053"/>
<polygon fill="#000000" stroke="#000000" stroke-width="1.1" points="817.345,-145.4333 827.7981,-147.1605 820.7036,-139.2916 817.345,-145.4333"/>
</a>
</g>
</g>
<!-- s0_1_2_0&#45;&gt;s0_1_1_2 -->
<g id="edge17" class="edge">
<title>s0_1_2_0:left_right_up_down&#45;&gt;s0_1_1_2</title>
<g id="a_edge17"><a xlink:title="0.450">
<path fill="none" stroke="#000000" stroke-width="1.9" d="M376.4335,-456.7419C376.4335,-454.1349 482.0771,-388.8586 553.0729,-345.2853"/>
<polygon fill="#000000" stroke="#000000" stroke-width="1.9" points="555.2877,-348.0327 561.9812,-339.8201 551.6271,-342.0661 555.2877,-348.0327"/>
</a>
</g>
</g>
<!-- s0_1_2_0&#45;&gt;s0_1_2_1 -->
<g id="edge18" class="edge">
<title>s0_1_2_0:left_right_up_down&#45;&gt;s0_1_2_1</title>
<g id="a_edge18"><a xlink:title="0.450">
<path fill="none" stroke="#000000" stroke-width="1.9" d="M385.4335,-502.7419C439.8372,-502.7419 500.651,-493.1037 546.1657,-483.9428"/>
<polygon fill="#000000" stroke="#000000" stroke-width="1.9" points="547.1297,-487.3179 556.2207,-481.8769 545.7208,-480.4612 547.1297,-487.3179"/>
</a>
</g>
</g>
<!-- s0_1_2_0&#45;&gt;s0_1_2_2 -->
<g id="edge19" class="edge">
<title>s0_1_2_0:left_right_up_down&#45;&gt;s0_1_2_2</title>
<g id="a_edge19"><a xlink:title="0.050">
<path fill="none" stroke="#000000" stroke-width="1.1" d="M376.4335,-456.7419C376.4335,-429.5697 408.9526,-442.8348 427.2447,-422.7419 497.6629,-345.3913 449.3872,-269.2905 539.2447,-215.7419 632.6438,-160.0828 754.7291,-235.6944 825.052,-291.5748"/>
<polygon fill="#000000" stroke="#000000" stroke-width="1.1" points="822.9653,-294.3882 832.9474,-297.939 827.3583,-288.9383 822.9653,-294.3882"/>
</a>
</g>
</g>
<!-- s0_1_2_0&#45;&gt;s0_2_2_1 -->
<g id="edge20" class="edge">
<title>s0_1_2_0:left_right_up_down&#45;&gt;s0_2_2_1</title>
<g id="a_edge20"><a xlink:title="0.050">
<path fill="none" stroke="#000000" stroke-width="1.1" d="M376.4335,-456.7419C376.4335,-429.5697 409.4042,-443.2368 427.2447,-422.7419 502.1582,-336.6824 443.54,-253.8618 539.2447,-191.7419 620.8473,-138.7754 737.9558,-148.9989 811.892,-163.2891"/>
<polygon fill="#000000" stroke="#000000" stroke-width="1.1" points="811.5364,-166.7875 822.03,-165.3263 812.9156,-159.9247 811.5364,-166.7875"/>
</a>
</g>
</g>
<!-- s0_0_2_2&#45;&gt;s0_1_2_2 -->
<g id="edge22" class="edge">
<title>s0_0_2_2:up&#45;&gt;s0_1_2_2</title>
<g id="a_edge22"><a xlink:title="0.900">
<path fill="none" stroke="#000000" stroke-width="2.8" d="M651.0559,-778.7419C687.2943,-778.7419 676.9143,-741.28 692.8671,-708.7419 752.9615,-586.1706 731.6556,-537.9597 804.8671,-422.7419 811.2007,-412.7743 818.8713,-402.9624 826.8835,-393.7969"/>
<polygon fill="#000000" stroke="#000000" stroke-width="2.8" points="829.5797,-396.0331 833.6723,-386.2606 824.3787,-391.348 829.5797,-396.0331"/>
</a>
</g>
</g>
<!-- s0_2_2_2 -->
<g id="node13" class="node">
<title>s0_2_2_2</title>
<ellipse fill="none" stroke="#000000" cx="1147.3006" cy="-692.7419" rx="60.623" ry="70.922"/>
<text text-anchor="start" x="1134.1" y="-723.5419" font-family="Courier,monospace" font-size="14.00" fill="#000000"> </text>
<path fill="none" stroke="#000000" d="M1170.3006,-646.7419C1170.3006,-646.7419 1176.3006,-646.7419 1176.3006,-646.7419 1179.3006,-646.7419 1182.3006,-649.7419 1182.3006,-652.7419 1182.3006,-652.7419 1182.3006,-732.7419 1182.3006,-732.7419 1182.3006,-735.7419 1179.3006,-738.7419 1176.3006,-738.7419 1176.3006,-738.7419 1170.3006,-738.7419 1170.3006,-738.7419 1167.3006,-738.7419 1164.3006,-735.7419 1164.3006,-732.7419 1164.3006,-732.7419 1164.3006,-652.7419 1164.3006,-652.7419 1164.3006,-649.7419 1167.3006,-646.7419 1170.3006,-646.7419"/>
<text text-anchor="start" x="1169.1" y="-709.5419" font-family="Courier,monospace" font-size="14.00" fill="#000000">L</text>
<text text-anchor="start" x="1169.1" y="-695.5419" font-family="Courier,monospace" font-size="14.00" fill="#000000">R</text>
<text text-anchor="start" x="1169.1" y="-681.5419" font-family="Courier,monospace" font-size="14.00" fill="#000000">U</text>
<text text-anchor="start" x="1169.1" y="-667.5419" font-family="Courier,monospace" font-size="14.00" fill="#000000">D</text>
<polygon fill="none" stroke="#000000" points="1112.3006,-692.7419 1112.3006,-716.7419 1138.3006,-716.7419 1138.3006,-692.7419 1112.3006,-692.7419"/>
<text text-anchor="start" x="1116.8993" y="-700.5419" font-family="Courier,monospace" font-size="14.00" fill="#000000">  </text>
<polygon fill="none" stroke="#000000" points="1138.3006,-692.7419 1138.3006,-716.7419 1164.3006,-716.7419 1164.3006,-692.7419 1138.3006,-692.7419"/>
<text text-anchor="start" x="1142.8993" y="-700.5419" font-family="Courier,monospace" font-size="14.00" fill="#000000"> 4</text>
<polygon fill="none" stroke="#000000" points="1112.3006,-668.7419 1112.3006,-692.7419 1138.3006,-692.7419 1138.3006,-668.7419 1112.3006,-668.7419"/>
<text text-anchor="start" x="1116.8993" y="-676.5419" font-family="Courier,monospace" font-size="14.00" fill="#000000"> 4</text>
<polygon fill="none" stroke="#000000" points="1138.3006,-668.7419 1138.3006,-692.7419 1164.3006,-692.7419 1164.3006,-668.7419 1138.3006,-668.7419"/>
<text text-anchor="start" x="1142.8993" y="-676.5419" font-family="Courier,monospace" font-size="14.00" fill="#000000"> 4</text>
<text text-anchor="start" x="1134.1" y="-653.5419" font-family="Courier,monospace" font-size="14.00" fill="#000000"> </text>
</g>
<!-- s0_0_2_2&#45;&gt;s0_2_2_2 -->
<g id="edge23" class="edge">
<title>s0_0_2_2:up&#45;&gt;s0_2_2_2</title>
<g id="a_edge23"><a xlink:title="0.100">
<path fill="none" stroke="#000000" stroke-width="1.2" d="M651.0559,-778.7419C788.5261,-778.7419 823.4788,-770.6295 958.4895,-744.7419 998.7788,-737.0166 1043.0322,-725.0223 1078.5632,-714.4991"/>
<polygon fill="#000000" stroke="#000000" stroke-width="1.2" points="1079.7648,-717.793 1088.343,-711.5749 1077.7594,-711.0864 1079.7648,-717.793"/>
</a>
</g>
</g>
<!-- s0_0_0_3 -->
<g id="node17" class="node">
<title>s0_0_0_3</title>
<polygon fill="#00ff00" stroke="#000000" points="1459.9225,-436.8038 1418.7666,-436.8038 1406.0487,-475.8367 1393.3308,-436.8038 1352.1749,-436.8038 1385.4707,-412.6801 1372.7529,-373.6471 1406.0487,-397.7708 1439.3445,-373.6471 1426.6267,-412.6801 1459.9225,-436.8038"/>
<text text-anchor="middle" x="1406.0487" y="-420.5419" font-family="Courier,monospace" font-size="14.00" fill="#000000">win</text>
</g>
<!-- s0_0_2_2&#45;&gt;s0_0_0_3 -->
<g id="edge21" class="edge">
<title>s0_0_2_2:left_right&#45;&gt;s0_0_0_3</title>
<g id="a_edge21"><a xlink:title="1.000">
<path fill="none" stroke="#000000" stroke-width="3" d="M651.0559,-813.7419C905.7723,-813.7419 1009.6143,-943.1145 1224.1118,-805.7419 1338.2872,-732.6195 1382.4526,-566.2596 1398.1713,-479.5716"/>
<polygon fill="#000000" stroke="#000000" stroke-width="3" points="1403.0021,-472.0398 1401.228,-461.5946 1396.1012,-470.8663 1403.0021,-472.0398"/>
<ellipse fill="none" stroke="#000000" stroke-width="3" cx="1398.8811" cy="-475.3965" rx="4" ry="4"/>
</a>
</g>
</g>
<!-- s1_1_1_2 -->
<g id="node12" class="node">
<title>s1_1_1_2</title>
<ellipse fill="none" stroke="#000000" cx="881.6783" cy="-502.7419" rx="60.623" ry="70.922"/>
<text text-anchor="start" x="868.4776" y="-533.5419" font-family="Courier,monospace" font-size="14.00" fill="#000000"> </text>
<path fill="none" stroke="#000000" d="M904.6783,-502.7419C904.6783,-502.7419 910.6783,-502.7419 910.6783,-502.7419 913.6783,-502.7419 916.6783,-505.7419 916.6783,-508.7419 916.6783,-508.7419 916.6783,-542.7419 916.6783,-542.7419 916.6783,-545.7419 913.6783,-548.7419 910.6783,-548.7419 910.6783,-548.7419 904.6783,-548.7419 904.6783,-548.7419 901.6783,-548.7419 898.6783,-545.7419 898.6783,-542.7419 898.6783,-542.7419 898.6783,-508.7419 898.6783,-508.7419 898.6783,-505.7419 901.6783,-502.7419 904.6783,-502.7419"/>
<text text-anchor="start" x="903.4776" y="-528.5419" font-family="Courier,monospace" font-size="14.00" fill="#000000">L</text>
<text text-anchor="start" x="903.4776" y="-514.5419" font-family="Courier,monospace" font-size="14.00" fill="#000000">U</text>
<polygon fill="none" stroke="#000000" points="846.6783,-502.7419 846.6783,-526.7419 872.6783,-526.7419 872.6783,-502.7419 846.6783,-502.7419"/>
<text text-anchor="start" x="851.2769" y="-510.5419" font-family="Courier,monospace" font-size="14.00" fill="#000000"> 2</text>
<polygon fill="none" stroke="#000000" points="872.6783,-502.7419 872.6783,-526.7419 898.6783,-526.7419 898.6783,-502.7419 872.6783,-502.7419"/>
<text text-anchor="start" x="877.2769" y="-510.5419" font-family="Courier,monospace" font-size="14.00" fill="#000000"> 2</text>
<polygon fill="none" stroke="#000000" points="846.6783,-478.7419 846.6783,-502.7419 872.6783,-502.7419 872.6783,-478.7419 846.6783,-478.7419"/>
<text text-anchor="start" x="851.2769" y="-486.5419" font-family="Courier,monospace" font-size="14.00" fill="#000000"> 2</text>
<polygon fill="none" stroke="#000000" points="872.6783,-478.7419 872.6783,-502.7419 898.6783,-502.7419 898.6783,-478.7419 872.6783,-478.7419"/>
<text text-anchor="start" x="877.2769" y="-486.5419" font-family="Courier,monospace" font-size="14.00" fill="#000000"> 4</text>
<path fill="none" stroke="#000000" d="M904.6783,-456.7419C904.6783,-456.7419 910.6783,-456.7419 910.6783,-456.7419 913.6783,-456.7419 916.6783,-459.7419 916.6783,-462.7419 916.6783,-462.7419 916.6783,-496.7419 916.6783,-496.7419 916.6783,-499.7419 913.6783,-502.7419 910.6783,-502.7419 910.6783,-502.7419 904.6783,-502.7419 904.6783,-502.7419 901.6783,-502.7419 898.6783,-499.7419 898.6783,-496.7419 898.6783,-496.7419 898.6783,-462.7419 898.6783,-462.7419 898.6783,-459.7419 901.6783,-456.7419 904.6783,-456.7419"/>
<text text-anchor="start" x="903.4776" y="-482.5419" font-family="Courier,monospace" font-size="14.00" fill="#000000">R</text>
<text text-anchor="start" x="903.4776" y="-468.5419" font-family="Courier,monospace" font-size="14.00" fill="#000000">D</text>
<text text-anchor="start" x="868.4776" y="-463.5419" font-family="Courier,monospace" font-size="14.00" fill="#000000"> </text>
</g>
<!-- s0_1_1_2&#45;&gt;s1_1_1_2 -->
<g id="edge24" class="edge">
<title>s0_1_1_2:left_up&#45;&gt;s1_1_1_2</title>
<g id="a_edge24"><a xlink:title="0.900">
<path fill="none" stroke="#000000" stroke-width="2.8" d="M642.0559,-352.7419C642.0559,-355.349 747.6995,-420.6252 818.6952,-464.1985"/>
<polygon fill="#000000" stroke="#000000" stroke-width="2.8" points="817.2495,-467.4177 827.6036,-469.6637 820.91,-461.4511 817.2495,-467.4177"/>
</a>
</g>
</g>
<!-- s1_1_2_2 -->
<g id="node14" class="node">
<title>s1_1_2_2</title>
<ellipse fill="none" stroke="#000000" cx="1147.3006" cy="-533.7419" rx="60.623" ry="70.922"/>
<text text-anchor="start" x="1134.1" y="-564.5419" font-family="Courier,monospace" font-size="14.00" fill="#000000"> </text>
<path fill="none" stroke="#000000" d="M1170.3006,-533.7419C1170.3006,-533.7419 1176.3006,-533.7419 1176.3006,-533.7419 1179.3006,-533.7419 1182.3006,-536.7419 1182.3006,-539.7419 1182.3006,-539.7419 1182.3006,-573.7419 1182.3006,-573.7419 1182.3006,-576.7419 1179.3006,-579.7419 1176.3006,-579.7419 1176.3006,-579.7419 1170.3006,-579.7419 1170.3006,-579.7419 1167.3006,-579.7419 1164.3006,-576.7419 1164.3006,-573.7419 1164.3006,-573.7419 1164.3006,-539.7419 1164.3006,-539.7419 1164.3006,-536.7419 1167.3006,-533.7419 1170.3006,-533.7419"/>
<text text-anchor="start" x="1169.1" y="-559.5419" font-family="Courier,monospace" font-size="14.00" fill="#000000">L</text>
<text text-anchor="start" x="1169.1" y="-545.5419" font-family="Courier,monospace" font-size="14.00" fill="#000000">R</text>
<polygon fill="none" stroke="#000000" points="1112.3006,-533.7419 1112.3006,-557.7419 1138.3006,-557.7419 1138.3006,-533.7419 1112.3006,-533.7419"/>
<text text-anchor="start" x="1116.8993" y="-541.5419" font-family="Courier,monospace" font-size="14.00" fill="#000000"> 2</text>
<polygon fill="none" stroke="#000000" points="1138.3006,-533.7419 1138.3006,-557.7419 1164.3006,-557.7419 1164.3006,-533.7419 1138.3006,-533.7419"/>
<text text-anchor="start" x="1142.8993" y="-541.5419" font-family="Courier,monospace" font-size="14.00" fill="#000000"> 2</text>
<polygon fill="none" stroke="#000000" points="1112.3006,-509.7419 1112.3006,-533.7419 1138.3006,-533.7419 1138.3006,-509.7419 1112.3006,-509.7419"/>
<text text-anchor="start" x="1116.8993" y="-517.5419" font-family="Courier,monospace" font-size="14.00" fill="#000000"> 4</text>
<polygon fill="none" stroke="#000000" points="1138.3006,-509.7419 1138.3006,-533.7419 1164.3006,-533.7419 1164.3006,-509.7419 1138.3006,-509.7419"/>
<text text-anchor="start" x="1142.8993" y="-517.5419" font-family="Courier,monospace" font-size="14.00" fill="#000000"> 4</text>
<path fill="none" stroke="#000000" d="M1170.3006,-487.7419C1170.3006,-487.7419 1176.3006,-487.7419 1176.3006,-487.7419 1179.3006,-487.7419 1182.3006,-490.7419 1182.3006,-493.7419 1182.3006,-493.7419 1182.3006,-527.7419 1182.3006,-527.7419 1182.3006,-530.7419 1179.3006,-533.7419 1176.3006,-533.7419 1176.3006,-533.7419 1170.3006,-533.7419 1170.3006,-533.7419 1167.3006,-533.7419 1164.3006,-530.7419 1164.3006,-527.7419 1164.3006,-527.7419 1164.3006,-493.7419 1164.3006,-493.7419 1164.3006,-490.7419 1167.3006,-487.7419 1170.3006,-487.7419"/>
<text text-anchor="start" x="1169.1" y="-513.5419" font-family="Courier,monospace" font-size="14.00" fill="#c0c0c0">U</text>
<text text-anchor="start" x="1169.1" y="-499.5419" font-family="Courier,monospace" font-size="14.00" fill="#c0c0c0">D</text>
<text text-anchor="start" x="1134.1" y="-494.5419" font-family="Courier,monospace" font-size="14.00" fill="#000000"> </text>
</g>
<!-- s0_1_1_2&#45;&gt;s1_1_2_2 -->
<g id="edge25" class="edge">
<title>s0_1_1_2:left_up&#45;&gt;s1_1_2_2</title>
<g id="a_edge25"><a xlink:title="0.100">
<path fill="none" stroke="#000000" stroke-width="1.2" d="M642.0559,-352.7419C642.0559,-379.9141 674.9915,-366.2775 692.8671,-386.7419 767.402,-472.0712 708.7518,-555.7553 804.8671,-615.7419 892.3965,-670.37 1013.358,-617.3217 1085.6206,-574.8337"/>
<polygon fill="#000000" stroke="#000000" stroke-width="1.2" points="1087.8351,-577.5875 1094.619,-569.4493 1084.2407,-571.5807 1087.8351,-577.5875"/>
</a>
</g>
</g>
<!-- s0_1_2_1&#45;&gt;s0_1_2_2 -->
<g id="edge28" class="edge">
<title>s0_1_2_1:up_down&#45;&gt;s0_1_2_2</title>
<g id="a_edge28"><a xlink:title="0.900">
<path fill="none" stroke="#000000" stroke-width="2.8" d="M651.0559,-443.7419C712.6213,-443.7419 776.1389,-412.9636 820.8867,-385.221"/>
<polygon fill="#000000" stroke="#000000" stroke-width="2.8" points="822.9991,-388.0263 829.5798,-379.7229 819.2574,-382.1102 822.9991,-388.0263"/>
</a>
</g>
</g>
<!-- s0_1_2_1&#45;&gt;s1_1_1_2 -->
<g id="edge26" class="edge">
<title>s0_1_2_1:left&#45;&gt;s1_1_1_2</title>
<g id="a_edge26"><a xlink:title="0.900">
<path fill="none" stroke="#000000" stroke-width="2.8" d="M651.0559,-502.7419C704.4715,-502.7419 764.8462,-502.7419 810.4202,-502.7419"/>
<polygon fill="#000000" stroke="#000000" stroke-width="2.8" points="810.4971,-506.242 820.4971,-502.7419 810.4971,-499.242 810.4971,-506.242"/>
</a>
</g>
</g>
<!-- s0_1_2_1&#45;&gt;s0_2_2_2 -->
<g id="edge29" class="edge">
<title>s0_1_2_1:up_down&#45;&gt;s0_2_2_2</title>
<g id="a_edge29"><a xlink:title="0.100">
<path fill="none" stroke="#000000" stroke-width="1.2" d="M651.0559,-443.7419C780.0014,-443.7419 692.3552,-626.7498 804.8671,-689.7419 889.3417,-737.0367 1004.9035,-725.3772 1077.8234,-710.6283"/>
<polygon fill="#000000" stroke="#000000" stroke-width="1.2" points="1078.7528,-714.0097 1087.8221,-708.5325 1077.3167,-707.1585 1078.7528,-714.0097"/>
</a>
</g>
</g>
<!-- s0_0_0_0 -->
<g id="node16" class="node">
<title>s0_0_0_0</title>
<ellipse fill="#ff0000" stroke="#000000" cx="1147.3006" cy="-412.7419" rx="31.1701" ry="18"/>
<text text-anchor="middle" x="1147.3006" y="-408.5419" font-family="Courier,monospace" font-size="14.00" fill="#000000">lose</text>
</g>
<!-- s0_1_2_1&#45;&gt;s0_0_0_0 -->
<g id="edge27" class="edge">
<title>s0_1_2_1:left&#45;&gt;s0_0_0_0</title>
<g id="a_edge27"><a xlink:title="0.100">
<path fill="none" stroke="#000000" stroke-width="1.2" d="M651.0559,-502.7419C735.8818,-502.7419 724.2626,-589.3157 804.8671,-615.7419 869.7459,-637.0124 898.5099,-648.3631 958.4895,-615.7419 1038.9542,-571.9794 999.5157,-500.6422 1070.4895,-442.7419 1081.4509,-433.7996 1095.3941,-427.2909 1108.3842,-422.6695"/>
<polygon fill="#000000" stroke="#000000" stroke-width="1.2" points="1109.6554,-425.9361 1118.0669,-419.4943 1107.4741,-419.2846 1109.6554,-425.9361"/>
</a>
</g>
</g>
<!-- s0_2_2_0&#45;&gt;s0_1_2_2 -->
<g id="edge30" class="edge">
<title>s0_2_2_0:left_right_up_down&#45;&gt;s0_1_2_2</title>
<g id="a_edge30"><a xlink:title="0.900">
<path fill="none" stroke="#000000" stroke-width="2.8" d="M642.0559,-582.7419C642.0559,-555.5697 672.3841,-566.5961 692.8671,-548.7419 749.3477,-499.5101 754.1937,-477.9328 804.8671,-422.7419 812.5716,-414.3506 820.7876,-405.5423 828.8741,-396.9509"/>
<polygon fill="#000000" stroke="#000000" stroke-width="2.8" points="831.6133,-399.1478 835.931,-389.4726 826.5222,-394.3435 831.6133,-399.1478"/>
</a>
</g>
</g>
<!-- s0_2_2_0&#45;&gt;s0_2_2_2 -->
<g id="edge31" class="edge">
<title>s0_2_2_0:left_right_up_down&#45;&gt;s0_2_2_2</title>
<g id="a_edge31"><a xlink:title="0.100">
<path fill="none" stroke="#000000" stroke-width="1.2" d="M642.0559,-674.7419C642.0559,-693.7664 786.0776,-724.7606 804.8671,-727.7419 872.3002,-738.4413 890.4994,-733.9904 958.4895,-727.7419 998.0719,-724.1042 1041.7402,-716.2628 1077.1023,-708.9226"/>
<polygon fill="#000000" stroke="#000000" stroke-width="1.2" points="1078.257,-712.2562 1087.3197,-706.768 1076.8126,-705.4068 1078.257,-712.2562"/>
</a>
</g>
</g>
<!-- s1_2_2_2 -->
<g id="node15" class="node">
<title>s1_2_2_2</title>
<ellipse fill="none" stroke="#000000" cx="1147.3006" cy="-269.7419" rx="60.623" ry="70.922"/>
<text text-anchor="start" x="1134.1" y="-300.5419" font-family="Courier,monospace" font-size="14.00" fill="#000000"> </text>
<path fill="none" stroke="#000000" d="M1170.3006,-269.7419C1170.3006,-269.7419 1176.3006,-269.7419 1176.3006,-269.7419 1179.3006,-269.7419 1182.3006,-272.7419 1182.3006,-275.7419 1182.3006,-275.7419 1182.3006,-309.7419 1182.3006,-309.7419 1182.3006,-312.7419 1179.3006,-315.7419 1176.3006,-315.7419 1176.3006,-315.7419 1170.3006,-315.7419 1170.3006,-315.7419 1167.3006,-315.7419 1164.3006,-312.7419 1164.3006,-309.7419 1164.3006,-309.7419 1164.3006,-275.7419 1164.3006,-275.7419 1164.3006,-272.7419 1167.3006,-269.7419 1170.3006,-269.7419"/>
<text text-anchor="start" x="1169.1" y="-295.5419" font-family="Courier,monospace" font-size="14.00" fill="#000000">L</text>
<text text-anchor="start" x="1169.1" y="-281.5419" font-family="Courier,monospace" font-size="14.00" fill="#000000">U</text>
<polygon fill="none" stroke="#000000" points="1112.3006,-269.7419 1112.3006,-293.7419 1138.3006,-293.7419 1138.3006,-269.7419 1112.3006,-269.7419"/>
<text text-anchor="start" x="1116.8993" y="-277.5419" font-family="Courier,monospace" font-size="14.00" fill="#000000"> 2</text>
<polygon fill="none" stroke="#000000" points="1138.3006,-269.7419 1138.3006,-293.7419 1164.3006,-293.7419 1164.3006,-269.7419 1138.3006,-269.7419"/>
<text text-anchor="start" x="1142.8993" y="-277.5419" font-family="Courier,monospace" font-size="14.00" fill="#000000"> 4</text>
<polygon fill="none" stroke="#000000" points="1112.3006,-245.7419 1112.3006,-269.7419 1138.3006,-269.7419 1138.3006,-245.7419 1112.3006,-245.7419"/>
<text text-anchor="start" x="1116.8993" y="-253.5419" font-family="Courier,monospace" font-size="14.00" fill="#000000"> 4</text>
<polygon fill="none" stroke="#000000" points="1138.3006,-245.7419 1138.3006,-269.7419 1164.3006,-269.7419 1164.3006,-245.7419 1138.3006,-245.7419"/>
<text text-anchor="start" x="1142.8993" y="-253.5419" font-family="Courier,monospace" font-size="14.00" fill="#000000"> 4</text>
<path fill="none" stroke="#000000" d="M1170.3006,-223.7419C1170.3006,-223.7419 1176.3006,-223.7419 1176.3006,-223.7419 1179.3006,-223.7419 1182.3006,-226.7419 1182.3006,-229.7419 1182.3006,-229.7419 1182.3006,-263.7419 1182.3006,-263.7419 1182.3006,-266.7419 1179.3006,-269.7419 1176.3006,-269.7419 1176.3006,-269.7419 1170.3006,-269.7419 1170.3006,-269.7419 1167.3006,-269.7419 1164.3006,-266.7419 1164.3006,-263.7419 1164.3006,-263.7419 1164.3006,-229.7419 1164.3006,-229.7419 1164.3006,-226.7419 1167.3006,-223.7419 1170.3006,-223.7419"/>
<text text-anchor="start" x="1169.1" y="-249.5419" font-family="Courier,monospace" font-size="14.00" fill="#000000">R</text>
<text text-anchor="start" x="1169.1" y="-235.5419" font-family="Courier,monospace" font-size="14.00" fill="#000000">D</text>
<text text-anchor="start" x="1134.1" y="-230.5419" font-family="Courier,monospace" font-size="14.00" fill="#000000"> </text>
</g>
<!-- s0_1_2_2&#45;&gt;s1_2_2_2 -->
<g id="edge34" class="edge">
<title>s0_1_2_2:up&#45;&gt;s1_2_2_2</title>
<g id="a_edge34"><a xlink:title="0.100">
<path fill="none" stroke="#000000" stroke-width="1.2" d="M916.6783,-330.7419C973.1296,-330.7419 1034.8467,-313.4489 1080.2187,-297.2778"/>
<polygon fill="#000000" stroke="#000000" stroke-width="1.2" points="1081.4425,-300.5571 1089.6447,-293.8507 1079.0506,-293.9784 1081.4425,-300.5571"/>
</a>
</g>
</g>
<!-- s0_1_2_2&#45;&gt;s0_0_0_0 -->
<g id="edge33" class="edge">
<title>s0_1_2_2:up&#45;&gt;s0_0_0_0</title>
<g id="a_edge33"><a xlink:title="0.900">
<path fill="none" stroke="#000000" stroke-width="2.8" d="M916.6783,-330.7419C926.7876,-330.7419 1049.3284,-376.0625 1111.5432,-399.3182"/>
<polygon fill="#000000" stroke="#000000" stroke-width="2.8" points="1110.3915,-402.6242 1120.9839,-402.8508 1112.8447,-396.0681 1110.3915,-402.6242"/>
</a>
</g>
</g>
<!-- s0_1_2_2&#45;&gt;s0_0_0_3 -->
<g id="edge32" class="edge">
<title>s0_1_2_2:left_right&#45;&gt;s0_0_0_3</title>
<g id="a_edge32"><a xlink:title="1.000">
<path fill="none" stroke="#000000" stroke-width="3" d="M916.6783,-365.7419C1024.2916,-365.7419 973.1829,-224.699 1070.4895,-178.7419 1132.2268,-149.5838 1163.146,-148.0032 1224.1118,-178.7419 1263.3844,-198.543 1327.9768,-295.6603 1368.6994,-361.7829"/>
<polygon fill="#000000" stroke="#000000" stroke-width="3" points="1370.0612,-370.7332 1378.2581,-377.446 1376.0364,-367.0867 1370.0612,-370.7332"/>
<ellipse fill="none" stroke="#000000" stroke-width="3" cx="1370.9651" cy="-365.4956" rx="4" ry="4"/>
</a>
</g>
</g>
<!-- s0_2_2_1&#45;&gt;s1_1_2_2 -->
<g id="edge35" class="edge">
<title>s0_2_2_1:left_up&#45;&gt;s1_1_2_2</title>
<g id="a_edge35"><a xlink:title="0.900">
<path fill="none" stroke="#000000" stroke-width="2.8" d="M907.6783,-226.7419C907.6783,-253.9141 939.5722,-241.2364 958.4895,-260.7419 1023.8245,-328.1084 1015.8016,-363.4782 1070.4895,-439.7419 1078.9713,-451.57 1088.4669,-463.8574 1097.8121,-475.4956"/>
<polygon fill="#000000" stroke="#000000" stroke-width="2.8" points="1095.2295,-477.8678 1104.2435,-483.4354 1100.6689,-473.4617 1095.2295,-477.8678"/>
</a>
</g>
</g>
<!-- s0_2_2_1&#45;&gt;s1_2_2_2 -->
<g id="edge36" class="edge">
<title>s0_2_2_1:left_up&#45;&gt;s1_2_2_2</title>
<g id="a_edge36"><a xlink:title="0.100">
<path fill="none" stroke="#000000" stroke-width="1.2" d="M916.6783,-203.7419C973.638,-203.7419 1035.563,-222.5808 1080.8893,-240.1287"/>
<polygon fill="#000000" stroke="#000000" stroke-width="1.2" points="1079.7152,-243.428 1090.3018,-243.8464 1082.2868,-236.9175 1079.7152,-243.428"/>
</a>
</g>
</g>
<!-- s1_1_1_2&#45;&gt;s1_1_2_2 -->
<g id="edge39" class="edge">
<title>s1_1_1_2:right_down&#45;&gt;s1_1_2_2</title>
<g id="a_edge39"><a xlink:title="0.900">
<path fill="none" stroke="#000000" stroke-width="2.8" d="M916.6783,-479.7419C972.42,-479.7419 1033.7918,-494.8823 1079.2026,-509.1292"/>
<polygon fill="#000000" stroke="#000000" stroke-width="2.8" points="1078.3413,-512.5284 1088.9324,-512.2445 1080.476,-505.8618 1078.3413,-512.5284"/>
</a>
</g>
</g>
<!-- s1_1_1_2&#45;&gt;s1_2_2_2 -->
<g id="edge38" class="edge">
<title>s1_1_1_2:left_up&#45;&gt;s1_2_2_2</title>
<g id="a_edge38"><a xlink:title="0.100">
<path fill="none" stroke="#000000" stroke-width="1.2" d="M916.6783,-525.7419C967.9421,-525.7419 1053.9377,-410.9916 1105.1798,-335.1439"/>
<polygon fill="#000000" stroke="#000000" stroke-width="1.2" points="1108.2769,-336.8099 1110.9455,-326.5566 1102.4653,-332.9078 1108.2769,-336.8099"/>
</a>
</g>
</g>
<!-- s1_1_1_2&#45;&gt;s1_2_2_2 -->
<g id="edge40" class="edge">
<title>s1_1_1_2:right_down&#45;&gt;s1_2_2_2</title>
<g id="a_edge40"><a xlink:title="0.100">
<path fill="none" stroke="#000000" stroke-width="1.2" d="M907.6783,-456.7419C907.6783,-429.5697 936.6198,-438.8678 958.4895,-422.7419 1003.9828,-389.1969 1053.5698,-348.86 1090.5068,-318.0268"/>
<polygon fill="#000000" stroke="#000000" stroke-width="1.2" points="1092.7674,-320.6989 1098.1908,-311.5974 1088.2753,-315.3304 1092.7674,-320.6989"/>
</a>
</g>
</g>
<!-- s1_1_1_2&#45;&gt;s0_0_0_0 -->
<g id="edge37" class="edge">
<title>s1_1_1_2:left_up&#45;&gt;s0_0_0_0</title>
<g id="a_edge37"><a xlink:title="0.900">
<path fill="none" stroke="#000000" stroke-width="2.8" d="M916.6783,-525.7419C994.3568,-525.7419 999.9992,-475.3774 1070.4895,-442.7419 1083.5337,-436.7027 1098.1616,-430.7859 1111.1243,-425.8244"/>
<polygon fill="#000000" stroke="#000000" stroke-width="2.8" points="1112.5359,-429.0328 1120.6586,-422.2305 1110.0668,-422.4827 1112.5359,-429.0328"/>
</a>
</g>
</g>
<!-- s0_2_2_2&#45;&gt;s0_0_0_3 -->
<g id="edge41" class="edge">
<title>s0_2_2_2:left_right_up_down&#45;&gt;s0_0_0_3</title>
<g id="a_edge41"><a xlink:title="1.000">
<path fill="none" stroke="#000000" stroke-width="3" d="M1173.3006,-646.7419C1173.3006,-619.8144 1203.3478,-630.8868 1224.1118,-613.7419 1285.9836,-562.6542 1348.8603,-492.3741 1382.0575,-453.511"/>
<polygon fill="#000000" stroke="#000000" stroke-width="3" points="1390.0407,-449.4879 1393.823,-439.5912 1384.6946,-444.9692 1390.0407,-449.4879"/>
<ellipse fill="none" stroke="#000000" stroke-width="3" cx="1384.7855" cy="-450.2835" rx="4" ry="4"/>
</a>
</g>
</g>
<!-- s1_1_2_2&#45;&gt;s0_0_0_3 -->
<g id="edge42" class="edge">
<title>s1_1_2_2:left_right&#45;&gt;s0_0_0_3</title>
<g id="a_edge42"><a xlink:title="1.000">
<path fill="none" stroke="#000000" stroke-width="3" d="M1182.3006,-556.7419C1264.0642,-556.7419 1342.232,-490.5451 1380.8931,-451.9074"/>
<polygon fill="#000000" stroke="#000000" stroke-width="3" points="1389.0605,-448.4916 1393.4922,-438.8682 1384.0265,-443.6275 1389.0605,-448.4916"/>
<ellipse fill="none" stroke="#000000" stroke-width="3" cx="1383.764" cy="-448.9361" rx="4" ry="4"/>
</a>
</g>
</g>
<!-- s1_2_2_2&#45;&gt;s0_0_0_3 -->
<g id="edge43" class="edge">
<title>s1_2_2_2:left_up&#45;&gt;s0_0_0_3</title>
<g id="a_edge43"><a xlink:title="1.000">
<path fill="none" stroke="#000000" stroke-width="3" d="M1173.3006,-315.7419C1173.3006,-356.6287 1292.5859,-394.8374 1360.3646,-413.2477"/>
<polygon fill="#000000" stroke="#000000" stroke-width="3" points="1367.4115,-418.73 1377.9738,-417.9011 1369.1999,-411.9624 1367.4115,-418.73"/>
<ellipse fill="none" stroke="#000000" stroke-width="3" cx="1364.4385" cy="-414.3242" rx="4" ry="4"/>
</a>
</g>
</g>
<!-- s1_2_2_2&#45;&gt;s0_0_0_3 -->
<g id="edge44" class="edge">
<title>s1_2_2_2:right_down&#45;&gt;s0_0_0_3</title>
<g id="a_edge44"><a xlink:title="1.000">
<path fill="none" stroke="#000000" stroke-width="3" d="M1182.3006,-246.7419C1257.2312,-246.7419 1321.5921,-308.6332 1361.7948,-359.4257"/>
<polygon fill="#000000" stroke="#000000" stroke-width="3" points="1363.878,-367.9147 1372.7315,-373.7343 1369.4395,-363.6638 1363.878,-367.9147"/>
<ellipse fill="none" stroke="#000000" stroke-width="3" cx="1364.2297" cy="-362.6113" rx="4" ry="4"/>
</a>
</g>
</g>
</g>
</svg>
