<?xml version="1.0" encoding="UTF-8" standalone="no"?>
<!DOCTYPE svg PUBLIC "-//W3C//DTD SVG 1.1//EN"
 "http://www.w3.org/Graphics/SVG/1.1/DTD/svg11.dtd">
<!-- Generated by graphviz version 2.40.1 (20161225.0304)
 -->
<!-- Title: %3 Pages: 1 -->
<svg width="303pt" height="149pt"
 viewBox="0.00 0.00 303.23 149.42" xmlns="http://www.w3.org/2000/svg" xmlns:xlink="http://www.w3.org/1999/xlink">
<g id="graph0" class="graph" transform="scale(1 1) rotate(0) translate(4 145.4214)">
<title>%3</title>
<!-- s0_1_1_0 -->
<g id="node1" class="node">
<title>s0_1_1_0</title>
<ellipse fill="none" stroke="#0000ff" cx="60.8112" cy="-70.7107" rx="60.623" ry="70.922"/>
<text text-anchor="start" x="47.6105" y="-101.5107" font-family="Courier,monospace" font-size="14.00" fill="#000000"> </text>
<path fill="none" stroke="#0000ff" d="M83.8112,-24.7107C83.8112,-24.7107 89.8112,-24.7107 89.8112,-24.7107 92.8112,-24.7107 95.8112,-27.7107 95.8112,-30.7107 95.8112,-30.7107 95.8112,-110.7107 95.8112,-110.7107 95.8112,-113.7107 92.8112,-116.7107 89.8112,-116.7107 89.8112,-116.7107 83.8112,-116.7107 83.8112,-116.7107 80.8112,-116.7107 77.8112,-113.7107 77.8112,-110.7107 77.8112,-110.7107 77.8112,-30.7107 77.8112,-30.7107 77.8112,-27.7107 80.8112,-24.7107 83.8112,-24.7107"/>
<text text-anchor="start" x="82.6105" y="-87.5107" font-family="Courier,monospace" font-size="14.00" fill="#000000">L</text>
<text text-anchor="start" x="82.6105" y="-73.5107" font-family="Courier,monospace" font-size="14.00" fill="#000000">R</text>
<text text-anchor="start" x="82.6105" y="-59.5107" font-family="Courier,monospace" font-size="14.00" fill="#000000">U</text>
<text text-anchor="start" x="82.6105" y="-45.5107" font-family="Courier,monospace" font-size="14.00" fill="#000000">D</text>
<polygon fill="none" stroke="#0000ff" points="25.8112,-70.7107 25.8112,-94.7107 51.8112,-94.7107 51.8112,-70.7107 25.8112,-70.7107"/>
<text text-anchor="start" x="30.4098" y="-78.5107" font-family="Courier,monospace" font-size="14.00" fill="#000000">  </text>
<polygon fill="none" stroke="#0000ff" points="51.8112,-70.7107 51.8112,-94.7107 77.8112,-94.7107 77.8112,-70.7107 51.8112,-70.7107"/>
<text text-anchor="start" x="56.4098" y="-78.5107" font-family="Courier,monospace" font-size="14.00" fill="#000000"> 2</text>
<polygon fill="none" stroke="#0000ff" points="25.8112,-46.7107 25.8112,-70.7107 51.8112,-70.7107 51.8112,-46.7107 25.8112,-46.7107"/>
<text text-anchor="start" x="30.4098" y="-54.5107" font-family="Courier,monospace" font-size="14.00" fill="#000000"> 2</text>
<polygon fill="none" stroke="#0000ff" points="51.8112,-46.7107 51.8112,-70.7107 77.8112,-70.7107 77.8112,-46.7107 51.8112,-46.7107"/>
<text text-anchor="start" x="56.4098" y="-54.5107" font-family="Courier,monospace" font-size="14.00" fill="#000000">  </text>
<text text-anchor="start" x="47.6105" y="-31.5107" font-family="Courier,monospace" font-size="14.00" fill="#000000"> </text>
</g>
<!-- s0_1_1_1 -->
<g id="node2" class="node">
<title>s0_1_1_1</title>
<polygon fill="none" stroke="#000000" points="229.6224,-89.7107 229.6224,-133.7107 295.2278,-133.7107 295.2278,-89.7107 229.6224,-89.7107"/>
<text text-anchor="middle" x="246.0237" y="-118.5107" font-family="Courier,monospace" font-size="14.00" fill="#000000">  </text>
<polyline fill="none" stroke="#000000" points="262.4251,-111.7107 262.4251,-133.7107 "/>
<text text-anchor="middle" x="278.8265" y="-118.5107" font-family="Courier,monospace" font-size="14.00" fill="#000000"> 2</text>
<polyline fill="none" stroke="#000000" points="229.6224,-111.7107 295.2278,-111.7107 "/>
<text text-anchor="middle" x="246.0237" y="-96.5107" font-family="Courier,monospace" font-size="14.00" fill="#000000"> 2</text>
<polyline fill="none" stroke="#000000" points="262.4251,-89.7107 262.4251,-111.7107 "/>
<text text-anchor="middle" x="278.8265" y="-96.5107" font-family="Courier,monospace" font-size="14.00" fill="#000000"> 2</text>
</g>
<!-- s0_1_1_0&#45;&gt;s0_1_1_1 -->
<g id="edge1" class="edge">
<title>s0_1_1_0:left_right_up_down&#45;&gt;s0_1_1_1</title>
<path fill="none" stroke="#000000" d="M95.8112,-70.7107C138.8702,-70.7107 186.4227,-83.7821 219.6665,-95.1637"/>
<polygon fill="#000000" stroke="#000000" points="218.9086,-98.6073 229.5034,-98.6253 221.2322,-92.0042 218.9086,-98.6073"/>
<text text-anchor="middle" x="212.0034" y="-87.4253" font-family="Times,serif" font-size="14.00" fill="#000000">0.90 &#160;&#160;</text>
</g>
<!-- s0_1_2_1 -->
<g id="node3" class="node">
<title>s0_1_2_1</title>
<polygon fill="none" stroke="#000000" points="229.6224,-8.7107 229.6224,-52.7107 295.2278,-52.7107 295.2278,-8.7107 229.6224,-8.7107"/>
<text text-anchor="middle" x="246.0237" y="-37.5107" font-family="Courier,monospace" font-size="14.00" fill="#000000">  </text>
<polyline fill="none" stroke="#000000" points="262.4251,-30.7107 262.4251,-52.7107 "/>
<text text-anchor="middle" x="278.8265" y="-37.5107" font-family="Courier,monospace" font-size="14.00" fill="#000000"> 2</text>
<polyline fill="none" stroke="#000000" points="229.6224,-30.7107 295.2278,-30.7107 "/>
<text text-anchor="middle" x="246.0237" y="-15.5107" font-family="Courier,monospace" font-size="14.00" fill="#000000"> 4</text>
<polyline fill="none" stroke="#000000" points="262.4251,-8.7107 262.4251,-30.7107 "/>
<text text-anchor="middle" x="278.8265" y="-15.5107" font-family="Courier,monospace" font-size="14.00" fill="#000000"> 2</text>
</g>
<!-- s0_1_1_0&#45;&gt;s0_1_2_1 -->
<g id="edge2" class="edge">
<title>s0_1_1_0:left_right_up_down&#45;&gt;s0_1_2_1</title>
<path fill="none" stroke="#000000" d="M95.8112,-70.7107C138.8109,-70.7107 186.3711,-57.9581 219.6328,-46.8541"/>
<polygon fill="#000000" stroke="#000000" points="221.1527,-50.033 229.4755,-43.4769 218.8809,-43.4119 221.1527,-50.033"/>
<text text-anchor="middle" x="211.9755" y="-32.2769" font-family="Times,serif" font-size="14.00" fill="#000000">0.10 &#160;&#160;</text>
</g>
</g>
</svg>
