<?xml version="1.0" encoding="UTF-8" standalone="no"?>
<!DOCTYPE svg PUBLIC "-//W3C//DTD SVG 1.1//EN"
 "http://www.w3.org/Graphics/SVG/1.1/DTD/svg11.dtd">
<!-- Generated by graphviz version 2.40.1 (20161225.0304)
 -->
<!-- Title: %3 Pages: 1 -->
<svg width="303pt" height="206pt"
 viewBox="0.00 0.00 303.23 206.00" xmlns="http://www.w3.org/2000/svg" xmlns:xlink="http://www.w3.org/1999/xlink">
<g id="graph0" class="graph" transform="scale(1 1) rotate(0) translate(4 202)">
<title>%3</title>
<!-- s0_1_1_0 -->
<g id="node1" class="node">
<title>s0_1_1_0</title>
<ellipse fill="none" stroke="#0000ff" cx="60.8112" cy="-98.5" rx="60.623" ry="73.5782"/>
<text text-anchor="start" x="47.6105" y="-130.3" font-family="Courier,monospace" font-size="14.00" fill="#000000"> </text>
<path fill="none" stroke="#0000ff" d="M83.8112,-122.5C83.8112,-122.5 89.8112,-122.5 89.8112,-122.5 92.8112,-122.5 95.8112,-125.5 95.8112,-128.5 95.8112,-128.5 95.8112,-140.5 95.8112,-140.5 95.8112,-143.5 92.8112,-146.5 89.8112,-146.5 89.8112,-146.5 83.8112,-146.5 83.8112,-146.5 80.8112,-146.5 77.8112,-143.5 77.8112,-140.5 77.8112,-140.5 77.8112,-128.5 77.8112,-128.5 77.8112,-125.5 80.8112,-122.5 83.8112,-122.5"/>
<text text-anchor="start" x="82.6105" y="-130.3" font-family="Courier,monospace" font-size="14.00" fill="#000000">L</text>
<polygon fill="none" stroke="#0000ff" points="25.8112,-98.5 25.8112,-122.5 51.8112,-122.5 51.8112,-98.5 25.8112,-98.5"/>
<text text-anchor="start" x="30.4098" y="-106.3" font-family="Courier,monospace" font-size="14.00" fill="#000000">  </text>
<polygon fill="none" stroke="#0000ff" points="51.8112,-98.5 51.8112,-122.5 77.8112,-122.5 77.8112,-98.5 51.8112,-98.5"/>
<text text-anchor="start" x="56.4098" y="-106.3" font-family="Courier,monospace" font-size="14.00" fill="#000000"> 2</text>
<path fill="none" stroke="#0000ff" d="M83.8112,-98.5C83.8112,-98.5 89.8112,-98.5 89.8112,-98.5 92.8112,-98.5 95.8112,-101.5 95.8112,-104.5 95.8112,-104.5 95.8112,-116.5 95.8112,-116.5 95.8112,-119.5 92.8112,-122.5 89.8112,-122.5 89.8112,-122.5 83.8112,-122.5 83.8112,-122.5 80.8112,-122.5 77.8112,-119.5 77.8112,-116.5 77.8112,-116.5 77.8112,-104.5 77.8112,-104.5 77.8112,-101.5 80.8112,-98.5 83.8112,-98.5"/>
<text text-anchor="start" x="82.6105" y="-106.3" font-family="Courier,monospace" font-size="14.00" fill="#000000">R</text>
<polygon fill="none" stroke="#0000ff" points="25.8112,-74.5 25.8112,-98.5 51.8112,-98.5 51.8112,-74.5 25.8112,-74.5"/>
<text text-anchor="start" x="30.4098" y="-82.3" font-family="Courier,monospace" font-size="14.00" fill="#000000"> 2</text>
<polygon fill="none" stroke="#0000ff" points="51.8112,-74.5 51.8112,-98.5 77.8112,-98.5 77.8112,-74.5 51.8112,-74.5"/>
<text text-anchor="start" x="56.4098" y="-82.3" font-family="Courier,monospace" font-size="14.00" fill="#000000">  </text>
<path fill="none" stroke="#0000ff" d="M83.8112,-74.5C83.8112,-74.5 89.8112,-74.5 89.8112,-74.5 92.8112,-74.5 95.8112,-77.5 95.8112,-80.5 95.8112,-80.5 95.8112,-92.5 95.8112,-92.5 95.8112,-95.5 92.8112,-98.5 89.8112,-98.5 89.8112,-98.5 83.8112,-98.5 83.8112,-98.5 80.8112,-98.5 77.8112,-95.5 77.8112,-92.5 77.8112,-92.5 77.8112,-80.5 77.8112,-80.5 77.8112,-77.5 80.8112,-74.5 83.8112,-74.5"/>
<text text-anchor="start" x="82.6105" y="-82.3" font-family="Courier,monospace" font-size="14.00" fill="#000000">U</text>
<text text-anchor="start" x="47.6105" y="-58.3" font-family="Courier,monospace" font-size="14.00" fill="#000000"> </text>
<path fill="none" stroke="#0000ff" d="M83.8112,-50.5C83.8112,-50.5 89.8112,-50.5 89.8112,-50.5 92.8112,-50.5 95.8112,-53.5 95.8112,-56.5 95.8112,-56.5 95.8112,-68.5 95.8112,-68.5 95.8112,-71.5 92.8112,-74.5 89.8112,-74.5 89.8112,-74.5 83.8112,-74.5 83.8112,-74.5 80.8112,-74.5 77.8112,-71.5 77.8112,-68.5 77.8112,-68.5 77.8112,-56.5 77.8112,-56.5 77.8112,-53.5 80.8112,-50.5 83.8112,-50.5"/>
<text text-anchor="start" x="82.6105" y="-58.3" font-family="Courier,monospace" font-size="14.00" fill="#000000">D</text>
</g>
<!-- s0_1_1_1 -->
<g id="node2" class="node">
<title>s0_1_1_1</title>
<polygon fill="none" stroke="#000000" points="229.6224,-153.5 229.6224,-197.5 295.2278,-197.5 295.2278,-153.5 229.6224,-153.5"/>
<text text-anchor="middle" x="246.0237" y="-182.3" font-family="Courier,monospace" font-size="14.00" fill="#000000">  </text>
<polyline fill="none" stroke="#000000" points="262.4251,-175.5 262.4251,-197.5 "/>
<text text-anchor="middle" x="278.8265" y="-182.3" font-family="Courier,monospace" font-size="14.00" fill="#000000"> 2</text>
<polyline fill="none" stroke="#000000" points="229.6224,-175.5 295.2278,-175.5 "/>
<text text-anchor="middle" x="246.0237" y="-160.3" font-family="Courier,monospace" font-size="14.00" fill="#000000"> 2</text>
<polyline fill="none" stroke="#000000" points="262.4251,-153.5 262.4251,-175.5 "/>
<text text-anchor="middle" x="278.8265" y="-160.3" font-family="Courier,monospace" font-size="14.00" fill="#000000"> 2</text>
</g>
<!-- s0_1_1_0&#45;&gt;s0_1_1_1 -->
<g id="edge1" class="edge">
<title>s0_1_1_0:left&#45;&gt;s0_1_1_1</title>
<path fill="none" stroke="#000000" d="M95.8112,-134.5C138.8702,-134.5 186.4227,-147.5714 219.6665,-158.953"/>
<polygon fill="#000000" stroke="#000000" points="218.9086,-162.3966 229.5034,-162.4146 221.2322,-155.7935 218.9086,-162.3966"/>
<text text-anchor="middle" x="212.0034" y="-165.2146" font-family="Times,serif" font-size="14.00" fill="#000000">0.90 &#160;&#160;</text>
</g>
<!-- s0_1_1_0&#45;&gt;s0_1_1_1 -->
<g id="edge3" class="edge">
<title>s0_1_1_0:right&#45;&gt;s0_1_1_1</title>
<path fill="none" stroke="#000000" d="M95.8112,-110.5C140.6532,-110.5 187.9272,-131.1871 220.6176,-149.2201"/>
<polygon fill="#000000" stroke="#000000" points="219.0111,-152.3326 229.4371,-154.2166 222.4616,-146.2421 219.0111,-152.3326"/>
<text text-anchor="middle" x="211.9371" y="-143.0166" font-family="Times,serif" font-size="14.00" fill="#000000">0.90 &#160;&#160;</text>
</g>
<!-- s0_1_1_0&#45;&gt;s0_1_1_1 -->
<g id="edge5" class="edge">
<title>s0_1_1_0:up&#45;&gt;s0_1_1_1</title>
<path fill="none" stroke="#000000" d="M95.8112,-86.5C147.8912,-86.5 199.4739,-120.7498 231.1343,-146.7559"/>
<polygon fill="#000000" stroke="#000000" points="229.23,-149.7285 239.1309,-153.5 233.743,-144.3774 229.23,-149.7285"/>
<text text-anchor="middle" x="256.6309" y="-142.3" font-family="Times,serif" font-size="14.00" fill="#000000">0.90 &#160;&#160;</text>
</g>
<!-- s0_1_1_0&#45;&gt;s0_1_1_1 -->
<g id="edge7" class="edge">
<title>s0_1_1_0:down&#45;&gt;s0_1_1_1</title>
<path fill="none" stroke="#000000" d="M95.8112,-62.5C155.1865,-62.5 209.1295,-112.2608 238.7034,-145.7402"/>
<polygon fill="#000000" stroke="#000000" points="236.1594,-148.1497 245.3365,-153.4442 241.4641,-143.5824 236.1594,-148.1497"/>
<text text-anchor="middle" x="227.8365" y="-142.2442" font-family="Times,serif" font-size="14.00" fill="#000000">0.90 &#160;&#160;</text>
</g>
<!-- s0_1_2_1 -->
<g id="node3" class="node">
<title>s0_1_2_1</title>
<polygon fill="none" stroke="#000000" points="229.6224,-.5 229.6224,-44.5 295.2278,-44.5 295.2278,-.5 229.6224,-.5"/>
<text text-anchor="middle" x="246.0237" y="-29.3" font-family="Courier,monospace" font-size="14.00" fill="#000000">  </text>
<polyline fill="none" stroke="#000000" points="262.4251,-22.5 262.4251,-44.5 "/>
<text text-anchor="middle" x="278.8265" y="-29.3" font-family="Courier,monospace" font-size="14.00" fill="#000000"> 2</text>
<polyline fill="none" stroke="#000000" points="229.6224,-22.5 295.2278,-22.5 "/>
<text text-anchor="middle" x="246.0237" y="-7.3" font-family="Courier,monospace" font-size="14.00" fill="#000000"> 4</text>
<polyline fill="none" stroke="#000000" points="262.4251,-.5 262.4251,-22.5 "/>
<text text-anchor="middle" x="278.8265" y="-7.3" font-family="Courier,monospace" font-size="14.00" fill="#000000"> 2</text>
</g>
<!-- s0_1_1_0&#45;&gt;s0_1_2_1 -->
<g id="edge2" class="edge">
<title>s0_1_1_0:left&#45;&gt;s0_1_2_1</title>
<path fill="none" stroke="#000000" d="M95.8112,-134.5C154.8601,-134.5 208.7242,-85.448 238.4046,-52.2681"/>
<polygon fill="#000000" stroke="#000000" points="241.1327,-54.4649 245.0669,-44.6276 235.8568,-49.8645 241.1327,-54.4649"/>
<text text-anchor="middle" x="262.5669" y="-47.4276" font-family="Times,serif" font-size="14.00" fill="#000000">0.10 &#160;&#160;</text>
</g>
<!-- s0_1_1_0&#45;&gt;s0_1_2_1 -->
<g id="edge4" class="edge">
<title>s0_1_1_0:right&#45;&gt;s0_1_2_1</title>
<path fill="none" stroke="#000000" d="M95.8112,-110.5C147.4616,-110.5 198.779,-77.0254 230.5266,-51.3678"/>
<polygon fill="#000000" stroke="#000000" points="233.0944,-53.7852 238.5552,-44.7061 228.6244,-48.3982 233.0944,-53.7852"/>
<text text-anchor="middle" x="221.0552" y="-47.5061" font-family="Times,serif" font-size="14.00" fill="#000000">0.10 &#160;&#160;</text>
</g>
<!-- s0_1_1_0&#45;&gt;s0_1_2_1 -->
<g id="edge6" class="edge">
<title>s0_1_1_0:up&#45;&gt;s0_1_2_1</title>
<path fill="none" stroke="#000000" d="M95.8112,-86.5C140.5627,-86.5 187.8483,-66.1312 220.566,-48.3756"/>
<polygon fill="#000000" stroke="#000000" points="222.3623,-51.3814 229.3936,-43.456 218.9546,-45.2668 222.3623,-51.3814"/>
<text text-anchor="middle" x="211.8936" y="-32.256" font-family="Times,serif" font-size="14.00" fill="#000000">0.10 &#160;&#160;</text>
</g>
<!-- s0_1_1_0&#45;&gt;s0_1_2_1 -->
<g id="edge8" class="edge">
<title>s0_1_1_0:down&#45;&gt;s0_1_2_1</title>
<path fill="none" stroke="#000000" d="M95.8112,-62.5C138.8109,-62.5 186.3711,-49.7474 219.6328,-38.6434"/>
<polygon fill="#000000" stroke="#000000" points="221.1527,-41.8223 229.4755,-35.2662 218.8809,-35.2012 221.1527,-41.8223"/>
<text text-anchor="middle" x="211.9755" y="-24.0662" font-family="Times,serif" font-size="14.00" fill="#000000">0.10 &#160;&#160;</text>
</g>
</g>
</svg>
