<?xml version="1.0" encoding="UTF-8" standalone="no"?>
<!DOCTYPE svg PUBLIC "-//W3C//DTD SVG 1.1//EN"
 "http://www.w3.org/Graphics/SVG/1.1/DTD/svg11.dtd">
<!-- Generated by graphviz version 2.40.1 (20161225.0304)
 -->
<!-- Title: %3 Pages: 1 -->
<svg width="303pt" height="620pt"
 viewBox="0.00 0.00 303.23 620.00" xmlns="http://www.w3.org/2000/svg" xmlns:xlink="http://www.w3.org/1999/xlink">
<g id="graph0" class="graph" transform="scale(1 1) rotate(0) translate(4 616)">
<title>%3</title>
<!-- s2_1_0_1 -->
<g id="node1" class="node">
<title>s2_1_0_1</title>
<ellipse fill="none" stroke="#000000" cx="60.8112" cy="-380.5" rx="60.623" ry="73.5782"/>
<text text-anchor="start" x="47.6105" y="-412.3" font-family="Courier,monospace" font-size="14.00" fill="#000000"> </text>
<path fill="none" stroke="#000000" d="M83.8112,-404.5C83.8112,-404.5 89.8112,-404.5 89.8112,-404.5 92.8112,-404.5 95.8112,-407.5 95.8112,-410.5 95.8112,-410.5 95.8112,-422.5 95.8112,-422.5 95.8112,-425.5 92.8112,-428.5 89.8112,-428.5 89.8112,-428.5 83.8112,-428.5 83.8112,-428.5 80.8112,-428.5 77.8112,-425.5 77.8112,-422.5 77.8112,-422.5 77.8112,-410.5 77.8112,-410.5 77.8112,-407.5 80.8112,-404.5 83.8112,-404.5"/>
<text text-anchor="start" x="82.6105" y="-412.3" font-family="Courier,monospace" font-size="14.00" fill="#000000">L</text>
<polygon fill="none" stroke="#000000" points="25.8112,-380.5 25.8112,-404.5 51.8112,-404.5 51.8112,-380.5 25.8112,-380.5"/>
<text text-anchor="start" x="30.4098" y="-388.3" font-family="Courier,monospace" font-size="14.00" fill="#000000"> 4</text>
<polygon fill="none" stroke="#000000" points="51.8112,-380.5 51.8112,-404.5 77.8112,-404.5 77.8112,-380.5 51.8112,-380.5"/>
<text text-anchor="start" x="56.4098" y="-388.3" font-family="Courier,monospace" font-size="14.00" fill="#000000"> 2</text>
<path fill="none" stroke="#000000" d="M83.8112,-380.5C83.8112,-380.5 89.8112,-380.5 89.8112,-380.5 92.8112,-380.5 95.8112,-383.5 95.8112,-386.5 95.8112,-386.5 95.8112,-398.5 95.8112,-398.5 95.8112,-401.5 92.8112,-404.5 89.8112,-404.5 89.8112,-404.5 83.8112,-404.5 83.8112,-404.5 80.8112,-404.5 77.8112,-401.5 77.8112,-398.5 77.8112,-398.5 77.8112,-386.5 77.8112,-386.5 77.8112,-383.5 80.8112,-380.5 83.8112,-380.5"/>
<text text-anchor="start" x="82.6105" y="-388.3" font-family="Courier,monospace" font-size="14.00" fill="#c0c0c0">R</text>
<polygon fill="none" stroke="#000000" points="25.8112,-356.5 25.8112,-380.5 51.8112,-380.5 51.8112,-356.5 25.8112,-356.5"/>
<text text-anchor="start" x="30.4098" y="-364.3" font-family="Courier,monospace" font-size="14.00" fill="#000000">  </text>
<polygon fill="none" stroke="#000000" points="51.8112,-356.5 51.8112,-380.5 77.8112,-380.5 77.8112,-356.5 51.8112,-356.5"/>
<text text-anchor="start" x="56.4098" y="-364.3" font-family="Courier,monospace" font-size="14.00" fill="#000000"> 2</text>
<path fill="none" stroke="#000000" d="M83.8112,-356.5C83.8112,-356.5 89.8112,-356.5 89.8112,-356.5 92.8112,-356.5 95.8112,-359.5 95.8112,-362.5 95.8112,-362.5 95.8112,-374.5 95.8112,-374.5 95.8112,-377.5 92.8112,-380.5 89.8112,-380.5 89.8112,-380.5 83.8112,-380.5 83.8112,-380.5 80.8112,-380.5 77.8112,-377.5 77.8112,-374.5 77.8112,-374.5 77.8112,-362.5 77.8112,-362.5 77.8112,-359.5 80.8112,-356.5 83.8112,-356.5"/>
<text text-anchor="start" x="82.6105" y="-364.3" font-family="Courier,monospace" font-size="14.00" fill="#000000">U</text>
<text text-anchor="start" x="47.6105" y="-340.3" font-family="Courier,monospace" font-size="14.00" fill="#000000"> </text>
<path fill="none" stroke="#000000" d="M83.8112,-332.5C83.8112,-332.5 89.8112,-332.5 89.8112,-332.5 92.8112,-332.5 95.8112,-335.5 95.8112,-338.5 95.8112,-338.5 95.8112,-350.5 95.8112,-350.5 95.8112,-353.5 92.8112,-356.5 89.8112,-356.5 89.8112,-356.5 83.8112,-356.5 83.8112,-356.5 80.8112,-356.5 77.8112,-353.5 77.8112,-350.5 77.8112,-350.5 77.8112,-338.5 77.8112,-338.5 77.8112,-335.5 80.8112,-332.5 83.8112,-332.5"/>
<text text-anchor="start" x="82.6105" y="-340.3" font-family="Courier,monospace" font-size="14.00" fill="#000000">D</text>
</g>
<!-- s2_1_1_1 -->
<g id="node2" class="node">
<title>s2_1_1_1</title>
<polygon fill="none" stroke="#000000" points="229.6224,-567.5 229.6224,-611.5 295.2278,-611.5 295.2278,-567.5 229.6224,-567.5"/>
<text text-anchor="middle" x="246.0237" y="-596.3" font-family="Courier,monospace" font-size="14.00" fill="#000000"> 4</text>
<polyline fill="none" stroke="#000000" points="262.4251,-589.5 262.4251,-611.5 "/>
<text text-anchor="middle" x="278.8265" y="-596.3" font-family="Courier,monospace" font-size="14.00" fill="#000000"> 2</text>
<polyline fill="none" stroke="#000000" points="229.6224,-589.5 295.2278,-589.5 "/>
<text text-anchor="middle" x="246.0237" y="-574.3" font-family="Courier,monospace" font-size="14.00" fill="#000000"> 2</text>
<polyline fill="none" stroke="#000000" points="262.4251,-567.5 262.4251,-589.5 "/>
<text text-anchor="middle" x="278.8265" y="-574.3" font-family="Courier,monospace" font-size="14.00" fill="#000000"> 2</text>
</g>
<!-- s2_1_0_1&#45;&gt;s2_1_1_1 -->
<g id="edge1" class="edge">
<title>s2_1_0_1:left&#45;&gt;s2_1_1_1</title>
<g id="a_edge1"><a xlink:title="0.900">
<path fill="none" stroke="#000000" stroke-width="2.8" d="M86.8112,-428.5C86.8112,-500.5364 168.0899,-549.0732 220.0573,-572.7442"/>
<polygon fill="#000000" stroke="#000000" stroke-width="2.8" points="218.8324,-576.0295 229.3935,-576.8748 221.6646,-569.628 218.8324,-576.0295"/>
</a>
</g>
<text text-anchor="middle" x="210.1435" y="-565.6748" font-family="Times,serif" font-size="14.00" fill="#000000">0.90 &#160;&#160;&#160;</text>
</g>
<!-- s2_1_1_2 -->
<g id="node3" class="node">
<title>s2_1_1_2</title>
<polygon fill="none" stroke="#ff0000" points="229.6224,-504.5 229.6224,-548.5 295.2278,-548.5 295.2278,-504.5 229.6224,-504.5"/>
<text text-anchor="middle" x="246.0237" y="-533.3" font-family="Courier,monospace" font-size="14.00" fill="#000000"> 4</text>
<polyline fill="none" stroke="#ff0000" points="262.4251,-526.5 262.4251,-548.5 "/>
<text text-anchor="middle" x="278.8265" y="-533.3" font-family="Courier,monospace" font-size="14.00" fill="#000000"> 2</text>
<polyline fill="none" stroke="#ff0000" points="229.6224,-526.5 295.2278,-526.5 "/>
<text text-anchor="middle" x="246.0237" y="-511.3" font-family="Courier,monospace" font-size="14.00" fill="#000000"> 2</text>
<polyline fill="none" stroke="#ff0000" points="262.4251,-504.5 262.4251,-526.5 "/>
<text text-anchor="middle" x="278.8265" y="-511.3" font-family="Courier,monospace" font-size="14.00" fill="#000000"> 4</text>
</g>
<!-- s2_1_0_1&#45;&gt;s2_1_1_2 -->
<g id="edge2" class="edge">
<title>s2_1_0_1:left&#45;&gt;s2_1_1_2</title>
<g id="a_edge2"><a xlink:title="0.100">
<path fill="none" stroke="#000000" stroke-width="1.2" d="M95.8112,-416.5C125.2586,-416.5 189.0149,-464.9587 228.5641,-497.5494"/>
<polygon fill="#000000" stroke="#000000" stroke-width="1.2" points="226.687,-500.5403 236.615,-504.2399 231.161,-495.1566 226.687,-500.5403"/>
</a>
</g>
<text text-anchor="middle" x="217.365" y="-493.0399" font-family="Times,serif" font-size="14.00" fill="#000000">0.10 &#160;&#160;&#160;</text>
</g>
<!-- s2_2_1_0 -->
<g id="node4" class="node">
<title>s2_2_1_0</title>
<polygon fill="none" stroke="#000000" points="229.6224,-441.5 229.6224,-485.5 295.2278,-485.5 295.2278,-441.5 229.6224,-441.5"/>
<text text-anchor="middle" x="246.0237" y="-470.3" font-family="Courier,monospace" font-size="14.00" fill="#000000"> 4</text>
<polyline fill="none" stroke="#000000" points="262.4251,-463.5 262.4251,-485.5 "/>
<text text-anchor="middle" x="278.8265" y="-470.3" font-family="Courier,monospace" font-size="14.00" fill="#000000"> 4</text>
<polyline fill="none" stroke="#000000" points="229.6224,-463.5 295.2278,-463.5 "/>
<text text-anchor="middle" x="246.0237" y="-448.3" font-family="Courier,monospace" font-size="14.00" fill="#000000"> 2</text>
<polyline fill="none" stroke="#000000" points="262.4251,-441.5 262.4251,-463.5 "/>
<text text-anchor="middle" x="278.8265" y="-448.3" font-family="Courier,monospace" font-size="14.00" fill="#000000">  </text>
</g>
<!-- s2_1_0_1&#45;&gt;s2_2_1_0 -->
<g id="edge3" class="edge">
<title>s2_1_0_1:up&#45;&gt;s2_2_1_0</title>
<g id="a_edge3"><a xlink:title="0.450">
<path fill="none" stroke="#000000" stroke-width="1.9" d="M95.8112,-368.5C123.1673,-368.5 184.0459,-407.6368 224.1446,-435.6708"/>
<polygon fill="#000000" stroke="#000000" stroke-width="1.9" points="222.1763,-438.5654 232.3663,-441.4663 226.2094,-432.844 222.1763,-438.5654"/>
</a>
</g>
<text text-anchor="middle" x="213.1163" y="-430.2663" font-family="Times,serif" font-size="14.00" fill="#000000">0.45 &#160;&#160;&#160;</text>
</g>
<!-- s2_2_2_0 -->
<g id="node5" class="node">
<title>s2_2_2_0</title>
<polygon fill="none" stroke="#000000" points="229.6224,-378.5 229.6224,-422.5 295.2278,-422.5 295.2278,-378.5 229.6224,-378.5"/>
<text text-anchor="middle" x="246.0237" y="-407.3" font-family="Courier,monospace" font-size="14.00" fill="#000000"> 4</text>
<polyline fill="none" stroke="#000000" points="262.4251,-400.5 262.4251,-422.5 "/>
<text text-anchor="middle" x="278.8265" y="-407.3" font-family="Courier,monospace" font-size="14.00" fill="#000000"> 4</text>
<polyline fill="none" stroke="#000000" points="229.6224,-400.5 295.2278,-400.5 "/>
<text text-anchor="middle" x="246.0237" y="-385.3" font-family="Courier,monospace" font-size="14.00" fill="#000000"> 4</text>
<polyline fill="none" stroke="#000000" points="262.4251,-378.5 262.4251,-400.5 "/>
<text text-anchor="middle" x="278.8265" y="-385.3" font-family="Courier,monospace" font-size="14.00" fill="#000000">  </text>
</g>
<!-- s2_1_0_1&#45;&gt;s2_2_2_0 -->
<g id="edge4" class="edge">
<title>s2_1_0_1:up&#45;&gt;s2_2_2_0</title>
<g id="a_edge4"><a xlink:title="0.050">
<path fill="none" stroke="#000000" stroke-width="1.1" d="M95.8112,-368.5C138.5205,-368.5 186.3006,-378.7661 219.7054,-387.6688"/>
<polygon fill="#000000" stroke="#000000" stroke-width="1.1" points="219.02,-391.1099 229.5893,-390.375 220.8686,-384.3584 219.02,-391.1099"/>
</a>
</g>
<text text-anchor="middle" x="210.3393" y="-379.175" font-family="Times,serif" font-size="14.00" fill="#000000">0.05 &#160;&#160;&#160;</text>
</g>
<!-- s2_2_0_1 -->
<g id="node6" class="node">
<title>s2_2_0_1</title>
<polygon fill="none" stroke="#000000" points="229.6224,-315.5 229.6224,-359.5 295.2278,-359.5 295.2278,-315.5 229.6224,-315.5"/>
<text text-anchor="middle" x="246.0237" y="-344.3" font-family="Courier,monospace" font-size="14.00" fill="#000000"> 4</text>
<polyline fill="none" stroke="#000000" points="262.4251,-337.5 262.4251,-359.5 "/>
<text text-anchor="middle" x="278.8265" y="-344.3" font-family="Courier,monospace" font-size="14.00" fill="#000000"> 4</text>
<polyline fill="none" stroke="#000000" points="229.6224,-337.5 295.2278,-337.5 "/>
<text text-anchor="middle" x="246.0237" y="-322.3" font-family="Courier,monospace" font-size="14.00" fill="#000000">  </text>
<polyline fill="none" stroke="#000000" points="262.4251,-315.5 262.4251,-337.5 "/>
<text text-anchor="middle" x="278.8265" y="-322.3" font-family="Courier,monospace" font-size="14.00" fill="#000000"> 2</text>
</g>
<!-- s2_1_0_1&#45;&gt;s2_2_0_1 -->
<g id="edge5" class="edge">
<title>s2_1_0_1:up&#45;&gt;s2_2_0_1</title>
<g id="a_edge5"><a xlink:title="0.450">
<path fill="none" stroke="#000000" stroke-width="1.9" d="M95.8112,-368.5C138.4737,-368.5 186.26,-358.5547 219.679,-349.9303"/>
<polygon fill="#000000" stroke="#000000" stroke-width="1.9" points="220.7985,-353.2545 229.5676,-347.3086 219.0045,-346.4882 220.7985,-353.2545"/>
</a>
</g>
<text text-anchor="middle" x="210.3176" y="-336.1086" font-family="Times,serif" font-size="14.00" fill="#000000">0.45 &#160;&#160;&#160;</text>
</g>
<!-- s2_2_0_2 -->
<g id="node7" class="node">
<title>s2_2_0_2</title>
<polygon fill="none" stroke="#000000" points="229.6224,-252.5 229.6224,-296.5 295.2278,-296.5 295.2278,-252.5 229.6224,-252.5"/>
<text text-anchor="middle" x="246.0237" y="-281.3" font-family="Courier,monospace" font-size="14.00" fill="#000000"> 4</text>
<polyline fill="none" stroke="#000000" points="262.4251,-274.5 262.4251,-296.5 "/>
<text text-anchor="middle" x="278.8265" y="-281.3" font-family="Courier,monospace" font-size="14.00" fill="#000000"> 4</text>
<polyline fill="none" stroke="#000000" points="229.6224,-274.5 295.2278,-274.5 "/>
<text text-anchor="middle" x="246.0237" y="-259.3" font-family="Courier,monospace" font-size="14.00" fill="#000000">  </text>
<polyline fill="none" stroke="#000000" points="262.4251,-252.5 262.4251,-274.5 "/>
<text text-anchor="middle" x="278.8265" y="-259.3" font-family="Courier,monospace" font-size="14.00" fill="#000000"> 4</text>
</g>
<!-- s2_1_0_1&#45;&gt;s2_2_0_2 -->
<g id="edge6" class="edge">
<title>s2_1_0_1:up&#45;&gt;s2_2_0_2</title>
<g id="a_edge6"><a xlink:title="0.050">
<path fill="none" stroke="#000000" stroke-width="1.1" d="M95.8112,-368.5C149.5446,-368.5 201.9074,-330.9555 233.1704,-303.3219"/>
<polygon fill="#000000" stroke="#000000" stroke-width="1.1" points="235.5944,-305.8486 240.652,-296.5388 230.8926,-300.6626 235.5944,-305.8486"/>
</a>
</g>
<text text-anchor="middle" x="221.402" y="-299.3388" font-family="Times,serif" font-size="14.00" fill="#000000">0.05 &#160;&#160;&#160;</text>
</g>
<!-- s1_0_2_2 -->
<g id="node8" class="node">
<title>s1_0_2_2</title>
<polygon fill="none" stroke="#000000" points="229.6224,-189.5 229.6224,-233.5 295.2278,-233.5 295.2278,-189.5 229.6224,-189.5"/>
<text text-anchor="middle" x="246.0237" y="-218.3" font-family="Courier,monospace" font-size="14.00" fill="#000000"> 2</text>
<polyline fill="none" stroke="#000000" points="262.4251,-211.5 262.4251,-233.5 "/>
<text text-anchor="middle" x="278.8265" y="-218.3" font-family="Courier,monospace" font-size="14.00" fill="#000000">  </text>
<polyline fill="none" stroke="#000000" points="229.6224,-211.5 295.2278,-211.5 "/>
<text text-anchor="middle" x="246.0237" y="-196.3" font-family="Courier,monospace" font-size="14.00" fill="#000000"> 4</text>
<polyline fill="none" stroke="#000000" points="262.4251,-189.5 262.4251,-211.5 "/>
<text text-anchor="middle" x="278.8265" y="-196.3" font-family="Courier,monospace" font-size="14.00" fill="#000000"> 4</text>
</g>
<!-- s2_1_0_1&#45;&gt;s1_0_2_2 -->
<g id="edge7" class="edge">
<title>s2_1_0_1:down&#45;&gt;s1_0_2_2</title>
<g id="a_edge7"><a xlink:title="0.450">
<path fill="none" stroke="#000000" stroke-width="1.9" d="M95.8112,-344.5C112.3524,-344.5 187.0383,-279.6448 230.5972,-240.5122"/>
<polygon fill="#000000" stroke="#000000" stroke-width="1.9" points="233.0024,-243.0561 238.0872,-233.7612 228.3159,-237.8565 233.0024,-243.0561"/>
</a>
</g>
<text text-anchor="middle" x="218.8372" y="-236.5612" font-family="Times,serif" font-size="14.00" fill="#000000">0.45 &#160;&#160;&#160;</text>
</g>
<!-- s2_0_2_2 -->
<g id="node9" class="node">
<title>s2_0_2_2</title>
<polygon fill="none" stroke="#000000" points="229.6224,-126.5 229.6224,-170.5 295.2278,-170.5 295.2278,-126.5 229.6224,-126.5"/>
<text text-anchor="middle" x="246.0237" y="-155.3" font-family="Courier,monospace" font-size="14.00" fill="#000000"> 4</text>
<polyline fill="none" stroke="#000000" points="262.4251,-148.5 262.4251,-170.5 "/>
<text text-anchor="middle" x="278.8265" y="-155.3" font-family="Courier,monospace" font-size="14.00" fill="#000000">  </text>
<polyline fill="none" stroke="#000000" points="229.6224,-148.5 295.2278,-148.5 "/>
<text text-anchor="middle" x="246.0237" y="-133.3" font-family="Courier,monospace" font-size="14.00" fill="#000000"> 4</text>
<polyline fill="none" stroke="#000000" points="262.4251,-126.5 262.4251,-148.5 "/>
<text text-anchor="middle" x="278.8265" y="-133.3" font-family="Courier,monospace" font-size="14.00" fill="#000000"> 4</text>
</g>
<!-- s2_1_0_1&#45;&gt;s2_0_2_2 -->
<g id="edge8" class="edge">
<title>s2_1_0_1:down&#45;&gt;s2_0_2_2</title>
<g id="a_edge8"><a xlink:title="0.050">
<path fill="none" stroke="#000000" stroke-width="1.1" d="M86.8112,-332.5C86.8112,-255.4334 168.4275,-197.9295 220.3804,-169.1321"/>
<polygon fill="#000000" stroke="#000000" stroke-width="1.1" points="222.2626,-172.0933 229.3935,-164.2575 218.9325,-165.9362 222.2626,-172.0933"/>
</a>
</g>
<text text-anchor="middle" x="210.1435" y="-153.0575" font-family="Times,serif" font-size="14.00" fill="#000000">0.05 &#160;&#160;&#160;</text>
</g>
<!-- s0_1_2_2 -->
<g id="node10" class="node">
<title>s0_1_2_2</title>
<polygon fill="none" stroke="#000000" points="229.6224,-63.5 229.6224,-107.5 295.2278,-107.5 295.2278,-63.5 229.6224,-63.5"/>
<text text-anchor="middle" x="246.0237" y="-92.3" font-family="Courier,monospace" font-size="14.00" fill="#000000">  </text>
<polyline fill="none" stroke="#000000" points="262.4251,-85.5 262.4251,-107.5 "/>
<text text-anchor="middle" x="278.8265" y="-92.3" font-family="Courier,monospace" font-size="14.00" fill="#000000"> 2</text>
<polyline fill="none" stroke="#000000" points="229.6224,-85.5 295.2278,-85.5 "/>
<text text-anchor="middle" x="246.0237" y="-70.3" font-family="Courier,monospace" font-size="14.00" fill="#000000"> 4</text>
<polyline fill="none" stroke="#000000" points="262.4251,-63.5 262.4251,-85.5 "/>
<text text-anchor="middle" x="278.8265" y="-70.3" font-family="Courier,monospace" font-size="14.00" fill="#000000"> 4</text>
</g>
<!-- s2_1_0_1&#45;&gt;s0_1_2_2 -->
<g id="edge9" class="edge">
<title>s2_1_0_1:down&#45;&gt;s0_1_2_2</title>
<g id="a_edge9"><a xlink:title="0.450">
<path fill="none" stroke="#000000" stroke-width="1.9" d="M86.8112,-332.5C86.8112,-238.6056 172.1462,-155.5923 223.8451,-113.9155"/>
<polygon fill="#000000" stroke="#000000" stroke-width="1.9" points="226.17,-116.5391 231.8355,-107.5863 221.8235,-111.0519 226.17,-116.5391"/>
</a>
</g>
<text text-anchor="middle" x="212.5855" y="-110.3863" font-family="Times,serif" font-size="14.00" fill="#000000">0.45 &#160;&#160;&#160;</text>
</g>
<!-- s0_2_2_2 -->
<g id="node11" class="node">
<title>s0_2_2_2</title>
<polygon fill="none" stroke="#000000" points="229.6224,-.5 229.6224,-44.5 295.2278,-44.5 295.2278,-.5 229.6224,-.5"/>
<text text-anchor="middle" x="246.0237" y="-29.3" font-family="Courier,monospace" font-size="14.00" fill="#000000">  </text>
<polyline fill="none" stroke="#000000" points="262.4251,-22.5 262.4251,-44.5 "/>
<text text-anchor="middle" x="278.8265" y="-29.3" font-family="Courier,monospace" font-size="14.00" fill="#000000"> 4</text>
<polyline fill="none" stroke="#000000" points="229.6224,-22.5 295.2278,-22.5 "/>
<text text-anchor="middle" x="246.0237" y="-7.3" font-family="Courier,monospace" font-size="14.00" fill="#000000"> 4</text>
<polyline fill="none" stroke="#000000" points="262.4251,-.5 262.4251,-22.5 "/>
<text text-anchor="middle" x="278.8265" y="-7.3" font-family="Courier,monospace" font-size="14.00" fill="#000000"> 4</text>
</g>
<!-- s2_1_0_1&#45;&gt;s0_2_2_2 -->
<g id="edge10" class="edge">
<title>s2_1_0_1:down&#45;&gt;s0_2_2_2</title>
<g id="a_edge10"><a xlink:title="0.050">
<path fill="none" stroke="#000000" stroke-width="1.1" d="M86.8112,-332.5C86.8112,-216.0622 181.7651,-103.2466 232.0297,-51.6839"/>
<polygon fill="#000000" stroke="#000000" stroke-width="1.1" points="234.5632,-54.0996 239.1049,-44.5276 229.5853,-49.1781 234.5632,-54.0996"/>
</a>
</g>
<text text-anchor="middle" x="219.8549" y="-47.3276" font-family="Times,serif" font-size="14.00" fill="#000000">0.05 &#160;&#160;&#160;</text>
</g>
</g>
</svg>
