<?xml version="1.0" encoding="UTF-8" standalone="no"?>
<!DOCTYPE svg PUBLIC "-//W3C//DTD SVG 1.1//EN"
 "http://www.w3.org/Graphics/SVG/1.1/DTD/svg11.dtd">
<!-- Generated by graphviz version 2.40.1 (20161225.0304)
 -->
<!-- Title: %3 Pages: 1 -->
<svg width="231pt" height="242pt"
 viewBox="0.00 0.00 231.23 242.00" xmlns="http://www.w3.org/2000/svg" xmlns:xlink="http://www.w3.org/1999/xlink">
<g id="graph0" class="graph" transform="scale(1 1) rotate(0) translate(4 238)">
<title>%3</title>
<!-- s0_1_1_0 -->
<g id="node1" class="node">
<title>s0_1_1_0</title>
<ellipse fill="none" stroke="#000000" cx="60.8112" cy="-116.5" rx="60.623" ry="73.5782"/>
<text text-anchor="start" x="47.6105" y="-148.3" font-family="Courier,monospace" font-size="14.00" fill="#000000"> </text>
<path fill="none" stroke="#000000" d="M83.8112,-140.5C83.8112,-140.5 89.8112,-140.5 89.8112,-140.5 92.8112,-140.5 95.8112,-143.5 95.8112,-146.5 95.8112,-146.5 95.8112,-158.5 95.8112,-158.5 95.8112,-161.5 92.8112,-164.5 89.8112,-164.5 89.8112,-164.5 83.8112,-164.5 83.8112,-164.5 80.8112,-164.5 77.8112,-161.5 77.8112,-158.5 77.8112,-158.5 77.8112,-146.5 77.8112,-146.5 77.8112,-143.5 80.8112,-140.5 83.8112,-140.5"/>
<text text-anchor="start" x="82.6105" y="-148.3" font-family="Courier,monospace" font-size="14.00" fill="#000000">L</text>
<polygon fill="none" stroke="#000000" points="25.8112,-116.5 25.8112,-140.5 51.8112,-140.5 51.8112,-116.5 25.8112,-116.5"/>
<text text-anchor="start" x="30.4098" y="-124.3" font-family="Courier,monospace" font-size="14.00" fill="#000000">  </text>
<polygon fill="none" stroke="#000000" points="51.8112,-116.5 51.8112,-140.5 77.8112,-140.5 77.8112,-116.5 51.8112,-116.5"/>
<text text-anchor="start" x="56.4098" y="-124.3" font-family="Courier,monospace" font-size="14.00" fill="#000000"> 2</text>
<path fill="none" stroke="#000000" d="M83.8112,-116.5C83.8112,-116.5 89.8112,-116.5 89.8112,-116.5 92.8112,-116.5 95.8112,-119.5 95.8112,-122.5 95.8112,-122.5 95.8112,-134.5 95.8112,-134.5 95.8112,-137.5 92.8112,-140.5 89.8112,-140.5 89.8112,-140.5 83.8112,-140.5 83.8112,-140.5 80.8112,-140.5 77.8112,-137.5 77.8112,-134.5 77.8112,-134.5 77.8112,-122.5 77.8112,-122.5 77.8112,-119.5 80.8112,-116.5 83.8112,-116.5"/>
<text text-anchor="start" x="82.6105" y="-124.3" font-family="Courier,monospace" font-size="14.00" fill="#000000">R</text>
<polygon fill="none" stroke="#000000" points="25.8112,-92.5 25.8112,-116.5 51.8112,-116.5 51.8112,-92.5 25.8112,-92.5"/>
<text text-anchor="start" x="30.4098" y="-100.3" font-family="Courier,monospace" font-size="14.00" fill="#000000"> 2</text>
<polygon fill="none" stroke="#000000" points="51.8112,-92.5 51.8112,-116.5 77.8112,-116.5 77.8112,-92.5 51.8112,-92.5"/>
<text text-anchor="start" x="56.4098" y="-100.3" font-family="Courier,monospace" font-size="14.00" fill="#000000">  </text>
<path fill="none" stroke="#000000" d="M83.8112,-92.5C83.8112,-92.5 89.8112,-92.5 89.8112,-92.5 92.8112,-92.5 95.8112,-95.5 95.8112,-98.5 95.8112,-98.5 95.8112,-110.5 95.8112,-110.5 95.8112,-113.5 92.8112,-116.5 89.8112,-116.5 89.8112,-116.5 83.8112,-116.5 83.8112,-116.5 80.8112,-116.5 77.8112,-113.5 77.8112,-110.5 77.8112,-110.5 77.8112,-98.5 77.8112,-98.5 77.8112,-95.5 80.8112,-92.5 83.8112,-92.5"/>
<text text-anchor="start" x="82.6105" y="-100.3" font-family="Courier,monospace" font-size="14.00" fill="#000000">U</text>
<text text-anchor="start" x="47.6105" y="-76.3" font-family="Courier,monospace" font-size="14.00" fill="#000000"> </text>
<path fill="none" stroke="#000000" d="M83.8112,-68.5C83.8112,-68.5 89.8112,-68.5 89.8112,-68.5 92.8112,-68.5 95.8112,-71.5 95.8112,-74.5 95.8112,-74.5 95.8112,-86.5 95.8112,-86.5 95.8112,-89.5 92.8112,-92.5 89.8112,-92.5 89.8112,-92.5 83.8112,-92.5 83.8112,-92.5 80.8112,-92.5 77.8112,-89.5 77.8112,-86.5 77.8112,-86.5 77.8112,-74.5 77.8112,-74.5 77.8112,-71.5 80.8112,-68.5 83.8112,-68.5"/>
<text text-anchor="start" x="82.6105" y="-76.3" font-family="Courier,monospace" font-size="14.00" fill="#000000">D</text>
</g>
<!-- s1_0_1_0 -->
<g id="node2" class="node">
<title>s1_0_1_0</title>
<polygon fill="none" stroke="#000000" stroke-dasharray="5,2" points="157.6224,-189.5 157.6224,-233.5 223.2278,-233.5 223.2278,-189.5 157.6224,-189.5"/>
<text text-anchor="middle" x="174.0237" y="-218.3" font-family="Courier,monospace" font-size="14.00" fill="#000000"> 2</text>
<polyline fill="none" stroke="#000000" stroke-dasharray="5,2" points="190.4251,-211.5 190.4251,-233.5 "/>
<text text-anchor="middle" x="206.8265" y="-218.3" font-family="Courier,monospace" font-size="14.00" fill="#000000">  </text>
<polyline fill="none" stroke="#000000" stroke-dasharray="5,2" points="157.6224,-211.5 223.2278,-211.5 "/>
<text text-anchor="middle" x="174.0237" y="-196.3" font-family="Courier,monospace" font-size="14.00" fill="#000000"> 2</text>
<polyline fill="none" stroke="#000000" stroke-dasharray="5,2" points="190.4251,-189.5 190.4251,-211.5 "/>
<text text-anchor="middle" x="206.8265" y="-196.3" font-family="Courier,monospace" font-size="14.00" fill="#000000">  </text>
</g>
<!-- s0_1_1_0&#45;&gt;s1_0_1_0 -->
<g id="edge1" class="edge">
<title>s0_1_1_0:left&#45;&gt;s1_0_1_0</title>
<path fill="none" stroke="#000000" stroke-dasharray="5,2" d="M95.8112,-152.5C108.5429,-152.5 133.1704,-168.0769 154.1077,-183.2232"/>
<polygon fill="#000000" stroke="#000000" points="152.0868,-186.0816 162.214,-189.1946 156.2385,-180.4457 152.0868,-186.0816"/>
</g>
<!-- s0_1_0_1 -->
<g id="node3" class="node">
<title>s0_1_0_1</title>
<polygon fill="none" stroke="#000000" stroke-dasharray="5,2" points="157.6224,-126.5 157.6224,-170.5 223.2278,-170.5 223.2278,-126.5 157.6224,-126.5"/>
<text text-anchor="middle" x="174.0237" y="-155.3" font-family="Courier,monospace" font-size="14.00" fill="#000000">  </text>
<polyline fill="none" stroke="#000000" stroke-dasharray="5,2" points="190.4251,-148.5 190.4251,-170.5 "/>
<text text-anchor="middle" x="206.8265" y="-155.3" font-family="Courier,monospace" font-size="14.00" fill="#000000"> 2</text>
<polyline fill="none" stroke="#000000" stroke-dasharray="5,2" points="157.6224,-148.5 223.2278,-148.5 "/>
<text text-anchor="middle" x="174.0237" y="-133.3" font-family="Courier,monospace" font-size="14.00" fill="#000000">  </text>
<polyline fill="none" stroke="#000000" stroke-dasharray="5,2" points="190.4251,-126.5 190.4251,-148.5 "/>
<text text-anchor="middle" x="206.8265" y="-133.3" font-family="Courier,monospace" font-size="14.00" fill="#000000"> 2</text>
</g>
<!-- s0_1_1_0&#45;&gt;s0_1_0_1 -->
<g id="edge2" class="edge">
<title>s0_1_1_0:right&#45;&gt;s0_1_0_1</title>
<path fill="none" stroke="#000000" stroke-dasharray="5,2" d="M95.8112,-128.5C112.8887,-128.5 131.3326,-131.6576 147.3609,-135.4634"/>
<polygon fill="#000000" stroke="#000000" points="146.9531,-138.9705 157.5062,-138.0314 148.6708,-132.1846 146.9531,-138.9705"/>
</g>
<!-- s1_1_0_0 -->
<g id="node4" class="node">
<title>s1_1_0_0</title>
<polygon fill="none" stroke="#000000" stroke-dasharray="5,2" points="157.6224,-63.5 157.6224,-107.5 223.2278,-107.5 223.2278,-63.5 157.6224,-63.5"/>
<text text-anchor="middle" x="174.0237" y="-92.3" font-family="Courier,monospace" font-size="14.00" fill="#000000"> 2</text>
<polyline fill="none" stroke="#000000" stroke-dasharray="5,2" points="190.4251,-85.5 190.4251,-107.5 "/>
<text text-anchor="middle" x="206.8265" y="-92.3" font-family="Courier,monospace" font-size="14.00" fill="#000000"> 2</text>
<polyline fill="none" stroke="#000000" stroke-dasharray="5,2" points="157.6224,-85.5 223.2278,-85.5 "/>
<text text-anchor="middle" x="174.0237" y="-70.3" font-family="Courier,monospace" font-size="14.00" fill="#000000">  </text>
<polyline fill="none" stroke="#000000" stroke-dasharray="5,2" points="190.4251,-63.5 190.4251,-85.5 "/>
<text text-anchor="middle" x="206.8265" y="-70.3" font-family="Courier,monospace" font-size="14.00" fill="#000000">  </text>
</g>
<!-- s0_1_1_0&#45;&gt;s1_1_0_0 -->
<g id="edge3" class="edge">
<title>s0_1_1_0:up&#45;&gt;s1_1_0_0</title>
<path fill="none" stroke="#000000" stroke-dasharray="5,2" d="M95.8112,-104.5C112.8531,-104.5 131.2897,-101.5003 147.322,-97.8847"/>
<polygon fill="#000000" stroke="#000000" points="148.5665,-101.1854 157.4716,-95.4452 146.9305,-94.3792 148.5665,-101.1854"/>
</g>
<!-- s0_0_1_1 -->
<g id="node5" class="node">
<title>s0_0_1_1</title>
<polygon fill="none" stroke="#000000" stroke-dasharray="5,2" points="157.6224,-.5 157.6224,-44.5 223.2278,-44.5 223.2278,-.5 157.6224,-.5"/>
<text text-anchor="middle" x="174.0237" y="-29.3" font-family="Courier,monospace" font-size="14.00" fill="#000000">  </text>
<polyline fill="none" stroke="#000000" stroke-dasharray="5,2" points="190.4251,-22.5 190.4251,-44.5 "/>
<text text-anchor="middle" x="206.8265" y="-29.3" font-family="Courier,monospace" font-size="14.00" fill="#000000">  </text>
<polyline fill="none" stroke="#000000" stroke-dasharray="5,2" points="157.6224,-22.5 223.2278,-22.5 "/>
<text text-anchor="middle" x="174.0237" y="-7.3" font-family="Courier,monospace" font-size="14.00" fill="#000000"> 2</text>
<polyline fill="none" stroke="#000000" stroke-dasharray="5,2" points="190.4251,-.5 190.4251,-22.5 "/>
<text text-anchor="middle" x="206.8265" y="-7.3" font-family="Courier,monospace" font-size="14.00" fill="#000000"> 2</text>
</g>
<!-- s0_1_1_0&#45;&gt;s0_0_1_1 -->
<g id="edge4" class="edge">
<title>s0_1_1_0:down&#45;&gt;s0_0_1_1</title>
<path fill="none" stroke="#000000" stroke-dasharray="5,2" d="M95.8112,-80.5C108.3421,-80.5 132.5664,-65.5254 153.3656,-50.7938"/>
<polygon fill="#000000" stroke="#000000" points="155.6676,-53.4488 161.728,-44.7584 151.571,-47.7727 155.6676,-53.4488"/>
</g>
</g>
</svg>
