<?xml version="1.0" encoding="UTF-8" standalone="no"?>
<!DOCTYPE svg PUBLIC "-//W3C//DTD SVG 1.1//EN"
 "http://www.w3.org/Graphics/SVG/1.1/DTD/svg11.dtd">
<!-- Generated by graphviz version 2.40.1 (20161225.0304)
 -->
<!-- Title: %3 Pages: 1 -->
<svg width="303pt" height="620pt"
 viewBox="0.00 0.00 303.23 620.00" xmlns="http://www.w3.org/2000/svg" xmlns:xlink="http://www.w3.org/1999/xlink">
<g id="graph0" class="graph" transform="scale(1 1) rotate(0) translate(4 616)">
<title>%3</title>
<!-- s2_2_1_0 -->
<g id="node1" class="node">
<title>s2_2_1_0</title>
<ellipse fill="none" stroke="#000000" cx="60.8112" cy="-230.5" rx="60.623" ry="73.5782"/>
<text text-anchor="start" x="47.6105" y="-262.3" font-family="Courier,monospace" font-size="14.00" fill="#000000"> </text>
<path fill="none" stroke="#000000" d="M83.8112,-254.5C83.8112,-254.5 89.8112,-254.5 89.8112,-254.5 92.8112,-254.5 95.8112,-257.5 95.8112,-260.5 95.8112,-260.5 95.8112,-272.5 95.8112,-272.5 95.8112,-275.5 92.8112,-278.5 89.8112,-278.5 89.8112,-278.5 83.8112,-278.5 83.8112,-278.5 80.8112,-278.5 77.8112,-275.5 77.8112,-272.5 77.8112,-272.5 77.8112,-260.5 77.8112,-260.5 77.8112,-257.5 80.8112,-254.5 83.8112,-254.5"/>
<text text-anchor="start" x="82.6105" y="-262.3" font-family="Courier,monospace" font-size="14.00" fill="#000000">L</text>
<polygon fill="none" stroke="#000000" points="25.8112,-230.5 25.8112,-254.5 51.8112,-254.5 51.8112,-230.5 25.8112,-230.5"/>
<text text-anchor="start" x="30.4098" y="-238.3" font-family="Courier,monospace" font-size="14.00" fill="#000000"> 4</text>
<polygon fill="none" stroke="#000000" points="51.8112,-230.5 51.8112,-254.5 77.8112,-254.5 77.8112,-230.5 51.8112,-230.5"/>
<text text-anchor="start" x="56.4098" y="-238.3" font-family="Courier,monospace" font-size="14.00" fill="#000000"> 4</text>
<path fill="none" stroke="#000000" d="M83.8112,-230.5C83.8112,-230.5 89.8112,-230.5 89.8112,-230.5 92.8112,-230.5 95.8112,-233.5 95.8112,-236.5 95.8112,-236.5 95.8112,-248.5 95.8112,-248.5 95.8112,-251.5 92.8112,-254.5 89.8112,-254.5 89.8112,-254.5 83.8112,-254.5 83.8112,-254.5 80.8112,-254.5 77.8112,-251.5 77.8112,-248.5 77.8112,-248.5 77.8112,-236.5 77.8112,-236.5 77.8112,-233.5 80.8112,-230.5 83.8112,-230.5"/>
<text text-anchor="start" x="82.6105" y="-238.3" font-family="Courier,monospace" font-size="14.00" fill="#000000">R</text>
<polygon fill="none" stroke="#000000" points="25.8112,-206.5 25.8112,-230.5 51.8112,-230.5 51.8112,-206.5 25.8112,-206.5"/>
<text text-anchor="start" x="30.4098" y="-214.3" font-family="Courier,monospace" font-size="14.00" fill="#000000"> 2</text>
<polygon fill="none" stroke="#000000" points="51.8112,-206.5 51.8112,-230.5 77.8112,-230.5 77.8112,-206.5 51.8112,-206.5"/>
<text text-anchor="start" x="56.4098" y="-214.3" font-family="Courier,monospace" font-size="14.00" fill="#000000">  </text>
<path fill="none" stroke="#000000" d="M83.8112,-206.5C83.8112,-206.5 89.8112,-206.5 89.8112,-206.5 92.8112,-206.5 95.8112,-209.5 95.8112,-212.5 95.8112,-212.5 95.8112,-224.5 95.8112,-224.5 95.8112,-227.5 92.8112,-230.5 89.8112,-230.5 89.8112,-230.5 83.8112,-230.5 83.8112,-230.5 80.8112,-230.5 77.8112,-227.5 77.8112,-224.5 77.8112,-224.5 77.8112,-212.5 77.8112,-212.5 77.8112,-209.5 80.8112,-206.5 83.8112,-206.5"/>
<text text-anchor="start" x="82.6105" y="-214.3" font-family="Courier,monospace" font-size="14.00" fill="#c0c0c0">U</text>
<text text-anchor="start" x="47.6105" y="-190.3" font-family="Courier,monospace" font-size="14.00" fill="#000000"> </text>
<path fill="none" stroke="#000000" d="M83.8112,-182.5C83.8112,-182.5 89.8112,-182.5 89.8112,-182.5 92.8112,-182.5 95.8112,-185.5 95.8112,-188.5 95.8112,-188.5 95.8112,-200.5 95.8112,-200.5 95.8112,-203.5 92.8112,-206.5 89.8112,-206.5 89.8112,-206.5 83.8112,-206.5 83.8112,-206.5 80.8112,-206.5 77.8112,-203.5 77.8112,-200.5 77.8112,-200.5 77.8112,-188.5 77.8112,-188.5 77.8112,-185.5 80.8112,-182.5 83.8112,-182.5"/>
<text text-anchor="start" x="82.6105" y="-190.3" font-family="Courier,monospace" font-size="14.00" fill="#000000">D</text>
</g>
<!-- s3_1_1_0 -->
<g id="node2" class="node">
<title>s3_1_1_0</title>
<polygon fill="none" stroke="#00ff00" points="229.6224,-567.5 229.6224,-611.5 295.2278,-611.5 295.2278,-567.5 229.6224,-567.5"/>
<text text-anchor="middle" x="246.0237" y="-596.3" font-family="Courier,monospace" font-size="14.00" fill="#000000"> 8</text>
<polyline fill="none" stroke="#00ff00" points="262.4251,-589.5 262.4251,-611.5 "/>
<text text-anchor="middle" x="278.8265" y="-596.3" font-family="Courier,monospace" font-size="14.00" fill="#000000"> 2</text>
<polyline fill="none" stroke="#00ff00" points="229.6224,-589.5 295.2278,-589.5 "/>
<text text-anchor="middle" x="246.0237" y="-574.3" font-family="Courier,monospace" font-size="14.00" fill="#000000"> 2</text>
<polyline fill="none" stroke="#00ff00" points="262.4251,-567.5 262.4251,-589.5 "/>
<text text-anchor="middle" x="278.8265" y="-574.3" font-family="Courier,monospace" font-size="14.00" fill="#000000">  </text>
</g>
<!-- s2_2_1_0&#45;&gt;s3_1_1_0 -->
<g id="edge1" class="edge">
<title>s2_2_1_0:left&#45;&gt;s3_1_1_0</title>
<g id="a_edge1"><a xlink:title="0.450">
<path fill="none" stroke="#000000" stroke-width="1.9" d="M86.8112,-278.5C86.8112,-418.1963 145.9001,-446.6713 229.6224,-558.5 229.9041,-558.8764 230.1907,-559.2521 230.4817,-559.627"/>
<polygon fill="#000000" stroke="#000000" stroke-width="1.9" points="227.9345,-562.0328 237.1137,-567.3237 233.2375,-557.4634 227.9345,-562.0328"/>
</a>
</g>
<text text-anchor="middle" x="217.8637" y="-556.1237" font-family="Times,serif" font-size="14.00" fill="#000000">0.45 &#160;&#160;&#160;</text>
</g>
<!-- s3_2_1_0 -->
<g id="node3" class="node">
<title>s3_2_1_0</title>
<polygon fill="none" stroke="#00ff00" points="229.6224,-504.5 229.6224,-548.5 295.2278,-548.5 295.2278,-504.5 229.6224,-504.5"/>
<text text-anchor="middle" x="246.0237" y="-533.3" font-family="Courier,monospace" font-size="14.00" fill="#000000"> 8</text>
<polyline fill="none" stroke="#00ff00" points="262.4251,-526.5 262.4251,-548.5 "/>
<text text-anchor="middle" x="278.8265" y="-533.3" font-family="Courier,monospace" font-size="14.00" fill="#000000"> 4</text>
<polyline fill="none" stroke="#00ff00" points="229.6224,-526.5 295.2278,-526.5 "/>
<text text-anchor="middle" x="246.0237" y="-511.3" font-family="Courier,monospace" font-size="14.00" fill="#000000"> 2</text>
<polyline fill="none" stroke="#00ff00" points="262.4251,-504.5 262.4251,-526.5 "/>
<text text-anchor="middle" x="278.8265" y="-511.3" font-family="Courier,monospace" font-size="14.00" fill="#000000">  </text>
</g>
<!-- s2_2_1_0&#45;&gt;s3_2_1_0 -->
<g id="edge2" class="edge">
<title>s2_2_1_0:left&#45;&gt;s3_2_1_0</title>
<g id="a_edge2"><a xlink:title="0.050">
<path fill="none" stroke="#000000" stroke-width="1.1" d="M86.8112,-278.5C86.8112,-372.647 172.1462,-456.0467 223.8451,-497.9343"/>
<polygon fill="#000000" stroke="#000000" stroke-width="1.1" points="221.8321,-500.8054 231.8355,-504.2959 226.1922,-495.3291 221.8321,-500.8054"/>
</a>
</g>
<text text-anchor="middle" x="212.5855" y="-493.0959" font-family="Times,serif" font-size="14.00" fill="#000000">0.05 &#160;&#160;&#160;</text>
</g>
<!-- s3_0_1_1 -->
<g id="node4" class="node">
<title>s3_0_1_1</title>
<polygon fill="none" stroke="#00ff00" points="229.6224,-441.5 229.6224,-485.5 295.2278,-485.5 295.2278,-441.5 229.6224,-441.5"/>
<text text-anchor="middle" x="246.0237" y="-470.3" font-family="Courier,monospace" font-size="14.00" fill="#000000"> 8</text>
<polyline fill="none" stroke="#00ff00" points="262.4251,-463.5 262.4251,-485.5 "/>
<text text-anchor="middle" x="278.8265" y="-470.3" font-family="Courier,monospace" font-size="14.00" fill="#000000">  </text>
<polyline fill="none" stroke="#00ff00" points="229.6224,-463.5 295.2278,-463.5 "/>
<text text-anchor="middle" x="246.0237" y="-448.3" font-family="Courier,monospace" font-size="14.00" fill="#000000"> 2</text>
<polyline fill="none" stroke="#00ff00" points="262.4251,-441.5 262.4251,-463.5 "/>
<text text-anchor="middle" x="278.8265" y="-448.3" font-family="Courier,monospace" font-size="14.00" fill="#000000"> 2</text>
</g>
<!-- s2_2_1_0&#45;&gt;s3_0_1_1 -->
<g id="edge3" class="edge">
<title>s2_2_1_0:left&#45;&gt;s3_0_1_1</title>
<g id="a_edge3"><a xlink:title="0.450">
<path fill="none" stroke="#000000" stroke-width="1.9" d="M86.8112,-278.5C86.8112,-355.786 168.4275,-413.6749 220.3804,-442.6952"/>
<polygon fill="#000000" stroke="#000000" stroke-width="1.9" points="218.938,-445.8951 229.3935,-447.6081 222.2883,-439.7489 218.938,-445.8951"/>
</a>
</g>
<text text-anchor="middle" x="210.1435" y="-436.4081" font-family="Times,serif" font-size="14.00" fill="#000000">0.45 &#160;&#160;&#160;</text>
</g>
<!-- s3_0_1_2 -->
<g id="node5" class="node">
<title>s3_0_1_2</title>
<polygon fill="none" stroke="#00ff00" points="229.6224,-378.5 229.6224,-422.5 295.2278,-422.5 295.2278,-378.5 229.6224,-378.5"/>
<text text-anchor="middle" x="246.0237" y="-407.3" font-family="Courier,monospace" font-size="14.00" fill="#000000"> 8</text>
<polyline fill="none" stroke="#00ff00" points="262.4251,-400.5 262.4251,-422.5 "/>
<text text-anchor="middle" x="278.8265" y="-407.3" font-family="Courier,monospace" font-size="14.00" fill="#000000">  </text>
<polyline fill="none" stroke="#00ff00" points="229.6224,-400.5 295.2278,-400.5 "/>
<text text-anchor="middle" x="246.0237" y="-385.3" font-family="Courier,monospace" font-size="14.00" fill="#000000"> 2</text>
<polyline fill="none" stroke="#00ff00" points="262.4251,-378.5 262.4251,-400.5 "/>
<text text-anchor="middle" x="278.8265" y="-385.3" font-family="Courier,monospace" font-size="14.00" fill="#000000"> 4</text>
</g>
<!-- s2_2_1_0&#45;&gt;s3_0_1_2 -->
<g id="edge4" class="edge">
<title>s2_2_1_0:left&#45;&gt;s3_0_1_2</title>
<g id="a_edge4"><a xlink:title="0.050">
<path fill="none" stroke="#000000" stroke-width="1.1" d="M86.8112,-278.5C86.8112,-343.0205 167.753,-376.1656 219.7335,-390.7989"/>
<polygon fill="#000000" stroke="#000000" stroke-width="1.1" points="218.8273,-394.1795 229.3935,-393.401 220.648,-387.4204 218.8273,-394.1795"/>
</a>
</g>
<text text-anchor="middle" x="210.1435" y="-382.201" font-family="Times,serif" font-size="14.00" fill="#000000">0.05 &#160;&#160;&#160;</text>
</g>
<!-- s1_3_0_1 -->
<g id="node6" class="node">
<title>s1_3_0_1</title>
<polygon fill="none" stroke="#00ff00" points="229.6224,-315.5 229.6224,-359.5 295.2278,-359.5 295.2278,-315.5 229.6224,-315.5"/>
<text text-anchor="middle" x="246.0237" y="-344.3" font-family="Courier,monospace" font-size="14.00" fill="#000000"> 2</text>
<polyline fill="none" stroke="#00ff00" points="262.4251,-337.5 262.4251,-359.5 "/>
<text text-anchor="middle" x="278.8265" y="-344.3" font-family="Courier,monospace" font-size="14.00" fill="#000000"> 8</text>
<polyline fill="none" stroke="#00ff00" points="229.6224,-337.5 295.2278,-337.5 "/>
<text text-anchor="middle" x="246.0237" y="-322.3" font-family="Courier,monospace" font-size="14.00" fill="#000000">  </text>
<polyline fill="none" stroke="#00ff00" points="262.4251,-315.5 262.4251,-337.5 "/>
<text text-anchor="middle" x="278.8265" y="-322.3" font-family="Courier,monospace" font-size="14.00" fill="#000000"> 2</text>
</g>
<!-- s2_2_1_0&#45;&gt;s1_3_0_1 -->
<g id="edge5" class="edge">
<title>s2_2_1_0:right&#45;&gt;s1_3_0_1</title>
<g id="a_edge5"><a xlink:title="0.450">
<path fill="none" stroke="#000000" stroke-width="1.9" d="M95.8112,-242.5C123.1673,-242.5 184.0459,-281.6368 224.1446,-309.6708"/>
<polygon fill="#000000" stroke="#000000" stroke-width="1.9" points="222.1763,-312.5654 232.3663,-315.4663 226.2094,-306.844 222.1763,-312.5654"/>
</a>
</g>
<text text-anchor="middle" x="213.1163" y="-304.2663" font-family="Times,serif" font-size="14.00" fill="#000000">0.45 &#160;&#160;&#160;</text>
</g>
<!-- s2_3_0_1 -->
<g id="node7" class="node">
<title>s2_3_0_1</title>
<polygon fill="none" stroke="#00ff00" points="229.6224,-252.5 229.6224,-296.5 295.2278,-296.5 295.2278,-252.5 229.6224,-252.5"/>
<text text-anchor="middle" x="246.0237" y="-281.3" font-family="Courier,monospace" font-size="14.00" fill="#000000"> 4</text>
<polyline fill="none" stroke="#00ff00" points="262.4251,-274.5 262.4251,-296.5 "/>
<text text-anchor="middle" x="278.8265" y="-281.3" font-family="Courier,monospace" font-size="14.00" fill="#000000"> 8</text>
<polyline fill="none" stroke="#00ff00" points="229.6224,-274.5 295.2278,-274.5 "/>
<text text-anchor="middle" x="246.0237" y="-259.3" font-family="Courier,monospace" font-size="14.00" fill="#000000">  </text>
<polyline fill="none" stroke="#00ff00" points="262.4251,-252.5 262.4251,-274.5 "/>
<text text-anchor="middle" x="278.8265" y="-259.3" font-family="Courier,monospace" font-size="14.00" fill="#000000"> 2</text>
</g>
<!-- s2_2_1_0&#45;&gt;s2_3_0_1 -->
<g id="edge6" class="edge">
<title>s2_2_1_0:right&#45;&gt;s2_3_0_1</title>
<g id="a_edge6"><a xlink:title="0.050">
<path fill="none" stroke="#000000" stroke-width="1.1" d="M95.8112,-242.5C138.5205,-242.5 186.3006,-252.7661 219.7054,-261.6688"/>
<polygon fill="#000000" stroke="#000000" stroke-width="1.1" points="219.02,-265.1099 229.5893,-264.375 220.8686,-258.3584 219.02,-265.1099"/>
</a>
</g>
<text text-anchor="middle" x="210.3393" y="-253.175" font-family="Times,serif" font-size="14.00" fill="#000000">0.05 &#160;&#160;&#160;</text>
</g>
<!-- s0_3_1_1 -->
<g id="node8" class="node">
<title>s0_3_1_1</title>
<polygon fill="none" stroke="#00ff00" points="229.6224,-189.5 229.6224,-233.5 295.2278,-233.5 295.2278,-189.5 229.6224,-189.5"/>
<text text-anchor="middle" x="246.0237" y="-218.3" font-family="Courier,monospace" font-size="14.00" fill="#000000">  </text>
<polyline fill="none" stroke="#00ff00" points="262.4251,-211.5 262.4251,-233.5 "/>
<text text-anchor="middle" x="278.8265" y="-218.3" font-family="Courier,monospace" font-size="14.00" fill="#000000"> 8</text>
<polyline fill="none" stroke="#00ff00" points="229.6224,-211.5 295.2278,-211.5 "/>
<text text-anchor="middle" x="246.0237" y="-196.3" font-family="Courier,monospace" font-size="14.00" fill="#000000"> 2</text>
<polyline fill="none" stroke="#00ff00" points="262.4251,-189.5 262.4251,-211.5 "/>
<text text-anchor="middle" x="278.8265" y="-196.3" font-family="Courier,monospace" font-size="14.00" fill="#000000"> 2</text>
</g>
<!-- s2_2_1_0&#45;&gt;s0_3_1_1 -->
<g id="edge7" class="edge">
<title>s2_2_1_0:right&#45;&gt;s0_3_1_1</title>
<g id="a_edge7"><a xlink:title="0.450">
<path fill="none" stroke="#000000" stroke-width="1.9" d="M95.8112,-242.5C138.4737,-242.5 186.26,-232.5547 219.679,-223.9303"/>
<polygon fill="#000000" stroke="#000000" stroke-width="1.9" points="220.7985,-227.2545 229.5676,-221.3086 219.0045,-220.4882 220.7985,-227.2545"/>
</a>
</g>
<text text-anchor="middle" x="210.3176" y="-210.1086" font-family="Times,serif" font-size="14.00" fill="#000000">0.45 &#160;&#160;&#160;</text>
</g>
<!-- s0_3_2_1 -->
<g id="node9" class="node">
<title>s0_3_2_1</title>
<polygon fill="none" stroke="#00ff00" points="229.6224,-126.5 229.6224,-170.5 295.2278,-170.5 295.2278,-126.5 229.6224,-126.5"/>
<text text-anchor="middle" x="246.0237" y="-155.3" font-family="Courier,monospace" font-size="14.00" fill="#000000">  </text>
<polyline fill="none" stroke="#00ff00" points="262.4251,-148.5 262.4251,-170.5 "/>
<text text-anchor="middle" x="278.8265" y="-155.3" font-family="Courier,monospace" font-size="14.00" fill="#000000"> 8</text>
<polyline fill="none" stroke="#00ff00" points="229.6224,-148.5 295.2278,-148.5 "/>
<text text-anchor="middle" x="246.0237" y="-133.3" font-family="Courier,monospace" font-size="14.00" fill="#000000"> 4</text>
<polyline fill="none" stroke="#00ff00" points="262.4251,-126.5 262.4251,-148.5 "/>
<text text-anchor="middle" x="278.8265" y="-133.3" font-family="Courier,monospace" font-size="14.00" fill="#000000"> 2</text>
</g>
<!-- s2_2_1_0&#45;&gt;s0_3_2_1 -->
<g id="edge8" class="edge">
<title>s2_2_1_0:right&#45;&gt;s0_3_2_1</title>
<g id="a_edge8"><a xlink:title="0.050">
<path fill="none" stroke="#000000" stroke-width="1.1" d="M95.8112,-242.5C149.5446,-242.5 201.9074,-204.9555 233.1704,-177.3219"/>
<polygon fill="#000000" stroke="#000000" stroke-width="1.1" points="235.5944,-179.8486 240.652,-170.5388 230.8926,-174.6626 235.5944,-179.8486"/>
</a>
</g>
<text text-anchor="middle" x="221.402" y="-173.3388" font-family="Times,serif" font-size="14.00" fill="#000000">0.05 &#160;&#160;&#160;</text>
</g>
<!-- s2_1_1_2 -->
<g id="node10" class="node">
<title>s2_1_1_2</title>
<polygon fill="none" stroke="#ff0000" points="229.6224,-63.5 229.6224,-107.5 295.2278,-107.5 295.2278,-63.5 229.6224,-63.5"/>
<text text-anchor="middle" x="246.0237" y="-92.3" font-family="Courier,monospace" font-size="14.00" fill="#000000"> 4</text>
<polyline fill="none" stroke="#ff0000" points="262.4251,-85.5 262.4251,-107.5 "/>
<text text-anchor="middle" x="278.8265" y="-92.3" font-family="Courier,monospace" font-size="14.00" fill="#000000"> 2</text>
<polyline fill="none" stroke="#ff0000" points="229.6224,-85.5 295.2278,-85.5 "/>
<text text-anchor="middle" x="246.0237" y="-70.3" font-family="Courier,monospace" font-size="14.00" fill="#000000"> 2</text>
<polyline fill="none" stroke="#ff0000" points="262.4251,-63.5 262.4251,-85.5 "/>
<text text-anchor="middle" x="278.8265" y="-70.3" font-family="Courier,monospace" font-size="14.00" fill="#000000"> 4</text>
</g>
<!-- s2_2_1_0&#45;&gt;s2_1_1_2 -->
<g id="edge9" class="edge">
<title>s2_2_1_0:down&#45;&gt;s2_1_1_2</title>
<g id="a_edge9"><a xlink:title="0.900">
<path fill="none" stroke="#000000" stroke-width="2.8" d="M95.8112,-194.5C125.1776,-194.5 188.9604,-146.4819 228.5366,-114.1875"/>
<polygon fill="#000000" stroke="#000000" stroke-width="2.8" points="231.0954,-116.6145 236.5932,-107.5578 226.6475,-111.2093 231.0954,-116.6145"/>
</a>
</g>
<text text-anchor="middle" x="217.3432" y="-110.3578" font-family="Times,serif" font-size="14.00" fill="#000000">0.90 &#160;&#160;&#160;</text>
</g>
<!-- s2_2_1_2 -->
<g id="node11" class="node">
<title>s2_2_1_2</title>
<polygon fill="none" stroke="#000000" points="229.6224,-.5 229.6224,-44.5 295.2278,-44.5 295.2278,-.5 229.6224,-.5"/>
<text text-anchor="middle" x="246.0237" y="-29.3" font-family="Courier,monospace" font-size="14.00" fill="#000000"> 4</text>
<polyline fill="none" stroke="#000000" points="262.4251,-22.5 262.4251,-44.5 "/>
<text text-anchor="middle" x="278.8265" y="-29.3" font-family="Courier,monospace" font-size="14.00" fill="#000000"> 4</text>
<polyline fill="none" stroke="#000000" points="229.6224,-22.5 295.2278,-22.5 "/>
<text text-anchor="middle" x="246.0237" y="-7.3" font-family="Courier,monospace" font-size="14.00" fill="#000000"> 2</text>
<polyline fill="none" stroke="#000000" points="262.4251,-.5 262.4251,-22.5 "/>
<text text-anchor="middle" x="278.8265" y="-7.3" font-family="Courier,monospace" font-size="14.00" fill="#000000"> 4</text>
</g>
<!-- s2_2_1_0&#45;&gt;s2_2_1_2 -->
<g id="edge10" class="edge">
<title>s2_2_1_0:down&#45;&gt;s2_2_1_2</title>
<g id="a_edge10"><a xlink:title="0.100">
<path fill="none" stroke="#000000" stroke-width="1.2" d="M86.8112,-182.5C86.8112,-110.6675 168.0899,-62.5201 220.0573,-39.0771"/>
<polygon fill="#000000" stroke="#000000" stroke-width="1.2" points="221.6383,-42.2057 229.3935,-34.9871 218.8294,-35.7939 221.6383,-42.2057"/>
</a>
</g>
<text text-anchor="middle" x="210.1435" y="-23.7871" font-family="Times,serif" font-size="14.00" fill="#000000">0.10 &#160;&#160;&#160;</text>
</g>
</g>
</svg>
