<?xml version="1.0" encoding="UTF-8" standalone="no"?>
<!DOCTYPE svg PUBLIC "-//W3C//DTD SVG 1.1//EN"
 "http://www.w3.org/Graphics/SVG/1.1/DTD/svg11.dtd">
<!-- Generated by graphviz version 2.40.1 (20161225.0304)
 -->
<!-- Title: %3 Pages: 1 -->
<svg width="303pt" height="458pt"
 viewBox="0.00 0.00 303.23 458.00" xmlns="http://www.w3.org/2000/svg" xmlns:xlink="http://www.w3.org/1999/xlink">
<g id="graph0" class="graph" transform="scale(1 1) rotate(0) translate(4 454)">
<title>%3</title>
<!-- s0_0_1_1 -->
<g id="node1" class="node">
<title>s0_0_1_1</title>
<ellipse fill="none" stroke="#0000ff" cx="60.8112" cy="-200.5" rx="60.623" ry="72.25"/>
<text text-anchor="start" x="47.6105" y="-232.3" font-family="Courier,monospace" font-size="14.00" fill="#000000"> </text>
<path fill="none" stroke="#0000ff" d="M83.8112,-201.5C83.8112,-201.5 89.8112,-201.5 89.8112,-201.5 92.8112,-201.5 95.8112,-204.5 95.8112,-207.5 95.8112,-207.5 95.8112,-241.5 95.8112,-241.5 95.8112,-244.5 92.8112,-247.5 89.8112,-247.5 89.8112,-247.5 83.8112,-247.5 83.8112,-247.5 80.8112,-247.5 77.8112,-244.5 77.8112,-241.5 77.8112,-241.5 77.8112,-207.5 77.8112,-207.5 77.8112,-204.5 80.8112,-201.5 83.8112,-201.5"/>
<text text-anchor="start" x="82.6105" y="-227.3" font-family="Courier,monospace" font-size="14.00" fill="#000000">L</text>
<text text-anchor="start" x="82.6105" y="-213.3" font-family="Courier,monospace" font-size="14.00" fill="#000000">R</text>
<polygon fill="none" stroke="#0000ff" points="25.8112,-201.5 25.8112,-225.5 51.8112,-225.5 51.8112,-201.5 25.8112,-201.5"/>
<text text-anchor="start" x="30.4098" y="-209.3" font-family="Courier,monospace" font-size="14.00" fill="#000000">  </text>
<polygon fill="none" stroke="#0000ff" points="51.8112,-201.5 51.8112,-225.5 77.8112,-225.5 77.8112,-201.5 51.8112,-201.5"/>
<text text-anchor="start" x="56.4098" y="-209.3" font-family="Courier,monospace" font-size="14.00" fill="#000000">  </text>
<polygon fill="none" stroke="#0000ff" points="25.8112,-177.5 25.8112,-201.5 51.8112,-201.5 51.8112,-177.5 25.8112,-177.5"/>
<text text-anchor="start" x="30.4098" y="-185.3" font-family="Courier,monospace" font-size="14.00" fill="#000000"> 2</text>
<polygon fill="none" stroke="#0000ff" points="51.8112,-177.5 51.8112,-201.5 77.8112,-201.5 77.8112,-177.5 51.8112,-177.5"/>
<text text-anchor="start" x="56.4098" y="-185.3" font-family="Courier,monospace" font-size="14.00" fill="#000000"> 2</text>
<path fill="none" stroke="#0000ff" d="M83.8112,-177.5C83.8112,-177.5 89.8112,-177.5 89.8112,-177.5 92.8112,-177.5 95.8112,-180.5 95.8112,-183.5 95.8112,-183.5 95.8112,-195.5 95.8112,-195.5 95.8112,-198.5 92.8112,-201.5 89.8112,-201.5 89.8112,-201.5 83.8112,-201.5 83.8112,-201.5 80.8112,-201.5 77.8112,-198.5 77.8112,-195.5 77.8112,-195.5 77.8112,-183.5 77.8112,-183.5 77.8112,-180.5 80.8112,-177.5 83.8112,-177.5"/>
<text text-anchor="start" x="82.6105" y="-185.3" font-family="Courier,monospace" font-size="14.00" fill="#000000">U</text>
<text text-anchor="start" x="47.6105" y="-161.3" font-family="Courier,monospace" font-size="14.00" fill="#000000"> </text>
<path fill="none" stroke="#0000ff" d="M83.8112,-153.5C83.8112,-153.5 89.8112,-153.5 89.8112,-153.5 92.8112,-153.5 95.8112,-156.5 95.8112,-159.5 95.8112,-159.5 95.8112,-171.5 95.8112,-171.5 95.8112,-174.5 92.8112,-177.5 89.8112,-177.5 89.8112,-177.5 83.8112,-177.5 83.8112,-177.5 80.8112,-177.5 77.8112,-174.5 77.8112,-171.5 77.8112,-171.5 77.8112,-159.5 77.8112,-159.5 77.8112,-156.5 80.8112,-153.5 83.8112,-153.5"/>
<text text-anchor="start" x="82.6105" y="-161.3" font-family="Courier,monospace" font-size="14.00" fill="#c0c0c0">D</text>
</g>
<!-- s0_0_1_2 -->
<g id="node2" class="node">
<title>s0_0_1_2</title>
<polygon fill="none" stroke="#000000" points="229.6224,-405.5 229.6224,-449.5 295.2278,-449.5 295.2278,-405.5 229.6224,-405.5"/>
<text text-anchor="middle" x="246.0237" y="-434.3" font-family="Courier,monospace" font-size="14.00" fill="#000000">  </text>
<polyline fill="none" stroke="#000000" points="262.4251,-427.5 262.4251,-449.5 "/>
<text text-anchor="middle" x="278.8265" y="-434.3" font-family="Courier,monospace" font-size="14.00" fill="#000000">  </text>
<polyline fill="none" stroke="#000000" points="229.6224,-427.5 295.2278,-427.5 "/>
<text text-anchor="middle" x="246.0237" y="-412.3" font-family="Courier,monospace" font-size="14.00" fill="#000000"> 2</text>
<polyline fill="none" stroke="#000000" points="262.4251,-405.5 262.4251,-427.5 "/>
<text text-anchor="middle" x="278.8265" y="-412.3" font-family="Courier,monospace" font-size="14.00" fill="#000000"> 4</text>
</g>
<!-- s0_0_1_1&#45;&gt;s0_0_1_2 -->
<g id="edge1" class="edge">
<title>s0_0_1_1:left_right&#45;&gt;s0_0_1_2</title>
<path fill="none" stroke="#000000" d="M86.8112,-247.5C86.8112,-323.6944 168.4275,-379.6563 220.3804,-407.5605"/>
<polygon fill="#000000" stroke="#000000" points="218.9111,-410.7419 229.3935,-412.2816 222.1591,-404.5411 218.9111,-410.7419"/>
<text text-anchor="middle" x="211.8935" y="-401.0816" font-family="Times,serif" font-size="14.00" fill="#000000">0.60 &#160;&#160;</text>
</g>
<!-- s0_0_2_2 -->
<g id="node3" class="node">
<title>s0_0_2_2</title>
<polygon fill="none" stroke="#000000" points="229.6224,-324.5 229.6224,-368.5 295.2278,-368.5 295.2278,-324.5 229.6224,-324.5"/>
<text text-anchor="middle" x="246.0237" y="-353.3" font-family="Courier,monospace" font-size="14.00" fill="#000000">  </text>
<polyline fill="none" stroke="#000000" points="262.4251,-346.5 262.4251,-368.5 "/>
<text text-anchor="middle" x="278.8265" y="-353.3" font-family="Courier,monospace" font-size="14.00" fill="#000000">  </text>
<polyline fill="none" stroke="#000000" points="229.6224,-346.5 295.2278,-346.5 "/>
<text text-anchor="middle" x="246.0237" y="-331.3" font-family="Courier,monospace" font-size="14.00" fill="#000000"> 4</text>
<polyline fill="none" stroke="#000000" points="262.4251,-324.5 262.4251,-346.5 "/>
<text text-anchor="middle" x="278.8265" y="-331.3" font-family="Courier,monospace" font-size="14.00" fill="#000000"> 4</text>
</g>
<!-- s0_0_1_1&#45;&gt;s0_0_2_2 -->
<g id="edge2" class="edge">
<title>s0_0_1_1:left_right&#45;&gt;s0_0_2_2</title>
<path fill="none" stroke="#000000" d="M86.8112,-247.5C86.8112,-308.2021 167.4167,-332.0944 219.4089,-341.1915"/>
<polygon fill="#000000" stroke="#000000" points="218.9604,-344.6646 229.3935,-342.8202 220.0874,-337.7559 218.9604,-344.6646"/>
<text text-anchor="middle" x="211.8935" y="-331.6202" font-family="Times,serif" font-size="14.00" fill="#000000">0.07 &#160;&#160;</text>
</g>
<!-- s0_1_2_0 -->
<g id="node4" class="node">
<title>s0_1_2_0</title>
<polygon fill="none" stroke="#000000" points="229.6224,-243.5 229.6224,-287.5 295.2278,-287.5 295.2278,-243.5 229.6224,-243.5"/>
<text text-anchor="middle" x="246.0237" y="-272.3" font-family="Courier,monospace" font-size="14.00" fill="#000000">  </text>
<polyline fill="none" stroke="#000000" points="262.4251,-265.5 262.4251,-287.5 "/>
<text text-anchor="middle" x="278.8265" y="-272.3" font-family="Courier,monospace" font-size="14.00" fill="#000000"> 2</text>
<polyline fill="none" stroke="#000000" points="229.6224,-265.5 295.2278,-265.5 "/>
<text text-anchor="middle" x="246.0237" y="-250.3" font-family="Courier,monospace" font-size="14.00" fill="#000000"> 4</text>
<polyline fill="none" stroke="#000000" points="262.4251,-243.5 262.4251,-265.5 "/>
<text text-anchor="middle" x="278.8265" y="-250.3" font-family="Courier,monospace" font-size="14.00" fill="#000000">  </text>
</g>
<!-- s0_0_1_1&#45;&gt;s0_1_2_0 -->
<g id="edge3" class="edge">
<title>s0_0_1_1:left_right&#45;&gt;s0_1_2_0</title>
<path fill="none" stroke="#000000" d="M95.8112,-224.5C138.8702,-224.5 186.4227,-237.5714 219.6665,-248.953"/>
<polygon fill="#000000" stroke="#000000" points="218.9086,-252.3966 229.5034,-252.4146 221.2322,-245.7935 218.9086,-252.3966"/>
<text text-anchor="middle" x="212.0034" y="-241.2146" font-family="Times,serif" font-size="14.00" fill="#000000">0.30 &#160;&#160;</text>
</g>
<!-- s0_2_2_0 -->
<g id="node5" class="node">
<title>s0_2_2_0</title>
<polygon fill="none" stroke="#000000" points="229.6224,-162.5 229.6224,-206.5 295.2278,-206.5 295.2278,-162.5 229.6224,-162.5"/>
<text text-anchor="middle" x="246.0237" y="-191.3" font-family="Courier,monospace" font-size="14.00" fill="#000000">  </text>
<polyline fill="none" stroke="#000000" points="262.4251,-184.5 262.4251,-206.5 "/>
<text text-anchor="middle" x="278.8265" y="-191.3" font-family="Courier,monospace" font-size="14.00" fill="#000000"> 4</text>
<polyline fill="none" stroke="#000000" points="229.6224,-184.5 295.2278,-184.5 "/>
<text text-anchor="middle" x="246.0237" y="-169.3" font-family="Courier,monospace" font-size="14.00" fill="#000000"> 4</text>
<polyline fill="none" stroke="#000000" points="262.4251,-162.5 262.4251,-184.5 "/>
<text text-anchor="middle" x="278.8265" y="-169.3" font-family="Courier,monospace" font-size="14.00" fill="#000000">  </text>
</g>
<!-- s0_0_1_1&#45;&gt;s0_2_2_0 -->
<g id="edge4" class="edge">
<title>s0_0_1_1:left_right&#45;&gt;s0_2_2_0</title>
<path fill="none" stroke="#000000" d="M95.8112,-224.5C138.8109,-224.5 186.3711,-211.7474 219.6328,-200.6434"/>
<polygon fill="#000000" stroke="#000000" points="221.1527,-203.8223 229.4755,-197.2662 218.8809,-197.2012 221.1527,-203.8223"/>
<text text-anchor="middle" x="211.9755" y="-186.0662" font-family="Times,serif" font-size="14.00" fill="#000000">0.03 &#160;&#160;</text>
</g>
<!-- s0_1_1_1 -->
<g id="node6" class="node">
<title>s0_1_1_1</title>
<polygon fill="none" stroke="#000000" points="229.6224,-81.5 229.6224,-125.5 295.2278,-125.5 295.2278,-81.5 229.6224,-81.5"/>
<text text-anchor="middle" x="246.0237" y="-110.3" font-family="Courier,monospace" font-size="14.00" fill="#000000">  </text>
<polyline fill="none" stroke="#000000" points="262.4251,-103.5 262.4251,-125.5 "/>
<text text-anchor="middle" x="278.8265" y="-110.3" font-family="Courier,monospace" font-size="14.00" fill="#000000"> 2</text>
<polyline fill="none" stroke="#000000" points="229.6224,-103.5 295.2278,-103.5 "/>
<text text-anchor="middle" x="246.0237" y="-88.3" font-family="Courier,monospace" font-size="14.00" fill="#000000"> 2</text>
<polyline fill="none" stroke="#000000" points="262.4251,-81.5 262.4251,-103.5 "/>
<text text-anchor="middle" x="278.8265" y="-88.3" font-family="Courier,monospace" font-size="14.00" fill="#000000"> 2</text>
</g>
<!-- s0_0_1_1&#45;&gt;s0_1_1_1 -->
<g id="edge5" class="edge">
<title>s0_0_1_1:up&#45;&gt;s0_1_1_1</title>
<path fill="none" stroke="#000000" d="M95.8112,-189.5C146.909,-189.5 197.9871,-157.1655 229.8577,-132.1498"/>
<polygon fill="#000000" stroke="#000000" points="232.3371,-134.6468 237.9279,-125.6471 227.9451,-129.1961 232.3371,-134.6468"/>
<text text-anchor="middle" x="220.4279" y="-128.4471" font-family="Times,serif" font-size="14.00" fill="#000000">0.90 &#160;&#160;</text>
</g>
<!-- s0_1_2_1 -->
<g id="node7" class="node">
<title>s0_1_2_1</title>
<polygon fill="none" stroke="#000000" points="229.6224,-.5 229.6224,-44.5 295.2278,-44.5 295.2278,-.5 229.6224,-.5"/>
<text text-anchor="middle" x="246.0237" y="-29.3" font-family="Courier,monospace" font-size="14.00" fill="#000000">  </text>
<polyline fill="none" stroke="#000000" points="262.4251,-22.5 262.4251,-44.5 "/>
<text text-anchor="middle" x="278.8265" y="-29.3" font-family="Courier,monospace" font-size="14.00" fill="#000000"> 2</text>
<polyline fill="none" stroke="#000000" points="229.6224,-22.5 295.2278,-22.5 "/>
<text text-anchor="middle" x="246.0237" y="-7.3" font-family="Courier,monospace" font-size="14.00" fill="#000000"> 4</text>
<polyline fill="none" stroke="#000000" points="262.4251,-.5 262.4251,-22.5 "/>
<text text-anchor="middle" x="278.8265" y="-7.3" font-family="Courier,monospace" font-size="14.00" fill="#000000"> 2</text>
</g>
<!-- s0_0_1_1&#45;&gt;s0_1_2_1 -->
<g id="edge6" class="edge">
<title>s0_0_1_1:up&#45;&gt;s0_1_2_1</title>
<path fill="none" stroke="#000000" d="M95.8112,-189.5C114.9663,-189.5 195.1077,-100.3104 236.8676,-52.2908"/>
<polygon fill="#000000" stroke="#000000" points="239.5627,-54.5252 243.4679,-44.6763 234.2732,-49.9402 239.5627,-54.5252"/>
<text text-anchor="middle" x="225.9679" y="-47.4763" font-family="Times,serif" font-size="14.00" fill="#000000">0.10 &#160;&#160;</text>
</g>
</g>
</svg>
