<?xml version="1.0" encoding="UTF-8" standalone="no"?>
<!DOCTYPE svg PUBLIC "-//W3C//DTD SVG 1.1//EN"
 "http://www.w3.org/Graphics/SVG/1.1/DTD/svg11.dtd">
<!-- Generated by graphviz version 2.40.1 (20161225.0304)
 -->
<!-- Title: %3 Pages: 1 -->
<svg width="1468pt" height="919pt"
 viewBox="0.00 0.00 1467.99 919.01" xmlns="http://www.w3.org/2000/svg" xmlns:xlink="http://www.w3.org/1999/xlink">
<g id="graph0" class="graph" transform="scale(1 1) rotate(0) translate(4 915.0065)">
<title>%3</title>
<g id="clust1" class="cluster">
<title>cluster_4</title>
<polygon fill="#f2f2f2" stroke="#f2f2f2" points="8,-99.0065 8,-457.0065 161.6224,-457.0065 161.6224,-99.0065 8,-99.0065"/>
<text text-anchor="middle" x="84.8112" y="-441.8065" font-family="Times,serif" font-size="14.00" fill="#000000">sum 4</text>
</g>
<g id="clust2" class="cluster">
<title>cluster_6</title>
<polygon fill="#f2f2f2" stroke="#f2f2f2" points="273.6224,-99.0065 273.6224,-616.0065 427.2447,-616.0065 427.2447,-99.0065 273.6224,-99.0065"/>
<text text-anchor="middle" x="350.4335" y="-600.8065" font-family="Times,serif" font-size="14.00" fill="#000000">sum 6</text>
</g>
<g id="clust3" class="cluster">
<title>cluster_8</title>
<polygon fill="#f2f2f2" stroke="#f2f2f2" points="539.2447,-223.0065 539.2447,-903.0065 692.8671,-903.0065 692.8671,-223.0065 539.2447,-223.0065"/>
<text text-anchor="middle" x="616.0559" y="-887.8065" font-family="Times,serif" font-size="14.00" fill="#000000">sum 8</text>
</g>
<g id="clust4" class="cluster">
<title>cluster_10</title>
<polygon fill="#f2f2f2" stroke="#f2f2f2" points="804.8671,-138.0065 804.8671,-656.0065 958.4895,-656.0065 958.4895,-138.0065 804.8671,-138.0065"/>
<text text-anchor="middle" x="881.6783" y="-640.8065" font-family="Times,serif" font-size="14.00" fill="#000000">sum 10</text>
</g>
<g id="clust5" class="cluster">
<title>cluster_12</title>
<polygon fill="#f2f2f2" stroke="#f2f2f2" points="1070.4895,-436.0065 1070.4895,-791.0065 1224.1118,-791.0065 1224.1118,-436.0065 1070.4895,-436.0065"/>
<text text-anchor="middle" x="1147.3006" y="-775.8065" font-family="Times,serif" font-size="14.00" fill="#000000">sum 12</text>
</g>
<g id="clust6" class="cluster">
<title>cluster_14</title>
<polygon fill="#f2f2f2" stroke="#f2f2f2" points="1070.4895,-188.0065 1070.4895,-384.0065 1224.1118,-384.0065 1224.1118,-188.0065 1070.4895,-188.0065"/>
<text text-anchor="middle" x="1147.3006" y="-368.8065" font-family="Times,serif" font-size="14.00" fill="#000000">sum 14</text>
</g>
<!-- s0_0_1_1 -->
<g id="node1" class="node">
<title>s0_0_1_1</title>
<ellipse fill="none" stroke="#0000ff" cx="84.8112" cy="-347.0065" rx="60.623" ry="72.25"/>
<text text-anchor="start" x="71.6105" y="-378.8065" font-family="Courier,monospace" font-size="14.00" fill="#000000"> </text>
<path fill="none" stroke="#0000ff" d="M107.8112,-348.0065C107.8112,-348.0065 113.8112,-348.0065 113.8112,-348.0065 116.8112,-348.0065 119.8112,-351.0065 119.8112,-354.0065 119.8112,-354.0065 119.8112,-388.0065 119.8112,-388.0065 119.8112,-391.0065 116.8112,-394.0065 113.8112,-394.0065 113.8112,-394.0065 107.8112,-394.0065 107.8112,-394.0065 104.8112,-394.0065 101.8112,-391.0065 101.8112,-388.0065 101.8112,-388.0065 101.8112,-354.0065 101.8112,-354.0065 101.8112,-351.0065 104.8112,-348.0065 107.8112,-348.0065"/>
<text text-anchor="start" x="106.6105" y="-373.8065" font-family="Courier,monospace" font-size="14.00" fill="#000000">L</text>
<text text-anchor="start" x="106.6105" y="-359.8065" font-family="Courier,monospace" font-size="14.00" fill="#000000">R</text>
<polygon fill="none" stroke="#0000ff" points="49.8112,-348.0065 49.8112,-372.0065 75.8112,-372.0065 75.8112,-348.0065 49.8112,-348.0065"/>
<text text-anchor="start" x="54.4098" y="-355.8065" font-family="Courier,monospace" font-size="14.00" fill="#000000">  </text>
<polygon fill="none" stroke="#0000ff" points="75.8112,-348.0065 75.8112,-372.0065 101.8112,-372.0065 101.8112,-348.0065 75.8112,-348.0065"/>
<text text-anchor="start" x="80.4098" y="-355.8065" font-family="Courier,monospace" font-size="14.00" fill="#000000">  </text>
<polygon fill="none" stroke="#0000ff" points="49.8112,-324.0065 49.8112,-348.0065 75.8112,-348.0065 75.8112,-324.0065 49.8112,-324.0065"/>
<text text-anchor="start" x="54.4098" y="-331.8065" font-family="Courier,monospace" font-size="14.00" fill="#000000"> 2</text>
<polygon fill="none" stroke="#0000ff" points="75.8112,-324.0065 75.8112,-348.0065 101.8112,-348.0065 101.8112,-324.0065 75.8112,-324.0065"/>
<text text-anchor="start" x="80.4098" y="-331.8065" font-family="Courier,monospace" font-size="14.00" fill="#000000"> 2</text>
<path fill="none" stroke="#0000ff" d="M107.8112,-324.0065C107.8112,-324.0065 113.8112,-324.0065 113.8112,-324.0065 116.8112,-324.0065 119.8112,-327.0065 119.8112,-330.0065 119.8112,-330.0065 119.8112,-342.0065 119.8112,-342.0065 119.8112,-345.0065 116.8112,-348.0065 113.8112,-348.0065 113.8112,-348.0065 107.8112,-348.0065 107.8112,-348.0065 104.8112,-348.0065 101.8112,-345.0065 101.8112,-342.0065 101.8112,-342.0065 101.8112,-330.0065 101.8112,-330.0065 101.8112,-327.0065 104.8112,-324.0065 107.8112,-324.0065"/>
<text text-anchor="start" x="106.6105" y="-331.8065" font-family="Courier,monospace" font-size="14.00" fill="#000000">U</text>
<text text-anchor="start" x="54.8078" y="-307.8065" font-family="Courier,monospace" font-size="14.00" fill="#000000">1.000</text>
<path fill="none" stroke="#0000ff" d="M107.8112,-300.0065C107.8112,-300.0065 113.8112,-300.0065 113.8112,-300.0065 116.8112,-300.0065 119.8112,-303.0065 119.8112,-306.0065 119.8112,-306.0065 119.8112,-318.0065 119.8112,-318.0065 119.8112,-321.0065 116.8112,-324.0065 113.8112,-324.0065 113.8112,-324.0065 107.8112,-324.0065 107.8112,-324.0065 104.8112,-324.0065 101.8112,-321.0065 101.8112,-318.0065 101.8112,-318.0065 101.8112,-306.0065 101.8112,-306.0065 101.8112,-303.0065 104.8112,-300.0065 107.8112,-300.0065"/>
<text text-anchor="start" x="106.6105" y="-307.8065" font-family="Courier,monospace" font-size="14.00" fill="#c0c0c0">D</text>
</g>
<!-- s0_0_1_2 -->
<g id="node4" class="node">
<title>s0_0_1_2</title>
<ellipse fill="none" stroke="#0000ff" cx="350.4335" cy="-506.0065" rx="60.623" ry="72.25"/>
<text text-anchor="start" x="337.2329" y="-537.8065" font-family="Courier,monospace" font-size="14.00" fill="#000000"> </text>
<path fill="none" stroke="#0000ff" d="M373.4335,-483.0065C373.4335,-483.0065 379.4335,-483.0065 379.4335,-483.0065 382.4335,-483.0065 385.4335,-486.0065 385.4335,-489.0065 385.4335,-489.0065 385.4335,-547.0065 385.4335,-547.0065 385.4335,-550.0065 382.4335,-553.0065 379.4335,-553.0065 379.4335,-553.0065 373.4335,-553.0065 373.4335,-553.0065 370.4335,-553.0065 367.4335,-550.0065 367.4335,-547.0065 367.4335,-547.0065 367.4335,-489.0065 367.4335,-489.0065 367.4335,-486.0065 370.4335,-483.0065 373.4335,-483.0065"/>
<text text-anchor="start" x="372.2329" y="-527.8065" font-family="Courier,monospace" font-size="14.00" fill="#c0c0c0">L</text>
<text text-anchor="start" x="372.2329" y="-513.8065" font-family="Courier,monospace" font-size="14.00" fill="#c0c0c0">R</text>
<text text-anchor="start" x="372.2329" y="-499.8065" font-family="Courier,monospace" font-size="14.00" fill="#c0c0c0">D</text>
<polygon fill="none" stroke="#0000ff" points="315.4335,-507.0065 315.4335,-531.0065 341.4335,-531.0065 341.4335,-507.0065 315.4335,-507.0065"/>
<text text-anchor="start" x="320.0322" y="-514.8065" font-family="Courier,monospace" font-size="14.00" fill="#000000">  </text>
<polygon fill="none" stroke="#0000ff" points="341.4335,-507.0065 341.4335,-531.0065 367.4335,-531.0065 367.4335,-507.0065 341.4335,-507.0065"/>
<text text-anchor="start" x="346.0322" y="-514.8065" font-family="Courier,monospace" font-size="14.00" fill="#000000">  </text>
<polygon fill="none" stroke="#0000ff" points="315.4335,-483.0065 315.4335,-507.0065 341.4335,-507.0065 341.4335,-483.0065 315.4335,-483.0065"/>
<text text-anchor="start" x="320.0322" y="-490.8065" font-family="Courier,monospace" font-size="14.00" fill="#000000"> 2</text>
<polygon fill="none" stroke="#0000ff" points="341.4335,-483.0065 341.4335,-507.0065 367.4335,-507.0065 367.4335,-483.0065 341.4335,-483.0065"/>
<text text-anchor="start" x="346.0322" y="-490.8065" font-family="Courier,monospace" font-size="14.00" fill="#000000"> 4</text>
<text text-anchor="start" x="320.4301" y="-466.8065" font-family="Courier,monospace" font-size="14.00" fill="#000000">1.000</text>
<path fill="none" stroke="#0000ff" d="M373.4335,-459.0065C373.4335,-459.0065 379.4335,-459.0065 379.4335,-459.0065 382.4335,-459.0065 385.4335,-462.0065 385.4335,-465.0065 385.4335,-465.0065 385.4335,-477.0065 385.4335,-477.0065 385.4335,-480.0065 382.4335,-483.0065 379.4335,-483.0065 379.4335,-483.0065 373.4335,-483.0065 373.4335,-483.0065 370.4335,-483.0065 367.4335,-480.0065 367.4335,-477.0065 367.4335,-477.0065 367.4335,-465.0065 367.4335,-465.0065 367.4335,-462.0065 370.4335,-459.0065 373.4335,-459.0065"/>
<text text-anchor="start" x="372.2329" y="-466.8065" font-family="Courier,monospace" font-size="14.00" fill="#000000">U</text>
</g>
<!-- s0_0_1_1&#45;&gt;s0_0_1_2 -->
<g id="edge1" class="edge">
<title>s0_0_1_1:left_right&#45;&gt;s0_0_1_2</title>
<g id="a_edge1"><a xlink:title="0.600">
<path fill="none" stroke="#000000" stroke-width="2.2" d="M110.8112,-394.0065C110.8112,-431.889 210.3429,-467.463 281.1116,-487.9688"/>
<polygon fill="#000000" stroke="#000000" stroke-width="2.2" points="280.3165,-491.3816 290.8932,-490.761 282.238,-484.6505 280.3165,-491.3816"/>
</a>
</g>
</g>
<!-- s0_1_2_0 -->
<g id="node5" class="node">
<title>s0_1_2_0</title>
<ellipse fill="none" stroke="#0000ff" cx="350.4335" cy="-345.0065" rx="60.623" ry="70.922"/>
<text text-anchor="start" x="337.2329" y="-375.8065" font-family="Courier,monospace" font-size="14.00" fill="#000000"> </text>
<path fill="none" stroke="#0000ff" d="M373.4335,-299.0065C373.4335,-299.0065 379.4335,-299.0065 379.4335,-299.0065 382.4335,-299.0065 385.4335,-302.0065 385.4335,-305.0065 385.4335,-305.0065 385.4335,-385.0065 385.4335,-385.0065 385.4335,-388.0065 382.4335,-391.0065 379.4335,-391.0065 379.4335,-391.0065 373.4335,-391.0065 373.4335,-391.0065 370.4335,-391.0065 367.4335,-388.0065 367.4335,-385.0065 367.4335,-385.0065 367.4335,-305.0065 367.4335,-305.0065 367.4335,-302.0065 370.4335,-299.0065 373.4335,-299.0065"/>
<text text-anchor="start" x="372.2329" y="-361.8065" font-family="Courier,monospace" font-size="14.00" fill="#000000">L</text>
<text text-anchor="start" x="372.2329" y="-347.8065" font-family="Courier,monospace" font-size="14.00" fill="#000000">R</text>
<text text-anchor="start" x="372.2329" y="-333.8065" font-family="Courier,monospace" font-size="14.00" fill="#000000">U</text>
<text text-anchor="start" x="372.2329" y="-319.8065" font-family="Courier,monospace" font-size="14.00" fill="#000000">D</text>
<polygon fill="none" stroke="#0000ff" points="315.4335,-345.0065 315.4335,-369.0065 341.4335,-369.0065 341.4335,-345.0065 315.4335,-345.0065"/>
<text text-anchor="start" x="320.0322" y="-352.8065" font-family="Courier,monospace" font-size="14.00" fill="#000000">  </text>
<polygon fill="none" stroke="#0000ff" points="341.4335,-345.0065 341.4335,-369.0065 367.4335,-369.0065 367.4335,-345.0065 341.4335,-345.0065"/>
<text text-anchor="start" x="346.0322" y="-352.8065" font-family="Courier,monospace" font-size="14.00" fill="#000000"> 2</text>
<polygon fill="none" stroke="#0000ff" points="315.4335,-321.0065 315.4335,-345.0065 341.4335,-345.0065 341.4335,-321.0065 315.4335,-321.0065"/>
<text text-anchor="start" x="320.0322" y="-328.8065" font-family="Courier,monospace" font-size="14.00" fill="#000000"> 4</text>
<polygon fill="none" stroke="#0000ff" points="341.4335,-321.0065 341.4335,-345.0065 367.4335,-345.0065 367.4335,-321.0065 341.4335,-321.0065"/>
<text text-anchor="start" x="346.0322" y="-328.8065" font-family="Courier,monospace" font-size="14.00" fill="#000000">  </text>
<text text-anchor="start" x="320.4301" y="-305.8065" font-family="Courier,monospace" font-size="14.00" fill="#000000">1.000</text>
</g>
<!-- s0_0_1_1&#45;&gt;s0_1_2_0 -->
<g id="edge3" class="edge">
<title>s0_0_1_1:left_right&#45;&gt;s0_1_2_0</title>
<g id="a_edge3"><a xlink:title="0.300">
<path fill="none" stroke="#000000" stroke-width="1.6" d="M119.8112,-371.0065C173.7524,-371.0065 234.3463,-363.8962 279.8831,-357.1121"/>
<polygon fill="#000000" stroke="#000000" stroke-width="1.6" points="280.5871,-360.5454 289.9473,-355.5817 279.5347,-353.625 280.5871,-360.5454"/>
</a>
</g>
</g>
<!-- s0_0_2_2 -->
<g id="node6" class="node">
<title>s0_0_2_2</title>
<ellipse fill="none" stroke="#0000ff" cx="616.0559" cy="-793.0065" rx="60.623" ry="72.25"/>
<text text-anchor="start" x="602.8552" y="-824.8065" font-family="Courier,monospace" font-size="14.00" fill="#000000"> </text>
<path fill="none" stroke="#0000ff" d="M639.0559,-794.0065C639.0559,-794.0065 645.0559,-794.0065 645.0559,-794.0065 648.0559,-794.0065 651.0559,-797.0065 651.0559,-800.0065 651.0559,-800.0065 651.0559,-834.0065 651.0559,-834.0065 651.0559,-837.0065 648.0559,-840.0065 645.0559,-840.0065 645.0559,-840.0065 639.0559,-840.0065 639.0559,-840.0065 636.0559,-840.0065 633.0559,-837.0065 633.0559,-834.0065 633.0559,-834.0065 633.0559,-800.0065 633.0559,-800.0065 633.0559,-797.0065 636.0559,-794.0065 639.0559,-794.0065"/>
<text text-anchor="start" x="637.8552" y="-819.8065" font-family="Courier,monospace" font-size="14.00" fill="#000000">L</text>
<text text-anchor="start" x="637.8552" y="-805.8065" font-family="Courier,monospace" font-size="14.00" fill="#000000">R</text>
<polygon fill="none" stroke="#0000ff" points="581.0559,-794.0065 581.0559,-818.0065 607.0559,-818.0065 607.0559,-794.0065 581.0559,-794.0065"/>
<text text-anchor="start" x="585.6545" y="-801.8065" font-family="Courier,monospace" font-size="14.00" fill="#000000">  </text>
<polygon fill="none" stroke="#0000ff" points="607.0559,-794.0065 607.0559,-818.0065 633.0559,-818.0065 633.0559,-794.0065 607.0559,-794.0065"/>
<text text-anchor="start" x="611.6545" y="-801.8065" font-family="Courier,monospace" font-size="14.00" fill="#000000">  </text>
<polygon fill="none" stroke="#0000ff" points="581.0559,-770.0065 581.0559,-794.0065 607.0559,-794.0065 607.0559,-770.0065 581.0559,-770.0065"/>
<text text-anchor="start" x="585.6545" y="-777.8065" font-family="Courier,monospace" font-size="14.00" fill="#000000"> 4</text>
<polygon fill="none" stroke="#0000ff" points="607.0559,-770.0065 607.0559,-794.0065 633.0559,-794.0065 633.0559,-770.0065 607.0559,-770.0065"/>
<text text-anchor="start" x="611.6545" y="-777.8065" font-family="Courier,monospace" font-size="14.00" fill="#000000"> 4</text>
<path fill="none" stroke="#0000ff" d="M639.0559,-770.0065C639.0559,-770.0065 645.0559,-770.0065 645.0559,-770.0065 648.0559,-770.0065 651.0559,-773.0065 651.0559,-776.0065 651.0559,-776.0065 651.0559,-788.0065 651.0559,-788.0065 651.0559,-791.0065 648.0559,-794.0065 645.0559,-794.0065 645.0559,-794.0065 639.0559,-794.0065 639.0559,-794.0065 636.0559,-794.0065 633.0559,-791.0065 633.0559,-788.0065 633.0559,-788.0065 633.0559,-776.0065 633.0559,-776.0065 633.0559,-773.0065 636.0559,-770.0065 639.0559,-770.0065"/>
<text text-anchor="start" x="637.8552" y="-777.8065" font-family="Courier,monospace" font-size="14.00" fill="#000000">U</text>
<text text-anchor="start" x="586.0525" y="-753.8065" font-family="Courier,monospace" font-size="14.00" fill="#000000">1.000</text>
<path fill="none" stroke="#0000ff" d="M639.0559,-746.0065C639.0559,-746.0065 645.0559,-746.0065 645.0559,-746.0065 648.0559,-746.0065 651.0559,-749.0065 651.0559,-752.0065 651.0559,-752.0065 651.0559,-764.0065 651.0559,-764.0065 651.0559,-767.0065 648.0559,-770.0065 645.0559,-770.0065 645.0559,-770.0065 639.0559,-770.0065 639.0559,-770.0065 636.0559,-770.0065 633.0559,-767.0065 633.0559,-764.0065 633.0559,-764.0065 633.0559,-752.0065 633.0559,-752.0065 633.0559,-749.0065 636.0559,-746.0065 639.0559,-746.0065"/>
<text text-anchor="start" x="637.8552" y="-753.8065" font-family="Courier,monospace" font-size="14.00" fill="#c0c0c0">D</text>
</g>
<!-- s0_0_1_1&#45;&gt;s0_0_2_2 -->
<g id="edge2" class="edge">
<title>s0_0_1_1:left_right&#45;&gt;s0_0_2_2</title>
<g id="a_edge2"><a xlink:title="0.067">
<path fill="none" stroke="#000000" stroke-width="1.1333" d="M110.8112,-394.0065C110.8112,-432.4498 141.5487,-431.2204 161.6224,-464.0065 218.9139,-557.58 189.9904,-612.9853 273.6224,-684.0065 351.4027,-750.0584 469.573,-776.2022 544.7744,-786.4706"/>
<polygon fill="#000000" stroke="#000000" stroke-width="1.1333" points="544.723,-789.9935 555.0918,-787.8167 545.6287,-783.0523 544.723,-789.9935"/>
</a>
</g>
</g>
<!-- s0_2_2_0 -->
<g id="node9" class="node">
<title>s0_2_2_0</title>
<ellipse fill="none" stroke="#0000ff" cx="616.0559" cy="-632.0065" rx="60.623" ry="70.922"/>
<text text-anchor="start" x="602.8552" y="-662.8065" font-family="Courier,monospace" font-size="14.00" fill="#000000"> </text>
<path fill="none" stroke="#0000ff" d="M639.0559,-586.0065C639.0559,-586.0065 645.0559,-586.0065 645.0559,-586.0065 648.0559,-586.0065 651.0559,-589.0065 651.0559,-592.0065 651.0559,-592.0065 651.0559,-672.0065 651.0559,-672.0065 651.0559,-675.0065 648.0559,-678.0065 645.0559,-678.0065 645.0559,-678.0065 639.0559,-678.0065 639.0559,-678.0065 636.0559,-678.0065 633.0559,-675.0065 633.0559,-672.0065 633.0559,-672.0065 633.0559,-592.0065 633.0559,-592.0065 633.0559,-589.0065 636.0559,-586.0065 639.0559,-586.0065"/>
<text text-anchor="start" x="637.8552" y="-648.8065" font-family="Courier,monospace" font-size="14.00" fill="#000000">L</text>
<text text-anchor="start" x="637.8552" y="-634.8065" font-family="Courier,monospace" font-size="14.00" fill="#000000">R</text>
<text text-anchor="start" x="637.8552" y="-620.8065" font-family="Courier,monospace" font-size="14.00" fill="#000000">U</text>
<text text-anchor="start" x="637.8552" y="-606.8065" font-family="Courier,monospace" font-size="14.00" fill="#000000">D</text>
<polygon fill="none" stroke="#0000ff" points="581.0559,-632.0065 581.0559,-656.0065 607.0559,-656.0065 607.0559,-632.0065 581.0559,-632.0065"/>
<text text-anchor="start" x="585.6545" y="-639.8065" font-family="Courier,monospace" font-size="14.00" fill="#000000">  </text>
<polygon fill="none" stroke="#0000ff" points="607.0559,-632.0065 607.0559,-656.0065 633.0559,-656.0065 633.0559,-632.0065 607.0559,-632.0065"/>
<text text-anchor="start" x="611.6545" y="-639.8065" font-family="Courier,monospace" font-size="14.00" fill="#000000"> 4</text>
<polygon fill="none" stroke="#0000ff" points="581.0559,-608.0065 581.0559,-632.0065 607.0559,-632.0065 607.0559,-608.0065 581.0559,-608.0065"/>
<text text-anchor="start" x="585.6545" y="-615.8065" font-family="Courier,monospace" font-size="14.00" fill="#000000"> 4</text>
<polygon fill="none" stroke="#0000ff" points="607.0559,-608.0065 607.0559,-632.0065 633.0559,-632.0065 633.0559,-608.0065 607.0559,-608.0065"/>
<text text-anchor="start" x="611.6545" y="-615.8065" font-family="Courier,monospace" font-size="14.00" fill="#000000">  </text>
<text text-anchor="start" x="586.0525" y="-592.8065" font-family="Courier,monospace" font-size="14.00" fill="#000000">1.000</text>
</g>
<!-- s0_0_1_1&#45;&gt;s0_2_2_0 -->
<g id="edge4" class="edge">
<title>s0_0_1_1:left_right&#45;&gt;s0_2_2_0</title>
<g id="a_edge4"><a xlink:title="0.033">
<path fill="none" stroke="#000000" stroke-width="1.0667" d="M110.8112,-394.0065C110.8112,-432.4498 140.6196,-431.8077 161.6224,-464.0065 215.5948,-546.7506 187.9568,-606.8028 273.6224,-656.0065 358.6897,-704.8667 475.9407,-680.9692 548.8152,-657.6797"/>
<polygon fill="#000000" stroke="#000000" stroke-width="1.0667" points="549.943,-660.9933 558.3557,-654.553 547.763,-654.3414 549.943,-660.9933"/>
</a>
</g>
</g>
<!-- s0_1_1_0 -->
<g id="node2" class="node">
<title>s0_1_1_0</title>
<ellipse fill="none" stroke="#0000ff" cx="84.8112" cy="-186.0065" rx="60.623" ry="70.922"/>
<text text-anchor="start" x="71.6105" y="-216.8065" font-family="Courier,monospace" font-size="14.00" fill="#000000"> </text>
<path fill="none" stroke="#0000ff" d="M107.8112,-140.0065C107.8112,-140.0065 113.8112,-140.0065 113.8112,-140.0065 116.8112,-140.0065 119.8112,-143.0065 119.8112,-146.0065 119.8112,-146.0065 119.8112,-226.0065 119.8112,-226.0065 119.8112,-229.0065 116.8112,-232.0065 113.8112,-232.0065 113.8112,-232.0065 107.8112,-232.0065 107.8112,-232.0065 104.8112,-232.0065 101.8112,-229.0065 101.8112,-226.0065 101.8112,-226.0065 101.8112,-146.0065 101.8112,-146.0065 101.8112,-143.0065 104.8112,-140.0065 107.8112,-140.0065"/>
<text text-anchor="start" x="106.6105" y="-202.8065" font-family="Courier,monospace" font-size="14.00" fill="#000000">L</text>
<text text-anchor="start" x="106.6105" y="-188.8065" font-family="Courier,monospace" font-size="14.00" fill="#000000">R</text>
<text text-anchor="start" x="106.6105" y="-174.8065" font-family="Courier,monospace" font-size="14.00" fill="#000000">U</text>
<text text-anchor="start" x="106.6105" y="-160.8065" font-family="Courier,monospace" font-size="14.00" fill="#000000">D</text>
<polygon fill="none" stroke="#0000ff" points="49.8112,-186.0065 49.8112,-210.0065 75.8112,-210.0065 75.8112,-186.0065 49.8112,-186.0065"/>
<text text-anchor="start" x="54.4098" y="-193.8065" font-family="Courier,monospace" font-size="14.00" fill="#000000">  </text>
<polygon fill="none" stroke="#0000ff" points="75.8112,-186.0065 75.8112,-210.0065 101.8112,-210.0065 101.8112,-186.0065 75.8112,-186.0065"/>
<text text-anchor="start" x="80.4098" y="-193.8065" font-family="Courier,monospace" font-size="14.00" fill="#000000"> 2</text>
<polygon fill="none" stroke="#0000ff" points="49.8112,-162.0065 49.8112,-186.0065 75.8112,-186.0065 75.8112,-162.0065 49.8112,-162.0065"/>
<text text-anchor="start" x="54.4098" y="-169.8065" font-family="Courier,monospace" font-size="14.00" fill="#000000"> 2</text>
<polygon fill="none" stroke="#0000ff" points="75.8112,-162.0065 75.8112,-186.0065 101.8112,-186.0065 101.8112,-162.0065 75.8112,-162.0065"/>
<text text-anchor="start" x="80.4098" y="-169.8065" font-family="Courier,monospace" font-size="14.00" fill="#000000">  </text>
<text text-anchor="start" x="54.8078" y="-146.8065" font-family="Courier,monospace" font-size="14.00" fill="#000000">1.000</text>
</g>
<!-- s0_1_1_1 -->
<g id="node3" class="node">
<title>s0_1_1_1</title>
<ellipse fill="none" stroke="#000000" cx="350.4335" cy="-186.0065" rx="60.623" ry="70.922"/>
<text text-anchor="start" x="337.2329" y="-216.8065" font-family="Courier,monospace" font-size="14.00" fill="#000000"> </text>
<path fill="none" stroke="#000000" d="M373.4335,-140.0065C373.4335,-140.0065 379.4335,-140.0065 379.4335,-140.0065 382.4335,-140.0065 385.4335,-143.0065 385.4335,-146.0065 385.4335,-146.0065 385.4335,-226.0065 385.4335,-226.0065 385.4335,-229.0065 382.4335,-232.0065 379.4335,-232.0065 379.4335,-232.0065 373.4335,-232.0065 373.4335,-232.0065 370.4335,-232.0065 367.4335,-229.0065 367.4335,-226.0065 367.4335,-226.0065 367.4335,-146.0065 367.4335,-146.0065 367.4335,-143.0065 370.4335,-140.0065 373.4335,-140.0065"/>
<text text-anchor="start" x="372.2329" y="-202.8065" font-family="Courier,monospace" font-size="14.00" fill="#000000">L</text>
<text text-anchor="start" x="372.2329" y="-188.8065" font-family="Courier,monospace" font-size="14.00" fill="#000000">R</text>
<text text-anchor="start" x="372.2329" y="-174.8065" font-family="Courier,monospace" font-size="14.00" fill="#000000">U</text>
<text text-anchor="start" x="372.2329" y="-160.8065" font-family="Courier,monospace" font-size="14.00" fill="#000000">D</text>
<polygon fill="none" stroke="#000000" points="315.4335,-186.0065 315.4335,-210.0065 341.4335,-210.0065 341.4335,-186.0065 315.4335,-186.0065"/>
<text text-anchor="start" x="320.0322" y="-193.8065" font-family="Courier,monospace" font-size="14.00" fill="#000000">  </text>
<polygon fill="none" stroke="#000000" points="341.4335,-186.0065 341.4335,-210.0065 367.4335,-210.0065 367.4335,-186.0065 341.4335,-186.0065"/>
<text text-anchor="start" x="346.0322" y="-193.8065" font-family="Courier,monospace" font-size="14.00" fill="#000000"> 2</text>
<polygon fill="none" stroke="#000000" points="315.4335,-162.0065 315.4335,-186.0065 341.4335,-186.0065 341.4335,-162.0065 315.4335,-162.0065"/>
<text text-anchor="start" x="320.0322" y="-169.8065" font-family="Courier,monospace" font-size="14.00" fill="#000000"> 2</text>
<polygon fill="none" stroke="#000000" points="341.4335,-162.0065 341.4335,-186.0065 367.4335,-186.0065 367.4335,-162.0065 341.4335,-162.0065"/>
<text text-anchor="start" x="346.0322" y="-169.8065" font-family="Courier,monospace" font-size="14.00" fill="#000000"> 2</text>
<text text-anchor="start" x="320.4301" y="-146.8065" font-family="Courier,monospace" font-size="14.00" fill="#000000">1.000</text>
</g>
<!-- s0_1_1_0&#45;&gt;s0_1_1_1 -->
<g id="edge5" class="edge">
<title>s0_1_1_0:left_right_up_down&#45;&gt;s0_1_1_1</title>
<g id="a_edge5"><a xlink:title="0.900">
<path fill="none" stroke="#000000" stroke-width="2.8" d="M119.8112,-186.0065C173.2267,-186.0065 233.6015,-186.0065 279.1755,-186.0065"/>
<polygon fill="#000000" stroke="#000000" stroke-width="2.8" points="279.2524,-189.5066 289.2524,-186.0065 279.2523,-182.5066 279.2524,-189.5066"/>
</a>
</g>
</g>
<!-- s0_1_2_1 -->
<g id="node8" class="node">
<title>s0_1_2_1</title>
<ellipse fill="none" stroke="#000000" cx="616.0559" cy="-471.0065" rx="60.623" ry="72.25"/>
<text text-anchor="start" x="602.8552" y="-501.8065" font-family="Courier,monospace" font-size="14.00" fill="#000000"> </text>
<path fill="none" stroke="#000000" d="M639.0559,-494.0065C639.0559,-494.0065 645.0559,-494.0065 645.0559,-494.0065 648.0559,-494.0065 651.0559,-497.0065 651.0559,-500.0065 651.0559,-500.0065 651.0559,-512.0065 651.0559,-512.0065 651.0559,-515.0065 648.0559,-518.0065 645.0559,-518.0065 645.0559,-518.0065 639.0559,-518.0065 639.0559,-518.0065 636.0559,-518.0065 633.0559,-515.0065 633.0559,-512.0065 633.0559,-512.0065 633.0559,-500.0065 633.0559,-500.0065 633.0559,-497.0065 636.0559,-494.0065 639.0559,-494.0065"/>
<text text-anchor="start" x="637.8552" y="-501.8065" font-family="Courier,monospace" font-size="14.00" fill="#000000">L</text>
<polygon fill="none" stroke="#000000" points="581.0559,-470.0065 581.0559,-494.0065 607.0559,-494.0065 607.0559,-470.0065 581.0559,-470.0065"/>
<text text-anchor="start" x="585.6545" y="-477.8065" font-family="Courier,monospace" font-size="14.00" fill="#000000">  </text>
<polygon fill="none" stroke="#000000" points="607.0559,-470.0065 607.0559,-494.0065 633.0559,-494.0065 633.0559,-470.0065 607.0559,-470.0065"/>
<text text-anchor="start" x="611.6545" y="-477.8065" font-family="Courier,monospace" font-size="14.00" fill="#000000"> 2</text>
<path fill="none" stroke="#000000" d="M639.0559,-470.0065C639.0559,-470.0065 645.0559,-470.0065 645.0559,-470.0065 648.0559,-470.0065 651.0559,-473.0065 651.0559,-476.0065 651.0559,-476.0065 651.0559,-488.0065 651.0559,-488.0065 651.0559,-491.0065 648.0559,-494.0065 645.0559,-494.0065 645.0559,-494.0065 639.0559,-494.0065 639.0559,-494.0065 636.0559,-494.0065 633.0559,-491.0065 633.0559,-488.0065 633.0559,-488.0065 633.0559,-476.0065 633.0559,-476.0065 633.0559,-473.0065 636.0559,-470.0065 639.0559,-470.0065"/>
<text text-anchor="start" x="637.8552" y="-477.8065" font-family="Courier,monospace" font-size="14.00" fill="#c0c0c0">R</text>
<polygon fill="none" stroke="#000000" points="581.0559,-446.0065 581.0559,-470.0065 607.0559,-470.0065 607.0559,-446.0065 581.0559,-446.0065"/>
<text text-anchor="start" x="585.6545" y="-453.8065" font-family="Courier,monospace" font-size="14.00" fill="#000000"> 4</text>
<polygon fill="none" stroke="#000000" points="607.0559,-446.0065 607.0559,-470.0065 633.0559,-470.0065 633.0559,-446.0065 607.0559,-446.0065"/>
<text text-anchor="start" x="611.6545" y="-453.8065" font-family="Courier,monospace" font-size="14.00" fill="#000000"> 2</text>
<path fill="none" stroke="#000000" d="M639.0559,-424.0065C639.0559,-424.0065 645.0559,-424.0065 645.0559,-424.0065 648.0559,-424.0065 651.0559,-427.0065 651.0559,-430.0065 651.0559,-430.0065 651.0559,-464.0065 651.0559,-464.0065 651.0559,-467.0065 648.0559,-470.0065 645.0559,-470.0065 645.0559,-470.0065 639.0559,-470.0065 639.0559,-470.0065 636.0559,-470.0065 633.0559,-467.0065 633.0559,-464.0065 633.0559,-464.0065 633.0559,-430.0065 633.0559,-430.0065 633.0559,-427.0065 636.0559,-424.0065 639.0559,-424.0065"/>
<text text-anchor="start" x="637.8552" y="-449.8065" font-family="Courier,monospace" font-size="14.00" fill="#000000">U</text>
<text text-anchor="start" x="637.8552" y="-435.8065" font-family="Courier,monospace" font-size="14.00" fill="#000000">D</text>
<text text-anchor="start" x="586.0525" y="-430.8065" font-family="Courier,monospace" font-size="14.00" fill="#000000">1.000</text>
</g>
<!-- s0_1_1_0&#45;&gt;s0_1_2_1 -->
<g id="edge6" class="edge">
<title>s0_1_1_0:left_right_up_down&#45;&gt;s0_1_2_1</title>
<g id="a_edge6"><a xlink:title="0.100">
<path fill="none" stroke="#000000" stroke-width="1.2" d="M110.8112,-232.0065C110.8112,-259.1787 145.3137,-244.2729 161.6224,-266.0065 260.6672,-397.9979 140.4947,-522.4943 273.6224,-620.0065 365.3432,-687.1895 492.0853,-592.4168 562.8315,-526.0441"/>
<polygon fill="#000000" stroke="#000000" stroke-width="1.2" points="565.4996,-528.3369 570.3375,-518.9111 560.6775,-523.2627 565.4996,-528.3369"/>
</a>
</g>
</g>
<!-- s0_1_1_2 -->
<g id="node7" class="node">
<title>s0_1_1_2</title>
<ellipse fill="none" stroke="#000000" cx="616.0559" cy="-310.0065" rx="60.623" ry="70.922"/>
<text text-anchor="start" x="602.8552" y="-340.8065" font-family="Courier,monospace" font-size="14.00" fill="#000000"> </text>
<path fill="none" stroke="#000000" d="M639.0559,-310.0065C639.0559,-310.0065 645.0559,-310.0065 645.0559,-310.0065 648.0559,-310.0065 651.0559,-313.0065 651.0559,-316.0065 651.0559,-316.0065 651.0559,-350.0065 651.0559,-350.0065 651.0559,-353.0065 648.0559,-356.0065 645.0559,-356.0065 645.0559,-356.0065 639.0559,-356.0065 639.0559,-356.0065 636.0559,-356.0065 633.0559,-353.0065 633.0559,-350.0065 633.0559,-350.0065 633.0559,-316.0065 633.0559,-316.0065 633.0559,-313.0065 636.0559,-310.0065 639.0559,-310.0065"/>
<text text-anchor="start" x="637.8552" y="-335.8065" font-family="Courier,monospace" font-size="14.00" fill="#000000">L</text>
<text text-anchor="start" x="637.8552" y="-321.8065" font-family="Courier,monospace" font-size="14.00" fill="#000000">U</text>
<polygon fill="none" stroke="#000000" points="581.0559,-310.0065 581.0559,-334.0065 607.0559,-334.0065 607.0559,-310.0065 581.0559,-310.0065"/>
<text text-anchor="start" x="585.6545" y="-317.8065" font-family="Courier,monospace" font-size="14.00" fill="#000000">  </text>
<polygon fill="none" stroke="#000000" points="607.0559,-310.0065 607.0559,-334.0065 633.0559,-334.0065 633.0559,-310.0065 607.0559,-310.0065"/>
<text text-anchor="start" x="611.6545" y="-317.8065" font-family="Courier,monospace" font-size="14.00" fill="#000000"> 2</text>
<polygon fill="none" stroke="#000000" points="581.0559,-286.0065 581.0559,-310.0065 607.0559,-310.0065 607.0559,-286.0065 581.0559,-286.0065"/>
<text text-anchor="start" x="585.6545" y="-293.8065" font-family="Courier,monospace" font-size="14.00" fill="#000000"> 2</text>
<polygon fill="none" stroke="#000000" points="607.0559,-286.0065 607.0559,-310.0065 633.0559,-310.0065 633.0559,-286.0065 607.0559,-286.0065"/>
<text text-anchor="start" x="611.6545" y="-293.8065" font-family="Courier,monospace" font-size="14.00" fill="#000000"> 4</text>
<path fill="none" stroke="#000000" d="M639.0559,-264.0065C639.0559,-264.0065 645.0559,-264.0065 645.0559,-264.0065 648.0559,-264.0065 651.0559,-267.0065 651.0559,-270.0065 651.0559,-270.0065 651.0559,-304.0065 651.0559,-304.0065 651.0559,-307.0065 648.0559,-310.0065 645.0559,-310.0065 645.0559,-310.0065 639.0559,-310.0065 639.0559,-310.0065 636.0559,-310.0065 633.0559,-307.0065 633.0559,-304.0065 633.0559,-304.0065 633.0559,-270.0065 633.0559,-270.0065 633.0559,-267.0065 636.0559,-264.0065 639.0559,-264.0065"/>
<text text-anchor="start" x="637.8552" y="-289.8065" font-family="Courier,monospace" font-size="14.00" fill="#c0c0c0">R</text>
<text text-anchor="start" x="637.8552" y="-275.8065" font-family="Courier,monospace" font-size="14.00" fill="#c0c0c0">D</text>
<text text-anchor="start" x="586.0525" y="-270.8065" font-family="Courier,monospace" font-size="14.00" fill="#000000">1.000</text>
</g>
<!-- s0_1_1_1&#45;&gt;s0_1_1_2 -->
<g id="edge7" class="edge">
<title>s0_1_1_1:left_right_up_down&#45;&gt;s0_1_1_2</title>
<g id="a_edge7"><a xlink:title="0.450">
<path fill="none" stroke="#000000" stroke-width="1.9" d="M376.4335,-232.0065C376.4335,-250.026 475.6774,-277.1574 546.4266,-294.2095"/>
<polygon fill="#000000" stroke="#000000" stroke-width="1.9" points="545.6675,-297.6266 556.2072,-296.5467 547.2945,-290.8183 545.6675,-297.6266"/>
</a>
</g>
</g>
<!-- s0_1_1_1&#45;&gt;s0_1_2_1 -->
<g id="edge8" class="edge">
<title>s0_1_1_1:left_right_up_down&#45;&gt;s0_1_2_1</title>
<g id="a_edge8"><a xlink:title="0.450">
<path fill="none" stroke="#000000" stroke-width="1.9" d="M376.4335,-232.0065C376.4335,-258.9341 406.7906,-247.4932 427.2447,-265.0065 483.9063,-313.5216 488.6869,-335.1599 539.2447,-390.0065 546.9658,-398.3826 555.1908,-407.1826 563.2813,-415.7704"/>
<polygon fill="#000000" stroke="#000000" stroke-width="1.9" points="560.9302,-418.3785 570.3404,-423.2466 566.0199,-413.5727 560.9302,-418.3785"/>
</a>
</g>
</g>
<!-- s0_1_2_2 -->
<g id="node10" class="node">
<title>s0_1_2_2</title>
<ellipse fill="none" stroke="#000000" cx="881.6783" cy="-386.0065" rx="60.623" ry="72.25"/>
<text text-anchor="start" x="868.4776" y="-417.8065" font-family="Courier,monospace" font-size="14.00" fill="#000000"> </text>
<path fill="none" stroke="#000000" d="M904.6783,-387.0065C904.6783,-387.0065 910.6783,-387.0065 910.6783,-387.0065 913.6783,-387.0065 916.6783,-390.0065 916.6783,-393.0065 916.6783,-393.0065 916.6783,-427.0065 916.6783,-427.0065 916.6783,-430.0065 913.6783,-433.0065 910.6783,-433.0065 910.6783,-433.0065 904.6783,-433.0065 904.6783,-433.0065 901.6783,-433.0065 898.6783,-430.0065 898.6783,-427.0065 898.6783,-427.0065 898.6783,-393.0065 898.6783,-393.0065 898.6783,-390.0065 901.6783,-387.0065 904.6783,-387.0065"/>
<text text-anchor="start" x="903.4776" y="-412.8065" font-family="Courier,monospace" font-size="14.00" fill="#000000">L</text>
<text text-anchor="start" x="903.4776" y="-398.8065" font-family="Courier,monospace" font-size="14.00" fill="#000000">R</text>
<polygon fill="none" stroke="#000000" points="846.6783,-387.0065 846.6783,-411.0065 872.6783,-411.0065 872.6783,-387.0065 846.6783,-387.0065"/>
<text text-anchor="start" x="851.2769" y="-394.8065" font-family="Courier,monospace" font-size="14.00" fill="#000000">  </text>
<polygon fill="none" stroke="#000000" points="872.6783,-387.0065 872.6783,-411.0065 898.6783,-411.0065 898.6783,-387.0065 872.6783,-387.0065"/>
<text text-anchor="start" x="877.2769" y="-394.8065" font-family="Courier,monospace" font-size="14.00" fill="#000000"> 2</text>
<polygon fill="none" stroke="#000000" points="846.6783,-363.0065 846.6783,-387.0065 872.6783,-387.0065 872.6783,-363.0065 846.6783,-363.0065"/>
<text text-anchor="start" x="851.2769" y="-370.8065" font-family="Courier,monospace" font-size="14.00" fill="#000000"> 4</text>
<polygon fill="none" stroke="#000000" points="872.6783,-363.0065 872.6783,-387.0065 898.6783,-387.0065 898.6783,-363.0065 872.6783,-363.0065"/>
<text text-anchor="start" x="877.2769" y="-370.8065" font-family="Courier,monospace" font-size="14.00" fill="#000000"> 4</text>
<path fill="none" stroke="#000000" d="M904.6783,-363.0065C904.6783,-363.0065 910.6783,-363.0065 910.6783,-363.0065 913.6783,-363.0065 916.6783,-366.0065 916.6783,-369.0065 916.6783,-369.0065 916.6783,-381.0065 916.6783,-381.0065 916.6783,-384.0065 913.6783,-387.0065 910.6783,-387.0065 910.6783,-387.0065 904.6783,-387.0065 904.6783,-387.0065 901.6783,-387.0065 898.6783,-384.0065 898.6783,-381.0065 898.6783,-381.0065 898.6783,-369.0065 898.6783,-369.0065 898.6783,-366.0065 901.6783,-363.0065 904.6783,-363.0065"/>
<text text-anchor="start" x="903.4776" y="-370.8065" font-family="Courier,monospace" font-size="14.00" fill="#000000">U</text>
<text text-anchor="start" x="851.6749" y="-346.8065" font-family="Courier,monospace" font-size="14.00" fill="#000000">1.000</text>
<path fill="none" stroke="#000000" d="M904.6783,-339.0065C904.6783,-339.0065 910.6783,-339.0065 910.6783,-339.0065 913.6783,-339.0065 916.6783,-342.0065 916.6783,-345.0065 916.6783,-345.0065 916.6783,-357.0065 916.6783,-357.0065 916.6783,-360.0065 913.6783,-363.0065 910.6783,-363.0065 910.6783,-363.0065 904.6783,-363.0065 904.6783,-363.0065 901.6783,-363.0065 898.6783,-360.0065 898.6783,-357.0065 898.6783,-357.0065 898.6783,-345.0065 898.6783,-345.0065 898.6783,-342.0065 901.6783,-339.0065 904.6783,-339.0065"/>
<text text-anchor="start" x="903.4776" y="-346.8065" font-family="Courier,monospace" font-size="14.00" fill="#c0c0c0">D</text>
</g>
<!-- s0_1_1_1&#45;&gt;s0_1_2_2 -->
<g id="edge9" class="edge">
<title>s0_1_1_1:left_right_up_down&#45;&gt;s0_1_2_2</title>
<g id="a_edge9"><a xlink:title="0.050">
<path fill="none" stroke="#000000" stroke-width="1.1" d="M376.4335,-140.0065C376.4335,-122.5769 442.065,-25.5863 692.8671,-160.0065 764.639,-198.4735 751.8945,-243.1614 804.8671,-305.0065 812.2778,-313.6584 820.3349,-322.6077 828.351,-331.2615"/>
<polygon fill="#000000" stroke="#000000" stroke-width="1.1" points="825.9844,-333.8554 835.3676,-338.7755 831.1006,-329.0779 825.9844,-333.8554"/>
</a>
</g>
</g>
<!-- s0_2_2_1 -->
<g id="node11" class="node">
<title>s0_2_2_1</title>
<ellipse fill="none" stroke="#000000" cx="881.6783" cy="-225.0065" rx="60.623" ry="70.922"/>
<text text-anchor="start" x="868.4776" y="-255.8065" font-family="Courier,monospace" font-size="14.00" fill="#000000"> </text>
<path fill="none" stroke="#000000" d="M904.6783,-225.0065C904.6783,-225.0065 910.6783,-225.0065 910.6783,-225.0065 913.6783,-225.0065 916.6783,-228.0065 916.6783,-231.0065 916.6783,-231.0065 916.6783,-265.0065 916.6783,-265.0065 916.6783,-268.0065 913.6783,-271.0065 910.6783,-271.0065 910.6783,-271.0065 904.6783,-271.0065 904.6783,-271.0065 901.6783,-271.0065 898.6783,-268.0065 898.6783,-265.0065 898.6783,-265.0065 898.6783,-231.0065 898.6783,-231.0065 898.6783,-228.0065 901.6783,-225.0065 904.6783,-225.0065"/>
<text text-anchor="start" x="903.4776" y="-250.8065" font-family="Courier,monospace" font-size="14.00" fill="#000000">L</text>
<text text-anchor="start" x="903.4776" y="-236.8065" font-family="Courier,monospace" font-size="14.00" fill="#000000">U</text>
<polygon fill="none" stroke="#000000" points="846.6783,-225.0065 846.6783,-249.0065 872.6783,-249.0065 872.6783,-225.0065 846.6783,-225.0065"/>
<text text-anchor="start" x="851.2769" y="-232.8065" font-family="Courier,monospace" font-size="14.00" fill="#000000">  </text>
<polygon fill="none" stroke="#000000" points="872.6783,-225.0065 872.6783,-249.0065 898.6783,-249.0065 898.6783,-225.0065 872.6783,-225.0065"/>
<text text-anchor="start" x="877.2769" y="-232.8065" font-family="Courier,monospace" font-size="14.00" fill="#000000"> 4</text>
<polygon fill="none" stroke="#000000" points="846.6783,-201.0065 846.6783,-225.0065 872.6783,-225.0065 872.6783,-201.0065 846.6783,-201.0065"/>
<text text-anchor="start" x="851.2769" y="-208.8065" font-family="Courier,monospace" font-size="14.00" fill="#000000"> 4</text>
<polygon fill="none" stroke="#000000" points="872.6783,-201.0065 872.6783,-225.0065 898.6783,-225.0065 898.6783,-201.0065 872.6783,-201.0065"/>
<text text-anchor="start" x="877.2769" y="-208.8065" font-family="Courier,monospace" font-size="14.00" fill="#000000"> 2</text>
<path fill="none" stroke="#000000" d="M904.6783,-179.0065C904.6783,-179.0065 910.6783,-179.0065 910.6783,-179.0065 913.6783,-179.0065 916.6783,-182.0065 916.6783,-185.0065 916.6783,-185.0065 916.6783,-219.0065 916.6783,-219.0065 916.6783,-222.0065 913.6783,-225.0065 910.6783,-225.0065 910.6783,-225.0065 904.6783,-225.0065 904.6783,-225.0065 901.6783,-225.0065 898.6783,-222.0065 898.6783,-219.0065 898.6783,-219.0065 898.6783,-185.0065 898.6783,-185.0065 898.6783,-182.0065 901.6783,-179.0065 904.6783,-179.0065"/>
<text text-anchor="start" x="903.4776" y="-204.8065" font-family="Courier,monospace" font-size="14.00" fill="#c0c0c0">R</text>
<text text-anchor="start" x="903.4776" y="-190.8065" font-family="Courier,monospace" font-size="14.00" fill="#c0c0c0">D</text>
<text text-anchor="start" x="851.6749" y="-185.8065" font-family="Courier,monospace" font-size="14.00" fill="#000000">1.000</text>
</g>
<!-- s0_1_1_1&#45;&gt;s0_2_2_1 -->
<g id="edge10" class="edge">
<title>s0_1_1_1:left_right_up_down&#45;&gt;s0_2_2_1</title>
<g id="a_edge10"><a xlink:title="0.050">
<path fill="none" stroke="#000000" stroke-width="1.1" d="M376.4335,-140.0065C376.4335,8.7405 555.8317,26.8465 692.8671,-31.0065 754.4168,-56.9913 805.8293,-113.936 839.3845,-159.4455"/>
<polygon fill="#000000" stroke="#000000" stroke-width="1.1" points="836.7377,-161.7577 845.4406,-167.8 842.4053,-157.6493 836.7377,-161.7577"/>
</a>
</g>
</g>
<!-- s0_0_1_2&#45;&gt;s0_1_1_2 -->
<g id="edge11" class="edge">
<title>s0_0_1_2:up&#45;&gt;s0_1_1_2</title>
<g id="a_edge11"><a xlink:title="0.450">
<path fill="none" stroke="#000000" stroke-width="1.9" d="M385.4335,-471.0065C424.6444,-471.0065 505.423,-407.6421 560.1821,-360.4166"/>
<polygon fill="#000000" stroke="#000000" stroke-width="1.9" points="562.8063,-362.7734 568.0645,-353.5755 558.2181,-357.4868 562.8063,-362.7734"/>
</a>
</g>
</g>
<!-- s0_0_1_2&#45;&gt;s0_1_2_1 -->
<g id="edge12" class="edge">
<title>s0_0_1_2:up&#45;&gt;s0_1_2_1</title>
<g id="a_edge12"><a xlink:title="0.450">
<path fill="none" stroke="#000000" stroke-width="1.9" d="M385.4335,-471.0065C438.8491,-471.0065 499.2238,-471.0065 544.7978,-471.0065"/>
<polygon fill="#000000" stroke="#000000" stroke-width="1.9" points="544.8748,-474.5066 554.8747,-471.0065 544.8747,-467.5066 544.8748,-474.5066"/>
</a>
</g>
</g>
<!-- s0_0_1_2&#45;&gt;s0_1_2_2 -->
<g id="edge13" class="edge">
<title>s0_0_1_2:up&#45;&gt;s0_1_2_2</title>
<g id="a_edge13"><a xlink:title="0.050">
<path fill="none" stroke="#000000" stroke-width="1.1" d="M376.4335,-459.0065C376.4335,-431.8344 408.9322,-445.0809 427.2447,-425.0065 497.478,-348.0161 449.6687,-272.2643 539.2447,-219.0065 597.932,-184.1138 629.0176,-194.8211 692.8671,-219.0065 723.8801,-230.7539 784.3519,-287.127 828.5303,-331.1677"/>
<polygon fill="#000000" stroke="#000000" stroke-width="1.1" points="826.207,-333.7944 835.7492,-338.3985 831.1609,-328.8487 826.207,-333.7944"/>
</a>
</g>
</g>
<!-- s0_0_1_2&#45;&gt;s0_2_2_1 -->
<g id="edge14" class="edge">
<title>s0_0_1_2:up&#45;&gt;s0_2_2_1</title>
<g id="a_edge14"><a xlink:title="0.050">
<path fill="none" stroke="#000000" stroke-width="1.1" d="M376.4335,-459.0065C376.4335,-431.8344 409.4388,-445.5315 427.2447,-425.0065 502.5374,-338.216 441.9797,-253.1711 539.2447,-192.0065 622.9547,-139.366 741.6191,-168.6185 815.0108,-195.8548"/>
<polygon fill="#000000" stroke="#000000" stroke-width="1.1" points="814.0241,-199.2239 824.6152,-199.5035 816.5101,-192.6802 814.0241,-199.2239"/>
</a>
</g>
</g>
<!-- s0_1_2_0&#45;&gt;s0_1_1_2 -->
<g id="edge15" class="edge">
<title>s0_1_2_0:left_right_up_down&#45;&gt;s0_1_1_2</title>
<g id="a_edge15"><a xlink:title="0.450">
<path fill="none" stroke="#000000" stroke-width="1.9" d="M385.4335,-345.0065C439.8372,-345.0065 500.651,-335.3683 546.1657,-326.2074"/>
<polygon fill="#000000" stroke="#000000" stroke-width="1.9" points="547.1297,-329.5826 556.2207,-324.1415 545.7208,-322.7258 547.1297,-329.5826"/>
</a>
</g>
</g>
<!-- s0_1_2_0&#45;&gt;s0_1_2_1 -->
<g id="edge16" class="edge">
<title>s0_1_2_0:left_right_up_down&#45;&gt;s0_1_2_1</title>
<g id="a_edge16"><a xlink:title="0.450">
<path fill="none" stroke="#000000" stroke-width="1.9" d="M376.4335,-391.0065C376.4335,-409.0708 475.6774,-437.0176 546.4266,-454.6454"/>
<polygon fill="#000000" stroke="#000000" stroke-width="1.9" points="545.6596,-458.0611 556.2072,-457.0622 547.3388,-451.2655 545.6596,-458.0611"/>
</a>
</g>
</g>
<!-- s0_1_2_0&#45;&gt;s0_1_2_2 -->
<g id="edge17" class="edge">
<title>s0_1_2_0:left_right_up_down&#45;&gt;s0_1_2_2</title>
<g id="a_edge17"><a xlink:title="0.050">
<path fill="none" stroke="#000000" stroke-width="1.1" d="M376.4335,-299.0065C376.4335,-272.079 405.1256,-281.3635 427.2447,-266.0065 478.1378,-230.6722 480.4116,-202.4302 539.2447,-183.0065 604.0793,-161.6015 630.36,-155.5372 692.8671,-183.0065 760.2534,-212.6201 754.6525,-251.1886 804.8671,-305.0065 812.6386,-313.3358 820.891,-322.1105 828.9935,-330.687"/>
<polygon fill="#000000" stroke="#000000" stroke-width="1.1" points="826.6449,-333.2973 836.0596,-338.1568 831.7302,-328.4869 826.6449,-333.2973"/>
</a>
</g>
</g>
<!-- s0_1_2_0&#45;&gt;s0_2_2_1 -->
<g id="edge18" class="edge">
<title>s0_1_2_0:left_right_up_down&#45;&gt;s0_2_2_1</title>
<g id="a_edge18"><a xlink:title="0.050">
<path fill="none" stroke="#000000" stroke-width="1.1" d="M376.4335,-299.0065C376.4335,-272.079 406.0873,-282.6635 427.2447,-266.0065 481.0953,-223.6108 475.5702,-185.3608 539.2447,-160.0065 631.6518,-123.2114 746.565,-160.463 816.988,-191.8438"/>
<polygon fill="#000000" stroke="#000000" stroke-width="1.1" points="815.6463,-195.0784 826.1985,-196.0279 818.5415,-188.7052 815.6463,-195.0784"/>
</a>
</g>
</g>
<!-- s0_0_0_3 -->
<g id="node17" class="node">
<title>s0_0_0_3</title>
<polygon fill="#00ff00" stroke="#000000" points="1459.9225,-558.0684 1418.7666,-558.0684 1406.0487,-597.1014 1393.3308,-558.0684 1352.1749,-558.0684 1385.4707,-533.9447 1372.7529,-494.9117 1406.0487,-519.0354 1439.3445,-494.9117 1426.6267,-533.9447 1459.9225,-558.0684"/>
<text text-anchor="middle" x="1406.0487" y="-541.8065" font-family="Courier,monospace" font-size="14.00" fill="#000000">win</text>
</g>
<!-- s0_0_2_2&#45;&gt;s0_0_0_3 -->
<g id="edge19" class="edge">
<title>s0_0_2_2:left_right&#45;&gt;s0_0_0_3</title>
<g id="a_edge19"><a xlink:title="1.000">
<path fill="none" stroke="#000000" stroke-width="3" d="M651.0559,-817.0065C905.9351,-817.0065 999.1129,-914.7516 1224.1118,-795.0065 1309.1635,-749.7418 1364.543,-645.0744 1389.9392,-586.8854"/>
<polygon fill="#000000" stroke="#000000" stroke-width="3" points="1396.3466,-580.673 1396.9945,-570.098 1389.8934,-577.9608 1396.3466,-580.673"/>
<ellipse fill="none" stroke="#000000" stroke-width="3" cx="1391.5702" cy="-583.0045" rx="4" ry="4"/>
</a>
</g>
</g>
<!-- s1_1_1_2 -->
<g id="node12" class="node">
<title>s1_1_1_2</title>
<ellipse fill="none" stroke="#000000" cx="881.6783" cy="-547.0065" rx="60.623" ry="70.922"/>
<text text-anchor="start" x="868.4776" y="-577.8065" font-family="Courier,monospace" font-size="14.00" fill="#000000"> </text>
<path fill="none" stroke="#000000" d="M904.6783,-547.0065C904.6783,-547.0065 910.6783,-547.0065 910.6783,-547.0065 913.6783,-547.0065 916.6783,-550.0065 916.6783,-553.0065 916.6783,-553.0065 916.6783,-587.0065 916.6783,-587.0065 916.6783,-590.0065 913.6783,-593.0065 910.6783,-593.0065 910.6783,-593.0065 904.6783,-593.0065 904.6783,-593.0065 901.6783,-593.0065 898.6783,-590.0065 898.6783,-587.0065 898.6783,-587.0065 898.6783,-553.0065 898.6783,-553.0065 898.6783,-550.0065 901.6783,-547.0065 904.6783,-547.0065"/>
<text text-anchor="start" x="903.4776" y="-572.8065" font-family="Courier,monospace" font-size="14.00" fill="#000000">L</text>
<text text-anchor="start" x="903.4776" y="-558.8065" font-family="Courier,monospace" font-size="14.00" fill="#000000">U</text>
<polygon fill="none" stroke="#000000" points="846.6783,-547.0065 846.6783,-571.0065 872.6783,-571.0065 872.6783,-547.0065 846.6783,-547.0065"/>
<text text-anchor="start" x="851.2769" y="-554.8065" font-family="Courier,monospace" font-size="14.00" fill="#000000"> 2</text>
<polygon fill="none" stroke="#000000" points="872.6783,-547.0065 872.6783,-571.0065 898.6783,-571.0065 898.6783,-547.0065 872.6783,-547.0065"/>
<text text-anchor="start" x="877.2769" y="-554.8065" font-family="Courier,monospace" font-size="14.00" fill="#000000"> 2</text>
<polygon fill="none" stroke="#000000" points="846.6783,-523.0065 846.6783,-547.0065 872.6783,-547.0065 872.6783,-523.0065 846.6783,-523.0065"/>
<text text-anchor="start" x="851.2769" y="-530.8065" font-family="Courier,monospace" font-size="14.00" fill="#000000"> 2</text>
<polygon fill="none" stroke="#000000" points="872.6783,-523.0065 872.6783,-547.0065 898.6783,-547.0065 898.6783,-523.0065 872.6783,-523.0065"/>
<text text-anchor="start" x="877.2769" y="-530.8065" font-family="Courier,monospace" font-size="14.00" fill="#000000"> 4</text>
<path fill="none" stroke="#000000" d="M904.6783,-501.0065C904.6783,-501.0065 910.6783,-501.0065 910.6783,-501.0065 913.6783,-501.0065 916.6783,-504.0065 916.6783,-507.0065 916.6783,-507.0065 916.6783,-541.0065 916.6783,-541.0065 916.6783,-544.0065 913.6783,-547.0065 910.6783,-547.0065 910.6783,-547.0065 904.6783,-547.0065 904.6783,-547.0065 901.6783,-547.0065 898.6783,-544.0065 898.6783,-541.0065 898.6783,-541.0065 898.6783,-507.0065 898.6783,-507.0065 898.6783,-504.0065 901.6783,-501.0065 904.6783,-501.0065"/>
<text text-anchor="start" x="903.4776" y="-526.8065" font-family="Courier,monospace" font-size="14.00" fill="#000000">R</text>
<text text-anchor="start" x="903.4776" y="-512.8065" font-family="Courier,monospace" font-size="14.00" fill="#000000">D</text>
<text text-anchor="start" x="851.6749" y="-507.8065" font-family="Courier,monospace" font-size="14.00" fill="#000000">1.000</text>
</g>
<!-- s0_1_1_2&#45;&gt;s1_1_1_2 -->
<g id="edge20" class="edge">
<title>s0_1_1_2:left_up&#45;&gt;s1_1_1_2</title>
<g id="a_edge20"><a xlink:title="0.900">
<path fill="none" stroke="#000000" stroke-width="2.8" d="M642.0559,-356.0065C642.0559,-383.1787 671.0999,-373.7426 692.8671,-390.0065 738.7795,-424.3112 788.5406,-465.8832 825.4464,-497.6292"/>
<polygon fill="#000000" stroke="#000000" stroke-width="2.8" points="823.2621,-500.3672 833.1206,-504.2481 827.834,-495.0665 823.2621,-500.3672"/>
</a>
</g>
</g>
<!-- s1_1_2_2 -->
<g id="node14" class="node">
<title>s1_1_2_2</title>
<ellipse fill="none" stroke="#000000" cx="1147.3006" cy="-523.0065" rx="60.623" ry="70.922"/>
<text text-anchor="start" x="1134.1" y="-553.8065" font-family="Courier,monospace" font-size="14.00" fill="#000000"> </text>
<path fill="none" stroke="#000000" d="M1170.3006,-523.0065C1170.3006,-523.0065 1176.3006,-523.0065 1176.3006,-523.0065 1179.3006,-523.0065 1182.3006,-526.0065 1182.3006,-529.0065 1182.3006,-529.0065 1182.3006,-563.0065 1182.3006,-563.0065 1182.3006,-566.0065 1179.3006,-569.0065 1176.3006,-569.0065 1176.3006,-569.0065 1170.3006,-569.0065 1170.3006,-569.0065 1167.3006,-569.0065 1164.3006,-566.0065 1164.3006,-563.0065 1164.3006,-563.0065 1164.3006,-529.0065 1164.3006,-529.0065 1164.3006,-526.0065 1167.3006,-523.0065 1170.3006,-523.0065"/>
<text text-anchor="start" x="1169.1" y="-548.8065" font-family="Courier,monospace" font-size="14.00" fill="#000000">L</text>
<text text-anchor="start" x="1169.1" y="-534.8065" font-family="Courier,monospace" font-size="14.00" fill="#000000">R</text>
<polygon fill="none" stroke="#000000" points="1112.3006,-523.0065 1112.3006,-547.0065 1138.3006,-547.0065 1138.3006,-523.0065 1112.3006,-523.0065"/>
<text text-anchor="start" x="1116.8993" y="-530.8065" font-family="Courier,monospace" font-size="14.00" fill="#000000"> 2</text>
<polygon fill="none" stroke="#000000" points="1138.3006,-523.0065 1138.3006,-547.0065 1164.3006,-547.0065 1164.3006,-523.0065 1138.3006,-523.0065"/>
<text text-anchor="start" x="1142.8993" y="-530.8065" font-family="Courier,monospace" font-size="14.00" fill="#000000"> 2</text>
<polygon fill="none" stroke="#000000" points="1112.3006,-499.0065 1112.3006,-523.0065 1138.3006,-523.0065 1138.3006,-499.0065 1112.3006,-499.0065"/>
<text text-anchor="start" x="1116.8993" y="-506.8065" font-family="Courier,monospace" font-size="14.00" fill="#000000"> 4</text>
<polygon fill="none" stroke="#000000" points="1138.3006,-499.0065 1138.3006,-523.0065 1164.3006,-523.0065 1164.3006,-499.0065 1138.3006,-499.0065"/>
<text text-anchor="start" x="1142.8993" y="-506.8065" font-family="Courier,monospace" font-size="14.00" fill="#000000"> 4</text>
<path fill="none" stroke="#000000" d="M1170.3006,-477.0065C1170.3006,-477.0065 1176.3006,-477.0065 1176.3006,-477.0065 1179.3006,-477.0065 1182.3006,-480.0065 1182.3006,-483.0065 1182.3006,-483.0065 1182.3006,-517.0065 1182.3006,-517.0065 1182.3006,-520.0065 1179.3006,-523.0065 1176.3006,-523.0065 1176.3006,-523.0065 1170.3006,-523.0065 1170.3006,-523.0065 1167.3006,-523.0065 1164.3006,-520.0065 1164.3006,-517.0065 1164.3006,-517.0065 1164.3006,-483.0065 1164.3006,-483.0065 1164.3006,-480.0065 1167.3006,-477.0065 1170.3006,-477.0065"/>
<text text-anchor="start" x="1169.1" y="-502.8065" font-family="Courier,monospace" font-size="14.00" fill="#c0c0c0">U</text>
<text text-anchor="start" x="1169.1" y="-488.8065" font-family="Courier,monospace" font-size="14.00" fill="#c0c0c0">D</text>
<text text-anchor="start" x="1117.2972" y="-483.8065" font-family="Courier,monospace" font-size="14.00" fill="#000000">1.000</text>
</g>
<!-- s0_1_1_2&#45;&gt;s1_1_2_2 -->
<g id="edge21" class="edge">
<title>s0_1_1_2:left_up&#45;&gt;s1_1_2_2</title>
<g id="a_edge21"><a xlink:title="0.100">
<path fill="none" stroke="#000000" stroke-width="1.2" d="M642.0559,-356.0065C642.0559,-383.1787 675.6309,-369.0008 692.8671,-390.0065 775.2764,-490.4383 696.8285,-587.8575 804.8671,-660.0065 897.4156,-721.8111 1022.1348,-636.5494 1092.6848,-575.4247"/>
<polygon fill="#000000" stroke="#000000" stroke-width="1.2" points="1095.3928,-577.7044 1100.5954,-568.4748 1090.7727,-572.4456 1095.3928,-577.7044"/>
</a>
</g>
</g>
<!-- s0_1_2_1&#45;&gt;s0_1_2_2 -->
<g id="edge22" class="edge">
<title>s0_1_2_1:up_down&#45;&gt;s0_1_2_2</title>
<g id="a_edge22"><a xlink:title="0.900">
<path fill="none" stroke="#000000" stroke-width="2.8" d="M651.0559,-447.0065C707.5072,-447.0065 769.2243,-429.7135 814.5963,-413.5424"/>
<polygon fill="#000000" stroke="#000000" stroke-width="2.8" points="815.8202,-416.8217 824.0223,-410.1154 813.4283,-410.243 815.8202,-416.8217"/>
</a>
</g>
</g>
<!-- s0_2_2_2 -->
<g id="node13" class="node">
<title>s0_2_2_2</title>
<ellipse fill="none" stroke="#000000" cx="1147.3006" cy="-682.0065" rx="60.623" ry="70.922"/>
<text text-anchor="start" x="1134.1" y="-712.8065" font-family="Courier,monospace" font-size="14.00" fill="#000000"> </text>
<path fill="none" stroke="#000000" d="M1170.3006,-636.0065C1170.3006,-636.0065 1176.3006,-636.0065 1176.3006,-636.0065 1179.3006,-636.0065 1182.3006,-639.0065 1182.3006,-642.0065 1182.3006,-642.0065 1182.3006,-722.0065 1182.3006,-722.0065 1182.3006,-725.0065 1179.3006,-728.0065 1176.3006,-728.0065 1176.3006,-728.0065 1170.3006,-728.0065 1170.3006,-728.0065 1167.3006,-728.0065 1164.3006,-725.0065 1164.3006,-722.0065 1164.3006,-722.0065 1164.3006,-642.0065 1164.3006,-642.0065 1164.3006,-639.0065 1167.3006,-636.0065 1170.3006,-636.0065"/>
<text text-anchor="start" x="1169.1" y="-698.8065" font-family="Courier,monospace" font-size="14.00" fill="#000000">L</text>
<text text-anchor="start" x="1169.1" y="-684.8065" font-family="Courier,monospace" font-size="14.00" fill="#000000">R</text>
<text text-anchor="start" x="1169.1" y="-670.8065" font-family="Courier,monospace" font-size="14.00" fill="#000000">U</text>
<text text-anchor="start" x="1169.1" y="-656.8065" font-family="Courier,monospace" font-size="14.00" fill="#000000">D</text>
<polygon fill="none" stroke="#000000" points="1112.3006,-682.0065 1112.3006,-706.0065 1138.3006,-706.0065 1138.3006,-682.0065 1112.3006,-682.0065"/>
<text text-anchor="start" x="1116.8993" y="-689.8065" font-family="Courier,monospace" font-size="14.00" fill="#000000">  </text>
<polygon fill="none" stroke="#000000" points="1138.3006,-682.0065 1138.3006,-706.0065 1164.3006,-706.0065 1164.3006,-682.0065 1138.3006,-682.0065"/>
<text text-anchor="start" x="1142.8993" y="-689.8065" font-family="Courier,monospace" font-size="14.00" fill="#000000"> 4</text>
<polygon fill="none" stroke="#000000" points="1112.3006,-658.0065 1112.3006,-682.0065 1138.3006,-682.0065 1138.3006,-658.0065 1112.3006,-658.0065"/>
<text text-anchor="start" x="1116.8993" y="-665.8065" font-family="Courier,monospace" font-size="14.00" fill="#000000"> 4</text>
<polygon fill="none" stroke="#000000" points="1138.3006,-658.0065 1138.3006,-682.0065 1164.3006,-682.0065 1164.3006,-658.0065 1138.3006,-658.0065"/>
<text text-anchor="start" x="1142.8993" y="-665.8065" font-family="Courier,monospace" font-size="14.00" fill="#000000"> 4</text>
<text text-anchor="start" x="1117.2972" y="-642.8065" font-family="Courier,monospace" font-size="14.00" fill="#000000">1.000</text>
</g>
<!-- s0_1_2_1&#45;&gt;s0_2_2_2 -->
<g id="edge23" class="edge">
<title>s0_1_2_1:up_down&#45;&gt;s0_2_2_2</title>
<g id="a_edge23"><a xlink:title="0.100">
<path fill="none" stroke="#000000" stroke-width="1.2" d="M651.0559,-447.0065C781.1339,-447.0065 691.2615,-632.6501 804.8671,-696.0065 889.8599,-743.406 1006.0266,-724.5243 1078.8406,-704.707"/>
<polygon fill="#000000" stroke="#000000" stroke-width="1.2" points="1080.1345,-707.9793 1088.8195,-701.9113 1078.246,-701.2388 1080.1345,-707.9793"/>
</a>
</g>
</g>
<!-- s0_2_2_0&#45;&gt;s0_1_2_2 -->
<g id="edge24" class="edge">
<title>s0_2_2_0:left_right_up_down&#45;&gt;s0_1_2_2</title>
<g id="a_edge24"><a xlink:title="0.900">
<path fill="none" stroke="#000000" stroke-width="2.8" d="M642.0559,-586.0065C642.0559,-558.8344 671.3258,-568.5685 692.8671,-552.0065 739.5469,-516.1169 789.4613,-471.955 826.2385,-438.2058"/>
<polygon fill="#000000" stroke="#000000" stroke-width="2.8" points="828.8952,-440.5173 833.881,-431.1688 824.1537,-435.3677 828.8952,-440.5173"/>
</a>
</g>
</g>
<!-- s0_2_2_0&#45;&gt;s0_2_2_2 -->
<g id="edge25" class="edge">
<title>s0_2_2_0:left_right_up_down&#45;&gt;s0_2_2_2</title>
<g id="a_edge25"><a xlink:title="0.100">
<path fill="none" stroke="#000000" stroke-width="1.2" d="M642.0559,-678.0065C642.0559,-697.1368 785.9986,-730.8523 804.8671,-734.0065 872.2092,-745.2643 890.8283,-743.1534 958.4895,-734.0065 999.297,-728.4899 1043.7527,-716.5543 1079.2711,-705.5081"/>
<polygon fill="#000000" stroke="#000000" stroke-width="1.2" points="1080.5601,-708.7715 1089.0416,-702.4222 1078.4518,-702.0965 1080.5601,-708.7715"/>
</a>
</g>
</g>
<!-- s0_1_2_2&#45;&gt;s0_0_0_3 -->
<g id="edge26" class="edge">
<title>s0_1_2_2:left_right&#45;&gt;s0_0_0_3</title>
<g id="a_edge26"><a xlink:title="1.000">
<path fill="none" stroke="#000000" stroke-width="3" d="M916.6783,-410.0065C1053.6648,-410.0065 1093.8906,-389.4889 1224.1118,-432.0065 1278.745,-449.8444 1333.5652,-487.5479 1368.5294,-514.7173"/>
<polygon fill="#000000" stroke="#000000" stroke-width="3" points="1372.6794,-522.4966 1382.6823,-525.9884 1377.0402,-517.0208 1372.6794,-522.4966"/>
<ellipse fill="none" stroke="#000000" stroke-width="3" cx="1371.7308" cy="-517.2668" rx="4" ry="4"/>
</a>
</g>
</g>
<!-- s0_2_2_1&#45;&gt;s1_1_2_2 -->
<g id="edge27" class="edge">
<title>s0_2_2_1:left_up&#45;&gt;s1_1_2_2</title>
<g id="a_edge27"><a xlink:title="0.900">
<path fill="none" stroke="#000000" stroke-width="2.8" d="M907.6783,-271.0065C907.6783,-298.1787 938.1218,-287.0209 958.4895,-305.0065 1012.3051,-352.5284 1065.0708,-415.2084 1101.079,-461.1566"/>
<polygon fill="#000000" stroke="#000000" stroke-width="2.8" points="1098.4736,-463.5074 1107.3803,-469.2451 1103.9957,-459.2054 1098.4736,-463.5074"/>
</a>
</g>
</g>
<!-- s1_2_2_2 -->
<g id="node15" class="node">
<title>s1_2_2_2</title>
<ellipse fill="none" stroke="#000000" cx="1147.3006" cy="-275.0065" rx="60.623" ry="70.922"/>
<text text-anchor="start" x="1134.1" y="-305.8065" font-family="Courier,monospace" font-size="14.00" fill="#000000"> </text>
<path fill="none" stroke="#000000" d="M1170.3006,-275.0065C1170.3006,-275.0065 1176.3006,-275.0065 1176.3006,-275.0065 1179.3006,-275.0065 1182.3006,-278.0065 1182.3006,-281.0065 1182.3006,-281.0065 1182.3006,-315.0065 1182.3006,-315.0065 1182.3006,-318.0065 1179.3006,-321.0065 1176.3006,-321.0065 1176.3006,-321.0065 1170.3006,-321.0065 1170.3006,-321.0065 1167.3006,-321.0065 1164.3006,-318.0065 1164.3006,-315.0065 1164.3006,-315.0065 1164.3006,-281.0065 1164.3006,-281.0065 1164.3006,-278.0065 1167.3006,-275.0065 1170.3006,-275.0065"/>
<text text-anchor="start" x="1169.1" y="-300.8065" font-family="Courier,monospace" font-size="14.00" fill="#000000">L</text>
<text text-anchor="start" x="1169.1" y="-286.8065" font-family="Courier,monospace" font-size="14.00" fill="#000000">U</text>
<polygon fill="none" stroke="#000000" points="1112.3006,-275.0065 1112.3006,-299.0065 1138.3006,-299.0065 1138.3006,-275.0065 1112.3006,-275.0065"/>
<text text-anchor="start" x="1116.8993" y="-282.8065" font-family="Courier,monospace" font-size="14.00" fill="#000000"> 2</text>
<polygon fill="none" stroke="#000000" points="1138.3006,-275.0065 1138.3006,-299.0065 1164.3006,-299.0065 1164.3006,-275.0065 1138.3006,-275.0065"/>
<text text-anchor="start" x="1142.8993" y="-282.8065" font-family="Courier,monospace" font-size="14.00" fill="#000000"> 4</text>
<polygon fill="none" stroke="#000000" points="1112.3006,-251.0065 1112.3006,-275.0065 1138.3006,-275.0065 1138.3006,-251.0065 1112.3006,-251.0065"/>
<text text-anchor="start" x="1116.8993" y="-258.8065" font-family="Courier,monospace" font-size="14.00" fill="#000000"> 4</text>
<polygon fill="none" stroke="#000000" points="1138.3006,-251.0065 1138.3006,-275.0065 1164.3006,-275.0065 1164.3006,-251.0065 1138.3006,-251.0065"/>
<text text-anchor="start" x="1142.8993" y="-258.8065" font-family="Courier,monospace" font-size="14.00" fill="#000000"> 4</text>
<path fill="none" stroke="#000000" d="M1170.3006,-229.0065C1170.3006,-229.0065 1176.3006,-229.0065 1176.3006,-229.0065 1179.3006,-229.0065 1182.3006,-232.0065 1182.3006,-235.0065 1182.3006,-235.0065 1182.3006,-269.0065 1182.3006,-269.0065 1182.3006,-272.0065 1179.3006,-275.0065 1176.3006,-275.0065 1176.3006,-275.0065 1170.3006,-275.0065 1170.3006,-275.0065 1167.3006,-275.0065 1164.3006,-272.0065 1164.3006,-269.0065 1164.3006,-269.0065 1164.3006,-235.0065 1164.3006,-235.0065 1164.3006,-232.0065 1167.3006,-229.0065 1170.3006,-229.0065"/>
<text text-anchor="start" x="1169.1" y="-254.8065" font-family="Courier,monospace" font-size="14.00" fill="#000000">R</text>
<text text-anchor="start" x="1169.1" y="-240.8065" font-family="Courier,monospace" font-size="14.00" fill="#000000">D</text>
<text text-anchor="start" x="1117.2972" y="-235.8065" font-family="Courier,monospace" font-size="14.00" fill="#000000">1.000</text>
</g>
<!-- s0_2_2_1&#45;&gt;s1_2_2_2 -->
<g id="edge28" class="edge">
<title>s0_2_2_1:left_up&#45;&gt;s1_2_2_2</title>
<g id="a_edge28"><a xlink:title="0.100">
<path fill="none" stroke="#000000" stroke-width="1.2" d="M916.6783,-248.0065C970.6461,-248.0065 1031.2387,-255.3904 1076.7683,-262.4353"/>
<polygon fill="#000000" stroke="#000000" stroke-width="1.2" points="1076.4071,-265.9216 1086.8307,-264.0246 1077.4992,-259.0073 1076.4071,-265.9216"/>
</a>
</g>
</g>
<!-- s1_1_1_2&#45;&gt;s1_1_2_2 -->
<g id="edge29" class="edge">
<title>s1_1_1_2:right_down&#45;&gt;s1_1_2_2</title>
<g id="a_edge29"><a xlink:title="0.900">
<path fill="none" stroke="#000000" stroke-width="2.8" d="M916.6783,-524.0065C970.0944,-524.0065 1030.4691,-523.735 1076.0429,-523.4749"/>
<polygon fill="#000000" stroke="#000000" stroke-width="2.8" points="1076.1404,-526.9744 1086.1198,-523.4162 1076.0995,-519.9746 1076.1404,-526.9744"/>
</a>
</g>
</g>
<!-- s1_1_1_2&#45;&gt;s1_2_2_2 -->
<g id="edge30" class="edge">
<title>s1_1_1_2:right_down&#45;&gt;s1_2_2_2</title>
<g id="a_edge30"><a xlink:title="0.100">
<path fill="none" stroke="#000000" stroke-width="1.2" d="M907.6783,-501.0065C907.6783,-473.8344 937.5632,-484.3391 958.4895,-467.0065 1008.6142,-425.4896 1060.0607,-372.3457 1096.5672,-332.4991"/>
<polygon fill="#000000" stroke="#000000" stroke-width="1.2" points="1099.5136,-334.4623 1103.6645,-324.7145 1094.3407,-329.7462 1099.5136,-334.4623"/>
</a>
</g>
</g>
<!-- s0_2_2_2&#45;&gt;s0_0_0_3 -->
<g id="edge31" class="edge">
<title>s0_2_2_2:left_right_up_down&#45;&gt;s0_0_0_3</title>
<g id="a_edge31"><a xlink:title="1.000">
<path fill="none" stroke="#000000" stroke-width="3" d="M1173.3006,-636.0065C1173.3006,-617.5634 1276.2799,-583.8354 1345.2412,-563.3167"/>
<polygon fill="#000000" stroke="#000000" stroke-width="3" points="1354.2083,-564.33 1362.816,-558.1528 1352.2349,-557.6139 1354.2083,-564.33"/>
<ellipse fill="none" stroke="#000000" stroke-width="3" cx="1349.3839" cy="-562.0996" rx="4" ry="4"/>
</a>
</g>
</g>
<!-- s1_1_2_2&#45;&gt;s0_0_0_3 -->
<g id="edge32" class="edge">
<title>s1_1_2_2:left_right&#45;&gt;s0_0_0_3</title>
<g id="a_edge32"><a xlink:title="1.000">
<path fill="none" stroke="#000000" stroke-width="3" d="M1182.3006,-546.0065C1239.573,-546.0065 1305.0915,-546.0065 1350.3609,-546.0065"/>
<polygon fill="#000000" stroke="#000000" stroke-width="3" points="1358.4393,-549.5066 1368.4393,-546.0065 1358.4393,-542.5066 1358.4393,-549.5066"/>
<ellipse fill="none" stroke="#000000" stroke-width="3" cx="1354.4393" cy="-546.0066" rx="4" ry="4"/>
</a>
</g>
</g>
<!-- s1_2_2_2&#45;&gt;s0_0_0_3 -->
<g id="edge33" class="edge">
<title>s1_2_2_2:left_up&#45;&gt;s0_0_0_3</title>
<g id="a_edge33"><a xlink:title="1.000">
<path fill="none" stroke="#000000" stroke-width="3" d="M1173.3006,-321.0065C1173.3006,-347.8589 1303.015,-460.0149 1368.7707,-515.1448"/>
<polygon fill="#000000" stroke="#000000" stroke-width="3" points="1372.9611,-523.2015 1382.881,-526.9225 1377.4467,-517.8275 1372.9611,-523.2015"/>
<ellipse fill="none" stroke="#000000" stroke-width="3" cx="1372.1331" cy="-517.9513" rx="4" ry="4"/>
</a>
</g>
</g>
<!-- s0_0_0_0 -->
<g id="node16" class="node">
<title>s0_0_0_0</title>
<ellipse fill="#ff0000" stroke="#000000" cx="84.8112" cy="-491.0065" rx="31.1701" ry="18"/>
<text text-anchor="middle" x="84.8112" y="-486.8065" font-family="Courier,monospace" font-size="14.00" fill="#000000">lose</text>
</g>
</g>
</svg>
